<svg width="633" height="402" viewBox="0 0 633 402" fill="none" xmlns="http://www.w3.org/2000/svg">
<path d="M632.267 207.744C632.267 93.0101 506.607 0 351.598 0C196.589 0 -22.5221 116.539 2.07486 347.928C17.2461 490.647 160.411 305.704 315.42 305.704C470.43 305.704 632.267 322.478 632.267 207.744Z" fill="#EEF1FE"/>
<path d="M481.199 292.719C485.723 299.787 489.091 307.402 491.732 315.339C495.872 327.782 498.117 340.55 497.902 353.701C497.902 354.792 498.192 355.018 499.217 355.011C505.24 354.963 511.266 354.98 517.289 355.011C517.931 355.011 518.942 354.669 518.72 356H86.0032C85.846 354.532 86.97 355.018 87.6225 355.018C95.8216 354.987 104.021 354.998 112.22 354.998H127.757C130.039 354.998 130.039 354.998 130.039 352.627C130.039 307.419 130.048 262.212 130.066 217.005C130.066 216.248 129.551 214.859 130.575 214.835C131.682 214.815 131.132 216.204 131.132 216.929C131.166 262.317 131.166 307.695 131.132 353.065C131.132 354.58 131.447 355.046 133.049 355.039C148.135 354.97 163.219 354.97 178.301 355.039C179.753 355.039 180.04 354.649 180.04 353.26C180.001 287.071 179.99 220.883 180.006 154.695C180.006 152.012 179.777 151.79 177.078 151.79C162.73 151.79 148.381 151.79 134.033 151.79C131.553 151.79 131.156 152.177 131.153 154.643V199.953C131.153 200.412 131.153 200.867 131.153 201.322C131.153 201.664 131.125 202.051 130.675 202.092C130.118 202.14 130.046 201.732 130.039 201.308C130.039 200.966 130.039 200.624 130.039 200.282V154.438C130.039 151.407 130.852 150.586 133.889 150.586H177.276C180.416 150.586 181.294 151.482 181.294 154.671C181.294 220.743 181.281 286.816 181.256 352.89C181.256 354.549 181.546 355.189 183.34 355.028C185.442 354.89 187.551 354.883 189.653 355.008C190.651 355.042 190.986 354.7 190.856 353.749C190.83 353.35 190.83 352.95 190.856 352.551V36.5033C190.856 31.8916 192.356 30.4034 197.005 30.4034C209.532 30.4034 222.058 30.4034 234.584 30.4034C235.474 30.4438 236.362 30.2969 237.191 29.9723C237.871 29.6777 238.604 29.5258 239.345 29.5258C240.086 29.5258 240.819 29.6777 241.499 29.9723C245.035 31.375 248.523 32.9316 252.134 34.1051C255.636 35.2444 259.089 34.3548 262.383 32.9385C263.384 32.504 263.353 31.4742 263.309 30.5437C263.22 28.5525 262.137 27.0062 260.951 25.5419C260.36 24.8098 259.554 25.0321 258.768 25.3264C255.42 26.5831 252.067 27.8272 248.707 29.0589C245.475 30.2529 243.415 29.6576 241.496 26.8454C241.075 26.2296 240.723 26.1338 240.112 26.3767C239.5 26.6196 238.933 26.7975 238.342 27.0062C234.065 28.5012 230.369 25.5248 231.025 21.0773C231.137 20.3212 230.932 20.1364 230.321 19.873C227.612 18.7098 226.221 16.5476 226.392 13.9099C226.563 11.2722 228.261 9.2879 231.107 8.52156C235.438 7.34467 239.794 6.267 244.136 5.17223C245.137 4.9326 246.181 4.94317 247.177 5.20302C255.125 7.12572 263.076 9.04157 271.029 10.9506C273.045 11.433 274.401 12.6612 275.44 14.4231C284.216 29.3155 292.549 44.461 300.813 59.6442C312.234 80.6274 323.683 101.59 335.16 122.532C335.402 122.974 335.679 123.391 336.092 124.068C336.328 123.48 336.499 123.11 336.629 122.727C337.37 120.551 338.272 118.317 339.946 116.829C342.307 114.735 342.085 112.59 341.367 109.922C339.587 103.278 338.812 96.5039 339.69 89.6137C341.012 79.203 347.616 72.258 358.029 70.3593C365.602 68.9908 373.101 69.6101 380.528 71.3856C381.054 71.539 381.608 71.5656 382.146 71.4633C382.684 71.3611 383.19 71.1328 383.623 70.7972C390.603 65.9733 398.211 63.1577 406.83 63.842C414.144 64.4407 420.577 67.3418 426.245 71.8612C434.102 78.1185 440.593 85.5014 444.01 95.156C445.957 100.65 446.876 106.395 447.61 112.159C448.707 120.697 449.23 129.299 449.175 137.907C449.175 139.737 449.66 140.822 450.941 142.115C456.407 147.647 458.32 154.585 457.753 162.163C457.07 171.127 453.442 178.732 446.411 184.497C445.386 185.345 446.141 185.865 446.411 186.467C450.671 195.704 450.313 204.675 444.584 213.217C442.462 216.382 439.459 218.527 435.906 219.851C430.584 214.613 425.534 209.088 419.58 203.942C419.686 205.916 419.733 207.497 419.86 209.074C419.962 210.313 419.648 211.202 418.517 211.931C413.584 215.143 408.371 217.795 402.614 219.163C395.242 220.929 387.972 220.802 380.894 217.74C379.821 217.275 379.285 216.686 379.452 215.424C379.602 214.061 379.662 212.689 379.633 211.319C379.633 203.34 379.319 195.372 379.087 187.401C379.039 185.735 378.687 185.153 376.904 185.28C370.071 185.756 364.147 183.617 359.139 178.927C354.503 174.582 351.538 169.194 349.337 163.316C347.629 158.766 346.714 154.021 345.856 149.262C346.051 148.362 345.299 148.263 344.77 148.01C343.218 147.289 341.813 146.287 340.626 145.054C335.843 139.99 334.535 133.897 335.484 127.185C335.64 126.418 335.519 125.62 335.143 124.934C329.233 114.167 323.408 103.353 317.47 92.6003C303.2 66.7773 289.505 40.6293 274.541 15.1928C274.094 14.3712 273.473 13.6567 272.723 13.0985C271.973 12.5404 271.11 12.1519 270.196 11.9598C263.616 10.4203 257.036 8.88078 250.494 7.17019C247.419 6.36964 244.451 6.04805 241.318 7.06071C237.922 8.16233 234.39 8.84315 230.949 9.8216C230.359 9.99225 229.807 10.2788 229.328 10.6645C228.849 11.0502 228.45 11.5275 228.157 12.0686C227.863 12.6097 227.68 13.2039 227.617 13.8165C227.555 14.4292 227.614 15.0482 227.793 15.6376C228.384 17.7553 230.85 19.5719 233.378 18.7474C237.208 17.5021 241.14 16.5682 245.025 15.4905C245.787 15.2543 246.59 15.1758 247.384 15.2599C248.178 15.344 248.947 15.5889 249.643 15.9797C253.166 17.9572 256.613 20.068 259.759 22.6134C262.106 24.5121 263.886 26.8693 264.463 29.9244C264.74 31.3716 264.699 33.0035 263.261 33.739C259.711 35.6002 255.854 36.517 251.953 35.3094C248.147 34.1325 244.546 32.3671 240.809 31.026C240.247 30.8127 239.649 30.7122 239.049 30.7303C238.449 30.7484 237.858 30.8848 237.311 31.1317C236.763 31.3785 236.269 31.731 235.858 32.169C235.446 32.607 235.125 33.1219 234.912 33.6843C233.973 36.0278 234.858 38.8742 237.259 39.7227C245.721 42.6991 253.541 47.7282 262.881 47.8959C263.667 47.8959 264.067 48.2619 264.286 49.0659C264.873 51.2041 265.543 53.3184 266.226 55.4259C276.917 88.6292 290.844 120.699 307.806 151.171C311.625 158.013 315.54 164.821 319.944 171.318C319.879 171.794 319.646 172.231 319.288 172.55C315.465 166.895 312.028 161.003 308.656 155.074C289.929 122.09 274.83 87.1671 263.626 50.9202C263.175 49.473 262.506 48.888 261.078 48.8983C257.19 48.9291 253.616 47.718 250.101 46.1613C247.518 45.0187 244.85 44.0812 242.073 42.9933V44.8407C242.073 50.9989 242.073 57.157 242.073 63.3151C242.073 63.9549 242.343 64.7315 241.468 65.0907C240.631 64.6254 240.85 63.8146 240.85 63.103C240.836 57.401 240.836 51.6991 240.85 45.9971C240.85 42.5212 240.85 42.4938 237.639 41.2075C235.336 40.3008 233.881 38.7476 233.419 36.2741C233.098 34.6046 233.905 33.2156 234.472 31.6521C221.302 31.6521 208.272 31.6521 195.242 31.6726C193.49 31.6726 192.287 32.9487 192.127 34.6833C192.069 35.3059 192.093 35.9354 192.093 36.5649V352.623C192.113 352.908 192.113 353.194 192.093 353.479C191.922 354.669 192.407 355.015 193.599 355.011C208.859 354.977 224.118 354.977 239.377 355.011C240.577 355.011 241.045 354.669 240.884 353.475C240.855 353.02 240.855 352.562 240.884 352.107V81.9023C240.884 81.3892 240.884 80.876 240.884 80.3628C240.884 79.8496 240.973 79.3364 241.523 79.073C242.548 79.6307 242.104 80.5989 242.104 81.3823C242.124 171.742 242.124 262.104 242.104 352.466C242.131 352.865 242.131 353.265 242.104 353.663C241.96 354.69 242.278 355.073 243.381 355.032C245.311 354.936 247.252 355.004 249.189 355.004C251.72 355.004 251.72 355.004 251.72 352.555V219.649C251.72 216.495 252.745 215.462 255.922 215.462C270.323 215.462 284.724 215.462 299.125 215.462C301.923 215.462 302.968 216.488 302.972 219.252C302.972 226.722 302.972 234.19 302.972 241.658C302.972 242 302.972 242.342 302.944 242.684C302.946 242.756 302.933 242.827 302.907 242.894C302.88 242.96 302.84 243.021 302.789 243.072C302.738 243.122 302.678 243.162 302.611 243.188C302.544 243.214 302.473 243.227 302.401 243.224C302.329 243.224 302.258 243.208 302.193 243.18C302.127 243.151 302.067 243.11 302.018 243.058C301.968 243.006 301.929 242.944 301.904 242.877C301.878 242.81 301.866 242.739 301.868 242.667C301.848 242.212 301.841 241.757 301.841 241.298C301.841 234.055 301.841 226.814 301.841 219.577C301.841 217.162 301.376 216.707 298.93 216.707H255.885C253.312 216.707 252.971 217.049 252.971 219.711C252.971 264.234 252.958 308.759 252.933 353.287C252.933 354.748 253.336 355.025 254.717 355.022C269.801 354.967 284.883 354.967 299.965 355.022C301.609 355.022 301.861 354.502 301.858 353.03C301.817 323.38 301.817 293.73 301.858 264.08C301.858 263.368 301.4 262.027 302.357 262.048C303.498 262.065 302.941 263.416 302.941 264.148C302.975 293.798 302.975 323.449 302.941 353.099C302.941 354.724 303.423 355.042 304.915 355.011C309.64 354.919 314.365 354.984 319.09 354.977C328.022 354.961 336.957 354.939 345.894 354.912C346.29 354.933 346.686 354.97 347.083 354.974H430.467C430.864 354.974 431.26 354.933 431.656 354.912C435.865 354.933 440.074 354.967 444.297 354.974C449.53 354.974 454.768 354.943 460.012 355.004C461.204 355.004 461.426 354.707 461.108 353.595C460.671 352.066 460.425 350.482 460.039 348.942C458.375 342.637 457.822 336.037 454.986 330.047C454.279 328.559 453.678 327.019 453.032 325.504C453.271 325.209 453.507 324.908 453.934 324.888C455.567 328.562 457.528 332.096 458.375 336.099C459.605 341.884 460.999 347.632 462.229 353.417C462.495 354.666 462.984 355.015 464.241 355.008C474.49 354.953 484.739 354.933 494.987 355.008C496.644 355.008 496.918 354.467 496.907 353.003C496.816 338.22 493.978 323.584 488.538 309.842C486.351 304.286 483.85 298.873 480.554 293.865C480.614 293.414 480.845 293.003 481.199 292.719ZM364.168 142.871L363.775 142.751C363.238 143.323 362.723 143.915 362.155 144.462C358.397 148.068 353.99 150.062 348.702 149.197C347.151 148.944 347.134 149.416 347.336 150.596C348.313 156.457 349.806 162.163 352.419 167.524C354.974 172.765 358.322 177.367 363.242 180.668C368.472 184.178 374.293 184.5 380.296 183.935C391.395 182.909 400.572 178.338 407.162 169.118C412.433 161.746 414.749 153.309 415.904 144.462C416.044 143.374 415.344 143.391 414.688 143.309C409.953 142.717 405.201 142.201 400.476 141.52C398.99 141.304 398.313 141.619 397.804 143.114C396.604 146.577 394.464 149.637 391.624 151.951C383.948 158.39 373.692 156.713 368.438 148.188C367.229 146.22 366.515 144.058 365.705 141.865C365.151 145.129 364.752 148.365 364.366 151.629C364.058 154.25 364.065 154.253 366.61 154.647C367.003 154.708 367.396 154.787 367.792 154.821C368.189 154.855 368.636 154.999 368.602 155.488C368.568 155.978 368.107 156.029 367.69 155.978C366.504 155.837 365.322 155.608 364.133 155.567C362.945 155.526 362.736 155.139 362.89 153.997C363.389 150.295 363.751 146.58 364.168 142.871ZM415.832 151.968C415.675 152.563 415.607 152.816 415.542 153.073C413.779 160.175 410.926 166.758 406.14 172.372C399.69 179.933 391.358 183.891 381.58 184.962C380.593 185.068 380.087 185.194 380.152 186.44C380.661 195.947 380.914 205.461 380.709 214.979C380.689 215.978 380.962 216.474 381.915 216.864C386.36 218.663 391.164 219.395 395.942 218.999C403.926 218.431 410.995 215.376 417.632 211.086C418.442 210.559 418.613 209.991 418.575 209.129C418.459 206.567 418.394 203.997 418.336 201.438C418.012 187.069 417.458 172.731 416.512 158.403C416.375 156.374 416.406 154.311 415.832 151.968ZM397.114 135.437C397.114 131.55 397.114 131.537 394.928 129.854C390.9 126.774 387.019 123.5 383.569 119.795C382.069 118.184 380.716 118.085 378.964 118.916C378.762 119.015 378.547 119.09 378.342 119.186C368.301 123.719 364.502 138.601 371.031 147.798C375.417 153.956 382.848 155.293 389.018 150.894C394.661 146.87 396.844 141.075 397.114 135.437ZM346.645 138.3C346.645 140.408 346.669 142.512 346.645 144.619C346.625 145.885 347.049 146.521 348.425 146.771C351.408 147.347 354.499 146.82 357.123 145.286C366.463 139.98 369.357 125.741 362.774 117.233C359.897 113.521 356.119 111.701 351.309 112.31C350.198 112.45 349.84 112.967 349.57 113.986C347.518 121.924 346.535 130.101 346.645 138.3ZM379.637 116.087C379.585 115.949 379.517 115.818 379.435 115.697C373.252 109.103 367.481 102.133 362.155 94.8275C361.431 93.8286 361.008 94.3896 360.447 94.8652C356.027 98.6114 353.304 103.473 351.254 108.796C350.813 109.939 351.315 109.84 352.139 109.823C358.374 109.648 362.869 112.559 366.006 117.794C367.321 119.99 367.953 122.443 368.523 124.978C373.525 118.82 374.328 118.177 379.637 116.087ZM253.459 19.6096C251.837 18.6517 250.487 17.834 249.117 17.054C248.578 16.7342 247.979 16.5291 247.357 16.4514C246.735 16.3737 246.104 16.4251 245.503 16.6024C241.465 17.7154 237.426 18.817 233.385 19.9072C233.081 19.9613 232.8 20.1089 232.583 20.3296C232.366 20.5502 232.222 20.833 232.172 21.1388C231.489 24.17 234.25 26.9548 237.232 26.1064C238.93 25.6582 240.577 25.0321 242.145 24.2384C245.65 22.3602 249.233 20.6838 253.459 19.6233V19.6096ZM425.732 149.029C425.732 145.625 423.683 143.066 420.448 142.443C419.638 142.286 417.219 143.61 417.069 144.38C416.864 145.44 416.553 146.549 416.686 147.585C417.154 151.198 417.455 154.825 417.687 158.458C417.752 159.484 418.169 159.532 418.992 159.173C422.726 157.524 425.753 152.998 425.732 149.029ZM343.079 116.747C340.491 119.474 338.727 122.878 337.989 126.566C337.828 127.315 338.088 127.873 338.422 128.482C339.929 131.219 341.405 133.956 342.901 136.692C343.584 137.938 344.292 139.166 344.989 140.401C345.211 136.015 345.487 131.766 345.89 127.524C345.962 126.792 346.263 125.988 346.061 125.344C345.163 122.508 344.117 119.703 343.079 116.747ZM259.421 23.845C258.577 23.2121 257.931 22.846 257.426 22.3363C255.718 20.6257 253.818 20.6257 251.656 21.3544C249.08 22.23 246.573 23.2981 244.157 24.5498C243.508 24.8919 242.391 24.9603 242.421 25.8874C242.452 26.8146 243.316 27.4201 244.106 27.9025C244.509 28.1775 244.968 28.3589 245.451 28.4335C245.933 28.5081 246.426 28.4739 246.893 28.3336C250.996 26.9172 255.068 25.4119 259.421 23.845ZM399.526 133.254C399.582 134.795 399.474 136.337 399.205 137.856C399.024 138.718 399.297 139.033 400.209 139.135C405.17 139.706 410.117 140.353 415.07 140.972C415.538 141.031 416.136 141.362 416.211 140.49C416.273 139.782 415.726 139.867 415.296 139.806C412.049 139.264 408.902 138.234 405.962 136.751C403.848 135.687 401.801 134.496 399.526 133.254ZM337.797 129.679C336.807 136.036 340.605 143.579 345.716 145.382C343.779 139.949 340.476 135.197 337.797 129.679ZM364.154 142.491L364.205 142.396H364.127L364.154 142.491Z" fill="#062439"/>
<path d="M345.857 149.272C346.714 154.031 347.633 158.776 349.338 163.326C351.538 169.204 354.503 174.592 359.139 178.937C364.147 183.628 370.071 185.779 376.904 185.29C378.687 185.164 379.039 185.745 379.087 187.411C379.319 195.383 379.62 203.351 379.633 211.329C379.663 212.7 379.602 214.071 379.452 215.434C379.285 216.697 379.821 217.285 380.894 217.75C387.973 220.812 395.242 220.939 402.615 219.174C408.371 217.805 413.578 215.157 418.531 211.955C419.662 211.226 419.976 210.337 419.874 209.098C419.747 207.524 419.7 205.944 419.594 203.966C425.548 209.098 430.598 214.637 435.92 219.875C439.702 224.196 443.535 228.469 447.252 232.845C456.268 243.45 463.77 255.137 471.303 266.796C475.436 273.197 479.396 279.708 483.512 286.122C484.285 287.327 484.278 288.196 483.41 289.297C482.542 290.399 481.927 291.583 481.2 292.719C481.006 292.854 480.842 293.027 480.717 293.227C480.592 293.428 480.508 293.652 480.472 293.885C480.193 294.157 479.931 294.448 479.69 294.754C472.064 305.647 464.118 316.263 453.863 324.895C453.436 324.915 453.2 325.216 452.961 325.51C452.208 325.902 451.476 326.333 450.767 326.8C449.688 327.584 448.981 327.389 448.086 326.369C444.563 322.353 440.935 318.425 437.335 314.477C437.013 314.135 436.791 313.598 436.183 313.553C435.626 319.174 435.128 324.772 434.502 330.355C433.587 338.566 432.579 346.732 431.609 354.919C431.213 354.939 430.816 354.981 430.42 354.981H347.035C346.639 354.981 346.243 354.939 345.846 354.919C345.689 353.273 345.566 351.628 345.371 349.986C343.865 337.468 340.421 325.466 335.645 313.834C334.279 310.536 333.22 307.067 330.9 304.255C329.343 302.367 327.895 300.392 326.561 298.34C320.661 289.215 318.27 279.438 321.071 268.702C322.612 262.783 325.304 257.299 327.61 251.675C332.092 240.727 333.838 229.779 330.299 218.055C326.684 206.081 323.34 194.011 319.428 182.132C318.355 178.869 317.324 175.783 319.288 172.553C319.647 172.234 319.88 171.797 319.944 171.322C320.6 170.336 321.222 169.324 321.915 168.366C328.133 159.785 336.575 153.997 345.857 149.272ZM433.908 309.92C433.73 309.65 433.566 309.352 433.351 309.085C429.821 304.554 426.291 300.025 422.761 295.5C422.419 295.083 422.077 294.34 421.445 294.911C420.813 295.483 421.51 295.938 421.842 296.352C425.292 300.799 428.748 305.247 432.21 309.694C432.425 310.028 432.701 310.319 433.023 310.55C433.577 310.851 433.826 310.509 433.908 309.92Z" fill="#556DEE"/>
<path d="M117.33 110.103C116.989 108.05 116.691 106.069 116.275 104.126C115.933 102.436 116.466 101.204 117.901 100.38C119.267 99.5931 120.835 99.9694 122 101.321C123.165 102.672 124.344 104.106 125.492 105.519C125.771 105.913 126.165 106.211 126.62 106.374C127.074 106.537 127.568 106.556 128.033 106.429C129.742 106.066 131.498 105.806 133.233 105.512C135.023 105.204 136.444 105.854 137.066 107.277C137.688 108.7 137.298 110.182 135.908 111.362C134.651 112.426 133.4 113.504 132.099 114.513C131.094 115.289 130.678 116.162 130.971 117.462C131.361 119.172 131.569 120.934 131.89 122.669C132.188 124.273 131.617 125.471 130.223 126.247C128.901 126.986 127.343 126.672 126.24 125.416C125.076 124.096 123.95 122.74 122.861 121.348C122.082 120.353 121.221 119.932 119.916 120.23C118.208 120.623 116.442 120.794 114.717 121.133C113.091 121.451 111.881 120.856 111.157 119.467C110.433 118.078 110.621 116.678 111.84 115.597C113.251 114.362 114.707 113.175 116.165 111.995C116.838 111.468 117.279 110.856 117.33 110.103ZM128.747 125.423C130.07 125.423 130.934 124.308 130.698 122.816C130.435 121.129 130.117 119.45 129.779 117.777C129.441 116.104 129.813 114.766 131.204 113.695C132.594 112.624 133.827 111.512 135.153 110.431C136.034 109.713 136.499 108.888 135.949 107.759C135.399 106.63 134.439 106.49 133.346 106.692C131.836 106.966 130.319 107.198 128.823 107.54C126.896 107.985 125.406 107.54 124.207 105.864C123.319 104.615 122.257 103.493 121.283 102.299C120.6 101.447 119.824 100.852 118.646 101.345C117.381 101.872 117.279 102.908 117.474 104.047C117.757 105.676 118.075 107.298 118.386 108.916C118.697 110.534 118.29 111.913 116.876 112.963C115.554 113.945 114.324 115.057 113.053 116.107C112.202 116.791 111.628 117.606 112.144 118.765C112.691 120 113.726 120.106 114.877 119.898C116.387 119.627 117.904 119.378 119.404 119.049C121.177 118.663 122.625 118.984 123.763 120.544C124.733 121.872 125.861 123.09 126.913 124.362C127.388 124.954 127.91 125.464 128.747 125.423Z" fill="#062439"/>
<path d="M488.688 207.781C497.888 207.808 505.144 214.565 505.708 223.176C506.034 227.43 504.721 231.648 502.037 234.961C499.353 238.275 495.504 240.432 491.28 240.99C487.056 241.548 482.78 240.464 479.33 237.96C475.88 235.457 473.519 231.725 472.734 227.531C472.566 226.625 471.941 225.007 472.99 224.839C474.158 224.654 473.673 226.341 473.837 227.162C475.412 234.541 481.319 239.663 488.684 239.909C492.212 240.018 495.669 238.903 498.471 236.753C501.272 234.603 503.246 231.55 504.058 228.11C505.506 222.143 503.9 216.875 499.275 212.817C494.55 208.671 489.087 207.873 483.198 210.08C483.097 210.132 482.993 210.178 482.887 210.217C482.395 210.333 481.78 211.069 481.435 210.265C481.09 209.461 482.005 209.324 482.521 209.091C484.453 208.199 486.56 207.752 488.688 207.781Z" fill="#062439"/>
<path d="M492.535 221.521C491.776 221.042 491.127 220.357 490.188 220.217C489.73 220.149 489.248 220.08 488.989 220.59C488.729 221.1 489.019 221.462 489.395 221.753C490.02 222.242 490.697 222.674 491.291 223.194C493.785 225.369 493.256 228.572 490.212 229.885C489.781 230.07 489.187 230.019 489.074 230.727C488.961 231.435 489.166 232.355 487.871 231.918C487.055 231.644 485.88 231.822 486.464 230.337C486.621 229.937 486.368 229.731 486.078 229.509C483.984 227.887 483.987 227.884 485.395 225.667C486.201 226.225 486.894 226.984 487.885 227.241C488.531 227.405 489.173 227.456 489.559 226.82C489.976 226.136 489.498 225.65 488.985 225.243C488.242 224.722 487.528 224.16 486.847 223.56C484.916 221.644 485.504 218.77 488.029 217.744C488.739 217.453 489.375 217.261 489.364 216.3C489.354 215.339 490.048 215.578 490.581 215.732C491.113 215.886 492.114 215.523 491.998 216.69C491.95 217.165 491.684 217.566 492.272 218.021C494.113 219.437 494.082 219.478 492.535 221.521Z" fill="#062439"/>
<path d="M489.037 236.991C488.128 236.964 487.216 236.991 486.344 236.676C485.812 236.485 484.855 236.615 485.115 235.698C485.333 234.914 486.064 235.421 486.577 235.53C491.763 236.611 496.723 234.322 499.193 229.67C500.026 228.048 500.474 226.255 500.502 224.432C500.502 223.973 500.303 223.248 501.11 223.293C501.916 223.337 501.629 224.045 501.646 224.507C501.858 231.216 495.999 237.012 489.037 236.991Z" fill="#062439"/>
<path d="M241.461 65.0839C241.461 69.7458 241.461 74.4089 241.461 79.0731C240.911 79.3365 240.822 79.8257 240.822 80.3629C240.822 80.9 240.822 81.3892 240.822 81.9024V352.11C240.793 352.566 240.793 353.023 240.822 353.479C240.983 354.666 240.515 355.015 239.316 355.015C224.056 354.974 208.803 354.974 193.554 355.015C192.362 355.015 191.877 354.673 192.048 353.482C192.068 353.197 192.068 352.912 192.048 352.627V36.5821C192.048 35.9526 192.024 35.3231 192.082 34.7004C192.243 32.9659 193.449 31.6932 195.198 31.6898C208.265 31.6556 221.284 31.683 234.454 31.683C233.887 33.2464 233.088 34.6354 233.402 36.305C233.877 38.7785 235.319 40.3317 237.621 41.2383C240.846 42.5076 240.832 42.5349 240.832 46.028C240.832 51.7299 240.832 57.4319 240.832 63.1338C240.843 63.8078 240.624 64.6186 241.461 65.0839Z" fill="#556DEE"/>
<path d="M345.856 149.272C336.574 153.997 328.133 159.785 321.915 168.362C321.232 169.32 320.6 170.333 319.944 171.318C315.54 164.818 311.625 158.02 307.806 151.171C290.85 120.698 276.929 88.6285 266.243 55.4258C265.56 53.3184 264.877 51.2041 264.303 49.0659C264.084 48.2619 263.684 47.9095 262.899 47.8958C253.548 47.7282 245.728 42.6991 237.276 39.7226C234.885 38.8742 233.99 36.0278 234.929 33.6843C235.359 32.5501 236.221 31.6331 237.325 31.1347C238.429 30.6363 239.686 30.5972 240.819 31.026C244.557 32.3945 248.157 34.1324 251.946 35.3059C255.847 36.5136 259.704 35.5967 263.254 33.7356C264.692 32.9829 264.733 31.3681 264.456 29.921C263.879 26.8659 262.099 24.5087 259.752 22.6099C256.606 20.0646 253.159 17.9537 249.637 15.9763C248.94 15.5855 248.171 15.3406 247.377 15.2565C246.583 15.1724 245.781 15.2508 245.018 15.487C241.133 16.5647 237.201 17.4987 233.372 18.744C230.844 19.5685 228.377 17.7519 227.786 15.6342C227.608 15.0448 227.548 14.4258 227.61 13.8131C227.673 13.2004 227.856 12.6063 228.15 12.0652C228.444 11.5241 228.842 11.0468 229.321 10.6611C229.801 10.2753 230.352 9.98881 230.943 9.81816C234.383 8.8397 237.915 8.15889 241.311 7.05727C244.444 6.03092 247.399 6.37304 250.487 7.16675C257.029 8.85681 263.609 10.4066 270.189 11.9564C271.105 12.1479 271.969 12.5365 272.721 13.0953C273.472 13.6541 274.093 14.3698 274.541 15.1928C289.522 40.6293 303.218 66.7773 317.477 92.6106C323.415 103.363 329.24 114.164 335.15 124.944C335.526 125.63 335.647 126.428 335.491 127.195C334.542 133.908 335.833 140.001 340.633 145.064C341.82 146.297 343.225 147.299 344.777 148.02C345.299 148.273 346.051 148.372 345.856 149.272Z" fill="#F4F3F4"/>
<path d="M364.168 142.871C363.751 146.58 363.389 150.295 362.89 153.99C362.736 155.133 362.989 155.523 364.134 155.56C365.278 155.598 366.505 155.831 367.69 155.971C368.107 156.022 368.565 156.008 368.602 155.482C368.64 154.955 368.23 154.856 367.793 154.815C367.355 154.773 367.003 154.702 366.611 154.64C364.065 154.247 364.059 154.243 364.366 151.623C364.752 148.372 365.152 145.122 365.705 141.859C366.508 144.051 367.222 146.214 368.438 148.181C373.692 156.706 383.948 158.383 391.625 151.944C394.464 149.631 396.604 146.571 397.805 143.107C398.314 141.612 398.99 141.297 400.476 141.513C405.201 142.197 409.953 142.71 414.688 143.302C415.344 143.384 416.054 143.367 415.904 144.455C414.749 153.302 412.433 161.739 407.162 169.112C400.565 178.332 391.379 182.899 380.289 183.925C374.287 184.49 368.466 184.168 363.235 180.658C358.316 177.357 354.968 172.755 352.412 167.514C349.799 162.153 348.313 156.446 347.329 150.586C347.134 149.406 347.151 148.933 348.696 149.187C353.984 150.052 358.377 148.058 362.149 144.452C362.716 143.911 363.232 143.319 363.768 142.741L364.168 142.871ZM382.957 165.625C387.023 165.331 390.173 163.432 392.523 160.152C392.793 159.768 393.309 159.262 392.718 158.821C392.127 158.379 391.853 159.046 391.577 159.43C389.442 162.423 386.596 164.182 382.893 164.449C382.425 164.483 381.868 164.496 381.922 165.112C381.977 165.728 382.496 165.663 382.968 165.625H382.957Z" fill="#F4F3F4"/>
<path d="M453.862 324.902C464.111 316.27 472.064 305.654 479.689 294.761C479.931 294.454 480.192 294.164 480.472 293.892C483.768 298.901 486.279 304.313 488.456 309.869C493.896 323.611 496.734 338.248 496.826 353.03C496.826 354.495 496.562 355.052 494.906 355.035C484.657 354.946 474.408 354.967 464.159 355.035C462.902 355.035 462.413 354.693 462.147 353.444C460.917 347.659 459.523 341.912 458.293 336.126C457.456 332.11 455.495 328.576 453.862 324.902Z" fill="#F4F3F4"/>
<path d="M415.832 151.968C416.406 154.312 416.375 156.374 416.515 158.403C417.462 172.731 418.015 187.083 418.34 201.438C418.398 204.004 418.463 206.57 418.579 209.129C418.616 209.991 418.446 210.559 417.636 211.086C410.998 215.376 403.93 218.431 395.946 218.999C391.168 219.395 386.364 218.663 381.919 216.864C380.966 216.474 380.692 215.978 380.713 214.979C380.918 205.462 380.665 195.947 380.156 186.44C380.091 185.194 380.597 185.071 381.584 184.962C391.361 183.891 399.69 179.933 406.144 172.372C410.926 166.758 413.782 160.175 415.545 153.073C415.607 152.816 415.675 152.563 415.832 151.968Z" fill="#F4F3F4"/>
<path d="M397.114 135.437C396.841 141.075 394.661 146.87 389.018 150.894C382.848 155.293 375.417 153.973 371.031 147.798C364.502 138.601 368.298 123.719 378.342 119.186C378.547 119.091 378.762 119.015 378.964 118.916C380.716 118.071 382.069 118.184 383.569 119.795C387.019 123.5 390.9 126.771 394.928 129.854C397.125 131.537 397.114 131.55 397.114 135.437ZM373.224 131.626C373.191 132.308 373.282 132.991 373.491 133.641C373.761 134.434 374.147 135.126 375.014 135.317C376.005 135.536 376.651 134.896 377.122 134.174C378.27 132.419 378.632 130.493 377.905 128.488C377.221 126.621 375.64 126.415 374.423 127.972C373.641 129.029 373.22 130.31 373.224 131.626Z" fill="#F4F3F4"/>
<path d="M346.645 138.3C346.532 130.104 347.512 121.929 349.559 113.993C349.829 112.967 350.188 112.457 351.298 112.317C356.108 111.708 359.887 113.528 362.763 117.24C369.346 125.741 366.453 139.98 357.113 145.293C354.489 146.826 351.398 147.354 348.415 146.778C347.048 146.528 346.614 145.892 346.635 144.626C346.669 142.529 346.645 140.408 346.645 138.3ZM358.209 126.169C358.229 125.502 358.105 124.839 357.844 124.226C357.133 122.549 355.729 122.3 354.513 123.62C353.228 125.019 352.767 128.215 353.608 129.922C354.373 131.475 355.733 131.68 356.853 130.353C357.81 129.227 358.189 127.866 358.209 126.169Z" fill="#F4F3F4"/>
<path d="M379.636 116.087C374.327 118.177 373.525 118.824 368.527 124.982C367.956 122.436 367.324 119.983 366.009 117.797C362.873 112.556 358.377 109.651 352.142 109.826C351.319 109.85 350.817 109.949 351.257 108.8C353.307 103.476 356.04 98.6148 360.45 94.8686C361.007 94.393 361.431 93.8422 362.159 94.8309C367.484 102.137 373.255 109.106 379.438 115.7C379.519 115.821 379.586 115.95 379.636 116.087Z" fill="#F4F3F4"/>
<path d="M253.459 19.6233C249.233 20.6838 245.65 22.3602 242.151 24.2384C240.584 25.0321 238.937 25.6582 237.239 26.1064C234.256 26.9685 231.496 24.1563 232.179 21.1388C232.229 20.833 232.372 20.5502 232.59 20.3296C232.807 20.1089 233.087 19.9613 233.392 19.9072C237.432 18.8216 241.472 17.7199 245.51 16.6024C246.111 16.4281 246.741 16.3795 247.362 16.4596C247.982 16.5396 248.58 16.7466 249.117 17.0676C250.487 17.8477 251.837 18.6824 253.459 19.6233Z" fill="#F4F3F4"/>
<path d="M425.732 149.029C425.753 153.015 422.726 157.541 418.992 159.173C418.169 159.515 417.752 159.488 417.687 158.458C417.455 154.825 417.154 151.198 416.686 147.585C416.553 146.559 416.864 145.44 417.069 144.38C417.219 143.61 419.638 142.286 420.447 142.443C423.665 143.049 425.715 145.608 425.732 149.029Z" fill="#F4F3F4"/>
<path d="M343.079 116.747C344.104 119.703 345.163 122.508 346.062 125.358C346.263 126.001 345.963 126.805 345.891 127.537C345.488 131.78 345.208 136.029 344.989 140.415C344.306 139.18 343.585 137.951 342.902 136.706C341.405 133.969 339.929 131.215 338.423 128.495C338.081 127.886 337.828 127.329 337.989 126.579C338.725 122.886 340.49 119.477 343.079 116.747Z" fill="#F4F3F4"/>
<path d="M259.42 23.845C255.072 25.4119 250.996 26.924 246.893 28.3335C246.427 28.4764 245.935 28.5133 245.452 28.4417C244.97 28.3701 244.51 28.1917 244.105 27.9196C243.316 27.4372 242.452 26.8385 242.421 25.9045C242.39 24.9705 243.507 24.8987 244.157 24.5668C246.571 23.3095 249.077 22.2356 251.652 21.3543C253.814 20.629 255.714 20.6085 257.422 22.3362C257.931 22.846 258.577 23.212 259.42 23.845Z" fill="#F4F3F4"/>
<path d="M399.527 133.254C401.802 134.496 403.848 135.69 405.963 136.744C408.902 138.224 412.047 139.252 415.293 139.792C415.723 139.861 416.27 139.792 416.208 140.476C416.133 141.349 415.525 141.017 415.067 140.959C410.117 140.34 405.16 139.693 400.207 139.122C399.294 139.019 399.021 138.704 399.202 137.842C399.472 136.329 399.58 134.791 399.527 133.254Z" fill="#F4F3F4"/>
<path d="M337.797 129.679C340.462 135.197 343.779 139.942 345.716 145.382C340.606 143.579 336.807 136.029 337.797 129.679Z" fill="#F4F3F4"/>
<path d="M364.154 142.491L364.126 142.385L364.205 142.395L364.154 142.491Z" fill="#F4F3F4"/>
<path d="M433.908 309.92C433.826 310.492 433.566 310.861 433.009 310.539C432.687 310.308 432.411 310.018 432.196 309.684C428.737 305.243 425.281 300.796 421.828 296.342C421.486 295.914 420.841 295.435 421.432 294.901C422.023 294.368 422.422 295.072 422.747 295.49C426.288 300.012 429.819 304.541 433.337 309.075C433.559 309.352 433.741 309.65 433.908 309.92Z" fill="#062439"/>
<path d="M128.745 125.423C127.911 125.457 127.378 124.947 126.907 124.362C125.854 123.09 124.727 121.872 123.757 120.544C122.619 118.984 121.171 118.663 119.398 119.049C117.898 119.391 116.381 119.628 114.871 119.898C113.727 120.106 112.691 120 112.138 118.765C111.622 117.606 112.196 116.808 113.047 116.107C114.318 115.057 115.548 113.945 116.87 112.963C118.284 111.913 118.701 110.568 118.38 108.916C118.058 107.263 117.751 105.676 117.467 104.047C117.269 102.908 117.375 101.872 118.639 101.345C119.818 100.852 120.583 101.447 121.277 102.299C122.25 103.493 123.326 104.615 124.201 105.864C125.386 107.53 126.89 107.985 128.816 107.541C130.313 107.198 131.83 106.966 133.34 106.692C134.433 106.49 135.389 106.637 135.943 107.759C136.496 108.882 136.028 109.713 135.147 110.431C133.821 111.512 132.547 112.655 131.198 113.695C129.848 114.735 129.435 116.117 129.773 117.777C130.111 119.436 130.429 121.129 130.692 122.816C130.934 124.315 130.07 125.423 128.745 125.423Z" fill="#F4F3F4"/>
<path d="M382.968 165.625C382.51 165.663 381.943 165.711 381.919 165.098C381.895 164.486 382.421 164.469 382.889 164.435C386.592 164.168 389.438 162.409 391.573 159.416C391.85 159.033 392.075 158.331 392.714 158.807C393.353 159.282 392.789 159.755 392.52 160.138C390.183 163.432 387.033 165.331 382.968 165.625Z" fill="#062439"/>
<path d="M373.224 131.626C373.221 130.31 373.641 129.029 374.423 127.972C375.64 126.415 377.228 126.621 377.905 128.489C378.632 130.493 378.27 132.419 377.122 134.175C376.651 134.896 376.005 135.543 375.014 135.317C374.147 135.126 373.761 134.435 373.491 133.641C373.282 132.991 373.192 132.308 373.224 131.626Z" fill="#062439"/>
<path d="M358.21 126.169C358.189 127.879 357.81 129.227 356.843 130.353C355.722 131.68 354.363 131.475 353.598 129.922C352.757 128.211 353.218 125.019 354.503 123.62C355.719 122.299 357.123 122.549 357.834 124.226C358.098 124.838 358.226 125.501 358.21 126.169Z" fill="#062439"/>
</svg>
