<svg width="292" height="372" viewBox="0 0 292 372" fill="none" xmlns="http://www.w3.org/2000/svg">
<path d="M129.352 288.86C129.616 299.962 120.787 321.937 115.764 351.096C107.284 353.515 98.2977 353.515 89.8184 351.096L102.716 284.396C110.896 288.671 120.225 290.234 129.352 288.86Z" fill="#EEF1FE"/>
<path d="M237.321 326.806C234.361 336.458 230.877 339.309 221.782 345.281L173.926 293.667C182.403 290.551 189.685 284.847 194.739 277.362C201.477 282.897 207.572 289.172 212.909 296.07C220.219 306.091 237.321 326.806 237.321 326.806Z" fill="#EEF1FE"/>
<path d="M190.367 267.818C211.685 255.649 227.744 236.018 235.448 212.711C243.152 189.403 241.956 164.069 232.089 141.592C232.056 141.498 232.059 141.394 232.099 141.302C232.138 141.21 232.211 141.137 232.303 141.097C232.394 141.056 232.498 141.052 232.592 141.085C232.687 141.118 232.765 141.185 232.812 141.273C242.757 163.929 243.964 189.463 236.2 212.955C228.437 236.448 212.253 256.235 190.767 268.503C190.676 268.556 190.568 268.571 190.466 268.544C190.364 268.517 190.277 268.451 190.224 268.36C190.171 268.27 190.156 268.161 190.183 268.06C190.21 267.958 190.276 267.871 190.367 267.818Z" fill="#556DEE"/>
<path d="M230.986 139.189C222.9 122.252 210.197 107.943 194.338 97.9066C178.48 87.8706 160.109 82.5162 141.342 82.4597C124.369 82.403 107.668 86.7295 92.8577 95.0203C78.0471 103.311 65.628 115.285 56.8027 129.784C56.7471 129.873 56.6585 129.936 56.5564 129.959C56.4542 129.983 56.3469 129.965 56.258 129.909C56.1691 129.854 56.106 129.765 56.0824 129.663C56.0588 129.561 56.0768 129.454 56.1323 129.365C65.0288 114.752 77.5478 102.683 92.4769 94.3276C107.406 85.9721 124.24 81.6129 141.348 81.6721C160.265 81.7293 178.782 87.127 194.767 97.2439C210.752 107.361 223.556 121.786 231.704 138.858C231.726 138.905 231.738 138.956 231.74 139.008C231.742 139.06 231.734 139.112 231.716 139.161C231.698 139.209 231.67 139.254 231.635 139.292C231.6 139.33 231.557 139.361 231.51 139.383C231.415 139.427 231.306 139.431 231.208 139.395C231.109 139.358 231.029 139.284 230.986 139.189Z" fill="#556DEE"/>
<path d="M102.725 273.821C79.8925 264.258 61.4206 246.564 50.885 224.164C40.3494 201.764 38.4996 176.252 45.6936 152.566C45.7242 152.466 45.7932 152.382 45.8855 152.333C45.9778 152.284 46.0859 152.274 46.1859 152.304C46.2859 152.335 46.3697 152.404 46.4188 152.496C46.4679 152.588 46.4783 152.696 46.4477 152.796C39.3108 176.294 41.1465 201.605 51.5993 223.827C62.0522 246.049 80.3787 263.602 103.031 273.088C103.128 273.129 103.205 273.206 103.245 273.304C103.285 273.401 103.285 273.511 103.244 273.608C103.204 273.705 103.126 273.782 103.029 273.822C102.931 273.862 102.822 273.862 102.725 273.821Z" fill="#556DEE"/>
<path d="M132.766 281.189C132.556 281.17 132.531 280.401 133.04 280.418C133.939 280.445 136.102 280.763 141.348 280.763C146.927 280.992 152.514 280.534 157.982 279.398C158.083 279.37 158.19 279.383 158.281 279.435C158.372 279.487 158.439 279.572 158.467 279.673C158.495 279.774 158.481 279.882 158.43 279.973C158.378 280.064 158.292 280.13 158.191 280.158C151.698 281.909 139.414 281.752 132.766 281.189Z" fill="#556DEE"/>
<path d="M254.55 132.088C256.195 132.607 259.45 133.961 261.301 134.725C266.354 136.82 265.422 138.087 264.544 137.999C260.841 137.66 256.088 136.644 252.68 136.376C253.469 136.86 254.146 137.277 254.5 137.499C259.142 140.391 258.013 141.489 257.169 141.269C253.817 140.379 248.553 138.387 245.417 137.658C241.589 136.867 237.699 136.411 233.791 136.296L228.498 138.202L226.986 137.49C222.564 135.156 219.096 131.353 217.178 126.736L216.652 124.522C217.809 123.711 219.126 123.159 220.515 122.903C227.978 120.496 235.282 117.622 242.384 114.3C250.901 110.479 248.576 113.441 246.406 116.021C244.824 117.907 236.931 123.16 241.169 124.442C245.312 125.014 259.908 127.098 262.791 128.079C270.941 130.831 269.678 132.687 261.804 132.186C259.014 132.008 255.591 132.027 254.55 132.088Z" fill="#EEF1FE"/>
<path d="M48.5794 130.881C45.1294 135.753 42.9231 141.395 42.1527 147.315L35.2234 146.554C31.4457 147.574 27.7684 148.935 24.2365 150.62C21.3667 152.086 16.7311 155.249 13.677 156.904C12.904 157.323 11.5487 156.523 15.3758 152.616C15.6754 152.317 16.2284 151.753 16.884 151.098C13.7943 152.114 8.92406 154.378 5.73588 155.482C4.89799 155.769 3.6998 154.757 8.11549 151.525C9.07906 150.821 12.4076 148.404 14.0687 147.363C11.6876 147.841 9.33393 148.446 7.01786 149.177C-0.512691 151.538 -2.1801 150.015 5.08651 145.425C6.53397 144.503 15.5602 140.507 25.3593 136.728C29.1801 134.472 20.1455 131.282 18.1597 129.83C15.4366 127.831 12.4872 125.5 21.6663 127.205C29.3396 128.77 37.1064 129.835 44.9178 130.393C46.1581 130.324 47.4005 130.49 48.5794 130.881Z" fill="#EEF1FE"/>
<path d="M142.247 117.274C142.232 117.054 139.978 105.939 143.043 104.329C150.165 100.594 146.901 94.0645 143.185 97.1772C141.399 98.6687 140.726 98.4341 140.615 97.2317C140.676 90.6103 134.201 79.1982 127.138 95.5224C124.812 100.893 124.157 104.609 124.5 107.154C125.097 111.616 128.839 112.81 133.325 112.263L136.438 111.614L133.17 116.296C132.833 118.573 131.937 120.864 129.645 120.328C127.924 119.903 126.174 119.61 124.408 119.45C124.408 119.45 129.553 137.939 134.844 146.621C138.618 136.546 143.942 127.122 150.624 118.69C145.425 119.199 143.386 122.769 142.247 117.274Z" fill="#EEF1FE"/>
<path d="M253.11 43.0997C237.642 40.1671 222.035 49.0111 219.192 64.047C218.258 69.0988 218.894 74.3156 221.014 78.995L214.322 89.9525C214.286 90.0124 214.267 90.0807 214.266 90.1505C214.265 90.2203 214.282 90.2891 214.317 90.3499C214.351 90.4107 214.4 90.4614 214.461 90.4969C214.521 90.5323 214.589 90.5512 214.659 90.5516C214.868 90.5516 216.754 90.1327 227.408 87.9646C244.082 103.78 272.964 96.5216 277.038 74.9773C279.792 60.421 269.057 46.1245 253.11 43.0997ZM276.263 74.8453C273.638 88.7271 259.111 98.1722 243.267 95.1747C237.425 94.0933 232.027 91.3263 227.738 87.2147C227.667 87.1686 227.661 87.1372 227.345 87.1833C226.609 87.2922 224.203 87.8243 215.468 89.5985L221.752 79.3343C221.848 79.0474 221.936 79.1249 221.768 78.752C213.027 59.271 231.04 39.7398 252.98 43.8811C268.481 46.8095 278.936 60.7017 276.263 74.8453Z" fill="#556DEE"/>
<path d="M248.416 73.2785C248.28 73.2768 248.149 73.2212 248.054 73.1239C247.959 73.0265 247.906 72.8953 247.907 72.759C247.961 68.0836 253.353 65.5112 253.376 60.972C253.406 60.3561 253.306 59.7409 253.084 59.1658C252.862 58.5907 252.522 58.0684 252.086 57.6323C251.65 57.1963 251.128 56.8562 250.553 56.6338C249.978 56.4115 249.363 56.3118 248.747 56.3411C248.131 56.3704 247.528 56.5281 246.977 56.8041C246.425 57.0801 245.938 57.4683 245.545 57.9438C245.153 58.4193 244.864 58.9715 244.698 59.5652C244.531 60.1588 244.49 60.7807 244.578 61.3909C244.594 61.5241 244.558 61.6583 244.476 61.7647C244.394 61.8711 244.274 61.9413 244.141 61.9602C244.008 61.9791 243.873 61.9452 243.765 61.8658C243.657 61.7864 243.584 61.6678 243.562 61.5355C243.46 60.7874 243.514 60.0262 243.721 59.3001C243.928 58.574 244.284 57.8989 244.766 57.3177C245.248 56.7365 245.845 56.2618 246.52 55.9239C247.196 55.5859 247.934 55.3921 248.688 55.3546C249.442 55.3171 250.196 55.4369 250.901 55.7063C251.606 55.9756 252.248 56.3887 252.785 56.9193C253.322 57.4499 253.743 58.0864 254.022 58.7884C254.3 59.4904 254.429 60.2426 254.401 60.9971C254.375 65.8883 248.979 68.5989 248.931 72.7716C248.929 72.9068 248.874 73.0357 248.777 73.1305C248.681 73.2254 248.551 73.2785 248.416 73.2785Z" fill="#556DEE"/>
<path d="M249.81 78.773C249.783 79.1282 249.618 79.4588 249.352 79.6949C249.085 79.931 248.736 80.054 248.381 80.038C248.025 80.0219 247.689 79.8681 247.444 79.6089C247.2 79.3497 247.066 79.0056 247.07 78.6494C247.098 78.2941 247.262 77.9635 247.529 77.7274C247.796 77.4913 248.144 77.3683 248.5 77.3843C248.856 77.4004 249.192 77.5543 249.436 77.8134C249.681 78.0726 249.815 78.4167 249.81 78.773Z" fill="#556DEE"/>
<path d="M231.195 265.679C231.09 265.679 230.99 265.638 230.916 265.564C230.842 265.49 230.801 265.39 230.801 265.285C230.801 265.181 230.842 265.081 230.916 265.007C230.99 264.933 231.09 264.892 231.195 264.892H239.773C239.877 264.892 239.977 264.933 240.051 265.007C240.125 265.081 240.166 265.181 240.166 265.285C240.166 265.39 240.125 265.49 240.051 265.564C239.977 265.638 239.877 265.679 239.773 265.679H231.195Z" fill="#556DEE"/>
<path d="M254.99 265.635C254.885 265.635 254.785 265.594 254.711 265.52C254.637 265.446 254.596 265.346 254.596 265.241C254.596 265.137 254.637 265.037 254.711 264.963C254.785 264.889 254.885 264.848 254.99 264.848H263.567C263.672 264.848 263.772 264.889 263.846 264.963C263.92 265.037 263.961 265.137 263.961 265.241C263.961 265.346 263.92 265.446 263.846 265.52C263.772 265.594 263.672 265.635 263.567 265.635H254.99Z" fill="#556DEE"/>
<path d="M246.965 257.654V249.076C246.964 249.025 246.973 248.974 246.992 248.926C247.011 248.879 247.039 248.835 247.075 248.798C247.111 248.762 247.154 248.733 247.201 248.713C247.248 248.693 247.299 248.683 247.35 248.683C247.454 248.687 247.553 248.729 247.627 248.801C247.701 248.874 247.746 248.971 247.753 249.074V257.652C247.753 257.704 247.743 257.755 247.723 257.803C247.703 257.851 247.674 257.894 247.638 257.931C247.564 258.005 247.464 258.047 247.36 258.047C247.308 258.047 247.257 258.037 247.209 258.018C247.161 257.998 247.118 257.969 247.081 257.933C247.007 257.859 246.965 257.759 246.965 257.654Z" fill="#556DEE"/>
<path d="M247.006 281.453V272.875C247.013 272.775 247.058 272.682 247.131 272.614C247.204 272.545 247.301 272.508 247.401 272.508C247.501 272.508 247.597 272.545 247.67 272.614C247.744 272.682 247.788 272.775 247.796 272.875V281.453C247.788 281.552 247.744 281.646 247.67 281.714C247.597 281.782 247.501 281.82 247.401 281.82C247.301 281.82 247.204 281.782 247.131 281.714C247.058 281.646 247.013 281.552 247.006 281.453Z" fill="#556DEE"/>
<path d="M241.988 260.285C241.75 260.285 242.198 260.669 235.633 254.116C235.559 254.042 235.518 253.942 235.518 253.838C235.518 253.733 235.559 253.633 235.633 253.559C235.707 253.485 235.807 253.444 235.912 253.444C236.016 253.444 236.116 253.485 236.19 253.559L242.265 259.613C242.32 259.668 242.357 259.738 242.373 259.814C242.388 259.89 242.38 259.969 242.351 260.041C242.321 260.113 242.271 260.175 242.207 260.218C242.142 260.262 242.066 260.285 241.988 260.285Z" fill="#556DEE"/>
<path d="M258.844 277.083C258.608 277.083 259.054 277.466 252.491 270.914C252.454 270.877 252.425 270.834 252.405 270.786C252.385 270.738 252.375 270.687 252.375 270.635C252.375 270.583 252.385 270.532 252.405 270.484C252.425 270.436 252.454 270.392 252.49 270.356C252.527 270.319 252.57 270.29 252.618 270.27C252.666 270.25 252.717 270.24 252.769 270.24C252.821 270.239 252.872 270.25 252.92 270.269C252.968 270.289 253.012 270.318 253.048 270.355L259.123 276.411C259.178 276.466 259.216 276.536 259.231 276.612C259.246 276.689 259.238 276.768 259.209 276.84C259.179 276.912 259.128 276.973 259.063 277.017C258.999 277.06 258.922 277.083 258.844 277.083Z" fill="#556DEE"/>
<path d="M252.75 260.267C252.672 260.267 252.595 260.243 252.531 260.2C252.466 260.157 252.415 260.095 252.385 260.023C252.356 259.951 252.348 259.872 252.363 259.796C252.378 259.719 252.416 259.649 252.471 259.594L258.525 253.519C258.598 253.445 258.698 253.403 258.803 253.403C258.907 253.403 259.008 253.444 259.082 253.517C259.156 253.591 259.198 253.691 259.198 253.795C259.199 253.9 259.158 254 259.084 254.074C252.515 260.679 252.98 260.267 252.75 260.267Z" fill="#556DEE"/>
<path d="M235.953 277.125C235.875 277.125 235.798 277.103 235.733 277.059C235.668 277.016 235.617 276.955 235.587 276.883C235.557 276.811 235.549 276.731 235.564 276.655C235.579 276.578 235.617 276.508 235.672 276.452L241.728 270.378C241.802 270.304 241.902 270.262 242.007 270.262C242.111 270.262 242.211 270.304 242.285 270.378C242.359 270.452 242.401 270.552 242.401 270.656C242.401 270.761 242.359 270.861 242.285 270.935C235.716 277.535 236.192 277.125 235.953 277.125Z" fill="#556DEE"/>
<path d="M18.6045 31.1367C18.0489 31.1367 17.5161 30.9161 17.1233 30.5232C16.7305 30.1304 16.5098 29.5976 16.5098 29.042V2.70291C16.5098 2.14736 16.7305 1.61456 17.1233 1.22172C17.5161 0.828881 18.0489 0.608185 18.6045 0.608185C19.1601 0.608185 19.6928 0.828881 20.0857 1.22172C20.4785 1.61456 20.6992 2.14736 20.6992 2.70291V29.042C20.6992 29.5976 20.4785 30.1304 20.0857 30.5232C19.6928 30.9161 19.1601 31.1367 18.6045 31.1367Z" fill="white"/>
<path d="M18.6058 37.8001C17.8223 37.7997 17.0562 38.0316 16.4045 38.4666C15.7529 38.9016 15.2448 39.5201 14.9447 40.2439C14.6446 40.9677 14.5658 41.7642 14.7184 42.5327C14.871 43.3012 15.2481 44.0072 15.802 44.5614C16.3559 45.1156 17.0617 45.4931 17.8302 45.6461C18.5986 45.7991 19.3952 45.7208 20.1191 45.421C20.843 45.1213 21.4618 44.6136 21.8971 43.9621C22.3325 43.3107 22.5648 42.5447 22.5648 41.7612C22.5637 40.7114 22.1463 39.7048 21.4042 38.9622C20.662 38.2197 19.6557 37.8017 18.6058 37.8001Z" fill="white"/>
<path d="M73.2332 17.6593C73.697 17.102 74.2912 16.6679 74.9632 16.3957C75.6352 16.1236 76.364 16.0217 77.0849 16.0992C77.8057 16.1767 78.4962 16.4311 79.095 16.8399C79.6938 17.2487 80.1822 17.7992 80.5169 18.4423C80.8515 19.0854 81.022 19.8013 81.0132 20.5263C81.0045 21.2512 80.8166 21.9628 80.4664 22.5976C80.1163 23.2324 79.6146 23.7708 79.0061 24.165C78.3976 24.5591 77.7011 24.7968 76.9786 24.8568C76.1126 24.9347 75.243 24.7534 74.4802 24.3361C73.7174 23.9188 73.0959 23.2841 72.6945 22.5128C72.2932 21.7415 72.1301 20.8683 72.226 20.0042C72.3219 19.14 72.6725 18.3238 73.2332 17.6593ZM73.007 20.8014C73.0586 21.392 73.2552 21.9607 73.5794 22.4571C73.9035 22.9536 74.3451 23.3623 74.865 23.6472C75.3849 23.9321 75.9671 24.0843 76.56 24.0902C77.1528 24.0962 77.738 23.9558 78.2635 23.6814C78.7891 23.4071 79.2388 23.0073 79.5729 22.5174C79.9069 22.0276 80.1149 21.463 80.1784 20.8735C80.2419 20.2841 80.159 19.6881 79.937 19.1383C79.715 18.5886 79.3608 18.1021 78.9058 17.7221C78.3601 17.2653 77.6912 16.9804 76.9838 16.9034C76.2763 16.8264 75.5618 16.9608 74.9307 17.2896C74.2995 17.6184 73.7799 18.1269 73.4375 18.7508C73.0952 19.3747 72.9453 20.0861 73.007 20.7951V20.8014Z" fill="#556DEE"/>
<path d="M47.9063 325.438V309.369C47.9063 309.265 47.9477 309.164 48.0216 309.091C48.0954 309.017 48.1956 308.975 48.3001 308.975C48.4045 308.975 48.5047 309.017 48.5785 309.091C48.6524 309.164 48.6939 309.265 48.6939 309.369V325.44C48.6936 325.544 48.6518 325.644 48.5778 325.718C48.5037 325.792 48.4035 325.833 48.299 325.833C48.1946 325.832 48.0945 325.791 48.0209 325.716C47.9472 325.642 47.906 325.542 47.9063 325.438Z" fill="#556DEE"/>
<path d="M56.3259 317.796H40.2551C40.1507 317.796 40.0505 317.755 39.9767 317.681C39.9028 317.607 39.8613 317.507 39.8613 317.402C39.8613 317.298 39.9028 317.198 39.9767 317.124C40.0505 317.05 40.1507 317.008 40.2551 317.008H56.3259C56.4303 317.008 56.5305 317.05 56.6044 317.124C56.6782 317.198 56.7197 317.298 56.7197 317.402C56.7197 317.507 56.6782 317.607 56.6044 317.681C56.5305 317.755 56.4303 317.796 56.3259 317.796Z" fill="#556DEE"/>
<path d="M55.331 134.103C54.813 134.105 54.3071 134.26 53.8771 134.549C53.4471 134.837 53.1123 135.247 52.9148 135.726C52.7174 136.205 52.6661 136.731 52.7676 137.239C52.8691 137.747 53.1187 138.214 53.4849 138.58C53.8512 138.946 54.3177 139.196 54.8257 139.297C55.3336 139.399 55.8603 139.348 56.3391 139.15C56.818 138.953 57.2277 138.618 57.5165 138.188C57.8053 137.758 57.9603 137.252 57.962 136.734C57.9628 136.388 57.8953 136.046 57.7634 135.726C57.6315 135.407 57.4377 135.116 57.1932 134.872C56.9488 134.627 56.6584 134.434 56.3388 134.302C56.0192 134.17 55.6767 134.102 55.331 134.103Z" fill="#556DEE"/>
<path d="M76.3101 162.017C77.7585 162.017 78.9327 160.843 78.9327 159.395C78.9327 157.946 77.7585 156.772 76.3101 156.772C74.8617 156.772 73.6875 157.946 73.6875 159.395C73.6875 160.843 74.8617 162.017 76.3101 162.017Z" fill="#556DEE"/>
<path d="M100.799 137.712C100.28 137.711 99.7722 137.864 99.3401 138.151C98.9079 138.439 98.5708 138.848 98.3714 139.327C98.1719 139.806 98.1191 140.334 98.2195 140.843C98.32 141.352 98.5693 141.82 98.9358 142.187C99.3024 142.555 99.7697 142.805 100.279 142.907C100.787 143.008 101.315 142.957 101.795 142.758C102.274 142.56 102.684 142.224 102.973 141.793C103.261 141.361 103.415 140.854 103.415 140.335C103.415 139.64 103.14 138.974 102.649 138.483C102.159 137.991 101.493 137.714 100.799 137.712Z" fill="#556DEE"/>
<path d="M127.73 165.346C129.178 165.346 130.353 164.172 130.353 162.723C130.353 161.275 129.178 160.101 127.73 160.101C126.282 160.101 125.107 161.275 125.107 162.723C125.107 164.172 126.282 165.346 127.73 165.346Z" fill="#556DEE"/>
<path d="M150.63 142.958C151.149 142.958 151.656 142.804 152.087 142.516C152.519 142.227 152.855 141.818 153.053 141.339C153.252 140.859 153.304 140.332 153.203 139.823C153.101 139.315 152.852 138.847 152.485 138.48C152.118 138.114 151.651 137.864 151.142 137.763C150.633 137.662 150.106 137.713 149.627 137.912C149.148 138.11 148.738 138.447 148.45 138.878C148.162 139.309 148.008 139.816 148.008 140.335C148.008 141.03 148.285 141.697 148.777 142.189C149.268 142.68 149.935 142.957 150.63 142.958Z" fill="#556DEE"/>
<path d="M179.222 144.441C179.741 144.441 180.248 144.287 180.679 143.999C181.111 143.71 181.447 143.301 181.645 142.822C181.844 142.342 181.896 141.815 181.794 141.306C181.693 140.798 181.443 140.33 181.077 139.964C180.71 139.597 180.243 139.347 179.734 139.246C179.225 139.145 178.698 139.197 178.219 139.395C177.739 139.594 177.33 139.93 177.042 140.361C176.753 140.792 176.6 141.299 176.6 141.818C176.6 142.514 176.876 143.181 177.368 143.672C177.86 144.164 178.527 144.441 179.222 144.441Z" fill="#556DEE"/>
<path d="M210.863 140.335C211.382 140.335 211.889 140.181 212.32 139.893C212.751 139.605 213.087 139.195 213.286 138.716C213.484 138.237 213.536 137.709 213.435 137.201C213.334 136.692 213.084 136.225 212.717 135.858C212.351 135.491 211.883 135.241 211.374 135.14C210.866 135.039 210.338 135.091 209.859 135.289C209.38 135.488 208.97 135.824 208.682 136.255C208.394 136.687 208.24 137.194 208.24 137.712C208.24 138.057 208.308 138.398 208.44 138.716C208.572 139.034 208.765 139.323 209.008 139.567C209.252 139.81 209.541 140.003 209.859 140.135C210.177 140.267 210.518 140.335 210.863 140.335Z" fill="#556DEE"/>
<path d="M196.859 168.555C198.307 168.555 199.482 167.381 199.482 165.932C199.482 164.484 198.307 163.31 196.859 163.31C195.411 163.31 194.236 164.484 194.236 165.932C194.236 167.381 195.411 168.555 196.859 168.555Z" fill="#556DEE"/>
<path d="M290.802 370.21H235.395C236.857 369.705 238.204 368.912 239.355 367.878C240.506 366.844 241.439 365.59 242.098 364.19C244.567 358.765 246.748 347.625 249.052 341.247C249.822 339.252 249.825 337.044 249.062 335.047C248.299 333.051 246.823 331.408 244.919 330.436L237.588 326.495C236.568 325.257 220.267 305.471 213.239 295.839C207.96 289.004 201.935 282.779 195.274 277.282C195.356 277.156 195.76 276.524 195.825 276.387C195.934 276.063 196.366 276.974 187.629 262.541L182.438 209.603C181.805 202.334 179.621 195.285 176.034 188.931C172.168 181.695 165.837 176.084 158.189 173.115C157.542 166.738 157.954 160.297 159.408 154.053C163.768 157.262 179.652 169.135 184.797 172.872C188.252 175.371 192.528 176.464 196.759 175.929C200.989 175.395 204.859 173.274 207.585 169.994C217.462 158.084 227.772 146.619 235.939 138.458C236.447 138.027 236.837 137.473 237.07 136.849C247.263 137.633 250.045 139.782 257.075 141.642C257.298 141.717 257.54 141.71 257.759 141.622C257.977 141.534 258.156 141.371 258.265 141.162C258.874 139.759 255.623 137.727 254.356 136.935C257.461 137.319 261.424 138.106 264.516 138.391C264.749 138.429 264.988 138.382 265.19 138.259C265.391 138.137 265.542 137.945 265.615 137.721C265.967 136.311 262.794 134.914 261.26 134.277C260.003 133.757 258.194 133.008 256.652 132.417C258.441 132.404 260.355 132.48 261.794 132.572C263.447 132.679 268.412 132.966 268.73 131.351C268.81 130.957 269.044 129.761 262.934 127.697C260.267 126.79 248.233 125.022 241.272 124.048C240.73 123.879 240.42 123.64 240.357 123.338C239.993 121.642 245.481 117.745 246.719 116.269C248.219 114.484 249.232 113.162 248.677 112.421C248.009 111.535 245.653 112.345 240.885 114.553C236.446 116.606 232.058 118.395 226.222 120.498C223.432 119.143 219.46 118.267 217.344 120.515C208.671 128.042 200.888 136.537 194.145 145.834C191.535 143.668 173.531 128.829 161.009 121.214C158.13 119.258 154.723 118.226 151.243 118.254C149.031 118.511 146.862 119.053 144.789 119.867C143.859 120.031 143.277 119.658 142.816 117.959C143.553 118.23 144.337 118.35 145.121 118.312C145.906 118.274 146.674 118.078 147.382 117.737C148.089 117.395 148.72 116.915 149.238 116.324C149.755 115.734 150.149 115.045 150.395 114.3C151.138 115.245 152.153 115.939 153.303 116.288C154.454 116.638 155.684 116.625 156.827 116.252C157.97 115.879 158.97 115.163 159.693 114.203C160.416 113.242 160.826 112.082 160.868 110.881C161.892 111.43 163.056 111.662 164.212 111.548C165.368 111.435 166.465 110.98 167.362 110.243C168.26 109.505 168.918 108.518 169.254 107.405C169.589 106.293 169.587 105.106 169.247 103.996C170.409 104.159 171.592 103.971 172.646 103.455C173.699 102.939 174.573 102.119 175.156 101.101C175.738 100.083 176.002 98.9134 175.913 97.7439C175.825 96.5744 175.387 95.4584 174.658 94.54C175.867 94.3272 176.978 93.7407 177.835 92.8631C178.693 91.9855 179.254 90.861 179.439 89.648C179.624 88.4349 179.424 87.1944 178.867 86.101C178.31 85.0076 177.424 84.1165 176.334 83.5531C177.44 83.0128 178.347 82.1373 178.927 81.0513C179.507 79.9653 179.729 78.7241 179.563 77.5044C179.396 76.2847 178.849 75.1486 177.999 74.2579C177.149 73.3671 176.04 72.7671 174.83 72.5432C175.581 71.6387 176.042 70.5294 176.155 69.3592C176.268 68.189 176.026 67.0119 175.462 65.9807C174.897 64.9495 174.036 64.1117 172.989 63.576C171.943 63.0404 170.76 62.8315 169.593 62.9766C169.955 61.8711 169.979 60.683 169.664 59.5634C169.349 58.4437 168.708 57.4431 167.823 56.6887C166.937 55.9342 165.848 55.4601 164.692 55.3265C163.537 55.1929 162.368 55.4058 161.333 55.9383C161.308 54.74 160.916 53.5781 160.211 52.6092C159.505 51.6403 158.52 50.9109 157.387 50.519C156.254 50.1272 155.028 50.0919 153.875 50.4177C152.721 50.7436 151.696 51.4151 150.935 52.3417C150.518 51.1497 149.742 50.1162 148.714 49.3831C147.685 48.6501 146.455 48.2536 145.192 48.2481C143.93 48.2426 142.696 48.6283 141.661 49.3524C140.627 50.0764 139.842 51.1031 139.414 52.2914C138.664 51.3543 137.645 50.6697 136.494 50.3302C135.343 49.9906 134.115 50.0124 132.976 50.3927C131.838 50.7729 130.844 51.4933 130.128 52.4565C129.411 53.4197 129.008 54.5794 128.972 55.7791C127.944 55.2368 126.779 55.0119 125.623 55.1329C124.468 55.2539 123.374 55.7154 122.481 56.4589C121.588 57.2023 120.936 58.1942 120.608 59.3087C120.28 60.4232 120.29 61.6102 120.637 62.719C119.474 62.5628 118.291 62.7591 117.241 63.2824C116.19 63.8058 115.321 64.6321 114.746 65.6547C114.17 66.6772 113.914 67.8489 114.011 69.0183C114.109 70.1877 114.555 71.301 115.291 72.2144C113.926 72.4647 112.693 73.1884 111.809 74.2581C110.924 75.3278 110.446 76.675 110.457 78.0628C110.469 79.1336 110.776 80.1802 111.344 81.0882C111.911 81.9963 112.717 82.7309 113.674 83.2117C112.574 83.76 111.674 84.6408 111.102 85.7293C110.531 86.8177 110.317 88.0585 110.49 89.2756C110.663 90.4927 111.216 91.6243 112.068 92.5098C112.921 93.3953 114.031 93.9899 115.241 94.209C114.5 95.1187 114.049 96.2295 113.946 97.3981C113.844 98.5666 114.094 99.7392 114.664 100.764C115.234 101.789 116.099 102.62 117.146 103.148C118.193 103.677 119.375 103.879 120.539 103.73C120.248 104.626 120.18 105.58 120.338 106.509C120.496 107.438 120.877 108.315 121.447 109.065C122.018 109.815 122.762 110.416 123.615 110.817C124.468 111.217 125.406 111.405 126.347 111.365C128.31 112.609 130.662 113.087 132.954 112.708C133.057 115.711 132.65 120.626 129.739 119.943C121.006 117.89 117.097 119.272 112.13 123.146C102.67 129.915 92.846 136.161 82.7014 141.854C70.9374 134.757 62.4936 131.788 51.5256 127.059C51.45 127.026 51.3661 127.019 51.2858 127.036C51.2055 127.054 51.1326 127.096 51.0774 127.157C50.1354 128.196 49.2515 129.286 48.4296 130.423C47.3006 130.083 46.1213 129.942 44.944 130.004C37.1448 129.428 29.3891 128.367 21.7219 126.826C16.6526 125.885 15.4105 126.166 15.1004 126.88C14.7318 127.733 16.0326 128.766 17.9116 130.155C19.4198 131.263 25.8275 133.772 25.8841 135.488C25.8841 135.796 25.6411 136.104 25.1405 136.399C15.2827 140.209 6.20622 144.244 4.85931 145.096C-0.586983 148.546 -0.0737797 149.652 0.0937986 150.017C0.303271 150.457 0.858374 150.677 1.76958 150.677C4.28325 150.677 7.07762 149.39 12.0505 148.23C10.2449 149.476 8.16688 150.993 7.86105 151.219C5.27616 153.104 4.15547 154.581 4.6226 155.471C4.74653 155.672 4.93816 155.822 5.16289 155.894C5.38761 155.966 5.63062 155.955 5.84802 155.863C8.46015 154.958 12.4653 153.161 15.3602 152.061C14.3128 153.127 11.6567 155.855 12.5763 157.072C12.7314 157.25 12.945 157.366 13.1786 157.401C13.4122 157.435 13.6503 157.384 13.8499 157.258C20.5719 153.607 23.3369 150.243 35.1093 146.994C35.7984 146.994 36.5483 147.057 41.7035 147.662C41.5638 148.69 41.4626 149.737 41.3997 150.804C41.3872 151.014 41.4689 151.127 41.9444 151.351C49.7561 154.611 57.3983 158.263 64.8418 162.294C68.1221 163.997 71.5114 165.761 75.5961 167.765C78.4007 169.153 81.5103 169.809 84.6362 169.673C87.7621 169.537 90.803 168.613 93.4767 166.988C100.442 162.769 107.905 158.301 115.89 154.081C117.569 161.212 120.006 168.144 123.159 174.758C103.961 266.354 100.844 280.841 100.484 283.166C100.4 283.721 100.484 283.585 100.521 283.635C100.691 283.78 102.067 284.509 102.264 284.611L89.4695 350.786C78.9079 353.928 66.4275 363.172 58.8697 370.21H1.06538C0.960938 370.21 0.86077 370.252 0.786916 370.326C0.713063 370.4 0.671574 370.5 0.671574 370.604C0.671574 370.709 0.713063 370.809 0.786916 370.883C0.86077 370.956 0.960938 370.998 1.06538 370.998C279.685 370.998 287.132 371.153 290.846 370.835C291.479 370.78 291.148 370.21 290.802 370.21ZM212.591 296.304C219.481 305.745 235.25 324.912 236.89 326.887C233.93 336.429 230.273 339.223 221.854 344.766L174.612 293.811C182.799 290.679 189.848 285.147 194.837 277.94C201.419 283.382 207.374 289.542 212.591 296.304ZM257.532 140.85C257.517 140.882 257.408 140.919 257.268 140.882C250.502 139.095 247.999 137.111 238.348 136.173C243.089 136.12 247.828 136.315 252.548 136.757L254.291 137.832C257.718 139.968 257.532 140.85 257.532 140.85ZM261.149 135.09C264.878 136.64 264.84 137.532 264.84 137.532C264.84 137.568 264.729 137.622 264.578 137.608C262.808 137.446 260.751 137.115 258.761 136.799C255.943 136.278 253.092 135.946 250.23 135.806C246.078 135.425 241.908 135.292 237.741 135.408C243.159 133.639 248.802 132.651 254.499 132.475C256.122 133.005 259.574 134.436 261.149 135.09ZM262.67 128.445C267.976 130.238 267.945 131.2 267.945 131.2C267.894 131.451 266.667 132.101 261.834 131.786C256.445 131.427 251.032 131.696 245.705 132.587C239.844 133.828 234.098 135.562 228.528 137.769L227.181 137.14C222.859 134.858 219.462 131.147 217.571 126.64L217.106 124.706C218.154 123.991 219.343 123.507 220.593 123.286C226.033 122.31 258.73 127.103 262.67 128.447V128.445ZM242.544 114.654C247.215 112.527 247.946 112.827 248.03 112.888C248.164 113.307 246.612 115.156 246.103 115.764C244.662 117.484 238.522 121.503 239.691 123.839C234.733 123.196 228.038 122.542 223.231 122.373C229.806 120.158 236.253 117.581 242.544 114.654ZM129.559 120.712C132.072 121.302 133.161 118.956 133.555 116.396C133.616 116.31 136.748 111.874 136.798 111.788C136.831 111.72 136.843 111.643 136.833 111.568C136.823 111.493 136.792 111.422 136.743 111.364C136.693 111.307 136.628 111.265 136.556 111.243C136.483 111.222 136.406 111.222 136.333 111.243C136.266 111.264 129.973 113.265 126.743 110.678C123.031 107.707 125.415 100.751 127.219 96.3456C128.614 92.9438 131.595 86.846 135.166 87.6064C138.26 88.2621 140.258 93.6686 140.221 97.2422C140.221 97.2782 140.226 97.3141 140.235 97.349C140.267 97.5899 140.365 98.3293 140.958 98.5598C141.729 98.8593 142.799 98.0214 143.436 97.4893C146.723 94.7285 149.396 100.575 142.862 103.983C141.176 104.867 140.422 107.027 141.547 115.45C142.64 123.533 144.898 120.079 149.716 119.22C143.455 127.272 138.42 136.206 134.776 145.733C130.225 137.821 125.821 122.944 124.948 119.905C126.5 120.076 128.04 120.346 129.559 120.712ZM18.385 129.509C17.7565 129.04 15.8022 127.614 15.8273 127.19C16.3384 126.533 22.1513 127.7 22.7399 127.819C29.15 129.091 35.6267 130 42.1392 130.542C37.5936 131.822 32.0552 133.766 26.6382 135.827C27.2645 133.265 20.2283 130.875 18.385 129.52V129.509ZM24.0407 150.26C20.5467 152.032 13.4624 156.917 13.2026 156.586C13.2026 156.586 12.8151 155.775 15.6388 152.891C15.9237 152.597 16.4494 152.065 17.0758 151.439C21.5565 149.901 26.1137 148.596 30.7292 147.528C28.446 148.296 26.2153 149.212 24.0512 150.27L24.0407 150.26ZM10.8754 153.014C9.01315 153.787 7.0881 154.587 5.58827 155.109C5.45002 155.157 5.33481 155.128 5.31805 155.096C5.31805 155.096 5.06668 154.231 8.32399 151.848C8.74293 151.544 12.3438 148.915 14.1641 147.757C19.7671 146.535 25.5208 146.153 31.2361 146.625C24.2735 148.14 17.4622 150.282 10.8858 153.025L10.8754 153.014ZM22.7399 145.764C17.3598 146.183 12.0436 147.204 6.89119 148.808C2.27022 150.258 0.923313 149.918 0.816482 149.686C0.816482 149.686 0.558828 148.76 5.28872 145.762C17.5036 139.945 30.134 135.044 43.0755 131.099C44.6723 130.667 46.3553 130.667 47.952 131.099C44.7307 135.822 42.6367 141.221 41.8312 146.881C35.5152 145.958 29.1307 145.588 22.7504 145.775L22.7399 145.764ZM114.07 136.849C114.067 136.745 114.023 136.646 113.946 136.574C113.87 136.502 113.769 136.464 113.665 136.467C113.56 136.47 113.461 136.514 113.39 136.59C113.318 136.667 113.279 136.768 113.282 136.872C113.603 142.399 114.415 147.885 115.708 153.268C107.637 157.526 100.104 162.038 93.0745 166.295C90.5137 167.852 87.6009 168.736 84.6068 168.866C81.6126 168.996 78.6341 168.368 75.948 167.039C63.4781 160.92 57.8706 157.273 42.2104 150.557C42.5851 142.16 45.8559 134.151 51.467 127.892C62.8058 132.765 70.862 135.611 82.4857 142.645C82.5459 142.681 82.6147 142.7 82.6847 142.7C82.7547 142.7 82.8234 142.681 82.8837 142.645C83.0827 142.534 102.936 131.307 112.608 123.766C114.145 122.345 115.961 121.26 117.94 120.581C119.919 119.901 122.019 119.642 124.104 119.819C124.759 122.123 129.596 138.762 134.51 146.824C134.549 146.887 134.604 146.938 134.67 146.971C134.736 147.004 134.809 147.018 134.883 147.011C134.956 147.004 135.026 146.977 135.084 146.933C135.143 146.888 135.188 146.828 135.214 146.759C138.954 136.773 144.223 127.428 150.833 119.059C154.311 118.91 157.743 119.905 160.602 121.891C174.009 130.046 193.764 146.542 193.961 146.707C194.032 146.766 194.122 146.798 194.214 146.799H194.258C194.312 146.793 194.363 146.776 194.409 146.75C194.456 146.723 194.496 146.687 194.529 146.644C200.933 137.818 208.25 129.692 216.36 122.402C216.136 123.907 216.292 125.445 216.814 126.874C218.773 131.583 222.311 135.463 226.821 137.844C228.971 139.065 231.441 139.604 233.903 139.388C225.975 147.44 216.28 158.272 206.971 169.496C204.373 172.621 200.685 174.642 196.654 175.152C192.622 175.661 188.547 174.62 185.253 172.24C180.115 168.501 164.08 156.529 159.599 153.224C160.137 150.906 160.846 148.632 161.721 146.42C161.762 146.324 161.763 146.215 161.724 146.118C161.686 146.021 161.61 145.944 161.514 145.903C161.417 145.862 161.309 145.86 161.212 145.899C161.115 145.938 161.037 146.014 160.996 146.11C157.733 154.72 156.499 163.967 157.391 173.132C144.613 177.005 135.168 177.353 123.857 174.368C118.265 162.592 114.945 149.867 114.072 136.86L114.07 136.849ZM101.242 283.143L123.875 175.174C135.688 178.249 145.631 177.531 157.81 173.813C165.336 176.687 171.563 182.195 175.335 189.314C178.867 195.573 181.016 202.517 181.638 209.677L186.839 262.703C186.86 262.912 186.736 262.61 194.987 276.235C192.831 279.711 190.145 282.829 187.027 285.477L176.925 273.434C176.857 273.354 176.761 273.303 176.657 273.294C176.552 273.285 176.449 273.317 176.368 273.385C176.288 273.452 176.238 273.548 176.229 273.653C176.219 273.757 176.252 273.861 176.319 273.941L186.424 285.979C182.124 289.418 177.277 292.109 172.084 293.939L163.166 285.458C159.258 281.743 156.464 277.012 155.097 271.796L136.81 202.041C136.784 201.94 136.719 201.854 136.628 201.801C136.538 201.748 136.431 201.733 136.33 201.76C136.229 201.786 136.142 201.852 136.089 201.942C136.036 202.032 136.022 202.139 136.048 202.24L145.893 239.807C130.212 287.32 133.071 278.141 130.392 288.298C126.867 288.872 123.287 289.042 119.724 288.803L123.943 273.549C123.965 273.45 123.948 273.347 123.896 273.26C123.844 273.174 123.761 273.11 123.663 273.083C123.566 273.056 123.462 273.068 123.372 273.116C123.283 273.163 123.216 273.244 123.184 273.34L118.923 288.742C112.698 288.165 106.67 286.259 101.244 283.153L101.242 283.143ZM102.999 284.974C111.012 289.034 120.075 290.545 128.972 289.306C128.997 300.408 120.383 322.178 115.425 350.784C107.204 353.074 98.5138 353.081 90.2885 350.805L102.999 284.974ZM116.043 370.2C117.079 369.709 117.938 368.909 118.501 367.91C119.063 366.911 119.303 365.762 119.185 364.622C118.714 359.996 117.704 355.441 116.175 351.05C121.05 322.811 129.833 300.32 129.755 289.19C129.822 289.19 130.803 289.04 130.859 289.017C131.188 288.897 131.029 289.044 133.178 280.908L146.283 241.207L154.354 271.989C155.758 277.347 158.628 282.207 162.643 286.023C172.084 295.001 171.767 294.846 172.082 294.773C172.291 294.727 173.548 294.228 173.829 294.121L221.479 345.518C225.807 352.011 224.94 355.279 224.422 357.227C219.732 361.595 217.225 361.714 213.909 370.2H116.043Z" fill="#556DEE"/>
<path d="M169.418 197.343C169.523 197.343 169.623 197.301 169.697 197.228C169.77 197.154 169.812 197.054 169.812 196.949C169.812 196.845 169.77 196.745 169.697 196.671C169.623 196.597 169.523 196.555 169.418 196.555C169.357 196.555 169.311 196.555 169.257 196.555C162.256 196.555 156.269 193.413 150.936 186.989C150.87 186.908 150.774 186.857 150.67 186.848C150.565 186.838 150.462 186.87 150.381 186.936C150.301 187.003 150.25 187.099 150.24 187.203C150.23 187.307 150.262 187.411 150.329 187.491C155.337 193.547 161.621 197.492 169.418 197.343Z" fill="#556DEE"/>
</svg>
