<svg width="168" height="30" viewBox="0 0 168 30" fill="none" xmlns="http://www.w3.org/2000/svg">
<path d="M53.25 22.75H41.25V5.25H45.5V19H53.25V22.75Z" fill="#062439"/>
<path d="M55.8883 20.4C54.1216 18.6667 53.2383 16.5333 53.2383 14C53.2383 11.4667 54.1216 9.33333 55.8883 7.6C57.6716 5.86667 59.8716 5 62.4883 5C65.1049 5 67.2966 5.86667 69.0633 7.6C70.8466 9.33333 71.7383 11.4667 71.7383 14C71.7383 16.5333 70.8466 18.6667 69.0633 20.4C67.2966 22.1333 65.1049 23 62.4883 23C59.8716 23 57.6716 22.1333 55.8883 20.4ZM59.0383 10.375C58.1049 11.3583 57.6383 12.5667 57.6383 14C57.6383 15.4333 58.1049 16.6417 59.0383 17.625C59.9716 18.6083 61.1216 19.1 62.4883 19.1C63.8549 19.1 65.0049 18.6083 65.9383 17.625C66.8716 16.6417 67.3383 15.4333 67.3383 14C67.3383 12.5667 66.8716 11.3583 65.9383 10.375C65.0049 9.39167 63.8549 8.9 62.4883 8.9C61.1216 8.9 59.9716 9.39167 59.0383 10.375Z" fill="#062439"/>
<path d="M83.9084 16.475L87.9834 22.75H82.9334L79.2084 17H77.4834V22.75H73.2334V5.25H80.9834C82.9501 5.25 84.5251 5.8 85.7084 6.9C86.8917 8 87.4834 9.40833 87.4834 11.125C87.4834 12.3417 87.1667 13.425 86.5334 14.375C85.9167 15.3083 85.0417 16.0083 83.9084 16.475ZM80.9834 9H77.4834V13.125H80.9834C81.6167 13.125 82.1251 12.9333 82.5084 12.55C82.8917 12.1667 83.0834 11.675 83.0834 11.075C83.0834 10.475 82.8917 9.98333 82.5084 9.6C82.1251 9.2 81.6167 9 80.9834 9Z" fill="#062439"/>
<path d="M101.237 22.75H89.2373V5.25H101.237V9H93.4873V12.125H100.987V15.875H93.4873V19H101.237V22.75Z" fill="#062439"/>
<path d="M122.995 5.25V22.75H118.995V6.525L116.745 22.75H109.22L106.995 6.525V22.75H102.995V5.25H110.82L113.045 21.475L115.295 5.25H122.995Z" fill="#062439"/>
<path d="M136.738 22.75H132.488V5.25H136.738V22.75Z" fill="#062439"/>
<path d="M142.977 22.75H138.727V5.25H146.452C148.502 5.25 150.143 5.825 151.377 6.975C152.61 8.125 153.227 9.59167 153.227 11.375C153.227 13.1583 152.61 14.6083 151.377 15.725C150.143 16.825 148.502 17.375 146.452 17.375H142.977V22.75ZM142.977 9V13.625H146.452C147.168 13.625 147.743 13.4083 148.177 12.975C148.61 12.5417 148.827 11.9917 148.827 11.325C148.827 10.6417 148.61 10.0833 148.177 9.65C147.743 9.21667 147.168 9 146.452 9H142.977Z" fill="#062439"/>
<path d="M153.968 18.075L158.268 17.2C158.568 18.6333 159.518 19.35 161.118 19.35C161.818 19.35 162.384 19.1917 162.818 18.875C163.268 18.5583 163.493 18.175 163.493 17.725C163.493 17.3583 163.326 17.05 162.993 16.8C162.659 16.55 162.218 16.35 161.668 16.2C161.134 16.05 160.543 15.9 159.893 15.75C159.243 15.5833 158.593 15.375 157.943 15.125C157.293 14.875 156.693 14.5667 156.143 14.2C155.609 13.8333 155.176 13.325 154.843 12.675C154.509 12.025 154.343 11.2583 154.343 10.375C154.343 8.84167 154.984 7.56667 156.268 6.55C157.551 5.51667 159.126 5 160.993 5C162.876 5 164.418 5.45 165.618 6.35C166.834 7.25 167.551 8.44167 167.768 9.925L163.468 10.8C163.334 10.1333 163.043 9.60833 162.593 9.225C162.143 8.84167 161.559 8.65 160.843 8.65C160.209 8.65 159.701 8.79167 159.318 9.075C158.934 9.34167 158.743 9.69167 158.743 10.125C158.743 10.525 158.968 10.8583 159.418 11.125C159.868 11.3917 160.434 11.5917 161.118 11.725C161.801 11.8583 162.534 12.0583 163.318 12.325C164.101 12.5917 164.834 12.9 165.518 13.25C166.201 13.6 166.768 14.15 167.218 14.9C167.668 15.65 167.893 16.55 167.893 17.6C167.893 19.1333 167.226 20.4167 165.893 21.45C164.576 22.4833 162.943 23 160.993 23C159.059 23 157.459 22.55 156.193 21.65C154.943 20.75 154.201 19.5583 153.968 18.075Z" fill="#062439"/>
<path d="M17.694 5.52484C17.7125 0.475155 17.7125 0.372671 17.5271 0.186335C17.3509 0.00931677 17.221 0 14.8006 0H12.2504L12.0649 0.242236C11.8794 0.484472 11.8702 0.596273 11.8702 3.81056V7.12733L9.4405 4.68634C7.80835 3.0559 6.91808 2.22671 6.74189 2.18012C6.4915 2.12422 6.34312 2.25466 4.44204 4.15528C2.84794 5.75058 2.33251 6.25383 2.41016 6.63523C2.44859 6.82405 2.63239 6.983 2.90263 7.22981C4.58114 8.75776 6.62133 9.83851 8.79135 10.3509C9.92272 10.6118 11.9351 10.7236 14.9768 10.6957L17.6662 10.6677L17.694 5.52484Z" fill="#556DEE"/>
<path d="M27.8207 6.66149C27.8207 6.42857 27.524 6.09317 25.8454 4.40683C24.0093 2.56211 23.8516 2.42236 23.5456 2.42236C23.2674 2.42236 23.1376 2.49689 22.7944 2.86957C21.3199 4.45342 20.1793 6.61491 19.6414 8.85093C19.4652 9.57764 19.4467 9.99689 19.4096 13.6677L19.3725 17.7019H24.51C29.6105 17.7019 29.6476 17.7019 29.8238 17.5062C29.9907 17.3199 30 17.1335 30 14.8137C30 12.4938 29.9907 12.3075 29.8238 12.1211C29.6476 11.9255 29.5827 11.9255 26.2349 11.9255H22.8315L25.3261 9.42857C27.4776 7.28571 27.8207 6.90373 27.8207 6.66149Z" fill="#556DEE"/>
<path d="M10.609 20.4503L10.6461 16.3696L10.6739 12.2981L5.59196 12.3075C2.80062 12.3075 0.454405 12.3354 0.38949 12.3634C0.0556414 12.4938 0 12.8851 0 15.2329C0 17.6273 0.0463679 17.9627 0.417311 18.1118C0.500773 18.1397 2.05873 18.1677 3.87635 18.1677H7.18702L4.7017 20.6646C2.83771 22.5466 2.22566 23.2174 2.22566 23.3851C2.22566 23.5528 2.7357 24.1211 4.23802 25.6397C5.82562 27.2411 6.31313 27.7416 6.68039 27.6644C6.85159 27.6284 6.99665 27.4669 7.21484 27.2329C8.69861 25.6398 9.72798 23.7484 10.3215 21.5217L10.609 20.4503Z" fill="#556DEE"/>
<path d="M27.0603 22.7143C25.3818 21.1211 22.8594 19.8913 20.541 19.5279C19.8269 19.4068 18.7697 19.3696 16.0155 19.3509C14.0309 19.3416 12.3895 19.3509 12.3709 19.3696C12.3524 19.3882 12.3338 21.6988 12.3338 24.5031V29.5994L12.5471 29.795C12.7604 29.9907 12.8253 30 15.2458 30H17.7218L17.9444 29.7671L18.1762 29.5435V22.8727L20.5688 25.2671C21.8764 26.5807 23.0448 27.6988 23.1561 27.7547C23.2674 27.8106 23.4343 27.8292 23.5271 27.8012C23.6198 27.764 24.5842 26.8509 25.6692 25.7702C27.1776 24.2608 27.6891 23.7726 27.62 23.3903C27.5824 23.1826 27.3736 23.0061 27.0603 22.7143Z" fill="#556DEE"/>
</svg>
