<svg width="516" height="325" viewBox="0 0 516 325" fill="none" xmlns="http://www.w3.org/2000/svg">
<path d="M513.512 176.267C530.866 88.3457 431.144 18.9999 310 18.9999C188.856 18.9999 21.0003 119 21 285.765C32.8568 397.241 173.018 231.5 294.162 231.5C415.306 231.5 502.512 232 513.512 176.267Z" fill="#EEF0FD"/>
<path d="M359.587 189.182L395.297 189.373C395.297 189.373 408.407 188.916 413.545 192.52C418.683 196.123 423.913 202.493 425.058 207.245C426.192 211.999 425.07 224.26 425.07 224.26L422.015 289.287H369.539C369.539 289.287 380.37 273.856 380.751 267.39C381.133 260.929 359.205 198.436 359.078 197.676C358.951 196.914 359.587 189.182 359.587 189.182Z" fill="white"/>
<path d="M422.481 289.8C422.886 289.8 423.221 289.481 423.244 289.071L426.285 212.832C426.285 199.615 415.554 188.888 402.372 188.888H360.985C360.557 188.888 360.222 189.228 360.222 189.648C360.222 190.069 360.557 190.409 360.985 190.409H402.372C414.722 190.409 424.77 200.455 424.77 212.802L421.718 289.011C421.706 289.432 422.03 289.784 422.458 289.8C422.458 289.8 422.469 289.8 422.481 289.8Z" fill="#2E2E2E"/>
<path d="M415.363 289.801C415.767 289.801 416.102 289.481 416.113 289.071L419.158 212.831C419.158 199.616 408.431 188.887 395.246 188.887H365.671C365.244 188.887 364.91 189.227 364.91 189.648C364.91 190.068 365.244 190.409 365.671 190.409H395.246C407.589 190.409 417.647 200.454 417.647 212.801L414.602 289.011C414.579 289.431 414.913 289.784 415.329 289.801C415.34 289.801 415.352 289.801 415.363 289.801Z" fill="#2E2E2E"/>
<path d="M375.706 86.7681C399.377 86.7681 418.615 67.5198 418.615 43.8621C418.615 20.2032 399.377 0.95607 375.706 0.95607C353.873 0.95607 335.548 17.2933 333.083 38.9585C333.035 39.3757 333.331 39.7538 333.758 39.8012C334.161 39.8403 334.552 39.5487 334.6 39.1315C336.97 18.2344 354.643 2.47684 375.706 2.47684C398.536 2.47684 417.098 21.0412 417.098 43.8621C417.098 66.6829 398.536 85.2474 375.706 85.2474C357.678 85.2474 341.842 73.7237 336.318 56.571C336.188 56.1716 335.749 55.9499 335.358 56.0815C334.955 56.2095 334.742 56.6386 334.872 57.038C340.597 74.8213 357.014 86.7681 375.706 86.7681Z" fill="#2E2E2E"/>
<path d="M333.353 41.7563L334.089 41.1003C342.171 33.9766 342.349 33.7151 342.409 33.6153C342.646 33.2647 342.551 32.794 342.195 32.5611C341.874 32.3448 341.434 32.4137 341.185 32.7191C340.804 33.1208 336.752 36.7196 333.828 39.3033L329.419 30.3968C329.24 30.0177 328.777 29.8668 328.408 30.051C328.028 30.2388 327.874 30.6951 328.064 31.0707L333.353 41.7563Z" fill="#2E2E2E"/>
<path d="M363.164 52.4583H351.397V50.7082L356.106 45.9713C357.545 44.5206 358.49 43.4832 358.95 42.8638C359.411 42.2432 359.756 41.6398 359.975 41.0515C360.205 40.4643 360.32 39.8321 360.32 39.154C360.32 38.2006 360.032 37.443 359.457 36.8846C358.869 36.3262 358.075 36.0475 357.039 36.0475C356.302 36.0475 355.6 36.1684 354.932 36.4137C354.264 36.6578 353.527 37.1034 352.71 37.7481L351.627 36.3653C353.285 34.994 355.07 34.3089 357.016 34.3089C358.697 34.3089 360.009 34.7384 360.977 35.5996C361.921 36.4597 362.404 37.6169 362.404 39.0699C362.404 40.2029 362.082 41.3244 361.449 42.4343C360.815 43.5442 359.618 44.9477 357.879 46.6437L353.953 50.4756V50.5735H363.164V52.4583Z" fill="#2E2E2E"/>
<path d="M373.729 46.4997V40.55C373.729 39.3835 373.775 38.0661 373.856 36.5966H373.764C373.369 37.3813 372.997 38.0289 372.661 38.5431L367.066 46.4997H373.729ZM378.337 48.3464H375.679V52.4587H373.729V48.3464H365.035V46.5717L373.531 34.4691H375.679V46.4997H378.337V48.3464Z" fill="#2E2E2E"/>
<path d="M387.785 34.5667L381.112 52.4596H379.083L385.755 34.5667H387.785Z" fill="#2E2E2E"/>
<path d="M391.526 52.4586L398.95 36.4386H389.188V34.5662H401.1V36.193L393.781 52.4586H391.526Z" fill="#2E2E2E"/>
<path d="M125.47 135.136H140.188C145.192 135.136 149.24 139.193 149.24 144.198V155.01C149.24 160.013 145.192 164.071 140.188 164.071H136.366L137.799 174.476C137.879 175.088 137.202 175.516 136.684 175.177L122.165 164.071H90.8161C85.8125 164.071 81.7513 160.013 81.7513 155.01V144.198C81.7513 139.193 85.8125 135.136 90.8161 135.136H113.83H125.47Z" fill="white"/>
<path d="M147.098 172.367C147.363 172.367 147.629 172.291 147.868 172.14C148.359 171.825 148.625 171.267 148.545 170.685L147.244 161.145H150.178C155.595 161.145 160.003 156.737 160.003 151.322V140.512C160.003 135.096 155.595 130.69 150.178 130.69H135.468C135.043 130.69 134.711 131.03 134.711 131.449C134.711 131.87 135.043 132.21 135.468 132.21H150.178C154.759 132.21 158.489 135.934 158.489 140.512V151.322C158.489 155.9 154.759 159.624 150.178 159.624H145.491L147.045 170.892L132.427 159.624H100.815C96.2348 159.624 92.5041 155.9 92.5041 151.322V140.512C92.5041 135.934 96.2348 132.21 100.815 132.21H123.837C124.249 132.21 124.594 131.87 124.594 131.449C124.594 131.03 124.249 130.69 123.837 130.69H100.815C95.3984 130.69 90.9905 135.096 90.9905 140.512V151.322C90.9905 156.737 95.3984 161.145 100.815 161.145H131.909L146.222 172.093C146.501 172.278 146.793 172.367 147.098 172.367Z" fill="#2E2E2E"/>
<path d="M141.625 144.033C142.82 144.033 143.808 145.015 143.808 146.22C143.808 147.427 142.82 148.409 141.625 148.409C140.417 148.409 139.43 147.427 139.43 146.22C139.43 145.015 140.417 144.033 141.625 144.033ZM141.625 149.93C143.665 149.93 145.327 148.266 145.327 146.22C145.327 144.175 143.665 142.512 141.625 142.512C139.573 142.512 137.911 144.175 137.911 146.22C137.911 148.266 139.573 149.93 141.625 149.93Z" fill="#2E2E2E"/>
<path d="M125.637 144.033C126.841 144.033 127.836 145.016 127.836 146.221C127.836 147.427 126.841 148.409 125.637 148.409C124.433 148.409 123.452 147.427 123.452 146.221C123.452 145.016 124.433 144.033 125.637 144.033ZM125.637 149.93C127.692 149.93 129.354 148.266 129.354 146.221C129.354 144.175 127.692 142.512 125.637 142.512C123.596 142.512 121.934 144.175 121.934 146.221C121.934 148.266 123.596 149.93 125.637 149.93Z" fill="#2E2E2E"/>
<path d="M109.406 144.033C110.619 144.033 111.595 145.014 111.595 146.221C111.595 147.427 110.619 148.408 109.406 148.408C108.206 148.408 107.217 147.427 107.217 146.221C107.217 145.014 108.206 144.033 109.406 144.033ZM109.406 149.93C111.45 149.93 113.125 148.266 113.125 146.221C113.125 144.175 111.45 142.511 109.406 142.511C107.362 142.511 105.701 144.175 105.701 146.221C105.701 148.266 107.362 149.93 109.406 149.93Z" fill="#2E2E2E"/>
<path d="M481.997 103.633C486.597 103.633 490.328 99.8923 490.328 95.2961V63.7075C490.328 59.1113 486.597 55.3707 481.997 55.3707H428.256C427.839 55.3707 427.5 55.71 427.5 56.1305C427.5 56.551 427.839 56.8915 428.256 56.8915H481.997C485.751 56.8915 488.806 59.95 488.806 63.7075V95.2961C488.806 99.0536 485.751 102.112 481.997 102.112C481.569 102.112 481.23 102.453 481.23 102.873C481.23 103.294 481.569 103.633 481.997 103.633Z" fill="#2E2E2E"/>
<path d="M440.866 70.787H400.27C396.089 70.787 392.7 74.1792 392.7 78.3639V106.91C392.7 111.094 396.089 114.487 400.27 114.487H405.187L400.81 132.637L421.303 114.487H466.528C470.721 114.487 474.109 111.094 474.109 106.91V78.3639C474.109 74.1792 470.721 70.787 466.528 70.787H455.925H440.866Z" fill="#5856D6"/>
<path d="M469.927 110.708V82.163C469.927 77.9778 466.53 74.5855 462.353 74.5855H435.04H419.972H396.091C395.563 74.5855 395.047 74.6429 394.542 74.7473C395.827 72.396 398.295 70.7824 401.164 70.7824H441.754H456.821H467.413C471.602 70.7824 474.104 74.4926 474.104 78.6766L474.276 107.045C474.276 110.698 472.405 113.604 468.963 114.322C469.559 113.243 469.927 112.024 469.927 110.708Z" fill="white"/>
<path d="M401.271 133.207C401.524 133.207 401.765 133.117 401.961 132.946L421.589 115.561H466.533C471.13 115.561 474.876 111.82 474.876 107.224V78.677C474.876 74.0803 471.13 70.3398 466.533 70.3398H455.926C455.512 70.3398 455.168 70.681 455.168 71.1005C455.168 71.5211 455.512 71.8612 455.926 71.8612H466.533C470.291 71.8612 473.348 74.918 473.348 78.677V107.224C473.348 110.982 470.291 114.039 466.533 114.039H421.014L402.11 130.776L406.144 114.039H400.271C396.514 114.039 393.457 110.982 393.457 107.224V78.677C393.457 74.918 396.514 71.8612 400.271 71.8612H440.86C441.286 71.8612 441.63 71.5211 441.63 71.1005C441.63 70.681 441.286 70.3398 440.86 70.3398H400.271C395.675 70.3398 391.94 74.0803 391.94 78.677V107.224C391.94 111.82 395.675 115.561 400.271 115.561H404.213L400.271 131.931C400.157 132.371 400.352 132.825 400.743 133.058C400.903 133.157 401.087 133.207 401.271 133.207Z" fill="#2E2E2E"/>
<path d="M451.156 87.7205H462.479C462.902 87.7205 463.236 87.3798 463.236 86.9601C463.236 86.5393 462.902 86.1986 462.479 86.1986H451.156C450.744 86.1986 450.399 86.5393 450.399 86.9601C450.399 87.3798 450.744 87.7205 451.156 87.7205Z" fill="#2E2E2E"/>
<path d="M405.509 87.7191H441.654C442.077 87.7191 442.408 87.379 442.408 86.959C442.408 86.539 442.077 86.1989 441.654 86.1989H405.509C405.087 86.1989 404.744 86.539 404.744 86.959C404.744 87.379 405.087 87.7191 405.509 87.7191Z" fill="#2E2E2E"/>
<path d="M441.653 99.611H462.48C462.894 99.611 463.241 99.2708 463.241 98.85C463.241 98.4292 462.894 98.0901 462.48 98.0901H441.653C441.228 98.0901 440.892 98.4292 440.892 98.85C440.892 99.2708 441.228 99.611 441.653 99.611Z" fill="#2E2E2E"/>
<path d="M419.98 99.6113H433.196C433.615 99.6113 433.955 99.2716 433.955 98.8504C433.955 98.4302 433.615 98.0905 433.196 98.0905H419.98C419.561 98.0905 419.222 98.4302 419.222 98.8504C419.222 99.2716 419.561 99.6113 419.98 99.6113Z" fill="#2E2E2E"/>
<path d="M181.79 45.0319C181.716 45.0319 181.667 45.0899 181.667 45.1602V62.5891C181.667 62.6594 181.716 62.7149 181.79 62.7149H199.229C199.291 62.7149 199.352 62.6594 199.352 62.5891V45.1602C199.352 45.0899 199.291 45.0319 199.229 45.0319H181.79ZM199.229 64.2368H181.79C180.89 64.2368 180.15 63.4969 180.15 62.5891V45.1602C180.15 44.2512 180.89 43.5112 181.79 43.5112H199.229C200.129 43.5112 200.869 44.2512 200.869 45.1602V62.5891C200.869 63.4969 200.129 64.2368 199.229 64.2368Z" fill="#2E2E2E"/>
<path d="M190.619 58.2036L184.283 52.322C183.974 52.0367 183.95 51.555 184.246 51.2475C184.53 50.9387 185.012 50.9227 185.321 51.208L190.385 55.9112L202.341 39.0618C202.588 38.7185 203.057 38.6432 203.403 38.8803C203.749 39.1236 203.823 39.5991 203.576 39.9412L190.619 58.2036Z" fill="#556DEE"/>
<path d="M181.79 78.7503C181.716 78.7503 181.667 78.807 181.667 78.8761V96.3063C181.667 96.3766 181.716 96.4321 181.79 96.4321H199.229C199.291 96.4321 199.352 96.3766 199.352 96.3063V78.8761C199.352 78.807 199.291 78.7503 199.229 78.7503H181.79ZM199.229 97.954H181.79C180.89 97.954 180.15 97.214 180.15 96.3063V78.8761C180.15 77.9684 180.89 77.2296 181.79 77.2296H199.229C200.129 77.2296 200.869 77.9684 200.869 78.8761V96.3063C200.869 97.214 200.129 97.954 199.229 97.954Z" fill="#2E2E2E"/>
<path d="M190.619 91.9197L184.283 86.0393C183.974 85.754 183.95 85.2736 184.246 84.966C184.53 84.6572 185.012 84.6399 185.321 84.9252L190.385 89.6274L202.341 72.7792C202.588 72.4346 203.057 72.3604 203.403 72.5976C203.749 72.8421 203.823 73.3165 203.576 73.6586L190.619 91.9197Z" fill="#556DEE"/>
<path d="M181.79 112.467C181.716 112.467 181.667 112.524 181.667 112.594V130.022C181.667 130.093 181.716 130.15 181.79 130.15H199.229C199.291 130.15 199.352 130.093 199.352 130.022V112.594C199.352 112.524 199.291 112.467 199.229 112.467H181.79ZM199.229 131.671H181.79C180.89 131.671 180.15 130.932 180.15 130.022V112.594C180.15 111.687 180.89 110.947 181.79 110.947H199.229C200.129 110.947 200.869 111.687 200.869 112.594V130.022C200.869 130.932 200.129 131.671 199.229 131.671Z" fill="#2E2E2E"/>
<path d="M190.619 125.638L184.283 119.755C183.974 119.47 183.95 118.99 184.246 118.682C184.53 118.373 185.012 118.356 185.321 118.641L190.385 123.345L202.341 106.495C202.588 106.152 203.057 106.075 203.403 106.314C203.749 106.558 203.823 107.032 203.576 107.375L190.619 125.638Z" fill="#556DEE"/>
<path d="M261.774 50.103H215.378C214.958 50.103 214.628 49.7624 214.628 49.3429C214.628 48.9221 214.958 48.5815 215.378 48.5815H261.774C262.194 48.5815 262.537 48.9221 262.537 49.3429C262.537 49.7624 262.194 50.103 261.774 50.103Z" fill="#2E2E2E"/>
<path d="M241.754 58.0896H215.381C214.966 58.0896 214.626 57.7498 214.626 57.3293C214.626 56.9089 214.966 56.569 215.381 56.569H241.754C242.17 56.569 242.509 56.9089 242.509 57.3293C242.509 57.7498 242.17 58.0896 241.754 58.0896Z" fill="#2E2E2E"/>
<path d="M261.773 82.7559H242.503C242.083 82.7559 241.753 82.4152 241.753 81.9945C241.753 81.575 242.083 81.2343 242.503 81.2343H261.773C262.193 81.2343 262.536 81.575 262.536 81.9945C262.536 82.4152 262.193 82.7559 261.773 82.7559Z" fill="#2E2E2E"/>
<path d="M235.566 82.756H215.385C214.971 82.756 214.619 82.4159 214.619 81.9954C214.619 81.575 214.971 81.2348 215.385 81.2348H235.566C235.993 81.2348 236.332 81.575 236.332 81.9954C236.332 82.4159 235.993 82.756 235.566 82.756Z" fill="#2E2E2E"/>
<path d="M251.638 90.7413H215.385C214.968 90.7413 214.626 90.4011 214.626 89.9812C214.626 89.5599 214.968 89.2209 215.385 89.2209H251.638C252.055 89.2209 252.397 89.5599 252.397 89.9812C252.397 90.4011 252.055 90.7413 251.638 90.7413Z" fill="#2E2E2E"/>
<path d="M261.774 117.664H215.378C214.958 117.664 214.628 117.323 214.628 116.902C214.628 116.482 214.958 116.142 215.378 116.142H261.774C262.194 116.142 262.537 116.482 262.537 116.902C262.537 117.323 262.194 117.664 261.774 117.664Z" fill="#2E2E2E"/>
<path d="M241.754 125.649H215.381C214.966 125.649 214.626 125.31 214.626 124.889C214.626 124.469 214.966 124.129 215.381 124.129H241.754C242.17 124.129 242.509 124.469 242.509 124.889C242.509 125.31 242.17 125.649 241.754 125.649Z" fill="#2E2E2E"/>
<path d="M98.1825 52.3207L87.9769 42.183C87.8873 42.0946 87.9513 41.9448 88.0793 41.9473L118.978 43.1882C119.106 43.1908 119.157 43.3393 119.08 43.4264L96.9404 66.1232C96.8508 66.2166 96.6971 66.1359 96.7099 66.004L98.2209 52.4372C98.2209 52.395 98.2081 52.3514 98.1825 52.3207Z" fill="#556DEE"/>
<path d="M98.5577 54.5025C98.6087 55.1834 99.2463 60.3667 99.2463 60.3667L118.602 43.1314L96.7088 66.0051L98.5577 54.5025Z" fill="white"/>
<path d="M118.547 42.8831L118.522 42.9023C118.535 42.8946 118.535 42.8895 118.547 42.8831ZM118.919 43.9463L118.945 43.9489C118.932 43.9489 118.932 43.9463 118.919 43.9463ZM97.4626 66.0701C97.4626 66.0855 97.4626 66.0996 97.4626 66.1137V66.0701ZM96.8476 66.9232C97.0782 66.9232 97.3088 66.8348 97.4753 66.6645L119.624 43.9553C119.867 43.7119 119.944 43.3289 119.816 42.992C119.675 42.6525 119.355 42.4322 118.983 42.427L111.092 42.1094C110.669 42.0889 110.324 42.4194 110.298 42.8382C110.285 43.2584 110.618 43.6133 111.028 43.6299L117.561 43.8912L97.6675 64.296L99.0125 52.1587L98.7179 51.7821L89.6486 42.7716L102.087 43.2713C102.497 43.2815 102.855 42.96 102.881 42.5411C102.894 42.1209 102.561 41.7673 102.151 41.7494L88.0985 41.1871C87.6886 41.1756 87.394 41.392 87.2403 41.7276C87.0994 42.0645 87.1634 42.4527 87.4324 42.7153L97.4241 52.6467L95.9509 65.9189C95.8997 66.2776 96.0919 66.6517 96.4378 66.8271C96.5659 66.8925 96.7067 66.9232 96.8476 66.9232Z" fill="#2E2E2E"/>
<path d="M98.2282 53.1313C98.3429 53.1313 98.4577 53.1058 98.5724 53.0523L110.198 47.3137C110.58 47.1276 110.733 46.6725 110.542 46.2952C110.351 45.9205 109.904 45.7662 109.522 45.9498L97.8968 51.6884C97.5144 51.8745 97.3614 52.3309 97.5526 52.7082C97.6801 52.9746 97.9478 53.1313 98.2282 53.1313Z" fill="#2E2E2E"/>
<path d="M91.0715 55.0161C91.1382 55.0161 91.1917 55.0041 91.2584 54.98C92.5394 54.4249 93.687 53.9939 94.6745 53.699C94.9147 53.6269 95.0481 53.3734 94.9814 53.1318C94.9013 52.889 94.6478 52.7502 94.4076 52.8262C93.3934 53.1318 92.2058 53.5748 90.8981 54.142C90.6579 54.2434 90.5511 54.5103 90.6579 54.7412C90.7379 54.9146 90.898 55.0161 91.0715 55.0161ZM77.7805 62.4035C77.8606 62.4035 77.9539 62.3795 78.034 62.3274C79.9556 61.0423 82.2508 59.6426 84.506 58.3829C84.7195 58.2588 84.7997 57.9812 84.6796 57.761C84.5595 57.5408 84.2659 57.4634 84.0524 57.5862C81.7838 58.8579 79.4752 60.2724 77.5269 61.5668C77.3134 61.7069 77.26 61.9912 77.3935 62.2007C77.4869 62.3328 77.6337 62.4035 77.7805 62.4035ZM66.6112 72.672C66.7313 72.672 66.8514 72.6213 66.9448 72.5239C68.7063 70.5863 70.4811 68.7608 72.2159 67.0994C72.4027 66.9233 72.4026 66.635 72.2292 66.4536C72.0557 66.2694 71.7755 66.2654 71.5887 66.4388C69.8405 68.1162 68.0525 69.9565 66.2643 71.9087C66.1042 72.0942 66.1175 72.3838 66.3043 72.5533C66.3844 72.6334 66.5045 72.672 66.6112 72.672ZM30.9416 73.9358C31.1151 73.9358 31.2886 73.825 31.3687 73.6448C31.4621 73.4126 31.342 73.1458 31.1018 73.0537C28.6731 72.0942 26.1509 71.4657 23.6422 71.1868C23.3753 71.1321 23.1618 71.3403 23.1351 71.5898C23.1084 71.8407 23.2819 72.0662 23.5355 72.0929C25.9775 72.3638 28.4062 72.9723 30.7682 73.9037C30.8215 73.925 30.8882 73.9358 30.9416 73.9358ZM8.95004 75.0073C9.03011 75.0073 9.11008 74.9873 9.1768 74.9406C11.2452 73.6715 13.5672 72.7921 16.1026 72.3264C16.3428 72.2797 16.5163 72.0422 16.4629 71.794C16.4229 71.5485 16.1827 71.3816 15.9291 71.4283C13.3003 71.9167 10.8582 72.8362 8.70974 74.1626C8.48289 74.2947 8.41627 74.5763 8.54971 74.7898C8.64312 74.9299 8.78991 75.0073 8.95004 75.0073ZM43.3119 82.5643C43.4187 82.5643 43.5254 82.5256 43.6188 82.4455C43.8056 82.2733 43.819 81.9865 43.6455 81.7996C41.8974 79.8874 39.9624 78.1753 37.8807 76.7154C37.6672 76.57 37.387 76.618 37.2402 76.8248C37.0934 77.0316 37.1468 77.3172 37.3469 77.4613C39.3753 78.8839 41.2702 80.5519 42.9783 82.4148C43.0584 82.5149 43.1918 82.5643 43.3119 82.5643ZM56.8698 84.3564C57.0032 84.3564 57.1367 84.2977 57.2301 84.1816C59.0316 81.8823 60.5395 79.9981 61.9807 78.258C62.1408 78.0632 62.1141 77.7763 61.914 77.6148C61.7271 77.4547 61.4336 77.4827 61.2734 77.6749C59.8323 79.423 58.311 81.3112 56.5095 83.6198C56.3493 83.8173 56.3894 84.1042 56.5896 84.2603C56.6697 84.3257 56.763 84.3564 56.8698 84.3564ZM0.449623 87.1147C0.663139 87.1147 0.863228 86.9666 0.903259 86.7517C1.41035 84.3004 2.38459 82.0238 3.81245 79.9848C3.95924 79.7793 3.90575 79.495 3.70558 79.3496C3.50542 79.2054 3.21187 79.2535 3.06508 79.4617C1.5705 81.6021 0.54306 83.9921 0.00928497 86.5676C-0.0440903 86.8131 0.115936 87.056 0.369484 87.1067C0.396172 87.1121 0.422935 87.1147 0.449623 87.1147ZM47.462 96.321C47.5954 96.321 47.7288 96.2636 47.8089 96.1542C48.5295 95.2841 49.2501 94.3981 49.944 93.5267C50.1708 94.0952 50.3845 94.669 50.5846 95.2468C50.6647 95.483 50.9182 95.6138 51.1584 95.5284C51.3986 95.447 51.5187 95.1868 51.4386 94.9492C51.185 94.1926 50.8915 93.4439 50.5846 92.7047C51.2785 91.8279 51.9457 90.9779 52.5596 90.1879C52.7197 89.9891 52.6796 89.7021 52.4794 89.5474C52.2793 89.3952 51.9991 89.4313 51.8389 89.6274C51.3185 90.3 50.7581 91.0152 50.1843 91.7519C49.5971 90.4574 48.9432 89.1924 48.2226 87.9741C48.0892 87.7566 47.8089 87.6858 47.5954 87.8139C47.3819 87.9407 47.3018 88.2209 47.4353 88.4371C48.2226 89.7649 48.9165 91.1447 49.5437 92.5632C48.743 93.5574 47.9291 94.5783 47.1151 95.5751C46.9549 95.7686 46.9816 96.0568 47.1818 96.217C47.2619 96.2863 47.3686 96.321 47.462 96.321ZM3.41211 101.62C3.50552 101.62 3.58551 101.595 3.66558 101.541C3.87909 101.399 3.93252 101.116 3.78573 100.908C2.37122 98.8244 1.397 96.5398 0.903259 94.1205C0.849876 93.8749 0.609734 93.7135 0.356186 93.7656C0.11599 93.8163 -0.0440903 94.0578 0.00928497 94.3047C0.529716 96.8428 1.54379 99.2381 3.03836 101.421C3.11843 101.551 3.26532 101.62 3.41211 101.62ZM36.8265 107.154C36.9332 107.154 37.0267 107.123 37.1068 107.059C38.935 105.666 40.7765 103.978 42.7781 101.895C42.9516 101.713 42.9382 101.424 42.7647 101.25C42.5779 101.077 42.2844 101.084 42.1109 101.265C40.1626 103.312 38.3344 104.971 36.5596 106.335C36.3594 106.488 36.3193 106.775 36.4661 106.975C36.5595 107.093 36.693 107.154 36.8265 107.154ZM15.4354 110.517C15.6222 110.517 15.7957 110.402 15.8624 110.218C15.9558 109.982 15.8357 109.719 15.5955 109.632C13.1402 108.73 10.9116 107.568 8.99005 106.181C8.77654 106.033 8.49634 106.078 8.34955 106.283C8.20276 106.488 8.24277 106.774 8.45628 106.921C10.4446 108.356 12.7398 109.557 15.2752 110.489C15.3286 110.507 15.382 110.517 15.4354 110.517ZM52.9866 110.531C53.2268 110.531 53.4269 110.347 53.4403 110.104C53.4936 109.244 53.5337 108.36 53.5337 107.485C53.5337 105.794 53.4136 104.094 53.2001 102.43C53.16 102.181 52.9599 102.01 52.693 102.036C52.4395 102.068 52.266 102.299 52.2927 102.549C52.5062 104.173 52.6129 105.833 52.6129 107.484C52.6129 108.34 52.5862 109.202 52.5329 110.046C52.5062 110.297 52.7064 110.514 52.9599 110.531C52.9599 110.531 52.9733 110.531 52.9866 110.531ZM23.6155 112.153C25.9508 112.153 28.1794 111.741 30.4346 110.888C30.6614 110.798 30.7814 110.535 30.688 110.299C30.608 110.064 30.3411 109.943 30.1009 110.035C27.7123 110.938 25.3636 111.331 22.8548 111.225C22.5879 111.269 22.3878 111.412 22.3745 111.663C22.3745 111.914 22.5613 112.126 22.8148 112.137C23.0817 112.147 23.3619 112.153 23.6155 112.153ZM49.2502 125.193C49.4237 125.193 49.5971 125.093 49.6638 124.922C50.7314 122.543 51.5854 120.106 52.2125 117.685C52.2793 117.441 52.1325 117.193 51.8789 117.13C51.6387 117.073 51.3852 117.216 51.3319 117.46C50.718 119.83 49.8773 122.216 48.8364 124.551C48.7297 124.779 48.8365 125.05 49.0633 125.153C49.13 125.181 49.1968 125.193 49.2502 125.193ZM41.1367 137.993C41.2701 137.993 41.3903 137.937 41.4837 137.829C43.1651 135.822 44.6864 133.747 46.0208 131.66C46.1543 131.447 46.0875 131.167 45.8739 131.031C45.6738 130.894 45.3803 130.956 45.2469 131.17C43.9391 133.224 42.4312 135.268 40.7765 137.244C40.6297 137.436 40.6564 137.725 40.8432 137.887C40.9233 137.958 41.0299 137.993 41.1367 137.993ZM30.2477 148.571C30.3411 148.571 30.4478 148.539 30.5279 148.471C32.5562 146.84 34.4912 145.142 36.266 143.423C36.4528 143.248 36.4529 142.96 36.2794 142.778C36.1059 142.594 35.8124 142.591 35.6389 142.766C33.8774 144.466 31.9691 146.146 29.9541 147.761C29.7673 147.919 29.7272 148.205 29.8874 148.403C29.9808 148.514 30.1142 148.571 30.2477 148.571Z" fill="#2E2E2E"/>
<path d="M138.758 264.569H123.314C121.533 264.569 119.964 263.419 119.436 261.725L96.1579 188.477C95.327 185.849 97.2922 183.166 100.049 183.166H204.055C205.823 183.166 207.405 184.316 207.933 186.008L231.211 259.256C232.042 261.886 230.077 264.569 227.32 264.569H171.228H138.758Z" fill="#556DEE"/>
<path d="M227.813 264.492L204.108 190.049C203.567 188.357 201.998 187.208 200.218 187.208H96.4455C96.0763 184.798 97.7771 183.479 100.308 183.479L202.921 183.289C204.688 183.289 207.245 184.211 207.786 185.904L230.937 258.709C231.768 261.338 231.755 263.929 228.999 263.929L227.839 264.619C227.813 264.409 227.879 264.702 227.813 264.492Z" fill="white"/>
<path d="M123.311 265.641H138.758C139.18 265.641 139.523 265.3 139.523 264.881C139.523 264.461 139.18 264.121 138.758 264.121H123.311C121.86 264.121 120.594 263.191 120.158 261.809L96.8892 188.559C96.5594 187.539 96.731 186.46 97.3642 185.596C97.9973 184.734 98.9734 184.239 100.042 184.239H204.053C205.504 184.239 206.77 185.168 207.206 186.551L230.475 259.798C230.804 260.818 230.62 261.898 230 262.761C229.367 263.625 228.39 264.121 227.322 264.121H171.221C170.812 264.121 170.469 264.461 170.469 264.881C170.469 265.3 170.812 265.641 171.221 265.641H227.322C228.879 265.641 230.303 264.918 231.226 263.661C232.137 262.401 232.4 260.825 231.926 259.338L208.657 186.09C208.01 184.073 206.164 182.718 204.053 182.718H100.042C98.4854 182.718 97.0608 183.441 96.1374 184.699C95.2141 185.958 94.9633 187.533 95.4382 189.019L118.707 262.268C119.34 264.285 121.2 265.641 123.311 265.641Z" fill="#2E2E2E"/>
<path d="M207.346 288.628V284.825C207.346 283.565 206.336 282.545 205.068 282.545C199.996 282.542 187.599 282.519 179.719 282.352C171.347 282.175 169.147 275.183 171.23 264.172C172.835 255.677 177.286 230.123 177.286 230.123C177.429 229.3 176.795 228.544 175.966 228.544H146.489C145.842 228.544 145.286 229.011 145.169 229.652L137.237 274.28C135.892 281.813 141.689 288.728 149.336 288.728H166.921L207.346 288.628Z" fill="white"/>
<path d="M206.589 288.281H149.34C145.911 288.281 142.689 286.775 140.489 284.156C138.302 281.533 137.383 278.096 137.979 274.726L145.924 230.099C145.976 229.82 146.209 229.618 146.493 229.618H175.959C176.205 229.618 176.347 229.749 176.412 229.826C176.476 229.905 176.58 230.07 176.541 230.303C176.489 230.56 172.064 255.953 170.485 264.345C169.074 271.737 169.657 277.065 172.193 280.189C173.875 282.269 176.399 283.355 179.699 283.426C187.204 283.585 198.824 283.615 205.075 283.619C205.916 283.619 206.589 284.298 206.589 285.138V288.281ZM149.34 289.8H207.352C207.766 289.8 208.116 289.461 208.116 289.041C208.116 289.024 208.116 289.007 208.116 288.991C208.116 288.975 208.116 288.958 208.116 288.941V285.138C208.116 283.462 206.744 282.095 205.075 282.095C198.824 282.092 187.23 282.066 179.737 281.905C176.903 281.846 174.768 280.945 173.371 279.232C171.132 276.473 170.666 271.561 171.973 264.628C173.565 256.222 177.99 230.822 178.029 230.565C178.146 229.953 177.977 229.327 177.576 228.848C177.175 228.372 176.58 228.096 175.959 228.096H146.493C145.471 228.096 144.604 228.826 144.423 229.832L136.49 274.459C135.805 278.273 136.84 282.161 139.324 285.129C141.822 288.097 145.458 289.8 149.34 289.8Z" fill="#2E2E2E"/>
<path d="M107.089 289.801H457.952C458.372 289.801 458.713 289.461 458.713 289.042C458.713 288.622 458.372 288.282 457.952 288.282H107.089C106.669 288.282 106.328 288.622 106.328 289.042C106.328 289.461 106.669 289.801 107.089 289.801Z" fill="#2E2E2E"/>
<path d="M310.078 194.76L333.605 169.282C333.605 169.282 335.205 135.059 329.645 126.185C324.098 117.311 311.666 106.791 302.677 107.678C293.675 108.566 283.531 113.382 284.168 122.509C284.794 131.635 289.102 150.522 289.102 154.832C289.102 159.142 294.554 177.902 298.489 181.957C302.412 186.014 310.078 194.76 310.078 194.76Z" fill="white"/>
<path d="M332.275 171.311C332.275 171.311 353.972 179.173 358.517 183.75C363.074 188.328 369.353 193.652 372.859 200.782C376.378 207.911 385.125 222.267 389.596 232.534C394.068 242.801 396.536 251.546 397.208 256.3C397.867 261.055 399.394 271.51 398.722 276.457C398.051 281.398 393.97 283.872 390.549 285.581C387.129 287.292 371.344 288.438 369.158 288.388C366.971 288.337 328.854 288.388 328.854 288.388L310.028 288.148L253.745 287.988C253.745 287.988 260.403 235.427 262.504 227.341C264.618 219.255 270.763 198.457 280.06 190.651C287.72 184.367 296.076 177.872 302.673 175.986C303.186 179.17 310.443 194.887 310.443 194.887L332.275 171.311Z" fill="#5856D6"/>
<path d="M393.814 276.647C394.472 271.701 393.05 261.436 392.04 256.746C390.324 248.822 387.868 242.827 383.838 232.382C379.49 221.127 371.9 207.828 367.764 201.035C363.134 193.43 358.411 189.307 353.182 185.523C348.529 182.157 336.203 176.102 329.81 173.64L332.313 170.631C332.313 170.631 354.58 178.86 359.127 183.438C363.686 188.015 370.231 194.064 373.756 201.194C377.27 208.324 385.436 220.819 389.901 231.087C394.366 241.354 396.728 250.741 397.398 255.494C398.056 260.246 400.077 269.991 399.419 274.933C398.749 279.879 395.682 282.993 392.263 284.705C391.264 285.205 388.832 285.765 386.364 286.151C389.455 284.465 393.226 280.973 393.814 276.647Z" fill="white"/>
<path d="M308.12 112.052C308.12 112.052 311.989 117.122 314.652 119.087C317.316 121.051 324.92 127.642 324.92 127.642C324.92 127.642 328.789 146.783 328.717 147.036C328.656 147.29 328.909 159.395 329.416 161.804C329.922 164.212 332.392 170.867 332.392 170.867C332.392 170.867 337.478 171.295 347.433 177.442C357.388 183.59 358.448 183.288 358.448 183.288L360.027 183.099C360.027 183.099 361.931 175.05 358.376 170.74C354.833 166.431 349.867 162.697 348.867 159.398C347.867 156.1 349.036 146.838 347.602 142.509C346.179 138.18 344.191 134.235 342.853 132.396C341.528 130.558 338.732 125.471 337.346 120.916C335.948 116.362 332.718 105.651 328.15 101.911C323.583 98.1712 317.882 95.2921 311.037 94.7173C304.192 94.1436 290.947 97.7917 287.97 100.327C284.993 102.862 284.162 105.841 283.595 108.122C283.029 110.404 282.957 113.192 282.957 113.192C282.957 113.192 280.679 123.333 281.125 126.882C281.571 130.431 282.523 141.396 282.703 144.311C282.896 147.226 281.257 154.579 281.317 157.368C281.378 160.156 281.378 163.514 282.39 166.24C283.402 168.965 285.126 170.094 284.668 172.324C284.222 174.555 283.402 176.761 282.896 179.36C282.39 181.958 281.884 186.204 283.149 187.535C284.415 185.507 299.262 176.888 299.455 176.697C299.648 176.507 303.999 174.289 303.999 174.289C303.999 174.289 304.83 165.416 302.926 163.261C296.587 160.916 293.478 160.156 291.2 155.212C288.922 150.268 287.693 136.385 287.416 134.802C287.138 133.22 286.5 123.686 286.572 121.19C286.644 118.695 288.416 115.474 288.416 115.474C288.416 115.474 293.068 116.486 297.238 115.632C301.408 114.777 304.83 113.762 305.397 113.319C305.963 112.875 308.12 112.052 308.12 112.052Z" fill="#2E2E2E"/>
<path d="M356.272 173.402C352.729 169.093 349.053 165.019 347.383 162.002C343.803 155.529 346.182 148.485 345.305 144.022C344.44 139.547 342.698 136.837 341.377 134.999C340.043 133.161 336.68 128.815 335.731 124.031C334.794 119.359 331.298 108.756 327.141 104.573C321.556 98.9599 317.099 98.1851 310.252 97.6108C303.909 97.0775 290.815 96.7171 287.019 101.879C287.607 100.956 288.653 100.528 289.674 99.6615C292.653 97.1268 305.735 94.4323 312.582 95.0065C319.429 95.5807 324.907 98.7905 329.472 102.529C334.025 106.268 335.731 116.085 337.124 120.639C338.517 125.195 340.92 130.875 342.253 132.713C343.587 134.551 346.049 137.463 347.479 141.793C348.909 146.121 348.056 155.844 349.065 159.141C350.074 162.44 354.53 166.383 358.086 170.693C361.63 175.002 360.297 181.847 360.297 181.847L360.152 182.623C360.152 182.623 358.831 183.915 357.894 183.526C358.555 180.674 358.327 175.893 356.272 173.402Z" fill="white"/>
<path d="M289.789 264.599C289.898 264.599 289.994 264.578 290.091 264.535C290.477 264.369 290.658 263.919 290.489 263.535C289.367 260.966 288.076 258.542 286.834 256.203C284.24 251.333 281.792 246.74 281.261 241.646C280.392 233.456 282.479 225.574 284.494 217.952C284.602 217.546 284.361 217.129 283.951 217.022C283.541 216.908 283.13 217.158 283.022 217.562C280.971 225.319 278.848 233.338 279.741 241.806C280.32 247.192 282.829 251.917 285.483 256.916C286.713 259.232 287.992 261.629 289.09 264.142C289.222 264.429 289.5 264.599 289.789 264.599Z" fill="#2E2E2E"/>
<path d="M304.465 163.864C305.235 163.864 306.028 163.825 306.858 163.75C308.144 163.631 310.597 163.276 314.973 162.26C315.382 162.165 315.634 161.756 315.55 161.346C315.454 160.937 315.045 160.681 314.624 160.778C310.344 161.774 307.952 162.12 306.713 162.235C301.099 162.752 296.746 161.377 293.801 158.142C291.24 155.326 289.677 151.085 289.172 145.54L287.176 123.783C286.912 120.896 287.321 118.077 288.379 115.401C288.535 115.01 288.343 114.568 287.946 114.413C287.561 114.262 287.116 114.449 286.96 114.839C285.806 117.741 285.373 120.796 285.661 123.923L287.657 145.679C288.198 151.562 289.881 156.098 292.683 159.165C295.52 162.289 299.476 163.863 304.465 163.864Z" fill="#2E2E2E"/>
<path d="M328.562 143.27C328.774 143.27 328.998 143.259 329.21 143.24C333.063 142.887 335.902 139.471 335.548 135.625C335.195 131.78 331.802 128.935 327.938 129.291C326.971 129.382 326.052 129.658 325.216 130.119C324.839 130.321 324.709 130.784 324.91 131.151C325.11 131.521 325.581 131.655 325.946 131.453C326.594 131.093 327.313 130.875 328.067 130.806C331.083 130.521 333.758 132.753 334.04 135.764C334.311 138.775 332.085 141.448 329.08 141.725C328.256 141.804 327.454 141.696 326.689 141.413C326.288 141.271 325.852 141.471 325.711 141.864C325.569 142.26 325.77 142.697 326.159 142.842C326.936 143.127 327.737 143.27 328.562 143.27Z" fill="#2E2E2E"/>
<path d="M331.654 136.54C331.678 136.54 331.701 136.538 331.713 136.537C332.137 136.504 332.455 136.138 332.407 135.719C332.313 134.483 331.831 133.495 330.995 132.864C330.113 132.192 328.912 131.979 327.5 132.242C327.088 132.321 326.817 132.719 326.9 133.131C326.982 133.544 327.382 133.81 327.782 133.737C328.759 133.555 329.548 133.669 330.077 134.072C330.678 134.53 330.854 135.286 330.901 135.84C330.925 136.238 331.266 136.54 331.654 136.54Z" fill="#2E2E2E"/>
<path d="M293.691 133.909C293.81 135.216 293.283 136.332 292.516 136.403C291.748 136.474 291.029 135.472 290.909 134.164C290.789 132.857 291.317 131.74 292.084 131.67C292.851 131.599 293.571 132.603 293.691 133.909Z" fill="#2E2E2E"/>
<path d="M286.833 128.833C287.025 128.833 287.206 128.765 287.35 128.63C289.345 126.783 292.542 125.824 295.331 126.249C295.727 126.315 296.136 126.026 296.196 125.61C296.256 125.194 295.979 124.807 295.559 124.745C292.35 124.256 288.624 125.369 286.316 127.515C286.004 127.8 285.992 128.281 286.28 128.59C286.424 128.751 286.629 128.833 286.833 128.833Z" fill="#2E2E2E"/>
<path d="M310.084 133.235C310.203 134.542 310.927 135.544 311.687 135.474C312.459 135.404 312.981 134.286 312.863 132.979C312.744 131.672 312.02 130.67 311.26 130.74C310.488 130.81 309.966 131.927 310.084 133.235Z" fill="#2E2E2E"/>
<path d="M317.099 127.293C317.337 127.293 317.574 127.185 317.717 126.982C317.967 126.643 317.895 126.167 317.551 125.92C314.851 123.943 310.605 123.261 307.228 124.255C306.823 124.374 306.598 124.797 306.716 125.199C306.835 125.602 307.252 125.831 307.668 125.713C310.617 124.845 314.304 125.435 316.659 127.147C316.789 127.246 316.944 127.293 317.099 127.293Z" fill="#2E2E2E"/>
<path d="M298.949 145.269C299.511 145.269 300.061 145.152 300.491 145.059C300.647 145.028 300.778 144.999 300.886 144.982C301.292 144.915 301.579 144.526 301.519 144.11C301.448 143.694 301.065 143.421 300.647 143.478C300.515 143.501 300.348 143.533 300.18 143.572C299.63 143.69 298.71 143.884 298.303 143.598C298.136 143.477 298.04 143.234 298.004 142.877C297.909 141.965 299.176 140.596 300.013 139.691L300.324 139.362C301.077 138.531 302.261 136.497 301.627 132.205C301.567 131.789 301.185 131.513 300.766 131.564C300.348 131.627 300.061 132.013 300.121 132.429C300.682 136.233 299.666 137.827 299.2 138.335L298.901 138.655C297.813 139.829 296.319 141.437 296.486 143.037C296.57 143.843 296.881 144.446 297.419 144.829C297.873 145.163 298.423 145.269 298.949 145.269Z" fill="#2E2E2E"/>
<path d="M303.338 176.746C303.66 176.746 303.958 176.538 304.053 176.214C305.054 173.064 305.006 167.053 304.399 163.059C304.327 162.644 303.946 162.363 303.529 162.423C303.112 162.487 302.826 162.874 302.897 163.29C303.481 167.111 303.529 172.82 302.611 175.756C302.48 176.157 302.706 176.584 303.1 176.71C303.183 176.734 303.255 176.746 303.338 176.746Z" fill="#2E2E2E"/>
<path d="M331.471 171.391C331.518 171.391 331.576 171.387 331.624 171.375C332.035 171.289 332.294 170.886 332.212 170.474C330.012 159.928 328.929 150.811 328.906 142.603C328.906 142.184 328.576 141.844 328.153 141.844C327.729 141.846 327.388 142.186 327.388 142.607C327.412 150.919 328.494 160.138 330.729 170.786C330.8 171.144 331.118 171.391 331.471 171.391Z" fill="#2E2E2E"/>
<path d="M325.478 131.564C325.514 131.564 325.562 131.561 325.598 131.555C326.007 131.495 326.295 131.106 326.235 130.692C325.586 126.326 321.525 123.13 317.212 119.745C314.052 117.256 310.772 114.681 309.03 111.65C308.79 111.209 308.466 110.939 308.093 110.85C307.781 110.772 307.468 110.837 307.192 111.02C302.338 114.185 294.481 116.461 287.789 114.394C287.392 114.266 286.972 114.495 286.839 114.895C286.719 115.296 286.948 115.723 287.344 115.847C294.841 118.162 302.951 115.51 307.745 112.465C309.643 115.728 313.007 118.378 316.275 120.942C320.336 124.133 324.169 127.149 324.733 130.914C324.781 131.294 325.106 131.564 325.478 131.564Z" fill="#2E2E2E"/>
<path d="M305.996 153.928C308.372 153.362 309.649 152.096 310.186 150.301C310.592 148.931 310.556 148.209 309.935 147.898C309.159 147.506 307.357 148.238 304.587 149.008C302.57 149.571 299.55 149.642 299.455 151.168C299.383 152.48 302.236 154.826 305.996 153.928Z" fill="#2E2E2E"/>
<path d="M309.782 151.057C308.186 149.824 304.041 149.926 303.767 153.788C306.292 153.964 309.317 152.092 309.782 151.057Z" fill="white"/>
<path d="M305.814 152.952C303.677 153.463 301.885 152.79 300.93 151.988C300.393 151.538 300.202 151.128 300.214 150.973C300.237 150.426 301.933 150.1 303.068 149.883C303.653 149.769 304.262 149.652 304.787 149.504C305.444 149.321 306.053 149.14 306.59 148.976C307.844 148.603 309.265 148.176 309.588 148.341C309.755 148.427 309.695 148.991 309.444 149.847C308.955 151.492 307.796 152.48 305.814 152.952ZM304.333 154.65C304.918 154.65 305.527 154.583 306.172 154.431C308.656 153.838 310.256 152.44 310.901 150.284C311.14 149.51 311.677 147.695 310.268 146.983C309.408 146.547 308.19 146.912 306.16 147.519C305.623 147.682 305.026 147.86 304.381 148.04C303.88 148.176 303.33 148.284 302.781 148.39C300.906 148.749 298.793 149.157 298.697 150.886C298.649 151.623 299.103 152.45 299.951 153.153C300.894 153.947 302.459 154.65 304.333 154.65Z" fill="#2E2E2E"/>
<path d="M302.891 153.989L304.405 153.842C304.25 152.273 305.048 151.546 305.74 151.212C306.884 150.661 308.456 150.833 309.267 151.605L310.315 150.509C309.064 149.296 306.8 149.006 305.084 149.843C303.511 150.6 302.713 152.111 302.891 153.989Z" fill="#2E2E2E"/>
<path d="M255.528 278.437H286.039C289.392 278.437 292.121 281.159 292.121 284.518V288.941H250.229V283.739C250.229 280.81 252.603 278.437 255.528 278.437Z" fill="white"/>
<path d="M291.341 288.181H250.987V287.399C250.987 282.876 254.673 279.196 259.19 279.196H281.84C286.909 279.196 291.071 283.178 291.341 288.181ZM249.469 289.702H292.883V288.715C292.883 282.629 287.925 277.676 281.84 277.676H259.19C253.828 277.676 249.469 282.036 249.469 287.399V289.702Z" fill="#2E2E2E"/>
<path d="M313.21 156.291C313.329 156.291 313.448 156.265 313.566 156.204C316.293 154.791 323.823 149.672 325.921 143.054C326.04 142.655 325.815 142.227 325.423 142.1C325.02 141.975 324.593 142.196 324.463 142.597C322.744 148.035 316.436 153.002 312.867 154.856C312.487 155.049 312.345 155.508 312.534 155.881C312.677 156.14 312.938 156.291 313.21 156.291Z" fill="#2E2E2E"/>
<path d="M306.917 158.257H306.893H306.917ZM311.164 155.699C311.355 155.699 311.533 155.716 311.7 155.747C312.14 155.828 312.449 156.008 312.521 156.231C312.592 156.403 312.521 156.603 312.461 156.739C312.188 157.326 311.414 157.918 310.486 158.251C308.987 158.794 307.797 158.464 307.631 158C307.464 157.537 308.178 156.518 309.665 155.979C310.177 155.795 310.7 155.699 311.164 155.699ZM308.999 160.05C309.63 160.05 310.32 159.931 311.01 159.684C312.33 159.207 313.389 158.348 313.841 157.387C314.103 156.815 314.151 156.237 313.96 155.716C313.687 154.969 312.973 154.434 311.985 154.251C311.129 154.089 310.117 154.198 309.154 154.547C306.976 155.333 305.679 157.075 306.191 158.514V158.515C306.548 159.499 307.654 160.05 308.999 160.05Z" fill="#2E2E2E"/>
<path d="M310.785 258.962C310.869 258.962 310.94 258.952 311.023 258.925C311.428 258.789 311.642 258.359 311.511 257.962C309.001 250.446 307.525 241.143 307.454 232.433C307.371 221.731 309.096 210.839 310.393 203.576C310.464 203.163 310.19 202.768 309.774 202.694C309.369 202.627 308.965 202.895 308.894 203.309C307.585 210.631 305.848 221.617 305.931 232.445C306.003 241.308 307.514 250.787 310.06 258.442C310.167 258.762 310.464 258.962 310.785 258.962Z" fill="#2E2E2E"/>
<path d="M314.018 215.137C314.018 214.192 314.788 213.425 315.724 213.425C316.671 213.425 317.441 214.192 317.441 215.137C317.441 216.081 316.671 216.848 315.724 216.848C314.788 216.848 314.018 216.081 314.018 215.137Z" fill="#2E2E2E"/>
<path d="M314.589 231.868C314.589 230.924 315.359 230.158 316.294 230.158C317.242 230.158 318.012 230.924 318.012 231.868C318.012 232.813 317.242 233.579 316.294 233.579C315.359 233.579 314.589 232.813 314.589 231.868Z" fill="#2E2E2E"/>
<path d="M316.057 248.121C316.27 247.2 317.181 246.625 318.104 246.838C319.027 247.05 319.607 247.969 319.394 248.89C319.181 249.81 318.258 250.384 317.335 250.173C316.412 249.96 315.844 249.04 316.057 248.121Z" fill="#2E2E2E"/>
<path d="M282.723 188.502C282.832 188.502 282.928 188.48 283.025 188.44C283.411 188.272 283.591 187.823 283.423 187.439C281.904 183.934 282.977 180.79 284.037 177.748C284.845 175.388 285.617 173.16 285.05 170.978C284.64 169.401 284.146 167.998 283.676 166.643C282.747 163.995 281.952 161.709 282.024 158.927C282.157 154.387 282.386 153.035 282.651 151.469C282.892 150.019 283.157 148.376 283.411 143.973C283.591 140.703 283.194 137.296 282.784 133.69C282.121 127.969 281.445 122.055 282.977 116.014C283.109 115.507 283.254 115.082 283.399 114.687C283.712 113.778 284.001 112.918 283.929 111.602C283.845 110.167 283.917 108.088 284.737 106.337C287.582 100.23 291.127 99.3969 297.022 98.0188C297.613 97.8802 298.228 97.7367 298.867 97.5812C300.229 97.2509 301.483 96.8952 302.665 96.5625C306.016 95.6209 308.657 94.8818 311.333 95.3074C315.059 95.915 316.771 96.1935 321.87 98.8182C327.658 101.795 330.141 103.321 333.734 111.348C334.988 114.165 335.663 117.033 336.302 119.808C336.905 122.415 337.484 124.878 338.496 127.051C339.738 129.724 341.281 131.972 342.656 133.957C344.223 136.235 345.586 138.203 346.176 140.279C347.466 144.781 347.442 148.683 347.43 152.127C347.406 155.363 347.382 158.157 348.503 160.519C349.673 162.975 351.686 165.097 353.627 167.15C357.943 171.699 362.018 175.995 358.751 184.166C358.606 184.555 358.799 184.997 359.185 185.154C359.571 185.304 360.017 185.118 360.174 184.727C363.779 175.654 358.98 170.58 354.736 166.104C352.783 164.047 350.939 162.105 349.878 159.866C348.913 157.819 348.925 155.186 348.949 152.135C348.973 148.592 348.998 144.572 347.647 139.859C346.984 137.545 345.489 135.382 343.91 133.092C342.511 131.063 341.064 128.966 339.871 126.409C338.93 124.379 338.376 121.992 337.785 119.464C337.122 116.618 336.435 113.678 335.121 110.728C331.335 102.251 328.538 100.536 322.57 97.4667C317.241 94.7299 315.348 94.4212 311.574 93.8076C308.572 93.3217 305.643 94.1451 302.255 95.1C301.085 95.4279 299.843 95.7776 298.505 96.1019C297.866 96.2574 297.263 96.3997 296.673 96.5372C290.548 97.9707 286.509 98.9171 283.35 105.695C282.41 107.733 282.313 110.08 282.41 111.688C282.47 112.706 282.253 113.329 281.952 114.19C281.807 114.623 281.65 115.086 281.506 115.641C279.902 121.951 280.601 128.007 281.277 133.861C281.674 137.404 282.06 140.748 281.891 143.89C281.65 148.21 281.385 149.808 281.144 151.218C280.879 152.839 280.638 154.24 280.505 158.882C280.421 161.947 281.301 164.473 282.241 167.144C282.699 168.47 283.182 169.844 283.579 171.358C284.025 173.098 283.362 175.023 282.591 177.252C281.506 180.415 280.264 183.999 282.024 188.044C282.157 188.331 282.434 188.502 282.723 188.502Z" fill="#2E2E2E"/>
<path d="M326.492 126.172C324.372 116.044 321.474 101.067 304.037 97.2564C300.888 96.5678 297.223 96.7917 293.044 96.8839C293.535 96.3857 297.091 94.7522 297.091 94.7522C320.097 90.2325 327.845 105.938 330.097 125.304L326.492 126.172Z" fill="#556DEE"/>
<path d="M296.33 95.2895C296.772 95.0815 297.083 94.9356 297.083 94.9356C320.085 90.4164 327.833 106.121 330.092 125.487L328.275 126.186C326.075 107.322 318.017 91.8403 296.33 95.2895Z" fill="white"/>
<path d="M326.483 127.247C326.543 127.247 326.591 127.242 326.639 127.23C327.059 127.146 327.323 126.742 327.239 126.333C325.583 118.417 322.51 103.688 307.436 97.5327C304.195 96.2077 300.967 96.0373 297.042 96.4837C297.57 96.1849 297.906 96.0012 297.906 96.0012C303.391 94.1433 307.88 93.9825 311.9 95.5559C321.73 99.3882 327.431 109.25 329.351 125.705C329.399 126.124 329.783 126.414 330.191 126.373C330.611 126.324 330.912 125.947 330.864 125.53C328.871 108.463 322.858 98.1952 312.465 94.1385C308.144 92.4511 303.175 92.6083 297.282 94.6162C297.162 94.6738 294.882 95.9472 292.673 97.2002L288.773 99.4038L293.177 98.6104C298.974 97.5663 302.863 97.313 306.86 98.9405C321.19 104.79 324.154 119.005 325.751 126.641C325.823 127 326.135 127.247 326.483 127.247Z" fill="#2E2E2E"/>
<path d="M336.414 135.811C336.72 130.496 333.771 125.999 329.806 125.768C325.853 125.536 322.396 129.659 322.077 134.975C321.77 140.29 324.732 144.787 328.685 145.019C332.638 145.25 336.107 141.127 336.414 135.811Z" fill="#556DEE"/>
<path d="M334.206 136.684C334.524 131.368 331.57 126.871 327.603 126.641C327.203 126.617 326.814 126.649 326.426 126.711C327.473 126.043 328.65 125.696 329.875 125.767C333.841 125.998 336.796 130.495 336.49 135.81C336.207 140.589 333.382 144.391 329.933 144.946C332.276 143.453 333.994 140.354 334.206 136.684Z" fill="white"/>
<path d="M329.49 126.518C329.572 126.518 329.667 126.522 329.761 126.527C331.425 126.622 332.96 127.608 334.069 129.299C335.226 131.06 335.793 133.356 335.651 135.766C335.509 138.175 334.683 140.391 333.326 142.004C332.027 143.555 330.387 144.339 328.722 144.258C327.058 144.162 325.524 143.175 324.414 141.485C323.257 139.723 322.691 137.427 322.833 135.018C322.974 132.609 323.8 130.394 325.158 128.78C326.385 127.314 327.92 126.518 329.49 126.518ZM329.006 145.786C331.036 145.786 332.972 144.802 334.494 142.983C336.052 141.119 337.008 138.588 337.162 135.855C337.327 133.121 336.678 130.497 335.344 128.463C333.963 126.361 332.004 125.133 329.844 125.009C327.672 124.885 325.606 125.874 323.989 127.801C322.431 129.665 321.475 132.196 321.322 134.929C321.157 137.663 321.806 140.287 323.139 142.319C324.52 144.423 326.48 145.651 328.64 145.775C328.758 145.784 328.876 145.786 329.006 145.786Z" fill="#2E2E2E"/>
<path d="M310.162 267.265C310.162 267.265 298.056 263.908 293.493 264.162C288.919 264.415 284.697 263.955 280.061 264.912C275.426 265.872 270.279 267.978 268.515 269.198C266.751 270.421 264.33 271.067 263.758 272.716C263.186 274.364 261.921 275.757 263.064 276.55C264.208 277.344 264.488 279.07 266.58 278.31C264.974 284.426 272.469 279.799 271.958 281.399C271.435 282.999 270.741 282.929 271.849 283.525C272.944 284.125 273.649 285.518 276.058 284.568C278.467 283.615 283.979 282.033 286.509 282.159C289.052 282.286 292.216 284.505 294.625 285.075C297.034 285.645 298.676 286.595 300.903 286.595C303.117 286.595 310.089 285.771 310.028 285.582C309.967 285.392 310.162 267.265 310.162 267.265Z" fill="white"/>
<path d="M265.875 279.115C266.143 279.115 266.399 279.098 266.679 279.062C267.093 279.006 267.385 278.623 267.336 278.206C267.275 277.789 266.886 277.48 266.472 277.556C264.756 277.789 263.709 277.016 263.466 276.606C263.137 276.026 262.747 275.369 265.742 272.383C268.736 269.387 275.247 266.637 283.171 265.031C291.277 263.388 309.802 267.514 309.997 267.554C310.398 267.654 310.812 267.391 310.897 266.981C310.995 266.57 310.739 266.164 310.325 266.074C309.546 265.897 291.314 261.832 282.867 263.541C278.935 264.341 269.271 266.697 264.658 271.306C261.774 274.193 261.165 275.666 262.151 277.369C262.699 278.296 264.098 279.115 265.875 279.115Z" fill="#2E2E2E"/>
<path d="M301.153 287.552C304.314 287.552 309.839 286.895 310.117 286.858C310.529 286.812 310.832 286.431 310.783 286.014C310.723 285.595 310.335 285.289 309.935 285.348C309.851 285.358 302.134 286.275 299.905 285.968C296.282 285.464 292.406 283.658 289.838 282.465C289.062 282.105 288.396 281.793 287.875 281.582C286.24 280.916 283.696 281.585 280.485 282.436C278.668 282.912 276.633 283.452 274.646 283.745C273.326 283.938 272.938 283.559 272.635 283.279C272.199 282.859 272.042 282.423 272.139 281.905C272.514 279.732 276.972 276.896 279.153 275.929C282.533 274.433 284.931 273.904 290.262 274.686C290.674 274.764 291.073 274.463 291.134 274.047C291.195 273.63 290.904 273.247 290.492 273.183C284.822 272.347 282.121 272.954 278.535 274.54C277.009 275.213 271.206 278.392 270.636 281.642C270.455 282.655 270.782 283.602 271.581 284.375C272.187 284.958 273.059 285.529 274.876 285.249C276.936 284.945 279.02 284.392 280.873 283.905C283.575 283.188 286.131 282.518 287.306 282.988C287.802 283.195 288.445 283.496 289.196 283.845C291.849 285.076 295.846 286.941 299.699 287.474C300.074 287.528 300.571 287.552 301.153 287.552Z" fill="#2E2E2E"/>
<path d="M309.462 289.328L356.769 289.288C370.511 289.564 388.662 288.421 394.562 284.306C401.646 279.366 401.695 265.582 394.696 243.334C389.529 226.915 382.701 214.946 374.945 202.099C365.955 187.216 360.654 182.581 343.407 174.554C340.719 173.303 332.645 170.342 332.291 170.216L331.815 170.038L331.473 170.425L310.427 194.072L302.939 173.996L302.194 174.35C301.547 174.656 286.351 181.931 277.887 191.924C264.292 207.956 260.945 229.889 259.137 241.673C257.402 253.047 255.46 268.002 254.141 278.543C254.092 278.959 254.385 279.339 254.801 279.393C255.216 279.453 255.607 279.152 255.656 278.733C256.975 268.198 258.905 253.26 260.639 241.901C262.423 230.268 265.733 208.612 279.047 192.908C286.254 184.4 298.908 177.7 302.096 176.093L309.877 196.972L332.255 171.824C334.075 172.494 340.499 174.882 342.759 175.932C359.848 183.887 364.758 188.17 373.638 202.887C381.346 215.647 388.137 227.532 393.243 243.791C399.924 265.028 400.083 278.606 393.695 283.056C388.455 286.715 371.378 288.064 356.782 287.769L310.976 287.808V266.704L360.458 263.075L353.606 238.792C353.484 238.387 353.068 238.151 352.665 238.266C352.262 238.381 352.03 238.801 352.14 239.205L358.492 261.695L309.462 265.291V289.328Z" fill="#2E2E2E"/>
<path d="M269.041 282.652C270.037 282.652 271.07 282.4 271.933 281.78C272.273 281.536 272.346 281.059 272.103 280.719C271.86 280.38 271.386 280.302 271.046 280.549C269.612 281.58 267.437 281.056 266.963 280.513C266.842 280.386 266.441 279.55 269.77 275.77C272.383 272.79 282.043 269.338 289.164 269.704C289.577 269.771 289.941 269.405 289.965 268.985C289.99 268.564 289.674 268.208 289.249 268.185C281.557 267.785 271.52 271.474 268.628 274.764C266.343 277.353 264.436 279.963 265.821 281.522C266.404 282.173 267.68 282.652 269.041 282.652Z" fill="#2E2E2E"/>
</svg>
