<svg width="490" height="318" viewBox="0 0 490 309" fill="none" xmlns="http://www.w3.org/2000/svg">
<path d="M487.512 203.268C504.866 115.346 405.144 45.9999 284 45.9999C162.856 45.9999 44.5 100.5 8.5 258.5C20.3568 369.977 147.018 258.5 268.162 258.5C389.306 258.5 476.512 259 487.512 203.268Z" fill="#EEF0FD"/>
<path d="M193.719 198.285L188.663 205.125L158.495 159.8C158.495 159.8 160.211 146.504 161.135 143.549C162.077 140.593 163.318 137.563 163.243 135.23C163.159 132.896 161.723 130.429 159.083 131.129C156.443 131.829 154.344 136.397 154.288 136.628C154.223 136.864 153.905 158.243 153.905 158.243C153.905 158.243 152.432 160.654 151.116 160.654C149.792 160.654 124.055 160.809 124.055 160.809C124.055 160.809 130.818 165.786 131.051 166.095C131.284 166.407 134.708 175.194 134.708 175.194L145.044 199.838C145.044 199.838 168.682 239.88 173.346 245.088C178.01 250.297 184.624 250.842 186.723 250.452C188.822 250.066 195.818 247.654 197.758 246.178C199.708 244.698 214.241 231.87 214.241 231.87C214.241 231.87 212.609 222.075 213.234 219.741C213.859 217.411 214.008 210.958 214.008 210.958L193.719 198.285Z" fill="white"/>
<path d="M57.4727 206.637C45.1064 209.103 33.0778 201.074 30.6097 188.711C28.1503 176.346 36.1694 164.32 48.5444 161.854C60.902 159.388 72.9305 167.416 75.3986 179.78C77.8667 192.144 69.8303 204.17 57.4727 206.637ZM102.149 166.628C102.019 165.984 101.395 165.565 100.755 165.693L92.8135 167.276C92.268 167.387 91.7311 167.099 91.5059 166.599C89.5921 162.428 87.0461 158.666 84.0065 155.405C83.6342 155.004 83.5735 154.399 83.8766 153.94L88.3798 147.196C88.7435 146.651 88.5962 145.915 88.0506 145.551L75.2947 137.036C74.7491 136.672 74.013 136.819 73.6493 137.365L69.1461 144.108C68.8431 144.568 68.2628 144.745 67.7432 144.553C63.5692 142.996 59.118 142.083 54.5369 141.921C53.9827 141.902 53.5151 141.516 53.4025 140.975L51.8178 133.036C51.6879 132.391 51.0643 131.975 50.4235 132.1L35.3814 135.1C34.7406 135.229 34.3249 135.855 34.4548 136.499L36.0395 144.439C36.1434 144.98 35.8576 145.518 35.3553 145.746C31.1899 147.656 27.423 150.204 24.1669 153.244C23.7598 153.619 23.1536 153.678 22.7033 153.369L15.9572 148.871C15.4117 148.506 14.667 148.654 14.3032 149.198L5.79923 161.953C5.43552 162.498 5.58275 163.238 6.11966 163.602L12.8657 168.1C13.3247 168.409 13.5065 168.988 13.316 169.507C11.7572 173.681 10.8393 178.134 10.6834 182.718C10.6661 183.27 10.2764 183.737 9.73084 183.844L1.79836 185.427C1.14887 185.556 0.733209 186.181 0.863107 186.825L3.85947 201.862C3.98937 202.507 4.61281 202.927 5.2623 202.798L13.1948 201.215C13.7404 201.104 14.2772 201.391 14.5024 201.892C16.4162 206.062 18.9623 209.824 22.0019 213.086C22.3829 213.491 22.4349 214.091 22.1318 214.551L17.6287 221.294C17.2649 221.839 17.4121 222.575 17.9577 222.94L30.7137 231.454C31.2593 231.819 31.9953 231.671 32.3591 231.127L36.8622 224.382C37.1653 223.923 37.7455 223.746 38.2651 223.937C42.4392 225.494 46.899 226.407 51.48 226.569C52.0256 226.588 52.4932 226.974 52.6058 227.516L54.1905 235.455C54.3118 236.099 54.944 236.516 55.5848 236.39L70.6183 233.39C71.2678 233.261 71.6835 232.635 71.5536 231.992L69.9688 224.052C69.8649 223.51 70.1507 222.973 70.653 222.745C74.8184 220.834 78.5855 218.287 81.8416 215.246C82.2486 214.871 82.8548 214.812 83.3137 215.122L90.0511 219.619C90.5967 219.984 91.3328 219.837 91.6965 219.292L100.218 206.537C100.581 205.992 100.434 205.253 99.8801 204.888L93.1427 200.39C92.6837 200.081 92.5018 199.503 92.701 198.987C94.2511 194.81 95.1604 190.356 95.3249 185.773C95.3509 185.221 95.7319 184.753 96.2775 184.647L104.219 183.064C104.859 182.935 105.275 182.309 105.145 181.665L102.149 166.628Z" fill="white"/>
<path d="M37.835 223.021C38.0776 223.021 38.3202 223.061 38.5541 223.15C42.7306 224.707 47.0803 225.571 51.508 225.727C52.4525 225.763 53.2497 226.426 53.4316 227.346L55.0086 235.293C55.0432 235.451 55.2599 235.595 55.4245 235.565L70.458 232.566C70.6486 232.528 70.7698 232.345 70.7352 232.153L69.1495 224.214C68.9676 223.293 69.4441 222.377 70.3019 221.979C74.3224 220.139 78.0136 217.665 81.2716 214.631C81.9648 213.987 82.9958 213.899 83.7757 214.422L90.517 218.92C90.6556 219.012 90.9155 218.96 91.0022 218.824L99.5196 206.07C99.6063 205.934 99.5543 205.68 99.4243 205.588L92.6744 201.089C91.8946 200.563 91.5827 199.58 91.912 198.693C93.463 194.522 94.3294 190.168 94.4854 185.743C94.5201 184.793 95.1872 184.006 96.1144 183.822L104.051 182.239C104.216 182.206 104.355 181.988 104.329 181.826L101.331 166.789C101.305 166.668 101.227 166.599 101.175 166.569C101.131 166.539 101.045 166.491 100.915 166.517L92.9777 168.1C92.0592 168.284 91.1408 167.813 90.7422 166.951C88.8966 162.925 86.4272 159.236 83.3945 155.978C82.7446 155.287 82.6579 154.252 83.1865 153.472L87.6836 146.732C87.7702 146.596 87.7182 146.338 87.5882 146.246L74.8337 137.736C74.6777 137.629 74.4524 137.673 74.3484 137.831L69.8427 144.571C69.3315 145.355 68.3437 145.676 67.4513 145.341C63.2835 143.784 58.9251 142.919 54.506 142.764C53.5529 142.727 52.7644 142.064 52.5824 141.141L50.9968 133.2C50.9708 133.076 50.8928 133.005 50.8494 132.976C50.8061 132.95 50.7195 132.902 50.5895 132.925L35.5475 135.925C35.3655 135.962 35.2355 136.146 35.2789 136.337L36.8645 144.277C37.0465 145.197 36.5699 146.117 35.7121 146.511C31.683 148.352 27.9917 150.825 24.7424 153.858C24.0492 154.503 23.0181 154.591 22.2296 154.068L15.4971 149.57C15.3584 149.482 15.0986 149.529 15.0032 149.666L6.4944 162.421C6.42508 162.524 6.4337 162.63 6.44236 162.681C6.45103 162.733 6.4857 162.833 6.58968 162.902L13.3309 167.4C14.1194 167.924 14.4313 168.91 14.1021 169.797C12.5511 173.967 11.676 178.322 11.52 182.747C11.4853 183.693 10.8181 184.485 9.89965 184.668L1.96273 186.251C1.7981 186.284 1.65078 186.502 1.68544 186.663L4.68343 201.7C4.70942 201.822 4.78742 201.891 4.83074 201.921C4.87407 201.95 4.96938 201.999 5.09069 201.973L13.0363 200.39C13.9548 200.213 14.8732 200.677 15.2718 201.539C17.1088 205.565 19.5869 209.257 22.6196 212.511C23.2607 213.203 23.3561 214.238 22.8275 215.019L18.3305 221.758C18.2612 221.865 18.2699 221.968 18.2785 222.02C18.2872 222.074 18.3219 222.171 18.4258 222.244L31.1804 230.755C31.3363 230.865 31.553 230.817 31.6656 230.659L36.1626 223.919C36.5439 223.345 37.1765 223.021 37.835 223.021ZM55.3551 237.252C54.9566 237.252 54.5666 237.137 54.2287 236.909C53.7782 236.607 53.4662 236.15 53.3622 235.621L51.7766 227.677C51.7506 227.526 51.612 227.412 51.4474 227.408C46.8463 227.243 42.3147 226.344 37.9736 224.725C37.8176 224.666 37.653 224.718 37.5577 224.851L33.0606 231.59C32.7574 232.043 32.2982 232.348 31.7696 232.455C31.2411 232.558 30.6951 232.451 30.2446 232.153L17.4987 223.639C17.0395 223.341 16.7362 222.881 16.6322 222.347C16.5282 221.817 16.6322 221.276 16.9355 220.827L21.4325 214.087C21.5191 213.955 21.5018 213.778 21.3891 213.656C18.2352 210.274 15.6618 206.43 13.7469 202.241C13.6775 202.091 13.5215 202.002 13.3656 202.035L5.42865 203.618C4.89143 203.732 4.35416 203.618 3.90359 203.32C3.45302 203.018 3.14109 202.558 3.03711 202.028L0.039128 186.991C-0.0648495 186.458 0.039128 185.92 0.342396 185.467C0.636999 185.018 1.10485 184.709 1.6334 184.606L9.57041 183.023C9.72637 182.99 9.83898 182.854 9.83898 182.688C10.0123 178.083 10.9134 173.548 12.5251 169.212C12.5857 169.054 12.5338 168.888 12.4038 168.8L5.66253 164.302C5.21196 163.999 4.90003 163.539 4.79605 163.009C4.69207 162.48 4.79605 161.938 5.09932 161.486L13.6082 148.735C13.9114 148.281 14.3707 147.976 14.8993 147.87C15.4365 147.767 15.9737 147.873 16.4242 148.171L23.1654 152.669C23.2954 152.758 23.4687 152.743 23.59 152.629C26.978 149.475 30.8251 146.901 35.0102 144.984C35.1575 144.913 35.2442 144.759 35.2182 144.604L33.6326 136.665C33.4159 135.568 34.1264 134.497 35.2182 134.276L50.2603 131.279C50.7888 131.168 51.3347 131.276 51.7766 131.577C52.2358 131.882 52.5391 132.339 52.6431 132.873L54.2287 140.813C54.2634 140.967 54.3934 141.078 54.5667 141.082C59.159 141.247 63.6994 142.146 68.0404 143.765C68.1964 143.824 68.3611 143.772 68.4477 143.64L72.9534 136.9C73.5686 135.969 74.8337 135.715 75.7695 136.337L88.5153 144.851C88.9659 145.149 89.2778 145.609 89.3818 146.143C89.4858 146.673 89.3818 147.214 89.0785 147.664L84.5816 154.403C84.4863 154.536 84.5123 154.712 84.6249 154.834C87.7789 158.224 90.3523 162.064 92.2672 166.249C92.3365 166.4 92.4838 166.488 92.6485 166.455L100.585 164.872C101.114 164.758 101.66 164.868 102.11 165.17C102.561 165.472 102.864 165.933 102.968 166.462L105.975 181.499C106.079 182.033 105.975 182.57 105.672 183.023C105.368 183.472 104.909 183.781 104.381 183.884L96.435 185.471C96.2877 185.5 96.175 185.636 96.1663 185.802C96.0017 190.407 95.1006 194.942 93.489 199.282C93.4283 199.433 93.4802 199.602 93.6102 199.691L100.352 204.188C100.802 204.491 101.105 204.947 101.218 205.48C101.322 206.011 101.209 206.552 100.915 207.001L92.3971 219.756C92.1025 220.209 91.6434 220.514 91.1061 220.62C90.5776 220.723 90.0404 220.617 89.5898 220.319L82.8486 215.821C82.71 215.733 82.5367 215.747 82.4154 215.861C79.0274 219.019 75.1889 221.593 71.0038 223.51C70.8479 223.577 70.7698 223.731 70.7958 223.885L72.3815 231.826C72.5981 232.923 71.8876 233.994 70.7872 234.215L55.7538 237.211C55.6151 237.24 55.4851 237.252 55.3551 237.252Z" fill="#2E2E2E"/>
<path d="M53.0465 162.248C51.6033 162.248 50.1516 162.391 48.7 162.678C42.9358 163.827 37.9782 167.151 34.7099 172.036C31.45 176.924 30.287 182.787 31.4331 188.545C32.5876 194.305 35.9068 199.275 40.7966 202.536C45.6864 205.798 51.5439 206.957 57.2995 205.812C63.0637 204.664 68.0299 201.339 71.2982 196.455C74.558 191.567 75.7211 185.703 74.5665 179.946C73.4205 174.185 70.1012 169.215 65.2114 165.955C61.5526 163.514 57.3505 162.248 53.0465 162.248ZM52.9531 207.925C48.3265 207.925 43.8018 206.563 39.8628 203.935C34.5995 200.423 31.0256 195.074 29.7861 188.876C28.5467 182.673 29.8031 176.364 33.3176 171.104C36.8236 165.844 42.1719 162.27 48.369 161.033C54.5746 159.789 60.882 161.048 66.1453 164.556C71.4085 168.067 74.9825 173.416 76.2135 179.615C77.4529 185.817 76.205 192.126 72.6905 197.387C69.1844 202.647 63.8362 206.221 57.6306 207.458C56.0771 207.771 54.5066 207.925 52.9531 207.925Z" fill="#2E2E2E"/>
<path d="M74.2049 160.23H62.8272C61.3848 160.23 60.2202 159.064 60.2202 157.628V106.846C60.2202 105.406 61.3848 104.24 62.8272 104.24H151.403C152.836 104.24 154.001 105.406 154.001 106.846V157.628C154.001 159.064 152.836 160.23 151.403 160.23H88.3329H74.2049Z" fill="#5856D6"/>
<path d="M64.3425 110.916C64.3425 109.48 65.5067 108.313 66.9484 108.313H153.401V106.716C153.401 105.28 152.237 104.113 150.795 104.113L62.9186 104.375C61.4858 104.375 60.062 105.825 60.062 107.265L59.6143 157.499C59.6143 158.938 60.7873 160.105 62.2202 160.105H64.3425V110.916Z" fill="white"/>
<path d="M151.398 161.416H96.3688C95.9026 161.416 95.5261 161.041 95.5261 160.576C95.5261 160.113 95.9026 159.737 96.3688 159.737H151.398C152.367 159.737 153.164 158.946 153.164 157.974V107.187C153.164 106.219 152.367 105.428 151.398 105.428H62.8256C61.8486 105.428 61.0597 106.219 61.0597 107.187V157.974C61.0597 158.946 61.8486 159.737 62.8256 159.737H80.5474C81.0045 159.737 81.381 160.113 81.381 160.576C81.381 161.041 81.0045 161.416 80.5474 161.416H62.8256C60.9253 161.416 59.3745 159.874 59.3745 157.974V107.187C59.3745 105.292 60.9253 103.746 62.8256 103.746H151.398C153.299 103.746 154.841 105.292 154.841 107.187V157.974C154.841 159.874 153.299 161.416 151.398 161.416Z" fill="#2E2E2E"/>
<path d="M106.891 133.25L106.478 133.002C89.6043 123.089 61.224 106.378 60.7042 105.855C60.3727 105.531 60.3727 104.997 60.7042 104.669C61.0089 104.357 61.5018 104.342 61.8333 104.618C63.1237 105.539 94.3806 123.947 106.908 131.309L153.032 105.303C153.435 105.074 153.946 105.219 154.179 105.623C154.403 106.028 154.26 106.54 153.857 106.768L106.891 133.25Z" fill="#2E2E2E"/>
<path d="M158.386 19.3362C157.916 19.3362 157.54 18.9613 157.54 18.4973V4.63134C157.54 2.07986 159.616 -3.05176e-05 162.171 -3.05176e-05H224.145C224.606 -3.05176e-05 224.981 0.375734 224.981 0.839811C224.981 1.30295 224.606 1.67873 224.145 1.67873H162.171C160.546 1.67873 159.222 3.00426 159.222 4.63134V18.4973C159.222 18.9613 158.846 19.3362 158.386 19.3362Z" fill="#2E2E2E"/>
<path d="M188.651 24.0662H245.062C247.4 24.0662 249.3 25.9625 249.3 28.2997V70.5686C249.3 72.9096 247.4 74.8049 245.062 74.8049H141.649C139.311 74.8049 137.412 72.9096 137.412 70.5686V28.2997C137.412 25.9625 139.311 24.0662 141.649 24.0662H169.908H188.651Z" fill="white"/>
<path d="M245.063 75.9911H141.643C138.845 75.9911 136.572 73.7128 136.572 70.9151V28.6464C136.572 25.8487 138.845 23.5742 141.643 23.5742H169.906C170.374 23.5742 170.747 23.9495 170.747 24.4135C170.747 24.8776 170.374 25.2529 169.906 25.2529H141.643C139.771 25.2529 138.243 26.7768 138.243 28.6464V70.9151C138.243 72.7885 139.771 74.3086 141.643 74.3086H245.063C246.935 74.3086 248.453 72.7885 248.453 70.9151V28.6464C248.453 26.7768 246.935 25.2529 245.063 25.2529H188.641C188.173 25.2529 187.8 24.8776 187.8 24.4135C187.8 23.9495 188.173 23.5742 188.641 23.5742H245.063C247.861 23.5742 250.133 25.8487 250.133 28.6464V70.9151C250.133 73.7128 247.861 75.9911 245.063 75.9911Z" fill="#2E2E2E"/>
<path d="M174.138 49.8809C174.138 42.5669 168.207 36.637 160.887 36.637C153.575 36.637 147.645 42.5669 147.645 49.8809C147.645 57.1994 153.575 63.1293 160.887 63.1293C168.207 63.1293 174.138 57.1994 174.138 49.8809Z" fill="#5856D6"/>
<path d="M151.249 50.6549C151.249 43.3405 157.181 37.4103 164.495 37.4103C164.82 37.4103 165.127 37.4365 165.443 37.4582C164.016 36.9399 162.49 36.6374 160.883 36.6374C153.57 36.6374 147.638 42.5677 147.638 49.882C147.638 56.8795 153.073 62.5922 159.944 63.0815C154.879 61.2234 151.249 56.3676 151.249 50.6549Z" fill="white"/>
<path d="M160.885 37.4771C154.043 37.4771 148.481 43.0432 148.481 49.8824C148.481 56.7253 154.043 62.2904 160.885 62.2904C167.728 62.2904 173.29 56.7253 173.29 49.8824C173.29 43.0432 167.728 37.4771 160.885 37.4771ZM160.885 63.9689C153.116 63.9689 146.8 57.6495 146.8 49.8824C146.8 42.1154 153.116 35.7987 160.885 35.7987C168.655 35.7987 174.971 42.1154 174.971 49.8824C174.971 57.6495 168.655 63.9689 160.885 63.9689Z" fill="#2E2E2E"/>
<path d="M234.22 43.3289H213.133C212.67 43.3289 212.301 42.9534 212.301 42.4901C212.301 42.0258 212.67 41.6504 213.133 41.6504H234.22C234.683 41.6504 235.062 42.0258 235.062 42.4901C235.062 42.9534 234.683 43.3289 234.22 43.3289Z" fill="#2E2E2E"/>
<path d="M203.282 43.3296H185.435C184.972 43.3296 184.592 42.9534 184.592 42.4901C184.592 42.0258 184.972 41.6505 185.435 41.6505H203.282C203.745 41.6505 204.125 42.0258 204.125 42.4901C204.125 42.9534 203.745 43.3296 203.282 43.3296Z" fill="#2E2E2E"/>
<path d="M223.185 54.4128H185.435C184.975 54.4128 184.59 54.0373 184.59 53.5735C184.59 53.1097 184.975 52.7342 185.435 52.7342H223.185C223.645 52.7342 224.021 53.1097 224.021 53.5735C224.021 54.0373 223.645 54.4128 223.185 54.4128Z" fill="#2E2E2E"/>
<path d="M159.314 56.0287L158.663 55.4694C158.21 55.0784 154.228 51.6665 153.784 51.2248C153.459 50.8972 153.459 50.3668 153.784 50.0392C154.119 49.708 154.653 49.708 154.979 50.0392C155.242 50.3008 157.395 52.1597 159.097 53.6285L167.315 43.4759C167.613 43.1157 168.138 43.0605 168.5 43.351C168.862 43.6452 168.917 44.1719 168.627 44.533L159.314 56.0287Z" fill="white"/>
<path d="M223.071 25.3735H205.216C204.747 25.3735 204.371 24.999 204.371 24.5343C204.371 24.0705 204.747 23.695 205.216 23.695H223.071C223.531 23.695 223.907 24.0705 223.907 24.5343C223.907 24.999 223.531 25.3735 223.071 25.3735Z" fill="#2E2E2E"/>
<path d="M250.435 67.6207C250.435 67.6207 259.114 68.0039 260.859 67.0424C262.615 66.0789 272.269 71.1138 274.755 73.6727C277.242 76.2306 281.865 84.701 282.557 90.5794C283.259 96.4577 282.771 101.077 282.771 101.077L275.545 100.728L275.984 96.0384C275.984 96.0384 275.077 86.7986 272.903 81.9695C270.728 77.1394 269.889 75.1081 264.155 72.5902C258.411 70.0684 251.829 68.9206 251.829 68.9206L250.435 67.6207Z" fill="#556DEE"/>
<path d="M255.051 67.0432C262.192 68.1804 265.703 69.3692 270.976 74.5999C278.379 81.9513 279.371 92.832 278.321 99.8585C277.785 99.7262 275.49 98.5414 275.49 98.5414C275.49 98.5414 275.966 90.6676 274.176 84.5759C272.396 78.4872 270.285 76.1058 264.76 72.6932C259.234 69.2807 253.232 68.4596 253.232 68.4596L252.648 67.6211L255.051 67.0432Z" fill="white"/>
<path d="M231.812 161.276C231.599 161.346 223.622 164.357 218.995 169.046C214.379 173.737 209.62 178.356 205.632 182.836C201.643 187.319 195.285 194.818 194.546 198.347C198.909 200.619 212.212 210.277 212.212 210.277L213.68 211.536C213.68 211.536 212.911 218.678 212.769 222.458C212.627 226.238 214.936 233.515 216.829 238.555C218.722 243.598 221.992 250.621 223.936 258.244C226.193 267.116 225.353 270.267 225.353 270.267C225.353 270.267 265.342 278.273 265.757 278.273C266.183 278.273 321.621 278.037 321.621 278.037C321.621 278.037 335.764 278.597 338.275 274.676C340.796 270.756 343.914 262.213 342.355 255.635C340.796 249.057 338.073 224.906 338.073 224.906H339.753C339.753 224.906 331.472 196.477 327.118 188.802C322.775 181.128 319.485 174.296 307.306 165.266C298.174 158.968 296.139 158.968 296.139 158.968C296.139 158.968 282.32 164.744 275.284 165.793C268.248 166.841 247.038 168.944 241.369 167.052C235.7 165.163 232.652 162.642 231.812 161.276Z" fill="#2E2E2E"/>
<path d="M217.069 200.515L213.997 212.177C213.997 212.177 213.176 218.615 213.035 222.395C212.894 226.175 214.732 233.169 216.626 238.213C218.512 243.252 222.084 250.15 224.026 257.769C226.288 266.644 225.402 270.112 225.402 270.112L229.767 270.447C229.767 270.447 230.219 265.301 227.957 256.43C226.025 248.806 223.696 243.252 221.811 238.213C219.916 233.169 217.437 225.73 216.881 221.99C215.505 212.662 218.229 197.82 218.229 197.82L217.069 200.515Z" fill="white"/>
<path d="M197.024 200.062C200.065 194.53 206.893 186.623 210.888 182.14C214.874 177.66 221.891 169.754 233.178 162.755C232.29 162.056 231.704 161.42 231.402 160.93C231.194 161.003 222.789 164.943 218.17 169.632C213.552 174.321 209.207 178.01 205.222 182.493C201.227 186.973 194.87 194.471 194.134 198.001L197.024 200.062Z" fill="white"/>
<path d="M304.015 230.891C304.015 230.891 301.677 230.68 301.869 232.363C302.072 234.041 305.219 243.542 305.219 243.701C305.219 243.859 304.845 247.112 304.845 247.112L282.115 242.861C282.115 242.861 268.392 240.646 267.238 239.861C266.075 239.081 263.737 231.678 260.276 230.732C256.815 229.79 230.462 239.073 229.996 240.973C229.521 242.868 229.935 243.951 230.664 244.47C231.555 245.118 234.884 245.77 234.884 245.77C234.884 245.77 232.385 245.7 231.403 247.901C230.421 250.102 230.917 250.054 231.494 251.051C232.081 252.049 235.643 253.374 235.694 253.529C235.755 253.687 233.022 255.811 233.386 257.07C233.751 258.333 238.214 260.342 240.046 260.398C241.887 260.449 252.342 263.283 255.752 263.442C259.163 263.6 266.894 264.123 266.894 264.123C266.894 264.123 285.323 269.059 288.683 270.16C292.043 271.264 317.252 275.747 319.135 276.314C321.017 276.881 329.629 277.827 332.625 277.562C335.62 277.301 339.233 275.703 339.972 274.415C340.711 273.126 343.301 268.639 343.099 265.647C342.897 262.654 342.016 251 341.966 250.212C341.915 249.424 339.871 233.096 339.81 232.518C339.759 231.939 337.766 225.38 337.766 225.38L304.015 230.891Z" fill="white"/>
<path d="M231.811 218.717C231.753 219.078 230.607 225.534 230.607 225.534L232.552 225.903L234.159 238.838C234.159 238.838 245.478 237.98 248.827 238.503C252.176 239.029 259.164 239.467 259.164 239.467L259.587 237.98L261.175 225.748L262.542 225.251L261.166 218.618L231.811 218.717Z" fill="white"/>
<path d="M270.172 70.0681C270.309 70.2782 274.276 69.0567 279.608 73.3782C284.94 77.6998 287.277 78.3292 288.809 82.1421C290.331 85.9589 292.619 89.7394 293.13 95.4789C293.64 101.217 294.288 110.471 292.57 115.429C290.861 120.388 289.958 124.301 287.032 127.808C284.106 131.317 279.432 133.908 277.281 134.328C275.14 134.747 273.324 134.607 273.324 134.607L272.627 127.046C272.627 127.046 275.356 127.68 278.636 127.046C281.936 126.417 285.569 125.368 287.042 121.098C288.515 116.828 289.703 113.118 289.006 110.39C288.299 107.659 285.431 102.409 283.399 99.9585C283.124 94.6393 282.976 84.7 279.697 79.6577C276.407 74.6184 273.461 72.5897 273.461 72.5897L270.172 70.0681Z" fill="white"/>
<path d="M290.817 86.4488C290.817 86.4488 293.414 81.4793 300.06 82.8085C306.706 84.1377 309.929 85.4699 311.889 89.8096C313.849 94.1493 315.401 98.4891 314.973 103.389C314.555 108.288 311.332 114.66 310.984 119.909C310.625 125.158 308.904 127.967 310.227 132.373C311.541 136.779 312.794 140.21 313.013 141.609C313.222 143.008 313.71 143.916 311.75 144.056C309.79 144.2 306.168 144.55 301.532 142.098C296.886 139.647 293.006 136.698 292.011 134.607C291.006 132.517 288.718 124.808 289.981 122.567C291.235 120.329 292.638 113.537 293.205 108.008C293.762 102.48 293.065 96.3879 292.498 93.8698C291.941 91.3487 290.817 86.4488 290.817 86.4488Z" fill="white"/>
<path d="M229.95 90.9985C229.95 90.9985 230.6 81.2733 235.055 76.0573C239.51 70.8385 245.518 68.3567 248.886 68.3567C257.99 68.3897 263.804 70.9084 267.23 74.3384C270.656 77.7694 275.635 84.4209 275.703 90.2997C275.771 96.1776 275.286 99.5387 275.286 99.5387L269.122 102.255L267.579 97.2306C267.579 97.2306 260.513 92.7805 250.992 91.3664C251.409 90.0192 251.477 84.1375 251.477 84.1375C251.477 84.1375 247.721 86.8134 246.576 88.5468C245.44 90.2842 244.596 90.7374 244.343 90.6161C244.081 90.4948 229.853 91.5586 229.853 91.5586L229.95 90.9985Z" fill="white"/>
<path d="M238.384 76.6174C242.846 71.4013 248.843 68.9199 252.221 68.9199C254.236 68.9237 256.069 69.0705 257.777 69.3066C255.301 68.7174 252.442 68.3682 249.141 68.3566C245.763 68.3566 239.766 70.838 235.304 76.057C230.852 81.2731 230.199 90.9981 230.199 90.9981L230.104 91.5585C230.104 91.5585 231.447 91.4587 233.299 91.3224C233.424 89.8754 234.326 81.3805 238.384 76.6174Z" fill="white"/>
<path d="M273.605 135.939C273.183 135.939 272.81 135.619 272.77 135.189C272.721 134.725 273.055 134.312 273.517 134.264C291.093 132.38 293.126 112.154 292.783 100.263C292.272 82.8484 283.754 72.8658 266.738 69.7446C266.286 69.6601 265.982 69.2249 266.07 68.769C266.149 68.3122 266.581 68.0253 267.043 68.0912C284.707 71.3342 293.932 82.142 294.462 100.216C295.091 121.746 287.713 134.43 273.694 135.932C273.664 135.936 273.635 135.939 273.605 135.939Z" fill="#2E2E2E"/>
<path d="M245.599 111.895C245.837 104.339 241.714 98.0806 236.391 97.915C231.059 97.7493 226.555 103.742 226.326 111.296C226.088 118.852 230.211 125.114 235.534 125.28C240.857 125.442 245.371 119.452 245.599 111.895Z" fill="#556DEE"/>
<path d="M236.171 98.7511C233.942 98.7511 231.798 99.9763 230.121 102.214C228.321 104.604 227.273 107.839 227.158 111.322C226.939 118.403 230.712 124.286 235.561 124.437C237.858 124.521 240.068 123.28 241.802 120.977C243.603 118.587 244.651 115.352 244.765 111.869C244.984 104.788 241.211 98.9054 236.362 98.7539C236.295 98.7539 236.228 98.7511 236.171 98.7511ZM235.752 126.122C235.676 126.122 235.59 126.119 235.514 126.119C229.731 125.939 225.234 119.276 225.481 111.27C225.605 107.445 226.768 103.871 228.778 101.206C230.845 98.4529 233.58 97.0209 236.409 97.0761C242.192 97.2562 246.69 103.915 246.442 111.921C246.318 115.746 245.156 119.324 243.145 121.988C241.135 124.661 238.524 126.122 235.752 126.122Z" fill="#2E2E2E"/>
<path d="M232.449 90.998C232.449 90.998 231.182 114.24 230.484 119.839C229.787 125.437 233.422 134.957 238.609 138.177C243.787 141.398 245.359 140.055 245.359 140.055C245.359 140.055 246.568 146.839 246.047 149.728C245.516 152.614 245.045 155.029 245.045 155.029C245.045 155.029 236.753 158.548 232.341 160.963C238.187 170.379 267.406 168.292 270.521 167.018C272.201 166.334 293.57 162.579 295.181 158.651C293.079 157.444 279.127 151.524 278.587 150.829C275.129 146.367 273.183 138.358 272.918 134.817C272.653 131.279 271.818 125.839 271.818 125.839C271.818 125.839 268.988 104.419 268.516 102.741C268.035 101.062 267.721 96.5451 267.721 96.5451C267.721 96.5451 257.169 91.3291 251.342 90.998C250.979 89.3012 251.5 83.7874 251.5 83.7874C251.5 83.7874 246.774 87.5455 246.273 88.7382C245.782 89.931 244.937 90.8771 244.779 90.8771C244.622 90.8771 232.449 90.998 232.449 90.998Z" fill="white"/>
<path d="M248.078 140.894C247.531 140.894 247.061 140.868 246.658 140.836C239.892 140.272 234.997 137.677 232.127 133.12C229.68 129.248 228.711 123.987 229.258 117.487L231.273 93.4395C231.35 92.5297 231.436 91.8818 231.571 91.2043C231.657 90.7484 232.098 90.4614 232.55 90.5382C233.01 90.6265 233.308 91.068 233.212 91.5248C233.097 92.1362 233.02 92.7322 232.953 93.5825L230.937 117.627C230.419 123.756 231.292 128.666 233.548 132.226C236.12 136.311 240.583 138.646 246.792 139.164C247.762 139.242 250.689 139.484 256.927 137.611C257.378 137.471 257.839 137.729 257.973 138.174C258.108 138.616 257.858 139.087 257.407 139.22C252.858 140.585 249.988 140.894 248.078 140.894Z" fill="#2E2E2E"/>
<path d="M275.581 122.865C275.356 122.865 275.142 122.854 274.927 122.835C273.767 122.74 272.674 122.393 271.68 121.812C271.28 121.58 271.143 121.065 271.377 120.664C271.611 120.266 272.128 120.127 272.528 120.362C273.299 120.814 274.157 121.083 275.064 121.161C278.38 121.47 281.325 118.959 281.608 115.632C281.745 114.023 281.237 112.455 280.194 111.218C279.15 109.986 277.687 109.231 276.078 109.094C275.249 109.021 274.42 109.12 273.63 109.389C273.201 109.532 272.723 109.297 272.567 108.859C272.421 108.421 272.655 107.942 273.104 107.795C274.108 107.457 275.152 107.324 276.215 107.42C278.273 107.592 280.145 108.557 281.481 110.132C282.817 111.712 283.451 113.714 283.276 115.775C282.944 119.806 279.55 122.865 275.581 122.865Z" fill="#2E2E2E"/>
<path d="M279.056 116.114C279.027 116.114 278.998 116.111 278.978 116.111C278.511 116.066 278.17 115.654 278.219 115.19C278.297 114.321 278.044 113.515 277.499 112.982C276.964 112.451 276.185 112.22 275.309 112.301C274.842 112.36 274.443 112.013 274.394 111.553C274.346 111.093 274.677 110.677 275.134 110.63C276.526 110.486 277.781 110.902 278.676 111.789C279.582 112.68 280.019 113.979 279.893 115.352C279.854 115.787 279.484 116.114 279.056 116.114Z" fill="#2E2E2E"/>
<path d="M237.11 106.665C236.987 108.107 236.201 109.222 235.358 109.148C234.506 109.079 233.919 107.849 234.042 106.406C234.165 104.96 234.951 103.848 235.794 103.918C236.646 103.989 237.233 105.218 237.11 106.665Z" fill="#2E2E2E"/>
<path d="M231.726 99.1118C231.412 99.1118 231.118 98.9428 230.966 98.6475C230.767 98.2315 230.938 97.7273 231.346 97.5213C234.204 96.0931 237.851 95.8396 240.861 96.8585C241.298 97.0094 241.535 97.4842 241.383 97.9267C241.241 98.3645 240.766 98.5962 240.32 98.4528C237.718 97.5659 234.565 97.7862 232.096 99.0235C231.982 99.0862 231.849 99.1118 231.726 99.1118Z" fill="#2E2E2E"/>
<path d="M255.599 108.24C255.474 109.683 256.069 110.912 256.914 110.982C257.759 111.056 258.546 109.94 258.662 108.497C258.786 107.051 258.201 105.825 257.346 105.751C256.501 105.682 255.714 106.793 255.599 108.24Z" fill="#2E2E2E"/>
<path d="M263.868 103.094C263.637 103.094 263.396 102.999 263.232 102.807C261.093 100.377 257.199 99.0974 253.748 99.7046C253.285 99.7894 252.861 99.48 252.775 99.0232C252.697 98.5663 253.006 98.1325 253.459 98.0516C257.449 97.3412 261.989 98.8468 264.495 101.7C264.803 102.049 264.775 102.575 264.418 102.884C264.264 103.024 264.061 103.094 263.868 103.094Z" fill="#2E2E2E"/>
<path d="M242.706 119.271C242.706 119.271 242.706 119.271 242.697 119.271C241.83 119.257 240.411 118.705 239.468 117.711C238.887 117.086 238.592 116.379 238.63 115.661C238.697 114.13 239.611 113.356 240.678 112.466C240.983 112.208 241.325 111.928 241.668 111.597C242.859 110.481 243.754 108.998 244.297 105.376C244.363 104.92 244.792 104.596 245.249 104.669C245.716 104.736 246.03 105.166 245.963 105.626C245.316 109.962 244.068 111.649 242.821 112.819C242.449 113.176 242.087 113.478 241.754 113.754C240.773 114.575 240.335 114.973 240.306 115.738C240.287 116.058 240.516 116.36 240.697 116.559C241.287 117.189 242.278 117.586 242.725 117.593C243.192 117.601 243.563 117.984 243.544 118.448C243.544 118.908 243.173 119.271 242.706 119.271Z" fill="#2E2E2E"/>
<path d="M309.407 249.16C309.357 249.16 309.308 249.156 309.258 249.145C308.961 249.089 279.178 243.557 269.19 241.551C266.374 240.98 265.134 238.749 263.825 236.387C262.883 234.697 261.911 232.948 260.264 231.439C259.927 231.126 259.897 230.596 260.215 230.253C260.522 229.911 261.058 229.885 261.395 230.202C263.25 231.896 264.331 233.847 265.293 235.569C266.503 237.759 267.465 239.49 269.528 239.901C279.495 241.908 309.258 247.44 309.566 247.495C310.022 247.58 310.319 248.018 310.23 248.474C310.161 248.879 309.804 249.16 309.407 249.16Z" fill="#2E2E2E"/>
<path d="M305.193 248.265C304.807 248.265 304.461 248.003 304.372 247.613L300.732 231.837C300.623 231.384 300.9 230.932 301.355 230.829C301.81 230.725 302.255 231.005 302.364 231.458L306.014 247.238C306.113 247.688 305.826 248.14 305.381 248.243C305.312 248.257 305.252 248.265 305.193 248.265Z" fill="#2E2E2E"/>
<path d="M331.033 278.254C312.563 278.254 267.151 265.444 264.942 264.819C264.486 264.69 264.233 264.226 264.365 263.78C264.486 263.331 264.952 263.074 265.398 263.199C286.868 269.291 329.382 279.745 336.636 275.751C338.47 274.742 340.598 272.151 341.236 268.647C343.526 256.061 337.487 227.611 336.889 225.48C336.768 225.034 337.021 224.567 337.477 224.442C337.923 224.32 338.379 224.578 338.511 225.023C339.118 227.184 345.228 256.076 342.888 268.949C342.158 272.998 339.625 276.02 337.447 277.223C336.14 277.941 333.911 278.254 331.033 278.254Z" fill="#2E2E2E"/>
<path d="M244.809 154.319H244.828H244.809ZM189.379 205.624C189.227 205.624 189.074 205.58 188.931 205.492C188.54 205.241 188.426 204.723 188.674 204.332C199.548 187.267 211.052 171.001 232.057 159.561C233.754 158.64 242.465 154.503 244.171 153.689C245.152 151.385 245.343 146.905 244.733 140.364C244.685 139.904 245.028 139.491 245.495 139.451C245.953 139.425 246.363 139.745 246.401 140.21C246.83 144.807 247.211 151.307 245.562 154.687L245.429 154.952L245.171 155.076C245.057 155.128 234.659 160.057 232.858 161.036C212.186 172.3 201.254 187.716 190.094 205.234C189.932 205.484 189.655 205.624 189.379 205.624Z" fill="#2E2E2E"/>
<path d="M225.536 271.308C225.536 271.308 225.526 271.308 225.517 271.308C225.056 271.297 224.689 270.911 224.699 270.447C224.84 264.811 223.646 258.535 220.937 250.695C219.893 247.651 218.662 244.768 217.486 241.985C214.975 236.095 212.615 230.534 212.258 224.331C211.722 214.941 214.486 206.206 217.166 197.762C217.307 197.32 217.778 197.077 218.22 197.213C218.662 197.353 218.915 197.828 218.774 198.27C216.141 206.571 213.414 215.154 213.941 224.235C214.279 230.148 216.583 235.58 219.028 241.327C220.223 244.138 221.455 247.047 222.527 250.146C225.301 258.182 226.523 264.645 226.382 270.487C226.373 270.944 225.997 271.308 225.536 271.308Z" fill="#2E2E2E"/>
<path d="M253.731 168.983C247.691 168.983 242.212 168.325 238.12 166.827C234.372 165.454 232.012 163.455 231.107 160.89C230.949 160.451 231.175 159.973 231.618 159.815C232.051 159.663 232.533 159.891 232.69 160.326C233.418 162.402 235.445 164.058 238.701 165.251C252.59 170.342 283.084 165.435 295.714 158.063C296.118 157.827 296.629 157.966 296.865 158.364C297.101 158.765 296.963 159.28 296.56 159.513C287.343 164.898 268.791 168.983 253.731 168.983Z" fill="#2E2E2E"/>
<path d="M244.469 129.631C242.978 129.631 241.468 129.329 240.063 128.71C239.633 128.526 239.441 128.03 239.623 127.606C239.814 127.179 240.302 126.988 240.732 127.171C243.924 128.571 247.843 128.011 250.252 125.806C250.596 125.489 251.132 125.515 251.437 125.857C251.753 126.2 251.724 126.73 251.38 127.046C249.535 128.74 247.031 129.631 244.469 129.631Z" fill="#2E2E2E"/>
<path d="M247.583 211.466C247.64 211.688 247.353 211.842 247.209 211.662C242.461 205.743 245.103 200.607 246.444 194.463C247.774 188.446 246.195 181.878 242.499 178.904C242.327 178.764 242.442 178.473 242.662 178.517C251.048 180.071 254.16 188.633 251.288 196.025C248.473 203.295 246.08 205.631 247.583 211.466Z" fill="white"/>
<path d="M184.05 251.582C181.297 251.582 178.272 251.044 174.996 249.642C173.754 249.105 165.885 243.222 160.069 236.346L160.013 236.368L157.652 230.877L157.67 230.902L130.151 166.639C124.327 163.507 118.52 156.561 116.868 153.483C115.048 150.097 115.356 147.222 117.727 145.389C118.548 144.752 119.612 144.491 120.723 144.652C121.909 144.826 123.029 145.474 123.664 146.349L126.744 150.939C127.78 152.423 129.181 153.395 130.562 153.587C131.328 153.689 132.018 153.535 132.504 153.145C133.764 152.125 134.305 150.943 132.868 148.48C132.634 148.08 132.775 147.564 133.176 147.332C133.568 147.093 134.081 147.233 134.324 147.634C135.967 150.469 135.724 152.695 133.568 154.447C132.718 155.14 131.57 155.423 130.338 155.25C128.49 154.996 126.679 153.77 125.353 151.889L122.282 147.306C121.937 146.821 121.218 146.423 120.481 146.317C120.014 146.247 119.342 146.262 118.754 146.718C117.064 148.028 116.924 150.037 118.352 152.692C119.892 155.566 125.661 162.428 131.188 165.292L131.458 165.431L161.376 235.297C167.117 242.062 174.753 247.698 175.658 248.095C183.341 251.393 189.371 249.62 194.253 247.448C199.472 245.129 207.518 237.48 211.383 233.802C213.24 232.043 213.66 231.652 213.959 231.506C214.37 231.296 214.874 231.465 215.079 231.881C215.285 232.286 215.126 232.772 214.743 232.989C214.51 233.151 213.558 234.06 212.55 235.021C208.61 238.761 200.414 246.546 194.935 248.983C191.957 250.308 188.316 251.582 184.05 251.582Z" fill="#2E2E2E"/>
<path d="M195.645 216.715C195.368 216.715 195.101 216.587 194.944 216.343L157.335 160.326L157.382 160.013C157.446 159.49 159.097 147.137 161.226 141.093C162.563 137.301 162.609 133.72 161.337 132.388C160.756 131.791 159.936 131.669 158.792 132.019C155.842 132.922 153.878 138.435 152.449 142.466L152.311 142.841C151.914 143.968 151.167 144.141 150.863 144.163C150.568 144.177 149.803 144.118 149.24 143.051C146.908 138.59 145.303 134.707 143.893 131.279C142.602 128.166 141.495 125.471 140.205 123.311C139.034 121.337 137.733 120.13 136.443 119.821C135.447 119.581 134.691 119.935 134.331 120.163C132.423 121.371 132.616 122.707 134.221 127.444C135.299 130.617 136.544 133.26 137.457 135.189C138.111 136.565 138.573 137.563 138.766 138.263L138.941 138.936L138.305 139.377L137.678 139.676L137.171 139.043C136.258 137.791 133.999 136.977 132.45 137.803C130.634 138.771 130.062 140.07 130.606 142.014L130.763 142.62L130.191 143.066C129.832 143.287 129.38 143.243 129.067 142.959C127.831 141.84 126.199 141.557 125.019 142.256C123.783 142.978 123.341 144.543 123.802 146.548C123.903 147.001 123.617 147.45 123.166 147.553C122.714 147.656 122.262 147.373 122.161 146.924C121.543 144.192 122.29 141.907 124.171 140.806C125.526 140.011 127.223 140.007 128.735 140.728C128.735 138.855 129.73 137.349 131.657 136.319C133.04 135.579 134.691 135.667 136.092 136.231C136.037 136.124 135.991 136.017 135.936 135.906C135.004 133.94 133.741 131.246 132.635 127.981C131.169 123.653 130.201 120.792 133.437 118.742C134.018 118.374 135.244 117.811 136.83 118.186C138.6 118.609 140.214 120.045 141.652 122.452C142.998 124.717 144.132 127.462 145.442 130.639C146.843 134.033 148.429 137.879 150.734 142.271C150.734 142.274 150.734 142.274 150.734 142.274L150.863 141.903C152.504 137.295 154.551 131.562 158.304 130.411C160.516 129.741 161.835 130.485 162.545 131.224C164.324 133.083 164.426 137.077 162.812 141.649C160.922 147.008 159.355 157.93 159.078 159.917L196.337 215.408C196.595 215.795 196.493 216.314 196.106 216.576C195.968 216.671 195.802 216.715 195.645 216.715Z" fill="#2E2E2E"/>
<path d="M285.112 114.461C286.079 106.963 282.582 100.33 277.297 99.6454C272.021 98.9645 266.951 104.486 265.984 111.984C265.007 119.482 268.504 126.115 273.79 126.796C279.075 127.48 284.135 121.959 285.112 114.461Z" fill="#556DEE"/>
<path d="M279.302 128.051L279.058 128.029C277.992 127.941 277.152 127.893 276.409 127.852C275.403 127.793 274.582 127.745 273.683 127.631C270.849 127.263 268.406 125.386 266.793 122.338C265.249 119.39 264.663 115.671 265.151 111.877C266.031 105.093 270.262 99.6113 275.217 98.8422L275.696 98.7835C276.175 98.721 276.575 99.0552 276.634 99.5155C276.693 99.9758 276.36 100.396 275.901 100.451L275.442 100.506C271.24 101.157 267.604 106.031 266.813 112.094C266.373 115.546 266.891 118.907 268.288 121.553C269.627 124.101 271.621 125.67 273.898 125.964C274.758 126.074 275.54 126.118 276.507 126.174C277.201 126.214 277.973 126.258 278.94 126.335C281.52 124.778 283.504 120.328 284.276 114.35C284.794 110.382 285.136 103.347 281.647 100.859C281.266 100.59 281.178 100.068 281.452 99.6885C281.725 99.3132 282.243 99.2253 282.625 99.494C286.612 102.339 286.631 109.263 285.947 114.567C285.527 117.77 284.081 125.489 279.527 127.933L279.302 128.051Z" fill="#2E2E2E"/>
<path d="M289.148 114.909C290.118 107.411 286.622 100.779 281.343 100.097C276.064 99.4125 270.99 104.938 270.021 112.436C269.051 119.931 272.548 126.564 277.827 127.249C283.105 127.929 288.179 122.408 289.148 114.909Z" fill="#556DEE"/>
<path d="M272.763 113.556C273.73 106.058 278.804 100.533 284.083 101.217C284.161 101.228 284.229 101.25 284.298 101.262C283.38 100.65 282.366 100.238 281.273 100.098C275.984 99.4136 270.919 104.939 269.943 112.437C268.987 119.829 272.383 126.373 277.545 127.205C274.032 124.878 271.993 119.493 272.763 113.556Z" fill="white"/>
<path d="M289.149 114.91H289.159H289.149ZM280.45 100.882C278.432 100.882 276.404 101.887 274.68 103.768C272.652 105.969 271.301 109.086 270.85 112.543C269.939 119.57 273.123 125.792 277.932 126.414C282.723 127.028 287.405 121.83 288.316 114.803C288.757 111.347 288.238 107.986 286.837 105.339C285.495 102.792 283.506 101.224 281.234 100.929C280.969 100.897 280.705 100.882 280.45 100.882ZM278.696 128.144C278.373 128.144 278.04 128.125 277.717 128.081C271.986 127.337 268.156 120.273 269.185 112.326C269.674 108.531 271.183 105.086 273.436 102.631C275.767 100.095 278.608 98.9053 281.449 99.2658C284.28 99.6302 286.719 101.511 288.326 104.556C289.884 107.507 290.471 111.222 289.982 115.021C289.012 122.508 284.065 128.144 278.696 128.144Z" fill="#2E2E2E"/>
<path d="M269.227 104.195C268.908 104.195 268.599 104.003 268.454 103.683C268.396 103.535 266.964 100.16 266.945 97.1675C264.343 95.386 258.386 92.5367 250.813 92.0289L250.039 91.9767L250.029 91.2001C250.029 91.0531 250.01 87.9572 250.542 85.2037C248.308 86.6544 247.263 88.642 246.538 90.0115C246.286 90.5047 246.074 90.9022 245.88 91.1595L245.609 91.5202L245.155 91.4951C238.714 91.1566 234.1 91.5019 230.183 92.6286L229.042 92.9564L229.119 91.7707C229.651 82.8409 232.514 76.4103 238.124 71.5329C240.484 69.4825 243.917 67.8964 247.786 67.0676C248.24 66.9757 248.685 67.259 248.782 67.7117C248.878 68.1643 248.588 68.614 248.134 68.7098C244.536 69.4825 241.373 70.9333 239.226 72.8028C234.226 77.1502 231.557 82.8632 230.88 90.7068C234.613 89.7977 238.975 89.5105 244.758 89.7938C244.845 89.6285 244.952 89.4408 245.058 89.2309C245.919 87.5935 247.36 84.8584 250.735 83.1611C251.161 82.9444 251.644 83.0024 252.012 83.3013C252.38 83.603 252.534 84.0886 252.409 84.5489C251.877 86.5403 251.751 89.1429 251.722 90.4128C261.5 91.2707 267.612 95.562 268.289 96.0591L268.657 96.328L268.638 96.7767C268.502 99.4935 269.982 102.987 270.001 103.02C270.185 103.447 269.982 103.94 269.556 104.124C269.45 104.173 269.343 104.195 269.227 104.195Z" fill="#2E2E2E"/>
<path d="M282.972 101.18C282.952 101.18 282.933 101.176 282.903 101.176C282.445 101.14 282.103 100.731 282.132 100.271C283.04 89.3125 280.903 75.0484 265.609 69.3134C262.134 68.0143 258.289 67.8113 253.604 67.9002C253.604 67.9002 249.554 68.1763 246.225 69.126C245.776 69.2577 245.308 68.9972 245.181 68.5511C245.054 68.1061 245.308 67.6386 245.757 67.5136C249.27 66.5084 253.36 66.2322 253.536 66.2214C257.791 66.1443 262.251 66.2614 266.194 67.742C283.333 74.1651 284.592 90.9649 283.811 100.407C283.782 100.849 283.411 101.18 282.972 101.18Z" fill="#2E2E2E"/>
<path d="M299.061 232.595L294.342 217.908C294.2 217.47 294.443 216.995 294.888 216.855C295.332 216.708 295.807 216.955 295.949 217.397L300.213 230.699L338.702 224.232L338.621 223.904C335.195 210.638 332.922 201.87 327.243 190.852C317.825 172.58 312.015 167.048 292.725 157.97C290.411 156.881 288.188 156.012 286.238 155.25C282.701 153.87 279.912 152.777 278.033 151.054C273.617 147.001 272.091 136.393 271.576 128.21L271.465 126.546C271.434 126.082 271.788 125.681 272.253 125.651C272.718 125.611 273.112 125.968 273.142 126.431L273.253 128.099C273.95 139.238 276.052 146.949 279.175 149.817C280.812 151.327 283.479 152.368 286.844 153.682C288.825 154.459 291.068 155.335 293.443 156.45C312.945 165.627 319.21 171.598 328.738 190.083C334.498 201.27 336.792 210.108 340.248 223.485L340.793 225.582L299.061 232.595Z" fill="#2E2E2E"/>
<path d="M213.758 212.938C213.59 212.938 213.422 212.887 213.263 212.78L193.602 198.696C193.22 198.427 193.136 197.905 193.406 197.526C193.677 197.147 194.199 197.062 194.573 197.335L214.243 211.415C214.625 211.683 214.709 212.21 214.439 212.585C214.271 212.817 214.019 212.938 213.758 212.938Z" fill="#2E2E2E"/>
<path d="M310.439 144.719C304.208 144.719 298.356 142.495 294.276 138.538C290.454 134.84 288.443 129.903 288.473 124.268C288.473 123.804 288.841 123.432 289.309 123.432C289.777 123.432 290.145 123.811 290.145 124.275C290.125 129.443 291.956 133.96 295.44 137.331C299.411 141.178 305.204 143.258 311.345 143.022C311.693 143.011 311.872 142.79 311.952 142.662C312.091 142.426 312.101 142.135 311.982 141.884C307.155 132.159 309.882 121.827 312.081 113.523C313.106 109.65 314.072 105.995 314.132 102.987C314.341 92.9609 309.404 86.8827 304.726 84.5349C299.909 82.1233 296.047 82.6866 291.409 86.4856C291.051 86.7802 290.523 86.7285 290.225 86.3682C289.926 86.0109 289.986 85.4804 290.344 85.1868C295.44 81.0086 300.108 80.3457 305.482 83.029C310.618 85.6098 316.032 92.2135 315.813 103.02C315.744 106.23 314.758 109.981 313.703 113.953C311.474 122.4 308.936 131.979 313.485 141.138C313.863 141.899 313.833 142.79 313.395 143.518C312.977 144.229 312.23 144.671 311.404 144.704C311.086 144.715 310.757 144.719 310.439 144.719Z" fill="#2E2E2E"/>
<path d="M233.319 235.933C232.884 235.933 232.525 235.606 232.477 235.172L231.599 225.918C231.561 225.458 231.901 225.045 232.364 225.002C232.827 224.975 233.234 225.296 233.281 225.76L234.15 235.014C234.198 235.473 233.857 235.886 233.394 235.931C233.366 235.931 233.347 235.933 233.319 235.933Z" fill="#2E2E2E"/>
<path d="M259.894 238.355C259.866 238.355 259.827 238.351 259.798 238.349C259.336 238.3 259.009 237.885 259.057 237.424L260.376 225.325C260.424 224.864 260.837 224.526 261.299 224.581C261.761 224.632 262.098 225.049 262.05 225.509L260.722 237.605C260.684 238.035 260.318 238.355 259.894 238.355Z" fill="#2E2E2E"/>
<path d="M231.8 224.578H261.559L260.769 219.329H232.561L231.8 224.578ZM263.514 226.26H229.854L231.106 217.651H262.213L263.514 226.26Z" fill="#2E2E2E"/>
<path d="M275.897 100.352C275.878 100.352 275.858 100.352 275.839 100.352C275.373 100.319 275.023 99.9177 275.062 99.4533C275.732 89.57 273.633 76.6203 259.749 71.0588C255.862 69.5052 249.732 68.3859 244.164 69.9026C243.708 70.024 243.251 69.7626 243.134 69.3138C243.008 68.8688 243.27 68.4043 243.717 68.2829C249.693 66.6603 256.232 67.8447 260.371 69.4974C275.198 75.4349 277.452 89.1289 276.733 99.5679C276.704 100.013 276.334 100.352 275.897 100.352Z" fill="#2E2E2E"/>
<path d="M137.861 151.764C135.337 151.764 133.408 149.427 131.817 147.004L129.062 142.804L130.458 141.884L133.222 146.081C136.163 150.556 137.763 150.358 139.034 149.82C139.38 149.673 139.656 149.331 139.825 148.812C140.358 147.222 140.011 143.695 137.301 138.991C137.061 138.589 137.203 138.075 137.603 137.846C138.003 137.611 138.518 137.75 138.758 138.152C141.255 142.484 142.277 146.777 141.415 149.341C141.086 150.329 140.491 151.028 139.691 151.367C139.051 151.639 138.438 151.764 137.861 151.764Z" fill="#2E2E2E"/>
<path d="M123.926 159.315C122.21 159.315 120.414 158.232 118.601 156.101C118.302 155.748 118.346 155.217 118.698 154.92C119.05 154.618 119.578 154.658 119.877 155.011C121.383 156.782 122.809 157.698 124.05 157.632C124.965 157.588 125.573 156.988 125.916 156.491C126.268 155.983 126.805 154.348 124.208 150.174C123.962 149.781 124.085 149.265 124.472 149.019C124.868 148.772 125.388 148.894 125.634 149.287C127.932 152.98 128.495 155.729 127.289 157.456C126.497 158.589 125.379 159.248 124.129 159.307C124.067 159.311 123.997 159.315 123.926 159.315Z" fill="#2E2E2E"/>
<path d="M240.275 254.78C240.236 254.78 240.189 254.78 240.141 254.769C239.424 254.648 238.717 254.541 238.029 254.438C235.324 254.029 232.993 253.676 231.492 252.697C229.887 251.655 229.361 250.474 229.667 248.614C230.04 246.417 232.553 244.96 235.401 245.31C241.221 246.005 250.596 247.886 250.691 247.904C251.15 247.996 251.446 248.438 251.351 248.894C251.265 249.347 250.825 249.638 250.367 249.554C250.271 249.535 240.953 247.665 235.2 246.976C233.289 246.753 231.54 247.606 231.33 248.89C231.12 250.095 231.358 250.61 232.4 251.291C233.604 252.067 235.774 252.395 238.277 252.778C238.975 252.881 239.692 252.991 240.418 253.113C240.877 253.19 241.183 253.625 241.106 254.081C241.039 254.49 240.686 254.78 240.275 254.78Z" fill="#2E2E2E"/>
<path d="M238.653 240.833C238.605 240.833 238.557 240.83 238.509 240.826C236.625 240.52 234.164 239.843 233.145 238.33C232.712 237.697 232.578 236.972 232.741 236.228C233.049 234.899 233.279 234.513 234.135 233.949C236.375 232.466 241.124 232.794 250.036 235.046C255.948 236.541 259.919 237.093 259.957 237.097C260.419 237.159 260.736 237.582 260.669 238.043C260.611 238.503 260.188 238.842 259.726 238.761C259.563 238.739 255.641 238.194 249.623 236.674C244.479 235.374 237.375 233.821 235.058 235.348C234.616 235.643 234.597 235.654 234.385 236.6C234.318 236.891 234.366 237.141 234.539 237.391C235.068 238.168 236.615 238.816 238.778 239.162C239.24 239.236 239.548 239.67 239.48 240.126C239.413 240.539 239.057 240.833 238.653 240.833Z" fill="#2E2E2E"/>
<path d="M265.161 264.848H265.151C251.878 264.653 239.348 261.837 235.596 260.368C233.348 259.492 231.979 257.262 232.48 255.296C232.673 254.552 233.647 252.196 238.171 252.786C244.441 253.617 249.988 254.611 250.046 254.619C250.499 254.703 250.808 255.138 250.721 255.594C250.634 256.05 250.2 256.352 249.747 256.275C249.689 256.264 244.181 255.277 237.95 254.453C235.827 254.169 234.39 254.641 234.11 255.715C233.86 256.713 234.631 258.193 236.204 258.804C239.859 260.232 252.119 262.978 265.17 263.17C265.633 263.177 266.01 263.556 266 264.02C265.99 264.48 265.624 264.848 265.161 264.848Z" fill="#2E2E2E"/>
<path d="M235.42 246.999C235.411 246.999 235.392 246.999 235.372 246.995C234.933 246.973 231.011 246.697 229.472 244.415C229.079 243.825 228.793 242.681 229.051 241.466C229.29 240.373 229.921 239.483 230.877 238.897C232.771 237.727 246.208 240.395 251.889 241.595C252.348 241.695 252.635 242.136 252.54 242.593C252.444 243.045 252.004 243.332 251.545 243.24C242.784 241.389 232.982 239.791 231.729 240.339C231.193 240.675 230.83 241.175 230.696 241.82C230.524 242.615 230.744 243.288 230.868 243.476C231.786 244.834 234.502 245.265 235.468 245.32C235.927 245.342 236.281 245.74 236.262 246.204C236.233 246.653 235.86 246.999 235.42 246.999Z" fill="#2E2E2E"/>
<path d="M259.461 50.4969H252.091C251.629 50.4969 251.253 50.1212 251.253 49.6578C251.253 49.1944 251.629 48.8187 252.091 48.8187H259.461C261.09 48.8187 262.419 47.493 262.419 45.8658V4.63226C262.419 3.00504 261.09 1.67938 259.461 1.67938H240.925C240.463 1.67938 240.087 1.30462 240.087 0.840244C240.087 0.376839 240.463 0.00110626 240.925 0.00110626H259.461C262.024 0.00110626 264.095 2.08112 264.095 4.63226V45.8658C264.095 48.4208 262.024 50.4969 259.461 50.4969Z" fill="#2E2E2E"/>
<path d="M186.285 90.4382H144.607C144.139 90.4382 143.764 90.0635 143.764 89.599C143.764 89.1317 144.139 88.7561 144.607 88.7561H186.285C186.752 88.7561 187.128 89.1317 187.128 89.599C187.128 90.0635 186.752 90.4382 186.285 90.4382Z" fill="#2E2E2E"/>
<path d="M262.739 278.375C262.739 278.375 266.096 277.117 266.096 274.912C266.096 272.707 266.202 270.189 256.96 270.399C247.728 270.609 189.661 270.362 189.661 270.362L172.017 200.887C172.017 200.887 172.856 196.793 167.473 196.793C162.08 196.793 64.152 196.653 64.152 196.653C64.152 196.653 61.2676 197.957 61.3352 200.059C61.4123 202.157 80.3207 276.804 80.3207 276.804C80.3207 276.804 81.295 277.923 82.771 278.133C84.2374 278.342 262.739 278.375 262.739 278.375Z" fill="#556DEE"/>
<path d="M66.968 203.979C66.9499 203.28 67.0496 202.418 67.4578 201.91C68.3376 200.85 69.9067 200.574 71.2854 200.574C83.5209 200.592 165.542 200.71 172 200.714C172.091 199.93 172.145 196.794 167.429 196.794C162.041 196.794 64.1109 196.654 64.1109 196.654C64.1109 196.654 61.2266 197.956 61.2992 200.059C61.3718 202.157 80.2829 276.804 80.2829 276.804C80.2829 276.804 81.2534 277.923 82.7319 278.133C82.8044 278.144 84.31 278.155 85.3077 278.162C81.988 265.05 67.0315 205.846 66.968 203.979Z" fill="white"/>
<path d="M186.675 279.112H83.3588C81.7524 279.112 79.6869 278.39 79.0351 274.941L60.5658 200.482C60.3088 199.297 60.5107 198.266 61.135 197.471C61.6582 196.812 62.723 196.013 64.8527 195.954H168.196C171.437 195.954 172.245 199.05 172.511 200.07L189.879 270.093C189.989 270.542 189.713 270.999 189.264 271.109C188.814 271.216 188.355 270.944 188.245 270.495L170.877 200.482C170.225 197.971 169.16 197.632 168.196 197.632H64.8802C63.7236 197.666 62.8791 197.968 62.4568 198.509C62.1447 198.907 62.0621 199.444 62.1998 200.106L80.6783 274.58C81.1648 277.113 82.3674 277.433 83.3588 277.433H186.675C187.143 277.433 187.519 277.809 187.519 278.272C187.519 278.736 187.143 279.112 186.675 279.112Z" fill="#2E2E2E"/>
<path d="M262.282 279.112H194.495C194.032 279.112 193.655 278.736 193.655 278.273C193.655 277.809 194.032 277.433 194.495 277.433H262.282C263.971 277.433 265.332 276.064 265.332 274.385C265.332 272.596 263.845 271.338 261.712 271.327H189.167C188.694 271.327 188.327 270.951 188.327 270.487C188.327 270.023 188.694 269.648 189.167 269.648H261.722C264.791 269.663 267.011 271.658 267.011 274.385C267.011 276.991 264.888 279.112 262.282 279.112Z" fill="#2E2E2E"/>
<path d="M117.643 245.188C114.786 240.229 115.75 234.314 119.809 231.973C123.869 229.632 129.475 231.748 132.341 236.703C135.197 241.657 134.233 247.573 130.174 249.918C126.115 252.259 120.508 250.143 117.643 245.188Z" fill="white"/>
<path d="M118.37 244.764C120.997 249.311 126.099 251.295 129.751 249.189C131.493 248.184 132.652 246.395 133.023 244.153C133.394 241.849 132.899 239.353 131.608 237.123C128.982 232.577 123.879 230.593 120.227 232.698C116.584 234.807 115.744 240.218 118.37 244.764ZM126.559 251.703C122.942 251.703 119.14 249.454 116.92 245.607C113.825 240.259 114.939 233.813 119.387 231.244C123.844 228.675 129.972 230.935 133.067 236.283C134.544 238.846 135.119 241.739 134.677 244.426C134.226 247.176 132.775 249.384 130.591 250.643C129.344 251.365 127.965 251.703 126.559 251.703Z" fill="#2E2E2E"/>
<path d="M330.51 39.8296L341.814 26.8351C341.916 26.7108 341.825 26.5267 341.663 26.5409L301.954 31.5138C301.803 31.529 301.742 31.7271 301.863 31.8303L332.856 58.6686C332.997 58.7788 333.189 58.6575 333.149 58.4917L330.479 39.9843C330.459 39.9327 330.479 39.8731 330.51 39.8296Z" fill="#5856D6"/>
<path d="M332.28 54.0001L302.438 31.395L333.155 58.491L332.28 54.0001Z" fill="white"/>
<path d="M302.397 31.1829L302.417 31.2011C302.407 31.1941 302.407 31.19 302.397 31.1829ZM302.083 32.3423L302.063 32.3454C302.073 32.3454 302.083 32.3454 302.083 32.3423ZM332.313 58.5724C332.323 58.6058 332.323 58.6433 332.333 58.6797L332.313 58.5724ZM332.97 59.5518C332.748 59.5518 332.515 59.4708 332.323 59.3161L301.315 32.4637C301.011 32.2138 300.88 31.79 301.001 31.3964C301.122 31.0019 301.466 30.7186 301.871 30.6781L312.018 29.4044C312.484 29.3315 312.898 29.6776 312.959 30.1338C313.02 30.5972 312.696 31.017 312.231 31.0727L303.53 32.1622L332.07 56.8758L329.591 39.7368L329.865 39.2957L340.042 27.5904L323.724 29.633C323.268 29.6957 322.843 29.368 322.783 28.9076C322.732 28.4443 323.056 28.0244 323.511 27.9688L341.56 25.7087C341.985 25.6763 342.379 25.8706 342.571 26.2388C342.774 26.6071 342.733 27.0492 342.46 27.3689L331.342 40.1536L333.982 58.3701C334.063 58.7272 333.881 59.1693 333.517 59.401C333.345 59.5002 333.163 59.5518 332.97 59.5518Z" fill="#2E2E2E"/>
<path d="M330.457 40.7382C330.377 40.7382 330.286 40.7271 330.206 40.702L313.849 35.7618C313.407 35.6252 313.156 35.158 313.286 34.7129C313.417 34.2709 313.889 34.0167 314.331 34.1533L330.698 39.0935C331.14 39.2291 331.391 39.6973 331.261 40.1424C331.15 40.5031 330.809 40.7382 330.457 40.7382Z" fill="#2E2E2E"/>
<path d="M463.768 22.1055C463.713 22.1055 463.647 22.0946 463.581 22.0726C463.394 21.9947 463.197 21.9178 462.988 21.8476C460.551 20.931 458.06 20.3163 455.59 20.0111C455.315 19.9738 455.129 19.7202 455.162 19.448C455.195 19.1713 455.458 18.9803 455.721 19.01C458.268 19.3261 460.826 19.9628 463.34 20.9013C463.548 20.9749 463.757 21.0528 463.954 21.1341C464.218 21.2329 464.339 21.5271 464.24 21.785C464.163 21.9837 463.976 22.1055 463.768 22.1055ZM439.278 22.5545C439.091 22.5545 438.904 22.4437 438.828 22.2603C438.707 22.0057 438.817 21.7082 439.069 21.594C441.693 20.3898 444.426 19.5621 447.214 19.1274C447.478 19.0901 447.741 19.2745 447.785 19.5511C447.829 19.8234 447.642 20.0802 447.368 20.1253C444.678 20.5446 442.022 21.347 439.486 22.5062C439.42 22.5392 439.354 22.5545 439.278 22.5545ZM477.369 31.6502C477.226 31.6502 477.072 31.5844 476.973 31.4625C475.316 29.4087 473.274 27.5382 470.903 25.9114C470.672 25.7533 470.617 25.4404 470.771 25.2121C470.936 24.9805 471.243 24.9212 471.474 25.0837C473.922 26.7654 476.04 28.6984 477.764 30.8291C477.939 31.0465 477.906 31.3626 477.687 31.5361C477.588 31.6129 477.478 31.6502 477.369 31.6502ZM426.237 32.8939C426.127 32.8939 426.006 32.8577 425.918 32.7798C425.699 32.6074 425.666 32.2869 425.842 32.0739C427.686 29.817 429.705 27.8038 431.857 26.0771C432.066 25.9037 432.384 25.9377 432.56 26.1539C432.735 26.3713 432.702 26.6885 432.483 26.8653C430.386 28.5437 428.421 30.5086 426.621 32.7106C426.522 32.8314 426.379 32.8939 426.237 32.8939ZM347.311 45.2696C347.267 45.2696 347.212 45.2663 347.168 45.2477C344.479 44.4156 341.767 43.7196 339.089 43.1829C338.814 43.128 338.639 42.8623 338.694 42.5868C338.749 42.3135 339.023 42.1334 339.286 42.1927C341.998 42.7405 344.742 43.4441 347.464 44.2872C347.728 44.3684 347.881 44.6516 347.794 44.9162C347.728 45.1335 347.53 45.2696 347.311 45.2696ZM482.429 47.2313C482.418 47.2313 482.407 47.2313 482.385 47.228C482.111 47.206 481.902 46.9634 481.924 46.6835C481.968 46.139 481.99 45.5902 481.99 45.0457C481.99 42.8623 481.639 40.6976 480.947 38.6076C480.859 38.3419 481.002 38.0587 481.265 37.9698C481.529 37.8787 481.814 38.0258 481.902 38.287C482.627 40.4803 483 42.7558 483 45.0457C483 45.6154 482.978 46.1895 482.934 46.768C482.912 47.0293 482.692 47.2313 482.429 47.2313ZM418.048 47.4706C417.993 47.4706 417.927 47.4596 417.872 47.442C417.609 47.3421 417.477 47.0512 417.576 46.79C418.586 44.0918 419.771 41.5044 421.099 39.0971C421.242 38.8535 421.55 38.7656 421.791 38.9017C422.033 39.0379 422.12 39.343 421.989 39.5867C420.671 41.9457 419.508 44.4892 418.52 47.1434C418.443 47.3454 418.256 47.4706 418.048 47.4706ZM362.821 51.6529C362.745 51.6529 362.668 51.6342 362.602 51.598C359.989 50.2796 357.508 49.1347 355.017 48.0963C354.753 47.9898 354.632 47.6956 354.742 47.4376C354.841 47.1808 355.137 47.0545 355.39 47.1654C357.915 48.2104 360.428 49.3663 363.052 50.6989C363.304 50.8241 363.403 51.126 363.272 51.3763C363.184 51.5497 363.008 51.6529 362.821 51.6529ZM377.388 60.0087C377.3 60.0087 377.213 59.9824 377.125 59.9308C374.402 58.2304 372.13 56.8539 369.957 55.5992C369.715 55.4587 369.627 55.1491 369.77 54.9065C369.913 54.6716 370.209 54.5827 370.462 54.7221C372.635 55.9889 374.929 57.3687 377.663 59.0734C377.893 59.2249 377.97 59.5334 377.827 59.7694C377.729 59.9242 377.564 60.0087 377.388 60.0087ZM475.612 62.2612C475.491 62.2612 475.371 62.2206 475.272 62.1394C475.063 61.9561 475.041 61.6388 475.228 61.4291C477.127 59.2282 478.664 56.9197 479.772 54.564C479.893 54.3105 480.19 54.2073 480.442 54.3214C480.695 54.4433 480.804 54.7408 480.684 54.9954C479.531 57.4313 477.95 59.821 475.985 62.0878C475.887 62.2019 475.744 62.2612 475.612 62.2612ZM414.25 63.7925C414.239 63.7925 414.217 63.7925 414.195 63.7892C413.92 63.7596 413.723 63.5093 413.756 63.2327C414.074 60.3841 414.546 57.5794 415.161 54.8988C415.227 54.6266 415.49 54.4499 415.764 54.5201C416.039 54.5827 416.204 54.8516 416.138 55.1239C415.534 57.7672 415.062 60.5312 414.755 63.3436C414.733 63.6016 414.513 63.7925 414.25 63.7925ZM391.593 68.9859C391.505 68.9859 391.417 68.9639 391.329 68.9123C388.969 67.4589 386.598 65.9529 384.216 64.4292C383.985 64.2788 383.92 63.9693 384.062 63.7333C384.216 63.4984 384.523 63.4281 384.754 63.5785C387.147 65.0988 389.507 66.6005 391.856 68.0517C392.098 68.1988 392.175 68.5084 392.021 68.7466C391.933 68.9013 391.768 68.9859 391.593 68.9859ZM462.516 72.6566C462.341 72.6566 462.165 72.5644 462.077 72.402C461.935 72.1627 462.022 71.8542 462.264 71.7137C464.778 70.2713 467.105 68.7213 469.191 67.1055C469.41 66.9287 469.717 66.9693 469.893 67.19C470.069 67.4106 470.025 67.7279 469.805 67.8969C467.698 69.5424 465.327 71.1209 462.769 72.5897C462.681 72.6347 462.604 72.6566 462.516 72.6566ZM406.346 77.0036C406.269 77.0036 406.203 76.9882 406.137 76.9597C403.744 75.8839 401.275 74.6435 398.596 73.1715C398.355 73.0354 398.267 72.7302 398.399 72.4876C398.53 72.2406 398.838 72.1517 399.079 72.2878C401.736 73.75 404.173 74.975 406.555 76.0387C406.807 76.1529 406.917 76.4515 406.807 76.705C406.719 76.8927 406.533 77.0036 406.346 77.0036ZM447.181 79.4482C446.973 79.4482 446.775 79.3154 446.709 79.1013C446.621 78.8368 446.764 78.5536 447.017 78.4647C447.543 78.2923 448.059 78.1112 448.586 77.9235C450.738 77.1507 452.834 76.3186 454.81 75.4503C455.074 75.3395 455.359 75.4536 455.469 75.7116C455.579 75.9652 455.469 76.2637 455.217 76.3746C453.219 77.2506 451.1 78.0893 448.927 78.873C448.4 79.0607 447.873 79.2452 447.346 79.4186C447.291 79.4362 447.236 79.4482 447.181 79.4482ZM422.351 81.8698C422.329 81.8698 422.296 81.8698 422.274 81.8665C419.749 81.4867 417.17 80.9093 414.59 80.1365C414.557 80.3604 414.37 80.5405 414.129 80.5591C413.865 80.5964 413.613 80.3791 413.591 80.0992C413.371 77.5009 413.262 74.8949 413.262 72.3581V71.6665C413.262 71.3866 413.492 71.1659 413.767 71.1659C414.052 71.1659 414.272 71.3932 414.272 71.6698L414.261 72.3581C414.261 74.5557 414.348 76.8049 414.524 79.0574C417.17 79.8752 419.826 80.4823 422.428 80.8687C422.702 80.9093 422.889 81.1662 422.845 81.4428C422.812 81.6931 422.592 81.8698 422.351 81.8698ZM430.715 82.411C430.441 82.411 430.21 82.1936 430.21 81.9181C430.199 81.6382 430.419 81.4099 430.704 81.4022C433.416 81.3506 436.193 81.0641 438.97 80.5525C439.234 80.4966 439.497 80.6843 439.552 80.9565C439.607 81.2331 439.42 81.4944 439.146 81.546C436.325 82.0652 433.493 82.3561 430.726 82.411C430.715 82.411 430.715 82.411 430.715 82.411ZM416.884 97.1094C416.654 97.1094 416.445 96.958 416.39 96.7296C415.71 93.9656 415.117 91.1861 414.656 88.4737C414.612 88.1971 414.799 87.9402 415.073 87.8919C415.347 87.8513 415.6 88.0313 415.655 88.3046C416.105 90.9951 416.687 93.7449 417.367 96.487C417.433 96.756 417.268 97.0282 417.005 97.0941C416.961 97.1051 416.917 97.1094 416.884 97.1094ZM422.054 113.077C421.857 113.077 421.67 112.959 421.593 112.761C420.54 110.122 419.574 107.457 418.717 104.832C418.641 104.571 418.783 104.283 419.047 104.199C419.31 104.114 419.596 104.258 419.683 104.522C420.529 107.125 421.484 109.768 422.526 112.389C422.625 112.647 422.504 112.941 422.241 113.044C422.186 113.066 422.12 113.077 422.054 113.077ZM429.168 128.287C428.981 128.287 428.816 128.195 428.729 128.022C427.378 125.529 426.105 122.997 424.941 120.494C424.821 120.244 424.93 119.942 425.183 119.825C425.435 119.703 425.732 119.814 425.853 120.067C427.016 122.556 428.278 125.069 429.607 127.547C429.738 127.79 429.651 128.096 429.409 128.228C429.332 128.268 429.244 128.287 429.168 128.287Z" fill="#2E2E2E"/>
<path d="M420.393 202.856C425.045 170.287 418.056 141.73 404.609 134.832C391.428 145.348 382.346 181.926 390.355 224.743L398.13 278.283H410.727L418.715 208.525L420.393 202.856Z" fill="white"/>
<path d="M389.364 225.582C388.971 225.582 388.621 225.303 388.536 224.898C380.353 181.157 390.033 144.409 404.117 134.154L404.669 133.752L405.178 134.206C419.125 146.622 423.774 162.358 421.768 190.326C421.736 190.79 421.333 191.154 420.876 191.102C420.409 191.069 420.059 190.668 420.091 190.204C422.033 163.178 417.671 147.873 404.573 135.921C391.2 146.419 382.231 182.073 390.192 224.589C390.277 225.045 389.979 225.484 389.523 225.567C389.47 225.579 389.417 225.582 389.364 225.582Z" fill="#2E2E2E"/>
<path d="M407.326 277.639C404.224 222.661 419.438 161.515 460.447 159.929C473.892 188.464 438.463 223.654 425.313 277.772L407.326 277.639Z" fill="white"/>
<path d="M425.324 278.961C425.259 278.961 425.182 278.95 425.117 278.935C424.67 278.828 424.387 278.372 424.507 277.923C429.878 255.815 438.908 236.927 446.882 220.268C458.288 196.448 467.308 177.582 459.922 161.14C449.453 161.688 440.215 166.278 432.481 174.785C411.566 197.794 406.206 243.156 408.167 277.937C408.199 278.401 407.84 278.799 407.382 278.825C406.903 278.85 406.522 278.493 406.489 278.033C404.507 242.913 409.975 197.047 431.239 173.654C439.42 164.651 449.246 159.865 460.423 159.432L460.978 159.413L461.218 159.918C469.356 177.199 460.107 196.525 448.396 220.992C440.455 237.579 431.468 256.381 426.141 278.317C426.043 278.703 425.694 278.961 425.324 278.961Z" fill="#2E2E2E"/>
<path d="M414.946 278.931C414.936 278.931 414.914 278.931 414.903 278.928C414.44 278.902 414.085 278.501 414.106 278.041C416.982 231.166 433.437 194.246 447.522 179.78C447.845 179.445 448.373 179.438 448.707 179.761C449.041 180.085 449.052 180.616 448.728 180.951C434.417 195.656 418.5 233.762 415.786 278.14C415.765 278.585 415.388 278.931 414.946 278.931Z" fill="#2E2E2E"/>
<path d="M400.725 277.938C402.119 247.172 397.183 208.337 364.608 201.535C360.856 221.261 377.196 242.412 387.278 277.927L400.725 277.938Z" fill="white"/>
<path d="M387.583 279.123C387.216 279.123 386.87 278.872 386.775 278.493C383.242 264.848 378.116 253.337 373.608 243.181C366.899 228.123 361.112 215.118 363.775 201.715L363.942 200.901L364.76 201.052C400.865 207.723 402.522 257.202 401.557 278.169C401.536 278.63 401.138 279.023 400.677 278.968C400.215 278.946 399.859 278.556 399.88 278.088C400.813 257.729 399.282 209.901 365.274 202.867C363.093 215.445 368.429 227.423 375.139 242.501C379.678 252.715 384.836 264.292 388.4 278.074C388.516 278.523 388.243 278.979 387.792 279.097C387.719 279.115 387.656 279.123 387.583 279.123Z" fill="#2E2E2E"/>
<path d="M395.122 279.101C394.693 279.101 394.328 278.769 394.286 278.328C391.811 248.489 381.169 225.127 372.334 216.045C372.01 215.714 372.021 215.18 372.355 214.857C372.679 214.533 373.211 214.54 373.535 214.874C382.579 224.162 393.451 247.937 395.957 278.191C395.999 278.652 395.654 279.06 395.195 279.097C395.174 279.101 395.153 279.101 395.122 279.101Z" fill="#2E2E2E"/>
<path d="M406.945 266.78C406.493 266.78 406.114 266.416 406.114 265.956C405.946 256.889 405.388 244.44 404.789 231.258C403.443 201.413 401.918 167.581 404.042 154.134C404.116 153.678 404.558 153.376 405.01 153.435C405.462 153.508 405.777 153.94 405.704 154.399C403.601 167.676 405.125 201.416 406.471 231.185C407.071 244.378 407.628 256.838 407.786 265.926C407.796 266.39 407.428 266.773 406.966 266.78C406.966 266.78 406.955 266.78 406.945 266.78Z" fill="#2E2E2E"/>
<path d="M350.352 148.375L348.47 162.027C348.355 162.848 349.259 163.418 349.952 162.966L369.368 148.113H395.016C401.712 148.113 407.136 142.687 407.136 135.995V121.54C407.136 114.844 401.712 109.418 395.016 109.418H344.781C344.781 109.418 335.341 113.747 334.679 116.803C333.049 124.274 331.431 140.291 336.382 145.492C338.852 148.072 350.352 148.375 350.352 148.375Z" fill="white"/>
<path d="M350.375 149.298H345.265C338.119 149.298 332.316 143.485 332.316 136.341V121.882C332.316 114.737 338.119 108.925 345.265 108.925H352.156C352.614 108.925 352.991 109.3 352.991 109.764C352.991 110.232 352.614 110.607 352.156 110.607H345.265C339.055 110.607 333.986 115.664 333.986 121.882V136.341C333.986 142.558 339.055 147.619 345.265 147.619H350.375C350.833 147.619 351.21 147.995 351.21 148.459C351.21 148.922 350.833 149.298 350.375 149.298Z" fill="#2E2E2E"/>
<path d="M349.403 164.309C349.077 164.309 348.751 164.213 348.456 164.029C347.857 163.647 347.541 162.969 347.636 162.258L349.518 148.605C349.581 148.146 349.991 147.826 350.465 147.888C350.927 147.95 351.243 148.378 351.18 148.833L349.297 162.486L349.949 163.311L349.445 162.641L369.08 147.619H395.025C401.241 147.619 406.299 142.558 406.299 136.34V121.882C406.299 115.664 401.241 110.606 395.025 110.606H364.242C363.769 110.606 363.39 110.231 363.39 109.764C363.39 109.3 363.769 108.925 364.242 108.925H395.025C402.166 108.925 407.982 114.736 407.982 121.882V136.34C407.982 143.485 402.166 149.298 395.025 149.298H369.648L350.465 163.978C350.128 164.199 349.76 164.309 349.403 164.309Z" fill="#2E2E2E"/>
<path d="M350.149 126.417C348.437 126.417 347.041 127.808 347.041 129.52C347.041 131.231 348.437 132.623 350.149 132.623C351.851 132.623 353.248 131.231 353.248 129.52C353.248 127.808 351.851 126.417 350.149 126.417ZM350.149 134.302C347.51 134.302 345.359 132.156 345.359 129.52C345.359 126.881 347.51 124.735 350.149 124.735C352.779 124.735 354.929 126.881 354.929 129.52C354.929 132.156 352.779 134.302 350.149 134.302Z" fill="#2E2E2E"/>
<path d="M369.986 126.417C368.274 126.417 366.882 127.808 366.882 129.519C366.882 131.231 368.274 132.623 369.986 132.623C371.698 132.623 373.09 131.231 373.09 129.519C373.09 127.808 371.698 126.417 369.986 126.417ZM369.986 134.302C367.356 134.302 365.211 132.155 365.211 129.519C365.211 126.88 367.356 124.735 369.986 124.735C372.626 124.735 374.771 126.88 374.771 129.519C374.771 132.155 372.626 134.302 369.986 134.302Z" fill="#2E2E2E"/>
<path d="M390.145 126.418C388.433 126.418 387.045 127.809 387.045 129.52C387.045 131.232 388.433 132.623 390.145 132.623C391.857 132.623 393.245 131.232 393.245 129.52C393.245 127.809 391.857 126.418 390.145 126.418ZM390.145 134.302C387.505 134.302 385.354 132.156 385.354 129.52C385.354 126.881 387.505 124.735 390.145 124.735C392.775 124.735 394.925 126.881 394.925 129.52C394.925 132.156 392.775 134.302 390.145 134.302Z" fill="#2E2E2E"/>
<path d="M457.556 279.112H28.9001C28.4345 279.112 28.0664 278.736 28.0664 278.272C28.0664 277.809 28.4345 277.433 28.9001 277.433H457.556C458.021 277.433 458.4 277.809 458.4 278.272C458.4 278.736 458.021 279.112 457.556 279.112Z" fill="#2E2E2E"/>
</svg>
