<?xml version="1.0" encoding="utf-8"?>
<!-- Generator: Adobe Illustrator 21.0.0, SVG Export Plug-In . SVG Version: 6.00 Build 0)  -->
<svg version="1.1" id="Слой_1" xmlns="http://www.w3.org/2000/svg" xmlns:xlink="http://www.w3.org/1999/xlink" x="0px" y="0px"
	 viewBox="0 0 292 296" style="enable-background:new 0 0 292 296;" xml:space="preserve">
<style type="text/css">
	.st0{fill:#EEF1FE;}
	.st1{fill:#3D50B6;}
	.st2{fill:#556DEE;}
	.st3{fill:#A3B1F6;}
	.st4{fill:#FFFFFF;}
</style>
<path class="st0" d="M146,296c80.6,0,146-65.4,146-146C292,69.4,226.6,4,146,4C65.4,4,0,69.4,0,150C0,230.6,65.4,296,146,296z"/>
<path class="st1" d="M145.5,100.9c9.7,0,17.5-7.8,17.5-17.5c0-9.7-7.8-17.5-17.5-17.5S128,73.8,128,83.5
	C128,93.1,135.8,100.9,145.5,100.9z M145.1,93.2c5.1,0,9.3-4.2,9.3-9.3c0-5.1-4.2-9.3-9.3-9.3c-5.1,0-9.3,4.2-9.3,9.3
	C135.8,89,140,93.2,145.1,93.2z"/>
<path class="st2" d="M145.1,223.7c11.2,0,20.2-9,20.2-20.2c0-11.2-9-20.2-20.2-20.2c-11.2,0-20.2,9-20.2,20.2
	C124.9,214.6,134,223.7,145.1,223.7z"/>
<path class="st3" d="M199.3,164.1v-26.2c0-14.3-5.7-28-15.8-38.2c-10.1-10.1-23.9-15.8-38.2-15.8c-14.3,0-28,5.7-38.2,15.8
	c-10.1,10.1-15.8,23.9-15.8,38.2v26.2c0,6-1.7,11.9-4.9,17c-3.2,5.1-7.8,9.2-13.2,11.8c-1.3,0.6-2.3,1.5-3,2.7
	c-0.7,1.2-1.1,2.5-1.1,3.9v0.1c0,0.5,0.1,1,0.3,1.5c0.2,0.5,0.5,0.9,0.8,1.2c0.4,0.4,0.8,0.6,1.2,0.8c0.5,0.2,1,0.3,1.5,0.3h145
	c0.5,0,1-0.1,1.5-0.3c0.5-0.2,0.9-0.5,1.2-0.8c0.4-0.4,0.6-0.8,0.8-1.2c0.2-0.5,0.3-1,0.3-1.5v-0.1c0-1.4-0.4-2.7-1.1-3.9
	c-0.7-1.2-1.8-2.1-3-2.7c-5.4-2.6-10-6.7-13.3-11.8C201,176,199.3,170.1,199.3,164.1z"/>
<path class="st1" d="M222,203.5H69v-4.7h153V203.5z"/>
<path class="st4" d="M188.6,133.6c12,0,21.7-9.7,21.7-21.7c0-12-9.7-21.7-21.7-21.7c-12,0-21.7,9.7-21.7,21.7
	C166.9,123.8,176.6,133.6,188.6,133.6z"/>
<path class="st2" d="M183.2,111.8c0-1.9,0.4-3.4,1.3-4.5c0.9-1.1,2.3-1.7,4.1-1.7c1.8,0,3.2,0.6,4.1,1.7c0.9,1.1,1.3,2.6,1.3,4.5
	c0,1.9-0.4,3.5-1.3,4.6c-0.9,1.1-2.3,1.7-4.1,1.7c-1.8,0-3.2-0.6-4.1-1.7C183.6,115.3,183.2,113.7,183.2,111.8z M190.1,111.8
	c0-0.9-0.1-1.6-0.3-2c-0.2-0.5-0.6-0.7-1.2-0.7c-0.6,0-1,0.2-1.2,0.7c-0.2,0.4-0.3,1.1-0.3,2c0,0.9,0.1,1.6,0.3,2
	c0.2,0.4,0.6,0.7,1.2,0.7c0.6,0,1-0.2,1.2-0.7C190,113.4,190.1,112.7,190.1,111.8z"/>
</svg>
