<svg width="487" height="429" viewBox="0 0 487 429" fill="none" xmlns="http://www.w3.org/2000/svg">
<path d="M432.76 128.282L255.567 38.7152C257.048 33.4869 257.101 27.9576 255.721 22.7019C254.342 17.4461 251.58 12.6556 247.723 8.82832C243.866 5.00099 239.054 2.27644 233.788 0.937775C228.522 -0.400886 222.993 -0.304801 217.776 1.21604C212.56 2.73688 207.845 5.62698 204.124 9.58602C200.402 13.5451 197.808 18.4286 196.612 23.7291C195.416 29.0296 195.661 34.5537 197.322 39.7274C198.983 44.9011 202 49.5355 206.058 53.1491L154.3 155.49C154.259 155.56 154.238 155.641 154.238 155.722C154.239 155.804 154.261 155.884 154.303 155.954C154.344 156.024 154.404 156.082 154.475 156.122C154.546 156.161 154.627 156.181 154.709 156.179C155.169 156.179 151.337 163.46 206.748 53.7878C211.27 57.5737 216.799 59.9596 222.656 60.6537C228.513 61.3479 234.446 60.3202 239.728 57.6964C298.486 171.788 294.45 164.303 294.91 164.303C295.369 164.303 293.837 164.482 442.621 140.519C443.688 143.286 444.162 146.246 444.013 149.208C443.863 152.17 443.093 155.067 441.753 157.712L424.1 192.737C424.042 192.852 424.033 192.985 424.073 193.107C424.114 193.23 424.202 193.331 424.317 193.388C424.432 193.446 424.565 193.455 424.688 193.415C424.81 193.374 424.911 193.286 424.968 193.171L442.647 158.146C443.964 155.538 444.754 152.694 444.97 149.779C445.186 146.864 444.824 143.936 443.906 141.161C442.987 138.386 441.53 135.82 439.617 133.61C437.704 131.4 435.374 129.59 432.76 128.282ZM295.216 163.307L240.648 57.2621C247.617 53.5053 252.863 47.1978 255.286 39.6604L432.402 129.074C436.824 131.286 440.324 134.986 442.289 139.523L295.216 163.307Z" fill="#556DEE"/>
<path d="M405.885 228.758L377.145 285.651C375.89 288.146 374.155 290.37 372.039 292.194C369.924 294.017 367.469 295.406 364.816 296.279C362.162 297.153 359.363 297.494 356.577 297.283C353.792 297.072 351.075 296.314 348.584 295.052L319.818 280.516C319.703 280.458 319.569 280.449 319.447 280.489C319.325 280.53 319.224 280.618 319.167 280.733C319.109 280.848 319.099 280.981 319.14 281.103C319.181 281.226 319.268 281.327 319.384 281.384L348.149 295.895C350.754 297.215 353.593 298.009 356.504 298.23C359.416 298.452 362.343 298.097 365.117 297.186C367.891 296.274 370.458 294.825 372.671 292.92C374.884 291.015 376.7 288.692 378.014 286.085L406.754 229.269C406.787 229.212 406.809 229.149 406.818 229.083C406.828 229.018 406.824 228.951 406.807 228.887C406.791 228.823 406.761 228.763 406.722 228.71C406.682 228.657 406.632 228.613 406.575 228.579C406.518 228.545 406.455 228.523 406.389 228.514C406.324 228.505 406.257 228.509 406.193 228.526C406.129 228.542 406.069 228.571 406.016 228.611C405.963 228.651 405.919 228.701 405.885 228.758Z" fill="#556DEE"/>
<path d="M387.519 187.244C388.617 204.795 389.281 213.174 380.927 228.4L313.969 229.039C327.662 250.421 323.626 307.135 318.363 343.054C305.134 346.816 291.099 346.674 277.948 342.645C279.072 327.93 278.97 305.858 278.638 288.997L290.798 259.542L234.595 283.862C164.112 314.34 145.182 260.385 145.182 260.385C155.179 254.155 164.794 247.33 173.973 239.947C178.164 242.397 183.082 243.301 187.87 242.502C208.103 238.312 246.449 218.462 256.438 207.809C260.428 203.627 263.863 198.947 266.657 193.886L287.375 185.073C294.351 182.101 301.936 180.839 309.499 181.394L387.519 187.244Z" fill="#EEF1FE"/>
<path d="M213.442 290.581C202.635 302.557 189.557 312.268 174.966 319.148C160.376 326.029 144.564 329.943 128.449 330.664C112.334 331.384 96.2356 328.896 81.0895 323.344C65.9435 317.792 52.0511 309.287 40.2187 298.323C28.3864 287.358 18.8498 274.153 12.1625 259.473C5.47523 244.793 1.77053 228.931 1.26343 212.807C0.756329 196.684 3.45694 180.62 9.20849 165.549C14.96 150.477 23.648 136.699 34.7679 125.012C29.2089 132.596 24.3033 140.638 20.1041 149.052C20.1041 149.256 19.9252 149.307 20.4106 149.767C21.2792 150.585 24.0383 152.654 32.1366 159.066C32.5821 159.42 33.1061 159.661 33.6645 159.77C34.2228 159.879 34.7992 159.853 35.3451 159.692C35.8909 159.532 36.3903 159.243 36.8011 158.85C37.212 158.456 37.5222 157.97 37.7058 157.431L56.4316 103.476C56.6771 102.781 56.7002 102.027 56.4978 101.318C56.2953 100.609 55.8773 99.9812 55.3017 99.5207C54.726 99.0602 54.0214 98.7903 53.2854 98.7483C52.5495 98.7064 51.8187 98.8945 51.1945 99.2866C33.9642 107.596 17.7605 117.884 2.91108 129.943C2.43364 130.249 2.03597 130.665 1.75089 131.155C1.46581 131.646 1.30152 132.197 1.27157 132.764C1.24162 133.33 1.34688 133.896 1.57865 134.414C1.81042 134.931 2.16206 135.387 2.60452 135.742C10.4985 141.975 12.8232 143.917 13.5385 144.428C14.2539 144.939 14.3049 144.632 14.6371 144.249C15.7356 143.048 17.9837 138.756 31.7023 126.954C9.90575 151.149 -1.38663 183.012 0.309371 215.533C2.00537 248.054 16.5508 278.569 40.7459 300.365C64.9409 322.162 96.8037 333.454 129.325 331.758C161.846 330.062 192.361 315.517 214.158 291.322C214.256 291.227 214.312 291.097 214.315 290.96C214.317 290.824 214.265 290.692 214.17 290.594C214.075 290.496 213.945 290.439 213.809 290.437C213.672 290.434 213.54 290.486 213.442 290.581ZM13.9217 143.406L3.21764 134.924C2.88199 134.663 2.6168 134.323 2.44611 133.933C2.27541 133.544 2.20462 133.118 2.24014 132.694C2.27566 132.271 2.41637 131.862 2.64952 131.507C2.88267 131.151 3.20088 130.86 3.5753 130.658C18.383 118.592 34.5537 108.303 51.7566 100.002C52.2072 99.6889 52.7467 99.5293 53.2951 99.5468C53.8435 99.5642 54.3717 99.7578 54.8016 100.099C55.2314 100.44 55.5401 100.91 55.6818 101.44C55.8235 101.97 55.7909 102.532 55.5886 103.042L36.7861 157.125C36.6572 157.521 36.433 157.88 36.1333 158.17C35.8335 158.46 35.4673 158.673 35.0666 158.789C34.6659 158.905 34.2429 158.921 33.8346 158.835C33.4263 158.75 33.045 158.566 32.7242 158.3L21.1259 149.128C26.4435 139.123 32.5336 129.548 39.3408 120.49C39.6729 119.877 39.0853 119.494 38.7021 119.826C29.8374 127.235 20.6916 134.746 13.9217 143.406Z" fill="#556DEE"/>
<path d="M362.84 24.2557C362.789 24.1482 362.78 24.0259 362.813 23.9119C362.847 23.7979 362.921 23.7001 363.022 23.6371C363.122 23.5741 363.243 23.5503 363.36 23.5701C363.477 23.59 363.583 23.6521 363.657 23.7448C368.971 32.8139 382.46 33.0438 386.777 24.3324C388.097 21.2561 388.157 17.7845 386.944 14.6647C385.73 11.5448 383.34 9.02604 380.288 7.65032C370.913 3.0008 360.566 9.64297 362.048 19.2741C362.071 19.3993 362.043 19.5284 361.971 19.6335C361.9 19.7386 361.79 19.8114 361.665 19.8361C361.538 19.8458 361.412 19.81 361.309 19.7351C361.206 19.6602 361.133 19.5511 361.103 19.4274C359.493 8.95321 370.683 1.8001 380.697 6.78173C383.976 8.24743 386.545 10.9473 387.846 14.2953C389.147 17.6432 389.075 21.3692 387.646 24.6645C382.945 34.1934 368.511 33.938 362.84 24.2557Z" fill="#556DEE"/>
<path d="M363.248 24.4856L357.015 24.0257C356.921 24.017 356.832 23.9812 356.758 23.9226C356.684 23.8641 356.629 23.7853 356.599 23.6959C356.569 23.6065 356.566 23.5104 356.59 23.4193C356.614 23.3281 356.664 23.2459 356.734 23.1827L361.23 18.993C361.274 18.9387 361.33 18.8947 361.393 18.864C361.456 18.8333 361.525 18.8166 361.595 18.8151C361.665 18.8135 361.735 18.8272 361.799 18.8552C361.864 18.8832 361.921 18.9247 361.968 18.9771C362.014 19.0294 362.049 19.0912 362.07 19.1582C362.09 19.2253 362.096 19.296 362.087 19.3655C362.077 19.435 362.053 19.5016 362.015 19.5608C361.978 19.62 361.928 19.6703 361.869 19.7083L358.164 23.1571L363.274 23.5148C363.402 23.5182 363.525 23.5726 363.613 23.666C363.702 23.7594 363.75 23.8842 363.746 24.013C363.743 24.1417 363.689 24.2638 363.595 24.3524C363.502 24.4411 363.377 24.489 363.248 24.4856Z" fill="#556DEE"/>
<path d="M443.771 304.862C444.646 303.333 445.202 301.644 445.406 299.895C445.61 298.146 445.459 296.373 444.96 294.685C444.462 292.996 443.627 291.425 442.506 290.067C441.384 288.71 440 287.593 438.436 286.784C436.872 285.975 435.16 285.491 433.404 285.361C431.648 285.231 429.884 285.458 428.218 286.027C426.551 286.597 425.018 287.497 423.709 288.675C422.399 289.853 421.342 291.283 420.6 292.88C418.046 297.658 411.327 308.566 405.962 308.208C405.868 308.202 405.773 308.223 405.691 308.27C405.608 308.316 405.541 308.386 405.497 308.47C405.454 308.554 405.436 308.649 405.446 308.744C405.456 308.838 405.493 308.927 405.553 309C405.809 309.256 405.553 309 416.794 314.851C416.087 316.442 416.016 318.243 416.595 319.885C417.174 321.527 418.358 322.886 419.906 323.683C421.454 324.48 423.249 324.655 424.921 324.171C426.594 323.688 428.019 322.584 428.903 321.084C436.925 325.223 439.122 326.474 439.99 326.781C440.859 327.087 440.91 326.474 440.578 326.066C436.491 321.033 443.414 305.603 443.771 304.862ZM420.37 322.745C419.064 322.069 418.058 320.928 417.552 319.547C417.046 318.165 417.076 316.645 417.637 315.285L428.035 320.65C427.243 321.886 426.016 322.78 424.596 323.154C423.177 323.528 421.668 323.354 420.37 322.668V322.745ZM438.969 325.299L407.597 309.103C414.265 307.416 421.137 294.107 421.443 293.519C422.928 290.688 425.475 288.561 428.525 287.603C431.575 286.645 434.88 286.935 437.717 288.41C440.525 289.924 442.631 292.475 443.586 295.52C444.54 298.565 444.268 301.862 442.826 304.708C442.622 305.041 436.388 318.683 438.969 325.12V325.299Z" fill="#556DEE"/>
<path d="M486.538 121.972L471.389 117.578L475.783 102.403C475.814 102.339 475.831 102.269 475.832 102.198C475.834 102.127 475.819 102.056 475.79 101.991C475.76 101.926 475.717 101.868 475.663 101.822C475.609 101.776 475.546 101.742 475.477 101.723C475.408 101.704 475.336 101.7 475.266 101.712C475.196 101.724 475.129 101.751 475.071 101.791C475.012 101.832 474.963 101.885 474.927 101.947C474.892 102.008 474.87 102.077 474.864 102.148L470.469 117.297L455.32 112.903C455.257 112.874 455.189 112.859 455.12 112.858C455.05 112.858 454.982 112.872 454.918 112.9C454.855 112.929 454.798 112.97 454.752 113.022C454.707 113.074 454.672 113.135 454.652 113.202C454.632 113.268 454.626 113.338 454.635 113.407C454.644 113.475 454.668 113.541 454.704 113.6C454.741 113.659 454.79 113.709 454.848 113.748C454.905 113.786 454.971 113.812 455.039 113.823L470.214 118.191L465.794 133.392C465.763 133.456 465.746 133.526 465.745 133.597C465.744 133.668 465.759 133.739 465.788 133.804C465.817 133.869 465.86 133.926 465.914 133.973C465.968 134.019 466.032 134.053 466.101 134.072C466.169 134.091 466.241 134.095 466.312 134.083C466.382 134.071 466.449 134.044 466.507 134.004C466.566 133.963 466.615 133.91 466.65 133.848C466.686 133.787 466.708 133.718 466.714 133.647L471.134 118.319C486.104 122.662 486.206 122.79 486.462 122.79C486.535 122.753 486.597 122.698 486.644 122.63C486.69 122.562 486.718 122.484 486.726 122.402C486.733 122.32 486.72 122.238 486.687 122.163C486.655 122.088 486.603 122.022 486.538 121.972Z" fill="#556DEE"/>
<path d="M471.208 193.043C469.675 187.27 420.114 191.638 388.334 190.489C388.334 189.365 388.104 188.241 387.977 187.117C387.965 187.005 387.916 186.901 387.837 186.822C387.758 186.743 387.654 186.693 387.542 186.682C311.515 181.598 307.581 180.73 307.249 180.73C301.136 180.308 295.009 181.332 289.366 183.719L267.856 192.89C274.702 179.325 273.22 165.3 272.199 149.103C271.688 141.439 270.896 140.57 270.129 140.468C269.998 140.452 269.865 140.466 269.741 140.511C269.617 140.555 269.505 140.628 269.414 140.724L271.713 130.505C271.929 129.611 271.781 128.667 271.302 127.882C270.823 127.096 270.052 126.533 269.158 126.315C268.261 126.106 267.318 126.256 266.53 126.733C265.742 127.211 265.173 127.978 264.943 128.87L255.772 169.183C255.108 166.398 254.495 163.077 253.805 160.957C253.294 159.449 251.991 156.077 250.33 156.077C247.776 156.077 247.623 163.23 247.52 165.887C247.188 175.314 246.907 187.832 238.656 192.635C231.82 196.528 224.698 199.893 217.35 202.7C209.778 205.658 201.85 207.608 193.77 208.499C189.759 208.704 184.062 204.182 178.442 196.364C179.234 195.343 180.026 194.27 180.792 193.197C181.559 192.124 178.851 192.762 157.8 159.015C153.176 151.53 145.614 144.709 136.979 144.223C136.894 140.942 137.168 137.661 137.797 134.439C150.57 142.282 159.128 120.95 159.128 105.622C159.991 105.49 160.845 105.303 161.683 105.06C161.778 105.025 161.86 104.962 161.919 104.881C161.978 104.799 162.011 104.701 162.015 104.6C162.028 100.962 160.69 97.4477 158.26 94.7393C156.842 93.3852 155.166 92.3319 153.33 91.6426C151.495 90.9534 149.54 90.6424 147.581 90.7284C146.355 88.7102 137.363 75.4004 118.611 84.5717C99.1701 94.1006 101.699 129.636 102.057 133.622C99.681 134.822 83.7143 143.202 74.9773 156.435C67.0833 168.34 65.8571 182.595 71.7584 193.503C78.4005 205.868 93.141 212.689 113.297 212.765C117.393 232.168 128.695 249.296 144.924 260.691C150.174 273.311 160.003 283.478 172.438 289.15C192.339 297.862 215.101 292.88 234.9 284.322L277.512 265.852C278.253 286.289 279.02 322.336 277.512 342.62C277.503 342.73 277.535 342.84 277.6 342.929C277.666 343.019 277.762 343.081 277.87 343.105L280.425 343.769C280.067 355.93 275.75 370.006 277.87 376.265C279.861 380.797 282.541 384.993 285.815 388.706C296.877 401.48 311.157 429.99 317.11 428.253C323.062 426.516 315.603 368.294 316.931 343.948L318.643 343.463C318.728 343.429 318.804 343.374 318.862 343.302C318.92 343.23 318.959 343.145 318.975 343.054C325.106 301.311 327.201 249.834 314.989 229.448C385.499 228.783 381.283 228.886 381.411 228.604C381.539 228.323 382.254 227.072 382.637 226.331C399.243 227.429 411.403 232.283 417.917 230.316C422.537 228.498 426.847 225.973 430.691 222.831C444.001 212.025 472.792 199.098 471.208 193.043ZM265.735 129.176C265.8 128.84 265.932 128.521 266.122 128.237C266.313 127.953 266.559 127.71 266.845 127.522C267.132 127.335 267.453 127.207 267.79 127.147C268.127 127.086 268.472 127.093 268.806 127.169C269.14 127.244 269.455 127.385 269.733 127.585C270.011 127.784 270.246 128.038 270.424 128.33C270.603 128.622 270.72 128.947 270.771 129.286C270.821 129.624 270.803 129.969 270.717 130.3C261.597 170.511 261.597 171.022 260.396 174.343C260.089 175.237 259.195 176.106 258.403 175.799C257.611 175.493 256.896 174.088 256.206 171.61C256.104 171.277 255.389 174.522 265.735 129.253V129.176ZM193.336 209.623C198.598 209.623 210.554 206.455 217.554 203.747C224.945 200.883 232.109 197.467 238.988 193.529C247.648 188.419 247.98 175.799 248.338 165.964C248.644 157.712 249.896 157.125 250.126 157.099C250.893 156.971 252.068 159.322 252.681 161.314C254.469 166.654 255.235 178.89 259.757 176.438C260.465 176.003 260.999 175.335 261.265 174.547C263.436 168.237 266.91 149.537 268.648 144.121C268.893 143.32 269.21 142.542 269.593 141.796C269.848 141.311 269.874 141.183 270.104 141.796C270.738 144.181 271.072 146.636 271.1 149.103C272.658 173.168 274.268 188.036 256.155 207.375C246.575 217.594 208.945 237.546 187.843 241.914C183.191 242.752 178.393 241.939 174.278 239.615C167.457 235.885 159.614 228.886 150.953 218.82C161.343 213.693 170.449 206.298 177.599 197.182C183.372 205.178 189.044 209.623 193.336 209.623ZM132.917 107.206C132.953 107.123 132.96 107.029 132.937 106.942C132.914 106.854 132.862 106.776 132.79 106.721C127.476 101.611 133.505 95.659 136.341 100.462C136.826 101.305 137.976 103.016 138.895 103.016C142.277 104.181 145.757 105.036 149.293 105.571C152.17 106.217 155.145 106.304 158.055 105.827V107.564C157.672 117.399 152.946 132.37 145.282 134.848C141.067 136.202 136.341 133.749 131.615 127.363C131.333 126.979 130.567 127.107 130.848 128.001C131.129 128.895 132.432 131.987 135.957 140.775C135.894 141.94 135.894 143.109 135.957 144.275C132.56 144.275 128.115 146.344 122.162 142.026C132.994 110.961 129.673 117.272 132.917 107.206ZM111.79 195.113C110.871 175.978 115.469 161.289 121.805 143.074C128.166 147.519 132.739 145.245 136.136 145.296C144.746 145.475 152.231 152.143 156.906 159.679C163.882 171.216 171.472 182.371 179.642 193.094C171.521 204.711 160.358 213.868 147.377 219.561C139.841 210.696 134.45 202.726 134.22 202.393C134.15 202.301 134.049 202.236 133.935 202.211C133.821 202.187 133.703 202.204 133.6 202.26C133.498 202.315 133.419 202.406 133.378 202.515C133.338 202.624 133.337 202.744 133.377 202.853C133.939 204.08 146.994 232.334 168.938 243.728C159.077 251.392 147.147 258.826 145.308 259.976C123.644 244.954 113.042 220.608 111.79 195.113ZM318.004 423.169C317.595 426.771 316.88 427.256 316.675 427.333C311.796 428.789 296.902 400.202 286.377 388.068C283.221 384.445 280.637 380.361 278.713 375.958C278.073 373.333 277.96 370.606 278.381 367.937C280.594 372.085 283.249 375.983 286.3 379.561C296.826 391.772 310.391 417.242 318.004 423.169ZM316.394 371.896C303.304 366.925 291.196 359.677 280.629 350.488C280.884 348.112 281.063 345.966 281.14 343.999C292.461 346.892 304.317 346.98 315.679 344.255C315.398 351.893 315.884 362.93 316.394 371.896ZM317.927 342.671C304.998 346.271 291.314 346.138 278.457 342.288C278.79 337.817 278.994 332.657 279.147 327.215C292.609 329.389 306.311 329.638 319.843 327.956C319.247 332.963 318.609 337.868 317.927 342.671ZM319.945 326.985C306.355 328.692 292.59 328.443 279.071 326.244C279.352 313.854 279.224 300.059 279.071 289.099C287.68 268.253 290.26 262.147 290.975 260.257C291.384 259.158 290.975 258.929 290.567 259.133L234.364 283.428C210.094 293.928 189.35 295.563 172.668 288.282C160.598 282.783 151.021 272.969 145.819 260.768C145.829 260.7 145.829 260.631 145.819 260.564C155.563 254.507 164.946 247.888 173.92 240.739C178.166 243.063 183.082 243.857 187.843 242.987C201.792 240.101 225.192 229.499 241.491 219.561C242.283 219.561 295.65 201.678 313.406 229.294C324.595 246.487 324.34 288.537 319.945 326.985ZM314.223 228.553C298.895 204.923 256.232 214.554 244.531 217.747C249.003 215.022 253.159 211.809 256.922 208.167C260.905 203.998 264.339 199.336 267.14 194.295L289.698 184.664C295.27 182.314 301.319 181.316 307.351 181.752L368.535 186.299C370.599 200.582 368.283 215.154 361.893 228.094L314.223 228.553ZM380.645 227.915L362.941 228.094C369.239 215.153 371.517 200.623 369.481 186.376L387.057 187.704C388.871 204.412 388.462 213.557 380.645 227.915ZM388.309 191.536C394.772 191.74 406.702 191.715 414.775 191.536C409.31 204.397 401.632 216.199 392.09 226.407C389.739 226.05 385.422 225.616 382.944 225.437C389.331 213.43 389.458 203.109 388.411 191.536H388.309ZM429.822 222.192C426.101 225.249 421.93 227.713 417.458 229.499C414.81 230.029 412.084 230.029 409.436 229.499C413.225 227.693 416.813 225.492 420.14 222.933C428.164 216.812 436.597 211.247 445.38 206.277C450.49 203.237 462.446 196.058 466.175 191.715C469.752 192.277 470.212 192.992 470.263 193.197C471.566 198.204 442.34 212.127 429.924 222.141L429.822 222.192Z" fill="#556DEE"/>
<path d="M233.497 335.39C230.153 331.797 225.747 329.368 220.923 328.459C216.099 327.549 211.111 328.208 206.688 330.338C202.266 332.468 198.641 335.957 196.345 340.295C194.048 344.634 193.2 349.593 193.925 354.448C192.65 354.866 191.485 355.565 190.516 356.493C189.547 357.421 188.799 358.555 188.326 359.811C187.854 361.066 187.669 362.412 187.786 363.749C187.903 365.086 188.318 366.379 189.001 367.534C189.684 368.689 190.618 369.675 191.733 370.421C192.848 371.167 194.117 371.654 195.445 371.844C196.773 372.035 198.127 371.925 199.407 371.523C200.687 371.121 201.86 370.437 202.841 369.521C207.431 373.109 213.212 374.821 219.016 374.31C224.819 373.8 230.213 371.105 234.106 366.77C237.999 362.436 240.102 356.785 239.989 350.96C239.875 345.135 237.555 339.57 233.497 335.39ZM231.734 367.221C227.974 370.728 223.106 372.808 217.974 373.102C212.842 373.396 207.768 371.885 203.633 368.831C204.889 367.411 205.663 365.629 205.843 363.741C206.023 361.854 205.6 359.957 204.635 358.325C203.67 356.693 202.212 355.409 200.472 354.657C198.731 353.905 196.796 353.725 194.947 354.141C194.411 350.385 194.854 346.553 196.232 343.018C197.611 339.482 199.879 336.363 202.817 333.961C205.754 331.559 209.262 329.955 213.001 329.306C216.74 328.657 220.583 328.984 224.159 330.255C227.734 331.527 230.921 333.699 233.411 336.563C235.9 339.427 237.609 342.885 238.371 346.602C239.132 350.32 238.922 354.171 237.759 357.783C236.597 361.395 234.521 364.646 231.734 367.221Z" fill="#556DEE"/>
</svg>
