<svg width="360" height="317" viewBox="0 0 360 317" fill="none" xmlns="http://www.w3.org/2000/svg">
<g opacity="0.6">
<path d="M320.074 94.9096L188.978 28.6434C190.073 24.7753 190.113 20.6844 189.092 16.796C188.071 12.9075 186.028 9.36328 183.174 6.53163C180.321 3.69998 176.761 1.68422 172.864 0.693813C168.968 -0.296595 164.878 -0.225507 161.018 0.899686C157.159 2.02488 153.671 4.16312 150.917 7.09221C148.164 10.0213 146.245 13.6344 145.36 17.556C144.475 21.4776 144.657 25.5646 145.886 29.3923C147.114 33.22 149.346 36.6488 152.348 39.3224L114.055 115.039C114.025 115.091 114.009 115.151 114.01 115.211C114.01 115.271 114.027 115.331 114.057 115.383C114.088 115.435 114.132 115.477 114.185 115.507C114.238 115.536 114.297 115.551 114.358 115.549C114.698 115.549 111.863 120.936 152.859 39.7949C156.205 42.5959 160.295 44.3611 164.629 44.8747C168.962 45.3882 173.351 44.6279 177.26 42.6867C220.731 127.098 217.745 121.56 218.085 121.56C218.426 121.56 217.292 121.692 327.37 103.963C328.159 106.01 328.51 108.2 328.399 110.391C328.288 112.583 327.719 114.726 326.727 116.683L313.667 142.596C313.624 142.682 313.617 142.78 313.647 142.871C313.677 142.961 313.742 143.036 313.827 143.078C313.913 143.121 314.011 143.128 314.102 143.098C314.192 143.068 314.267 143.003 314.309 142.918L327.389 117.005C328.363 115.074 328.948 112.971 329.107 110.814C329.267 108.658 329 106.491 328.32 104.438C327.641 102.385 326.562 100.487 325.147 98.8515C323.732 97.2164 322.008 95.8768 320.074 94.9096ZM218.312 120.823L177.94 42.3654C183.096 39.5859 186.977 34.9193 188.77 29.3427L319.809 95.4955C323.081 97.1322 325.671 99.8693 327.124 103.226L218.312 120.823Z" fill="#9EA7B4"/>
<path d="M300.189 169.246L278.925 211.338C277.997 213.185 276.713 214.83 275.148 216.179C273.583 217.529 271.767 218.556 269.804 219.202C267.841 219.848 265.769 220.101 263.708 219.945C261.648 219.789 259.638 219.228 257.794 218.294L236.512 207.539C236.427 207.497 236.328 207.49 236.238 207.52C236.147 207.55 236.073 207.615 236.03 207.7C235.988 207.785 235.98 207.884 236.011 207.974C236.041 208.065 236.106 208.139 236.191 208.182L257.473 218.918C259.4 219.895 261.5 220.482 263.655 220.646C265.809 220.81 267.974 220.547 270.026 219.873C272.079 219.198 273.978 218.126 275.615 216.717C277.253 215.307 278.596 213.589 279.568 211.66L300.831 169.624C300.856 169.582 300.873 169.536 300.879 169.487C300.886 169.439 300.883 169.389 300.871 169.342C300.859 169.294 300.837 169.25 300.808 169.211C300.778 169.172 300.741 169.139 300.699 169.114C300.657 169.089 300.61 169.073 300.562 169.066C300.513 169.059 300.464 169.062 300.417 169.075C300.369 169.087 300.325 169.108 300.286 169.138C300.247 169.167 300.214 169.204 300.189 169.246Z" fill="#9EA7B4"/>
<path d="M286.6 138.533C287.412 151.517 287.904 157.717 281.723 168.982L232.184 169.454C242.315 185.274 239.329 227.234 235.435 253.809C225.647 256.592 215.264 256.487 205.534 253.506C206.366 242.619 206.29 226.289 206.044 213.815L215.041 192.022L173.459 210.015C121.312 232.564 107.307 192.646 107.307 192.646C114.704 188.037 121.817 182.987 128.608 177.525C131.709 179.337 135.347 180.006 138.89 179.415C153.859 176.315 182.229 161.629 189.62 153.748C192.572 150.653 195.113 147.191 197.18 143.447L212.508 136.926C217.67 134.727 223.282 133.794 228.877 134.204L286.6 138.533Z" fill="#EEF1FE"/>
<path d="M157.81 214.986C149.814 223.847 140.138 231.031 129.343 236.122C118.549 241.213 106.85 244.109 94.9274 244.641C83.0044 245.174 71.0944 243.334 59.8886 239.226C48.6828 235.119 38.4045 228.826 29.6503 220.714C20.8962 212.602 13.8405 202.832 8.89293 191.971C3.94537 181.11 1.20444 169.374 0.829261 157.445C0.454084 145.516 2.45213 133.632 6.70741 122.481C10.9627 111.331 17.3905 101.136 25.6176 92.4903C21.5047 98.1013 17.8753 104.051 14.7685 110.276C14.7685 110.427 14.6362 110.465 14.9953 110.805C15.6379 111.41 17.6792 112.941 23.6708 117.685C24.0004 117.947 24.3881 118.125 24.8012 118.206C25.2143 118.287 25.6407 118.267 26.0446 118.148C26.4484 118.03 26.8179 117.816 27.1218 117.525C27.4258 117.234 27.6553 116.874 27.7912 116.475L41.6454 76.5569C41.8271 76.0427 41.8442 75.4847 41.6944 74.9603C41.5446 74.4359 41.2353 73.9711 40.8094 73.6304C40.3836 73.2897 39.8622 73.09 39.3177 73.0589C38.7732 73.0279 38.2326 73.1671 37.7708 73.4572C25.0229 79.6046 13.0346 87.2162 2.04827 96.1381C1.69504 96.3649 1.40082 96.6724 1.18991 97.0353C0.978996 97.3982 0.857441 97.8061 0.835283 98.2252C0.813125 98.6444 0.890999 99.0628 1.06248 99.4459C1.23395 99.8291 1.49411 100.166 1.82146 100.429C7.66181 105.04 9.38178 106.477 9.911 106.855C10.4402 107.233 10.478 107.006 10.7237 106.723C11.5365 105.834 13.1997 102.659 23.3495 93.9267C7.22328 111.827 -1.13138 135.401 0.123402 159.462C1.37819 183.522 12.1396 206.099 30.0403 222.225C47.9411 238.351 71.5147 246.706 95.5754 245.451C119.636 244.197 142.213 233.435 158.339 215.534C158.412 215.464 158.453 215.368 158.455 215.267C158.457 215.166 158.419 215.068 158.348 214.996C158.278 214.923 158.182 214.881 158.081 214.879C157.98 214.878 157.882 214.916 157.81 214.986ZM10.1945 106.099L2.27508 99.8238C2.02676 99.6307 1.83055 99.3786 1.70426 99.0905C1.57798 98.8024 1.5256 98.4873 1.55188 98.1738C1.57816 97.8604 1.68226 97.5584 1.85476 97.2953C2.02725 97.0323 2.26268 96.8164 2.5397 96.6674C13.4952 87.7405 25.4591 80.1282 38.1866 73.9864C38.52 73.7548 38.9191 73.6368 39.3249 73.6497C39.7306 73.6626 40.1214 73.8058 40.4394 74.0581C40.7575 74.3104 40.9858 74.6584 41.0907 75.0506C41.1955 75.4427 41.1714 75.8582 41.0217 76.2356L27.1107 116.249C27.0153 116.542 26.8495 116.808 26.6277 117.022C26.4059 117.237 26.135 117.394 25.8385 117.48C25.5421 117.566 25.2291 117.577 24.927 117.514C24.6249 117.451 24.3429 117.315 24.1055 117.118L15.5245 110.333C19.4588 102.93 23.9645 95.8462 29.0008 89.1448C29.2465 88.6912 28.8118 88.4077 28.5283 88.6534C21.9697 94.1346 15.2032 99.6915 10.1945 106.099Z" fill="#9EA7B4"/>
<path d="M268.34 17.9455C268.302 17.866 268.295 17.7755 268.32 17.6911C268.345 17.6067 268.4 17.5344 268.474 17.4878C268.549 17.4412 268.638 17.4236 268.725 17.4383C268.811 17.4529 268.889 17.4989 268.945 17.5675C272.876 24.2773 282.856 24.4474 286.05 18.0022C287.026 15.7262 287.071 13.1578 286.173 10.8496C285.275 8.54133 283.507 6.67781 281.249 5.65999C274.312 2.22004 266.658 7.13425 267.754 14.2598C267.77 14.3525 267.75 14.448 267.697 14.5257C267.644 14.6035 267.563 14.6573 267.47 14.6757C267.376 14.6828 267.283 14.6563 267.207 14.6009C267.131 14.5455 267.077 14.4648 267.054 14.3733C265.864 6.62393 274.142 1.33171 281.551 5.01736C283.977 6.10176 285.878 8.09923 286.841 10.5762C287.803 13.0533 287.75 15.8099 286.692 18.2479C283.215 25.2979 272.536 25.1089 268.34 17.9455Z" fill="#9EA7B4"/>
<path d="M268.645 18.1157L264.033 17.7755C263.964 17.769 263.898 17.7425 263.843 17.6992C263.788 17.6559 263.748 17.5976 263.725 17.5315C263.703 17.4653 263.701 17.3942 263.719 17.3268C263.736 17.2594 263.773 17.1986 263.825 17.1518L267.152 14.052C267.184 14.0119 267.226 13.9793 267.272 13.9566C267.319 13.9338 267.37 13.9215 267.422 13.9204C267.474 13.9193 267.525 13.9294 267.573 13.9501C267.62 13.9708 267.663 14.0015 267.697 14.0402C267.732 14.0789 267.758 14.1247 267.773 14.1743C267.788 14.2239 267.792 14.2762 267.785 14.3276C267.778 14.379 267.76 14.4283 267.733 14.4721C267.705 14.5159 267.668 14.5531 267.624 14.5812L264.883 17.1329L268.664 17.3975C268.759 17.4 268.849 17.4402 268.915 17.5093C268.98 17.5785 269.016 17.6708 269.013 17.766C269.011 17.8613 268.971 17.9516 268.901 18.0172C268.832 18.0828 268.74 18.1182 268.645 18.1157Z" fill="#9EA7B4"/>
<path d="M328.22 225.552C328.867 224.421 329.279 223.171 329.43 221.877C329.581 220.583 329.469 219.272 329.1 218.022C328.731 216.773 328.113 215.611 327.284 214.606C326.454 213.602 325.43 212.775 324.273 212.177C323.116 211.579 321.849 211.221 320.55 211.124C319.251 211.028 317.946 211.196 316.713 211.617C315.48 212.038 314.345 212.705 313.377 213.576C312.408 214.448 311.626 215.506 311.077 216.687C309.187 220.222 304.216 228.292 300.247 228.028C300.177 228.023 300.107 228.039 300.046 228.073C299.985 228.108 299.935 228.159 299.903 228.221C299.871 228.284 299.858 228.354 299.865 228.424C299.873 228.494 299.9 228.56 299.945 228.614C300.134 228.803 299.945 228.614 308.261 232.942C307.738 234.119 307.686 235.452 308.114 236.667C308.542 237.882 309.418 238.887 310.564 239.477C311.709 240.066 313.036 240.196 314.274 239.838C315.512 239.481 316.566 238.663 317.22 237.554C323.155 240.616 324.78 241.542 325.423 241.769C326.066 241.996 326.103 241.542 325.858 241.239C322.834 237.516 327.956 226.1 328.22 225.552ZM310.907 238.782C309.94 238.283 309.196 237.438 308.822 236.416C308.447 235.395 308.47 234.269 308.885 233.263L316.577 237.233C315.992 238.148 315.084 238.809 314.034 239.086C312.983 239.362 311.867 239.234 310.907 238.726V238.782ZM324.667 240.672L301.457 228.689C306.39 227.442 311.474 217.595 311.701 217.16C312.8 215.065 314.683 213.491 316.94 212.783C319.197 212.074 321.642 212.289 323.741 213.38C325.819 214.5 327.377 216.388 328.083 218.64C328.789 220.893 328.587 223.332 327.521 225.438C327.37 225.684 322.758 235.777 324.667 240.54V240.672Z" fill="#9EA7B4"/>
<path d="M359.861 90.241L348.653 86.9901L351.903 75.763C351.927 75.7157 351.939 75.6638 351.94 75.6111C351.941 75.5584 351.93 75.5062 351.908 75.4581C351.887 75.41 351.855 75.3673 351.815 75.333C351.775 75.2987 351.728 75.2735 351.677 75.2594C351.626 75.2453 351.573 75.2426 351.521 75.2514C351.469 75.2602 351.42 75.2803 351.376 75.3103C351.333 75.3403 351.297 75.3795 351.27 75.4251C351.244 75.4707 351.228 75.5215 351.223 75.574L347.972 86.7822L336.764 83.5313C336.717 83.5097 336.667 83.4984 336.615 83.498C336.564 83.4977 336.513 83.5083 336.467 83.5293C336.42 83.5502 336.378 83.5809 336.344 83.6194C336.31 83.6578 336.285 83.7031 336.27 83.7522C336.255 83.8013 336.25 83.853 336.257 83.9038C336.264 83.9547 336.281 84.0036 336.308 84.0471C336.335 84.0906 336.372 84.1279 336.414 84.1563C336.457 84.1846 336.505 84.2036 336.556 84.2117L347.783 87.4437L344.513 98.6897C344.49 98.7371 344.478 98.7889 344.477 98.8416C344.476 98.8943 344.487 98.9466 344.508 98.9946C344.53 99.0427 344.562 99.0854 344.602 99.1198C344.642 99.1541 344.689 99.1792 344.74 99.1933C344.791 99.2074 344.844 99.2102 344.896 99.2014C344.948 99.1926 344.997 99.1725 345.041 99.1424C345.084 99.1124 345.12 99.0732 345.146 99.0276C345.173 98.9821 345.189 98.9312 345.194 98.8787L348.464 87.5382C359.539 90.7514 359.615 90.8459 359.804 90.8459C359.858 90.8184 359.904 90.7778 359.938 90.7276C359.973 90.6775 359.993 90.6195 359.999 90.5591C360.005 90.4987 359.995 90.4379 359.971 90.3822C359.947 90.3266 359.909 90.2781 359.861 90.241Z" fill="#9EA7B4"/>
<path d="M348.519 142.823C347.385 138.552 310.717 141.784 287.204 140.933C287.204 140.101 287.034 139.27 286.94 138.438C286.932 138.356 286.895 138.279 286.836 138.22C286.778 138.162 286.701 138.125 286.619 138.117C230.37 134.356 227.459 133.713 227.213 133.713C222.691 133.401 218.158 134.158 213.983 135.924L198.068 142.71C203.134 132.673 202.037 122.297 201.281 110.314C200.903 104.644 200.317 104.001 199.75 103.925C199.654 103.913 199.555 103.924 199.463 103.957C199.371 103.99 199.289 104.044 199.221 104.114L200.922 96.554C201.082 95.8923 200.972 95.1945 200.618 94.6134C200.264 94.0323 199.693 93.6155 199.032 93.4543C198.369 93.2994 197.671 93.4105 197.088 93.7637C196.505 94.117 196.083 94.6843 195.914 95.3443L189.128 125.17C188.637 123.11 188.183 120.653 187.673 119.084C187.295 117.969 186.331 115.474 185.102 115.474C183.212 115.474 183.099 120.766 183.023 122.732C182.778 129.706 182.57 138.967 176.465 142.521C171.408 145.401 166.138 147.891 160.701 149.968C155.099 152.156 149.234 153.599 143.256 154.258C140.289 154.409 136.074 151.064 131.916 145.28C132.501 144.524 133.087 143.73 133.654 142.937C134.221 142.143 132.218 142.615 116.644 117.647C113.223 112.109 107.628 107.063 101.24 106.704C101.176 104.276 101.379 101.848 101.844 99.4647C111.295 105.267 117.627 89.4851 117.627 78.1446C118.265 78.047 118.896 77.9081 119.517 77.7288C119.587 77.7027 119.647 77.6565 119.691 77.5959C119.735 77.5354 119.76 77.4632 119.762 77.3886C119.772 74.6965 118.782 72.0967 116.984 70.0929C115.935 69.0911 114.695 68.3118 113.337 67.8018C111.979 67.2919 110.532 67.0618 109.083 67.1255C108.176 65.6323 101.523 55.785 87.6499 62.5704C73.2664 69.6204 75.1376 95.9114 75.4022 98.8599C73.6444 99.7482 61.8314 105.948 55.3673 115.738C49.527 124.546 48.6197 135.093 52.9858 143.163C57.9 152.311 68.8058 157.358 83.7185 157.415C86.7485 171.77 95.1107 184.441 107.118 192.872C111.002 202.209 118.274 209.731 127.474 213.928C142.198 220.373 159.038 216.687 173.686 210.356L205.213 196.69C205.761 211.811 206.328 238.48 205.213 253.487C205.206 253.569 205.229 253.65 205.278 253.716C205.327 253.782 205.397 253.828 205.477 253.846L207.368 254.338C207.103 263.335 203.909 273.749 205.477 278.38C206.951 281.732 208.934 284.837 211.356 287.584C219.54 297.035 230.105 318.128 234.509 316.843C238.913 315.557 233.394 272.483 234.377 254.47L235.643 254.111C235.707 254.086 235.763 254.045 235.806 253.992C235.849 253.939 235.877 253.876 235.889 253.809C240.425 222.925 241.975 184.84 232.94 169.757C285.106 169.265 281.988 169.341 282.082 169.133C282.177 168.925 282.706 167.999 282.99 167.451C295.275 168.264 304.272 171.855 309.092 170.399C312.51 169.054 315.698 167.186 318.542 164.861C328.389 156.866 349.69 147.303 348.519 142.823ZM196.5 95.5711C196.548 95.3226 196.645 95.0861 196.786 94.8759C196.927 94.6657 197.109 94.486 197.321 94.3475C197.533 94.2089 197.77 94.1143 198.02 94.0694C198.269 94.0244 198.524 94.0299 198.771 94.0857C199.018 94.1414 199.252 94.2462 199.457 94.3938C199.663 94.5414 199.837 94.7288 199.969 94.9449C200.101 95.161 200.188 95.4015 200.225 95.6519C200.262 95.9023 200.249 96.1577 200.185 96.4028C193.438 126.153 193.438 126.531 192.549 128.988C192.322 129.649 191.661 130.292 191.075 130.065C190.489 129.838 189.96 128.799 189.45 126.965C189.374 126.72 188.845 129.12 196.5 95.6278V95.5711ZM142.935 155.09C146.828 155.09 155.674 152.746 160.853 150.743C166.321 148.623 171.621 146.096 176.71 143.182C183.118 139.402 183.363 130.065 183.628 122.788C183.855 116.683 184.781 116.249 184.951 116.23C185.518 116.135 186.388 117.874 186.841 119.348C188.164 123.299 188.731 132.352 192.077 130.538C192.601 130.216 192.995 129.721 193.192 129.139C194.798 124.47 197.369 110.635 198.654 106.628C198.836 106.035 199.07 105.46 199.354 104.908C199.543 104.549 199.561 104.455 199.732 104.908C200.201 106.672 200.448 108.488 200.469 110.314C201.622 128.118 202.812 139.119 189.412 153.426C182.324 160.987 154.483 175.748 138.871 178.98C135.43 179.6 131.88 178.998 128.835 177.279C123.788 174.52 117.986 169.341 111.578 161.894C119.265 158.101 126.002 152.63 131.292 145.885C135.563 151.801 139.759 155.09 142.935 155.09ZM98.2343 79.3165C98.2607 79.2546 98.2658 79.1857 98.2487 79.1207C98.2316 79.0557 98.1933 78.9982 98.1398 78.9574C94.2085 75.1772 98.669 70.7733 100.767 74.3267C101.126 74.9504 101.977 76.2167 102.657 76.2167C105.159 77.0783 107.734 77.7109 110.35 78.1068C112.479 78.585 114.68 78.6492 116.833 78.2958V79.5811C116.549 86.8579 113.053 97.9337 107.382 99.7671C104.264 100.769 100.767 98.9544 97.2704 94.2292C97.0625 93.9457 96.4955 94.0402 96.7034 94.7017C96.9113 95.3632 97.8752 97.6502 100.484 104.152C100.436 105.015 100.436 105.879 100.484 106.742C97.9697 106.742 94.681 108.272 90.2771 105.078C98.291 82.0949 95.8339 86.7634 98.2343 79.3165ZM82.6034 144.354C81.9229 130.197 85.3251 119.329 90.0125 105.853C94.7188 109.142 98.102 107.46 100.616 107.498C106.985 107.63 112.523 112.563 115.982 118.139C121.143 126.674 126.759 134.927 132.804 142.861C126.795 151.456 118.536 158.23 108.932 162.442C103.356 155.884 99.3684 149.987 99.1983 149.741C99.1464 149.672 99.0715 149.624 98.9874 149.606C98.9032 149.588 98.8153 149.601 98.7396 149.642C98.664 149.683 98.6058 149.75 98.5755 149.831C98.5451 149.911 98.5448 150 98.5745 150.081C98.9904 150.988 108.649 171.893 124.884 180.322C117.589 185.993 108.762 191.493 107.401 192.343C91.3733 181.23 83.5295 163.217 82.6034 144.354ZM235.171 313.081C234.868 315.746 234.339 316.106 234.188 316.162C230.578 317.24 219.559 296.09 211.771 287.112C209.437 284.431 207.525 281.41 206.101 278.153C205.628 276.21 205.544 274.193 205.855 272.218C207.493 275.287 209.457 278.171 211.715 280.818C219.502 289.852 229.538 308.696 235.171 313.081ZM233.98 275.148C224.295 271.469 215.336 266.107 207.519 259.309C207.708 257.551 207.84 255.963 207.897 254.508C216.273 256.648 225.044 256.713 233.451 254.697C233.243 260.348 233.602 268.513 233.98 275.148ZM235.114 253.525C225.548 256.189 215.424 256.09 205.912 253.242C206.158 249.934 206.309 246.116 206.422 242.09C216.382 243.698 226.52 243.883 236.531 242.638C236.09 246.343 235.618 249.972 235.114 253.525ZM236.607 241.92C226.552 243.183 216.368 242.998 206.366 241.372C206.574 232.205 206.479 221.999 206.366 213.89C212.735 198.467 214.644 193.95 215.174 192.551C215.476 191.738 215.174 191.568 214.871 191.719L173.289 209.694C155.334 217.462 139.986 218.672 127.644 213.285C118.714 209.217 111.628 201.956 107.779 192.929C107.787 192.879 107.787 192.828 107.779 192.778C114.989 188.297 121.931 183.4 128.57 178.111C131.711 179.83 135.348 180.418 138.871 179.774C149.191 177.638 166.504 169.795 178.563 162.442C179.149 162.442 218.632 149.212 231.768 169.643C240.047 182.364 239.858 213.474 236.607 241.92ZM232.373 169.095C221.033 151.612 189.468 158.738 180.812 161.1C184.121 159.084 187.195 156.707 189.979 154.012C192.926 150.928 195.467 147.479 197.539 143.749L214.228 136.624C218.351 134.885 222.826 134.147 227.289 134.469L272.556 137.833C274.083 148.4 272.369 159.182 267.642 168.755L232.373 169.095ZM281.515 168.623L268.417 168.755C273.077 159.181 274.762 148.431 273.256 137.89L286.259 138.873C287.601 151.234 287.299 158 281.515 168.623ZM287.186 141.708C291.967 141.859 300.794 141.84 306.767 141.708C302.723 151.223 297.042 159.955 289.983 167.508C288.244 167.243 285.05 166.922 283.216 166.789C287.942 157.906 288.036 150.27 287.261 141.708H287.186ZM317.899 164.389C315.146 166.65 312.06 168.474 308.751 169.795C306.792 170.187 304.775 170.187 302.816 169.795C305.62 168.459 308.274 166.83 310.736 164.937C316.673 160.409 322.912 156.291 329.41 152.614C333.19 150.365 342.036 145.053 344.795 141.84C347.441 142.256 347.781 142.785 347.819 142.937C348.783 146.641 327.161 156.942 317.975 164.351L317.899 164.389Z" fill="#9EA7B4"/>
<path d="M172.647 248.138C170.173 245.48 166.913 243.683 163.344 243.01C159.775 242.338 156.085 242.825 152.813 244.401C149.541 245.976 146.859 248.558 145.16 251.768C143.461 254.977 142.833 258.647 143.37 262.238C142.426 262.548 141.565 263.065 140.848 263.751C140.131 264.438 139.577 265.277 139.228 266.206C138.878 267.135 138.742 268.131 138.828 269.12C138.914 270.109 139.222 271.066 139.727 271.92C140.232 272.774 140.923 273.504 141.748 274.056C142.573 274.608 143.512 274.968 144.494 275.109C145.477 275.25 146.478 275.169 147.426 274.871C148.373 274.574 149.241 274.068 149.966 273.39C153.362 276.045 157.639 277.311 161.933 276.933C166.227 276.556 170.217 274.562 173.098 271.355C175.978 268.148 177.534 263.968 177.45 259.658C177.366 255.348 175.65 251.231 172.647 248.138ZM171.343 271.689C168.561 274.283 164.96 275.822 161.163 276.04C157.365 276.257 153.612 275.139 150.552 272.88C151.482 271.829 152.054 270.51 152.187 269.114C152.321 267.717 152.008 266.315 151.294 265.107C150.58 263.899 149.501 262.949 148.213 262.393C146.925 261.837 145.494 261.703 144.126 262.012C143.729 259.232 144.057 256.398 145.077 253.782C146.097 251.166 147.775 248.858 149.948 247.081C152.122 245.304 154.717 244.118 157.483 243.637C160.25 243.157 163.093 243.399 165.738 244.339C168.383 245.28 170.741 246.887 172.583 249.006C174.425 251.125 175.689 253.683 176.253 256.434C176.817 259.184 176.661 262.033 175.801 264.706C174.94 267.378 173.405 269.784 171.343 271.689Z" fill="#9EA7B4"/>
</g>
</svg>
