<svg width="355" height="360" viewBox="0 0 355 360" fill="none" xmlns="http://www.w3.org/2000/svg">
<g opacity="0.6">
<path d="M176.637 289.263C160.135 289.308 143.788 286.071 128.548 279.742C113.308 273.412 99.4786 264.116 87.8637 252.394C87.7895 252.319 87.7479 252.218 87.748 252.113C87.7482 252.008 87.7902 251.907 87.8648 251.833C87.9393 251.758 88.0403 251.717 88.1455 251.717C88.2507 251.717 88.3515 251.759 88.4258 251.834C104.943 268.411 125.796 279.999 148.595 285.27C171.395 290.542 195.218 289.283 217.335 281.639C239.452 273.995 258.968 260.274 273.646 242.049C288.325 223.824 297.572 201.832 300.327 178.594C300.34 178.49 300.393 178.395 300.475 178.33C300.558 178.264 300.663 178.235 300.767 178.247C300.872 178.259 300.967 178.313 301.032 178.395C301.097 178.478 301.127 178.583 301.115 178.687C297.518 209.168 282.854 237.268 259.908 257.651C236.961 278.035 207.329 289.284 176.637 289.263Z" fill="#9EA7B4"/>
<path d="M296.457 129.871C294.216 121.989 291.199 114.349 287.451 107.062C287.408 106.97 287.402 106.864 287.435 106.767C287.469 106.671 287.538 106.591 287.629 106.544C287.719 106.497 287.825 106.487 287.923 106.516C288.021 106.546 288.104 106.611 288.154 106.7C291.927 114.03 294.964 121.716 297.219 129.646C297.249 129.747 297.237 129.856 297.187 129.949C297.136 130.041 297.051 130.11 296.95 130.14C296.849 130.17 296.74 130.158 296.648 130.108C296.555 130.057 296.486 129.972 296.457 129.871Z" fill="#9EA7B4"/>
<path d="M101.006 191.204C101.002 187.453 99.5103 183.857 96.8582 181.205C94.2061 178.553 90.6101 177.062 86.8595 177.058H55.4868V158.145H87.5163C89.1198 158.144 90.6571 157.506 91.791 156.372C92.9249 155.238 93.5626 153.701 93.5643 152.097V130.574C93.562 128.971 92.924 127.434 91.7903 126.301C90.6564 125.168 89.1194 124.53 87.5163 124.529H13.4854C11.8841 124.533 10.3497 125.172 9.21821 126.305C8.08668 127.438 7.45014 128.973 7.44792 130.574V152.097C7.44959 153.701 8.08733 155.238 9.22119 156.372C10.3551 157.506 11.8924 158.144 13.4959 158.145H45.5127V177.058H14.1464C10.3959 177.062 6.80032 178.554 4.14831 181.206C1.49631 183.858 0.00445692 187.454 0 191.204V238.424C0.00445692 242.175 1.49631 245.77 4.14831 248.422C6.80032 251.074 10.3959 252.566 14.1464 252.57H86.8595C90.61 252.566 94.2056 251.074 96.8576 248.422C99.5096 245.77 101.001 242.175 101.006 238.424V191.204ZM55.4868 223.827V215.497C56.72 217.002 58.3653 218.115 60.2212 218.699C60.3212 218.731 60.4299 218.723 60.5234 218.675C60.617 218.627 60.6878 218.544 60.7202 218.444C60.7525 218.344 60.7439 218.236 60.6961 218.142C60.6483 218.049 60.5654 217.978 60.4654 217.945C56.152 216.552 53.0617 212.281 53.7754 205.382C53.7868 205.278 53.7563 205.173 53.6906 205.091C53.6248 205.009 53.5293 204.957 53.4249 204.945C53.3204 204.934 53.2158 204.964 53.1339 205.03C53.0519 205.096 52.9995 205.191 52.988 205.296C52.146 213.226 48.0073 213.598 47.8852 211.089C47.7042 207.285 47.5126 204.664 47.6031 202.951C47.7779 199.698 48.9694 199.618 53.1333 199.347C58.7455 198.978 59.0803 198.957 60.8296 201.677C61.4612 202.669 61.2506 207.22 64.2968 207.251C75.416 207.371 96.2946 206.9 100.214 206.597V229.623C97.3303 229.549 63.5663 229.189 55.4868 229.025V225.941C55.732 225.257 55.732 224.51 55.4868 223.827ZM46.3043 251.777V229.147C46.9063 229.079 50.4766 228.639 51.8576 228.492C52.9248 228.415 53.9303 227.962 54.6953 227.214V251.777H46.3043ZM51.7776 227.705C47.4663 228.166 45.2517 228.583 43.1066 228.562C39.9826 228.538 39.8394 223.417 43.7234 223.12C46.78 222.888 48.8894 222.699 51.9776 222.596C55.971 222.463 55.8005 227.273 51.7734 227.705H51.7776ZM46.8327 202.664C46.7728 204.523 46.8129 206.383 46.9527 208.237C45.2624 208.346 43.5668 208.341 41.8772 208.222C38.8374 207.931 38.8774 202.65 42.7656 202.629L46.8327 202.664ZM42.393 209.386C43.9676 209.352 45.4264 209.23 47.0053 209.175C47.0369 209.786 47.0705 210.439 47.1021 211.127C47.2263 213.685 50.7208 214.575 52.6428 210.173C53.0227 210.552 53.2792 211.036 53.3787 211.563C53.4783 212.089 53.4161 212.634 53.2004 213.125C52.9848 213.615 52.6257 214.029 52.1704 214.312C51.715 214.595 51.1848 214.734 50.6492 214.71C46.2495 214.941 43.7929 215.259 41.5109 215.118C38.2185 214.916 38.2353 209.476 42.393 209.386ZM54.0406 213.135C54.2351 213.564 54.4566 213.98 54.7037 214.381V217.583C54.5594 216.977 54.2389 216.427 53.7826 216.003C53.3263 215.578 52.7547 215.298 52.1397 215.198C52.5945 215.026 53.0026 214.75 53.3312 214.392C53.6599 214.033 53.9 213.603 54.0322 213.135H54.0406ZM42.4814 216.171C45.6391 216.021 47.8136 215.889 51.024 215.876C55.1816 215.859 54.889 220.859 50.7019 221.185C46.3632 221.524 43.9655 221.895 41.7214 221.817C38.4585 221.701 38.4395 216.362 42.4729 216.171H42.4814ZM54.7037 218.979V222.659C54.2927 222.33 53.8205 222.087 53.3146 221.942C52.8087 221.798 52.2791 221.755 51.7565 221.817C52.4636 221.668 53.1143 221.323 53.6341 220.821C54.1539 220.319 54.5217 219.68 54.6953 218.979H54.7037ZM86.8679 177.849C90.4086 177.853 93.8032 179.261 96.3069 181.765C98.8106 184.269 100.219 187.663 100.223 191.204V205.803C96.5914 206.104 75.5107 206.58 64.3136 206.46C62.0169 206.437 62.2843 202.46 61.5054 201.248C59.8339 198.654 59.0487 198.256 55.4952 198.414V177.849H86.8679ZM13.4938 157.429V157.352C12.098 157.352 10.7594 156.797 9.77247 155.81C8.7855 154.823 8.23103 153.485 8.23103 152.089V130.574C8.23103 129.179 8.7855 127.84 9.77247 126.853C10.7594 125.866 12.098 125.312 13.4938 125.312H87.5163C88.912 125.312 90.2506 125.866 91.2376 126.853C92.2246 127.84 92.7791 129.179 92.7791 130.574V152.097C92.7791 153.493 92.2246 154.832 91.2376 155.819C90.2506 156.806 88.912 157.36 87.5163 157.36H55.0974C55.0454 157.36 54.9939 157.37 54.9459 157.39C54.8979 157.41 54.8543 157.439 54.8175 157.476C54.7808 157.513 54.7516 157.556 54.7317 157.604C54.7118 157.652 54.7016 157.704 54.7016 157.756V198.46C54.1901 198.49 53.6301 198.528 53.0175 198.568C48.8073 198.844 47.3337 199.243 46.9274 201.881L46.3211 201.871V157.749C46.3206 157.644 46.2784 157.544 46.2038 157.469C46.1293 157.395 46.0284 157.354 45.9232 157.354C14.359 157.354 14.2306 157.326 13.4854 157.432L13.4938 157.429ZM0.795735 238.422V191.204C0.799078 187.663 2.20689 184.269 4.71024 181.765C7.21359 179.261 10.608 177.853 14.1485 177.849H45.5149V201.848C45.0307 201.848 42.7782 201.826 42.7782 201.826C41.9356 201.795 41.1075 202.052 40.4315 202.556C39.7555 203.06 39.2724 203.78 39.0623 204.596C38.8523 205.413 38.928 206.277 39.277 207.044C39.6259 207.812 40.227 208.437 40.9804 208.815C40.248 209.039 39.6036 209.486 39.1364 210.093C38.6692 210.7 38.4026 211.437 38.3734 212.202C38.3443 212.967 38.554 213.723 38.9737 214.363C39.3933 215.004 40.002 215.498 40.7152 215.777C37.4775 217.293 37.9932 222.463 41.6941 222.596C41.9046 222.596 42.1319 222.608 42.353 222.608C38.9595 223.909 39.3595 228.989 42.774 229.326C42.9255 229.374 45.1928 229.488 45.5296 229.505V251.768H14.1633C10.6205 251.771 7.22178 250.366 4.71373 247.864C2.20568 245.362 0.793451 241.967 0.787315 238.424L0.795735 238.422ZM86.8679 251.775H55.4868V229.816C63.5684 229.98 97.3472 230.342 100.214 230.416V238.416C100.212 241.957 98.8046 245.354 96.3007 247.859C93.7969 250.364 90.4013 251.773 86.8595 251.777L86.8679 251.775Z" fill="#9EA7B4"/>
<path d="M25.7377 139.673L22.0327 139.136L20.3739 135.768C20.3358 135.708 20.2834 135.659 20.2214 135.625C20.1594 135.591 20.0898 135.574 20.0192 135.574C19.9485 135.574 19.879 135.591 19.817 135.625C19.755 135.659 19.7025 135.708 19.6645 135.768L18.0077 139.136L14.3006 139.673C14.2281 139.685 14.1603 139.716 14.1049 139.765C14.0495 139.813 14.0085 139.876 13.9867 139.946C13.9648 140.016 13.9629 140.091 13.9812 140.162C13.9994 140.233 14.0372 140.298 14.0901 140.349L16.7636 142.969L16.1321 146.66C16.1187 146.733 16.1261 146.808 16.1536 146.877C16.1811 146.946 16.2275 147.006 16.2874 147.05C16.3474 147.094 16.4186 147.12 16.4927 147.126C16.5669 147.131 16.6411 147.116 16.7068 147.081L20.0223 145.34L23.3358 147.081C23.4015 147.116 23.4757 147.131 23.5498 147.126C23.624 147.12 23.6951 147.094 23.7551 147.05C23.8151 147.006 23.8615 146.946 23.889 146.877C23.9164 146.808 23.9239 146.733 23.9105 146.66L23.279 142.969L25.9609 140.355C26.016 140.303 26.0552 140.237 26.0739 140.164C26.0927 140.091 26.0902 140.014 26.0668 139.943C26.0433 139.871 25.9999 139.808 25.9416 139.76C25.8833 139.712 25.8126 139.682 25.7377 139.673Z" fill="#9EA7B4"/>
<path d="M40.978 139.673L37.2709 139.136L35.6141 135.768C35.576 135.708 35.5236 135.659 35.4616 135.625C35.3996 135.591 35.3301 135.574 35.2594 135.574C35.1887 135.574 35.1192 135.591 35.0572 135.625C34.9952 135.659 34.9428 135.708 34.9047 135.768L33.248 139.136L29.5408 139.673C29.4683 139.685 29.4006 139.716 29.3451 139.765C29.2897 139.813 29.2487 139.876 29.2269 139.946C29.205 140.016 29.2031 140.091 29.2214 140.162C29.2397 140.233 29.2774 140.298 29.3303 140.349L32.0038 142.969L31.3723 146.66C31.3625 146.717 31.3652 146.775 31.3804 146.831C31.3955 146.887 31.4227 146.938 31.4601 146.983C31.4974 147.027 31.5439 147.062 31.5964 147.086C31.6489 147.111 31.706 147.123 31.7639 147.123C32.9804 146.631 34.1512 146.033 35.2626 145.336L38.576 147.077C38.6417 147.111 38.7159 147.127 38.7901 147.122C38.8642 147.116 38.9354 147.09 38.9953 147.046C39.0553 147.002 39.1017 146.942 39.1292 146.873C39.1567 146.804 39.1641 146.729 39.1507 146.656L38.5192 142.965L41.2011 140.351C41.2549 140.299 41.293 140.233 41.311 140.161C41.329 140.088 41.3262 140.012 41.3028 139.942C41.2795 139.871 41.2366 139.808 41.1792 139.76C41.1217 139.713 41.0519 139.682 40.978 139.673Z" fill="#9EA7B4"/>
<path d="M56.2202 139.673L52.513 139.136L50.8563 135.768C50.8182 135.708 50.7658 135.659 50.7038 135.625C50.6418 135.591 50.5723 135.574 50.5016 135.574C50.4309 135.574 50.3614 135.591 50.2994 135.625C50.2374 135.659 50.185 135.708 50.1469 135.768L48.488 139.136L44.783 139.673C44.7105 139.685 44.6428 139.716 44.5873 139.765C44.5319 139.813 44.4909 139.876 44.4691 139.946C44.4472 140.016 44.4453 140.091 44.4636 140.162C44.4819 140.233 44.5196 140.298 44.5725 140.349L47.246 142.969L46.604 146.653C46.5938 146.71 46.5962 146.769 46.6111 146.824C46.626 146.88 46.653 146.932 46.6902 146.976C46.7273 147.02 46.7737 147.056 46.8262 147.08C46.8786 147.104 46.9357 147.117 46.9934 147.117C48.2131 146.632 49.3845 146.033 50.4921 145.329L53.8077 147.07C53.8734 147.105 53.9476 147.121 54.0217 147.115C54.0959 147.11 54.167 147.084 54.227 147.04C54.287 146.996 54.3334 146.936 54.3609 146.867C54.3883 146.798 54.3958 146.722 54.3824 146.649L53.7614 142.969L56.4433 140.355C56.4975 140.303 56.536 140.237 56.5543 140.164C56.5725 140.091 56.5698 140.015 56.5465 139.944C56.5232 139.872 56.4802 139.809 56.4224 139.761C56.3647 139.713 56.2946 139.683 56.2202 139.673Z" fill="#9EA7B4"/>
<path d="M71.4581 139.673L67.753 139.136L66.0963 135.768C66.0583 135.708 66.0058 135.658 65.9436 135.624C65.8814 135.59 65.8116 135.572 65.7405 135.572C65.6695 135.572 65.5997 135.59 65.5375 135.624C65.4753 135.658 65.4228 135.708 65.3848 135.768L63.728 139.136L60.0209 139.673C59.9489 139.685 59.8817 139.718 59.8267 139.766C59.7718 139.814 59.7312 139.877 59.7094 139.946C59.6877 140.016 59.6856 140.091 59.7034 140.162C59.7212 140.233 59.7582 140.297 59.8104 140.349L62.4839 142.969L61.8524 146.66C61.8422 146.717 61.8446 146.775 61.8595 146.831C61.8744 146.886 61.9014 146.938 61.9386 146.983C61.9757 147.027 62.0222 147.062 62.0746 147.086C62.127 147.111 62.1841 147.123 62.2418 147.123C63.4584 146.631 64.6292 146.033 65.7405 145.336L69.054 147.076C69.1197 147.111 69.1939 147.127 69.268 147.122C69.3422 147.116 69.4133 147.09 69.4733 147.046C69.5333 147.002 69.5797 146.942 69.6072 146.873C69.6347 146.804 69.6421 146.729 69.6287 146.655L68.9972 142.965L71.6791 140.351C71.7328 140.299 71.771 140.233 71.7891 140.161C71.8072 140.089 71.8045 140.013 71.7814 139.942C71.7583 139.871 71.7158 139.809 71.6586 139.761C71.6013 139.713 71.5319 139.683 71.4581 139.673Z" fill="#9EA7B4"/>
<path d="M86.6998 139.673L82.9948 139.136L81.336 135.768C81.2979 135.708 81.2454 135.659 81.1834 135.625C81.1215 135.591 81.0519 135.574 80.9813 135.574C80.9106 135.574 80.841 135.591 80.779 135.625C80.7171 135.659 80.6646 135.708 80.6265 135.768L78.9698 139.136L75.2648 139.673C75.1914 139.683 75.1224 139.714 75.0656 139.761C75.0088 139.809 74.9665 139.871 74.9434 139.942C74.9204 140.012 74.9176 140.088 74.9353 140.16C74.9531 140.231 74.9906 140.297 75.0437 140.349L77.7257 142.969L77.0941 146.66C77.0807 146.733 77.0882 146.808 77.1157 146.877C77.1432 146.946 77.1895 147.006 77.2495 147.05C77.3095 147.094 77.3807 147.12 77.4548 147.126C77.529 147.131 77.6031 147.116 77.6688 147.081L80.9844 145.34L84.2979 147.081C84.3636 147.116 84.4377 147.131 84.5119 147.126C84.5861 147.12 84.6572 147.094 84.7172 147.05C84.7772 147.006 84.8236 146.946 84.851 146.877C84.8785 146.808 84.886 146.733 84.8726 146.66L84.241 142.969L86.923 140.355C86.978 140.303 87.0173 140.237 87.036 140.164C87.0548 140.091 87.0523 140.014 87.0288 139.943C87.0054 139.871 86.962 139.808 86.9037 139.76C86.8454 139.712 86.7747 139.682 86.6998 139.673Z" fill="#9EA7B4"/>
<path d="M308.901 171.473C289.429 188.509 269.853 205.576 249.379 221.899C245.164 225.275 239.831 226.94 234.444 226.56C229.057 226.18 224.011 223.785 220.311 219.851C208.552 207.312 193.366 189.116 184.644 171.136L185.231 194.046L171.009 217.413C179.775 235.517 192.401 255.366 207.428 276.318C198.812 291.288 184.219 298.323 167.009 300.71C152.91 278.968 140.844 255.972 130.963 232.016C129.593 228.611 128.966 224.953 129.123 221.286C129.281 217.619 130.221 214.029 131.879 210.754L163.34 148.775C178.192 146.949 192.803 143.52 206.916 138.547C208.133 138.121 209.279 137.516 210.318 136.753C215.821 139.186 228.304 148.156 239.251 180.897L281.318 139.847C288.195 142.388 294.325 146.615 299.145 152.14C303.964 157.666 307.319 164.313 308.901 171.473Z" fill="#EEF1FE"/>
<path d="M324.842 42.2898H252.123C248.372 42.2943 244.777 43.7861 242.125 46.4381C239.473 49.0901 237.981 52.6857 237.977 56.4362V93.1327C237.982 96.8828 239.474 100.478 242.126 103.129C244.778 105.781 248.373 107.273 252.123 107.277H324.842C328.593 107.273 332.188 105.782 334.84 103.13C337.492 100.478 338.984 96.883 338.989 93.1327V56.4362C338.984 52.6857 337.492 49.0901 334.84 46.4381C332.188 43.7861 328.593 42.2943 324.842 42.2898ZM285.477 50.4008C285.399 49.0704 289.081 50.0514 290.074 57.0993C290.826 62.4442 290.853 63.501 291.061 65.1283C291.598 69.288 291.453 70.1932 291.56 70.4184C294.211 76.2938 289.752 84.7143 283.46 83.9375C283.357 83.9262 283.253 83.956 283.172 84.0203C283.09 84.0847 283.037 84.1785 283.024 84.2815C283.011 84.3845 283.039 84.4885 283.102 84.571C283.165 84.6536 283.258 84.7081 283.361 84.7227C290.291 85.5648 295.15 76.5696 292.31 70.1595C292.293 69.9174 292.234 69.0775 292.114 67.747C293.653 68.6788 295.467 69.0506 297.248 68.7996C296.568 68.9831 295.968 69.3892 295.545 69.9531C295.121 70.5171 294.899 71.2064 294.913 71.9113C294.927 72.6163 295.177 73.2962 295.622 73.8429C296.067 74.3895 296.683 74.7714 297.37 74.9276C296.629 74.9798 295.928 75.2898 295.391 75.804C294.854 76.3181 294.513 77.004 294.428 77.7428C294.343 78.4817 294.519 79.227 294.926 79.8497C295.332 80.4724 295.944 80.9332 296.655 81.1525C296.011 81.4436 295.478 81.9322 295.131 82.5472C294.784 83.1622 294.642 83.8717 294.726 84.5728C294.81 85.2739 295.115 85.9301 295.597 86.4461C296.079 86.9621 296.713 87.3111 297.406 87.4426C294.286 88.6025 294.802 93.4064 299.231 93.88L300.116 93.9769C289.493 94.3979 241.172 95.3894 238.968 95.4505C238.841 94.8014 238.78 94.1413 238.785 93.48C238.73 91.276 238.768 85.7311 238.768 68.3259C242.157 68.5365 264.981 69.9448 272.378 69.8627C275.269 69.829 280.649 69.7701 282.483 66.1977C284.173 62.92 285.586 52.2386 285.479 50.4008H285.477ZM299.316 93.099C295.257 92.6654 295.158 87.8509 299.116 87.9899C302.305 88.1057 302.835 88.0551 305.431 88.2488C309.309 88.5435 309.18 93.6674 306.046 93.6906C303.792 93.643 301.545 93.4454 299.318 93.099H299.316ZM298.895 86.8994C294.659 86.7521 294.24 81.7566 298.343 81.6093C301.478 81.4956 303.732 81.5187 306.89 81.5314C310.927 81.5482 311.142 86.8742 307.896 87.1352C305.698 87.312 303.008 87.0363 298.897 86.8994H298.895ZM298.629 80.7272C294.524 80.7272 293.918 75.9781 297.85 75.6749C301.101 75.4223 308.587 75.1802 308.797 75.1802C312.525 75.1802 312.934 80.1462 309.862 80.5209C307.717 80.782 302.886 80.6978 298.631 80.7272H298.629ZM299.362 74.3698C295.297 74.715 294.274 70.0079 298.189 69.3911C300.76 68.9891 306.279 68.3028 306.873 68.3028C310.306 68.3028 310.991 72.9593 308.035 73.5656C305.936 73.9803 303.585 74.0098 299.364 74.3698H299.362ZM338.195 93.1327C338.191 96.6732 336.783 100.068 334.279 102.571C331.775 105.074 328.381 106.482 324.84 106.485H252.123C249.123 106.481 246.212 105.469 243.856 103.611C241.501 101.754 239.838 99.1583 239.134 96.242C241.399 96.183 246.052 96.0862 251.9 95.9641C323.301 94.4905 298.735 94.4905 306.046 94.4905C309.591 94.4632 310.256 89.5961 307.275 87.9646C307.505 87.9646 307.734 87.9415 307.961 87.9246C311.41 87.6468 311.896 83.0829 309.224 81.3756C309.494 81.3567 309.74 81.3335 309.959 81.3061C314.068 80.8072 313.515 74.2182 308.603 74.3908L307.7 74.4245C307.865 74.395 308.029 74.3655 308.193 74.3319C312.245 73.513 311.18 66.9871 306.313 67.5428C294.434 68.2502 292.459 68.627 291.882 65.3577C291.596 62.6084 291.266 59.8844 290.859 56.9878C289.632 48.2852 284.544 47.9841 284.687 50.4492C284.788 52.1965 283.378 62.7326 281.78 65.8356C280.163 68.9933 275.092 69.0417 272.37 69.0712C264.966 69.1533 241.97 67.7344 238.768 67.5344V56.4362C238.771 52.8957 240.179 49.5011 242.683 46.9973C245.186 44.4936 248.58 43.0852 252.121 43.0813H324.84C328.381 43.0852 331.776 44.4935 334.279 46.9972C336.783 49.5009 338.191 52.8955 338.195 56.4362V93.1327Z" fill="#9EA7B4"/>
<path d="M57.5508 124.8C64.5565 103.414 77.1994 84.3124 94.1481 69.5073C111.097 54.7021 131.724 44.7411 153.858 40.6732C153.961 40.6542 154.068 40.677 154.154 40.7366C154.241 40.7962 154.3 40.8877 154.319 40.991C154.338 41.0943 154.315 41.2009 154.256 41.2874C154.196 41.3738 154.104 41.4331 154.001 41.452C132.005 45.492 111.506 55.3891 94.6631 70.1007C77.8197 84.8123 65.2555 103.794 58.2939 125.046C58.2511 125.131 58.1793 125.198 58.0916 125.234C58.0039 125.27 57.9062 125.273 57.8162 125.244C57.7261 125.214 57.6498 125.153 57.6011 125.071C57.5524 124.99 57.5345 124.894 57.5508 124.8Z" fill="#9EA7B4"/>
<path d="M354.03 131.265C342.763 125.672 310.955 126.92 293.278 129.92C293.211 129.939 293.2 129.92 293.067 130.054C292.646 130.463 291.129 132.259 283.895 140.502C283.104 140.144 282.297 139.8 281.475 139.471C281.39 139.437 281.241 139.471 280.824 139.82C279.513 140.932 273.286 147.135 239.437 180.173C229.068 149.481 217.466 139.755 211.088 136.669C212.913 135.191 214.321 133.262 215.172 131.073C216.023 128.884 216.288 126.51 215.94 124.187C214.026 111.201 209.225 84.4786 204.747 76.2938C199.956 67.5471 188.1 67.7176 184.87 65.7788C179.315 62.4379 176.66 55.0995 176.322 48.7062C176.311 48.6052 176.262 48.5121 176.185 48.4461C176.108 48.3801 176.008 48.3463 175.907 48.3518C175.805 48.3572 175.71 48.4013 175.64 48.4752C175.57 48.549 175.532 48.6468 175.532 48.7483C175.875 55.411 178.673 62.9768 184.462 66.4566C186.592 67.3513 188.815 68.0078 191.089 68.4144C190.508 69.8838 189.545 71.1715 188.3 72.1446C186.977 72.9884 185.558 73.6731 184.075 74.1845C170.806 78.7631 157.904 69.9343 160.784 71.7973C159.542 71.151 158.487 70.1972 157.719 69.027C159.619 68.3584 161.554 67.7906 163.514 67.326C165.265 66.7625 166.777 65.6279 167.808 64.1036C168.838 62.5793 169.328 60.7535 169.198 58.9182L171.337 54.7795C171.371 54.7055 171.382 54.6226 171.368 54.5421C171.353 54.4617 171.314 54.3876 171.256 54.3302C171.198 54.2728 171.124 54.2347 171.043 54.2213C170.963 54.2079 170.88 54.2198 170.806 54.2553C170.033 54.7986 169.213 55.2741 168.358 55.6763C163.868 57.7561 160.672 56.6657 159.369 51.8871C158.529 47.4952 158.501 42.9866 159.287 38.5848C159.782 35.6587 160.996 31.4484 163.964 31.4674C166.514 31.4674 169.511 34.6251 170.951 37.8017C170.988 37.8761 171.046 37.9374 171.119 37.9771C171.191 38.0169 171.274 38.0331 171.357 38.0237C171.439 38.0142 171.516 37.9795 171.578 37.9243C171.639 37.869 171.682 37.7961 171.701 37.7154C172.303 34.7282 173.753 32.6147 175.372 32.6147C175.583 32.6147 181.925 32.5768 182.622 32.6147C190.064 32.5073 198.575 29.0675 198.575 19.6387C198.575 10.5572 192.11 0 183.772 0C174.72 0 167.562 8.70468 166.539 16.841C166.285 18.8918 166.547 20.9736 167.301 22.8974C164.794 23.2587 162.463 24.3976 160.637 26.1537C158.811 27.9099 157.582 30.1947 157.123 32.6862C157.098 32.7881 157.114 32.8957 157.168 32.9855C157.222 33.0754 157.31 33.1403 157.411 33.1662C157.411 33.1662 157.832 33.1473 158.125 33.1262C157.74 37.6107 157.659 42.1162 157.883 46.6116C158.093 54.5227 161.04 59.6381 168.223 56.5983C168.983 61.0464 167.67 65.0841 163.261 66.5766C160.038 67.6755 148.947 68.7891 143.349 82.4829C141.644 86.651 140.56 91.6676 138.747 95.7452C137.89 93.0548 137.53 91.8591 137.339 91.3244C137.179 90.8802 137.192 90.855 136.604 90.7434L131.96 89.5414C130.518 87.464 128.534 85.8221 126.224 84.7943L136.703 70.3974C136.831 70.2322 136.924 70.0424 136.976 69.8397C137.028 69.6371 137.037 69.4259 137.003 69.2195C136.97 69.0131 136.894 68.8158 136.781 68.6399C136.668 68.4641 136.519 68.3135 136.345 68.1975C136.171 68.0815 135.975 68.0025 135.769 67.9657C135.564 67.9288 135.352 67.9348 135.149 67.9832C134.945 68.0316 134.754 68.1214 134.587 68.247C134.42 68.3726 134.28 68.5314 134.177 68.7133L124.664 84.2701C123.285 83.9052 121.845 83.8299 120.435 84.0491L119.622 79.6431C119.608 79.5679 119.572 79.4984 119.52 79.4428C119.467 79.3872 119.4 79.3478 119.325 79.3294L113.547 77.9211C113.301 77.8601 112.997 77.9969 113.107 78.5169C113.239 79.1484 113.711 80.7272 114.93 85.1375C103.042 82.0598 99.8193 81.1735 98.8846 81.0051C98.2194 80.883 98.3499 81.2304 98.4636 81.563C99.0551 83.4428 102.451 92.8696 118.572 139.978C118.679 140.287 116.349 139.557 155.523 150.249C155.967 150.304 156.058 150.078 155.826 149.196C155.557 148.156 154.841 146.209 153.734 142.732C154.576 143.153 155.418 143.544 156.26 143.925C157.081 145.978 158.996 149.939 161.144 149.462C161.651 149.403 162.154 149.339 162.655 149.276C159.266 155.956 131.533 210.582 131.533 210.582C129.849 213.908 128.895 217.555 128.734 221.279C128.574 225.004 129.211 228.72 130.603 232.178C140.483 256.159 152.564 279.173 166.691 300.925C166.857 301.182 167.091 301.104 167.566 301.035C169.13 300.81 170.655 300.549 172.141 300.251C174.896 304.599 175.93 305.845 176.709 315.387C178.189 328.246 181.161 340.889 185.563 353.061L188.163 359.746C188.187 359.81 188.227 359.866 188.28 359.91C188.332 359.953 188.395 359.982 188.462 359.994C188.529 360.006 188.598 360 188.662 359.977C188.726 359.955 188.783 359.916 188.828 359.864C197.126 350.41 204.09 319.355 205.73 301.506C205.73 301.237 206.212 302.066 197.406 288.936C201.582 285.443 205.098 281.23 207.789 276.497C207.825 276.432 207.842 276.358 207.839 276.284C207.835 276.209 207.81 276.137 207.768 276.076C191.497 253.4 179.62 234.21 171.471 217.423L191.628 184.327C199.995 197.089 209.502 209.067 220.032 220.114C223.815 224.095 228.951 226.517 234.429 226.903C239.908 227.29 245.332 225.613 249.637 222.202C269.397 206.439 288.293 190.034 309.174 171.765C309.229 171.717 309.27 171.655 309.292 171.585C309.314 171.515 309.316 171.441 309.298 171.37C308.228 167.051 306.591 162.893 304.431 159.004C307.406 156.972 310.682 155.421 314.14 154.409C326.234 149.761 337.706 143.633 348.293 136.164C352.171 133.406 353.541 132.427 354.017 132.008C354.373 131.696 354.265 131.391 354.03 131.265ZM191.725 68.9533C192.137 69.1641 192.467 69.507 192.661 69.9271C192.856 70.3473 192.904 70.8205 192.798 71.2713C192.692 71.722 192.438 72.1243 192.077 72.4138C191.716 72.7034 191.268 72.8636 190.805 72.8688C190.221 72.8884 189.641 72.7588 189.121 72.492C190.243 71.5218 191.13 70.3097 191.716 68.947L191.725 68.9533ZM188.38 73.0393C188.477 73.3458 188.501 73.6709 188.45 73.9884C188.398 74.3058 188.273 74.6067 188.083 74.8666C187.894 75.1266 187.646 75.3382 187.359 75.4845C187.073 75.6308 186.756 75.7076 186.435 75.7086C186.098 75.7088 185.767 75.6253 185.47 75.4654C185.174 75.3055 184.922 75.0744 184.738 74.7929C186 74.3185 187.216 73.7294 188.371 73.033L188.38 73.0393ZM183.887 75.0855C183.926 75.573 183.788 76.0581 183.498 76.4522C183.209 76.8462 182.787 77.1228 182.31 77.2315C181.833 77.34 181.333 77.2734 180.902 77.0436C180.47 76.8139 180.135 76.4364 179.959 75.9802C181.287 75.7821 182.598 75.4809 183.879 75.0792L183.887 75.0855ZM178.926 76.1023C178.869 76.5789 178.638 77.0179 178.278 77.3355C177.918 77.6532 177.454 77.8271 176.974 77.8243C176.52 77.8233 176.08 77.6664 175.728 77.3797C175.376 77.093 175.133 76.6941 175.04 76.2496C176.334 76.2811 177.629 76.2298 178.917 76.096L178.926 76.1023ZM170.162 75.7255C171.475 75.9599 172.801 76.1208 174.132 76.2075C174.014 76.6316 173.761 77.0053 173.41 77.2715C173.06 77.5377 172.631 77.6815 172.191 77.6811C171.664 77.6799 171.158 77.4751 170.778 77.1096C170.399 76.744 170.175 76.2458 170.154 75.7191L170.162 75.7255ZM165.472 74.5445C166.752 74.9524 168.053 75.2953 169.368 75.5718C169.173 76.0184 168.824 76.3802 168.384 76.5921C167.945 76.8039 167.445 76.8518 166.973 76.727C166.502 76.6022 166.091 76.3131 165.814 75.9117C165.537 75.5103 165.413 75.0231 165.463 74.5382L165.472 74.5445ZM160.912 72.7341C162.13 73.305 163.377 73.8137 164.647 74.2582C164.391 74.6679 163.999 74.9741 163.54 75.1228C163.081 75.2714 162.584 75.2529 162.137 75.0705C161.69 74.8881 161.322 74.5536 161.098 74.126C160.874 73.6984 160.808 73.2054 160.912 72.7341ZM157.043 69.4248C157.796 70.6145 158.83 71.6 160.055 72.2941C159.867 72.5389 159.626 72.7372 159.349 72.8737C159.072 73.0102 158.768 73.0813 158.46 73.0814C158.043 73.0658 157.64 72.9287 157.3 72.6869C156.96 72.4452 156.698 72.1094 156.547 71.7208C156.396 71.3323 156.361 70.9079 156.448 70.5C156.534 70.0921 156.738 69.7183 157.034 69.4248H157.043ZM125.744 85.4427C127.687 86.2615 129.392 87.5568 130.701 89.2088L124.222 87.5247L125.744 85.4427ZM124.23 84.9627C123.46 86.2258 122.967 86.9752 122.885 87.1879L120.919 86.6763L120.576 84.8175C121.792 84.6235 123.034 84.6729 124.23 84.9627ZM114.012 78.8389L118.883 80.0262L120.073 86.4553L115.814 85.3522L114.012 78.8389ZM154.98 149.285L119.241 139.511L99.3372 81.9208L136.577 91.5602L142.995 111.696C142.957 115.59 142.692 118.045 141.722 118.605C141.518 118.69 141.296 118.721 141.077 118.694C140.858 118.667 140.65 118.583 140.473 118.451C135.38 113.827 129.863 109.693 123.995 106.102C122.574 105.363 118.374 103.183 117.469 104.488C116.837 105.391 118.132 107.323 121.313 110.233C122.588 111.407 123.782 112.582 124.879 113.746C123.329 113.016 121.475 112.19 120.281 111.664C117.397 110.401 115.595 110.176 115.071 111.014C114.96 111.219 114.927 111.457 114.978 111.685C115.028 111.913 115.159 112.115 115.347 112.254C117.408 114.022 120.831 116.489 123.209 118.422C121.784 118.049 118.199 117.175 117.624 118.542C117.549 118.763 117.555 119.004 117.641 119.221C117.728 119.439 117.889 119.618 118.096 119.727C120.885 121.426 126.058 123.918 128.622 125.577C132.511 127.775 136.187 130.33 139.602 133.21C140.917 134.644 142.379 135.936 143.964 137.065C146.775 138.977 149.708 140.704 152.744 142.235L154.98 149.285ZM129.718 122.642C124.321 118.63 126.632 119.984 120.159 115.045C118.62 113.868 117.029 112.654 115.86 111.651C115.757 111.563 115.726 111.458 115.742 111.441C115.759 111.424 116.342 110.809 119.953 112.395C121.675 113.155 124.778 114.542 126.323 115.342C129.246 118.635 131.839 122.207 134.065 126.006C132.678 124.832 131.156 123.701 129.716 122.632L129.718 122.642ZM136.15 128.993C136.395 129.329 136.646 129.665 136.903 130.002C134.952 128.6 132.767 127.242 130.984 126.133C128.536 124.525 125.998 123.059 123.384 121.739C121.639 120.815 119.837 119.859 118.509 119.049C118.393 118.979 118.342 118.878 118.355 118.849C118.368 118.819 118.848 118.127 122.675 119.101C123.06 119.2 123.767 119.384 124.603 119.605C128.198 122.775 133.072 125.722 136.147 128.983L136.15 128.993ZM156.723 143.264C151.904 141.115 147.319 138.477 143.04 135.391C141.368 133.987 139.84 132.421 138.476 130.718C136.308 127.933 134.303 125.025 132.472 122.009C129.44 117.476 125.871 113.326 121.843 109.65C118.346 106.452 117.97 105.147 118.113 104.942C118.124 104.931 118.137 104.922 118.151 104.915C118.346 104.82 119.376 104.591 123.624 106.81C129.442 110.369 134.91 114.471 139.956 119.059C139.98 119.084 140.008 119.105 140.038 119.123C140.336 119.336 140.686 119.464 141.052 119.495C141.417 119.525 141.784 119.456 142.113 119.295C144.218 118.083 143.618 112.014 143.848 109.917C143.879 108.792 144.103 107.68 144.511 106.631C144.629 106.652 145.309 106.997 147.037 111.696C148.401 115.409 150.797 121.918 153.936 124.055C155.615 125.029 157.597 125.343 159.495 124.935C162.113 131.453 163.153 138.497 162.529 145.493C160.552 144.857 158.613 144.109 156.721 143.254L156.723 143.264ZM162.341 148.514C162.782 147.763 163.081 146.937 163.226 146.079C164.451 140.1 162.56 129.821 160.099 124.337C159.518 122.813 158.596 121.441 157.405 120.327L187.18 115.464C187.232 115.456 187.283 115.437 187.328 115.408C187.373 115.38 187.411 115.343 187.442 115.299C187.472 115.256 187.493 115.206 187.504 115.154C187.515 115.102 187.515 115.049 187.504 114.997L184.209 98.5197C184.189 98.4167 184.128 98.3261 184.041 98.2679C183.953 98.2097 183.846 98.1886 183.743 98.2092C183.64 98.2299 183.55 98.2906 183.491 98.3781C183.433 98.4655 183.412 98.5725 183.433 98.6755L186.647 114.748L159.255 119.211C158.58 117.998 155.582 112.611 155.089 111.717C150.759 103.875 151.452 92.9433 151.46 92.8338C151.465 92.7305 151.429 92.6295 151.36 92.5523C151.291 92.4751 151.195 92.4279 151.092 92.4207C150.989 92.4136 150.887 92.447 150.808 92.514C150.73 92.581 150.68 92.6761 150.671 92.7791C150.671 92.8906 149.951 104.05 154.395 112.1C154.86 112.942 157.552 117.784 158.426 119.346L155.82 119.767C154.818 119.889 154.087 120.899 153.643 122.771C148.961 118.325 146.89 105.509 144.431 105.827C143.589 105.928 143.351 107.248 143.107 109.426L139.101 96.8672C143.25 88.312 143.084 75.9886 155.824 69.8522C155.64 70.2899 155.567 70.7659 155.609 71.2386C155.652 71.7113 155.81 72.1664 156.069 72.5641C156.328 72.9617 156.681 73.2899 157.096 73.5199C157.511 73.7499 157.977 73.8747 158.451 73.8835C159.031 73.8837 159.596 73.7034 160.068 73.3677C160.102 73.8916 160.28 74.3959 160.583 74.825C160.885 75.2541 161.301 75.5913 161.782 75.7996C162.264 76.0079 162.794 76.0792 163.314 76.0056C163.834 75.9319 164.324 75.7163 164.729 75.3823C164.851 75.8794 165.104 76.3348 165.461 76.7014C165.818 77.068 166.267 77.3323 166.761 77.4672C167.255 77.602 167.775 77.6024 168.269 77.4683C168.763 77.3341 169.213 77.0704 169.57 76.7043C169.762 77.1836 170.082 77.6009 170.494 77.9105C170.907 78.2202 171.397 78.4104 171.911 78.4602C172.424 78.5099 172.942 78.4174 173.407 78.1928C173.871 77.9681 174.265 77.6199 174.545 77.1864C174.798 77.6451 175.177 78.0223 175.636 78.2744C176.096 78.5264 176.617 78.6429 177.14 78.6103C177.663 78.5776 178.166 78.3972 178.591 78.09C179.015 77.7828 179.344 77.3614 179.538 76.8749C179.855 77.3246 180.295 77.6724 180.806 77.8757C181.317 78.079 181.876 78.129 182.415 78.0195C182.954 77.9101 183.449 77.646 183.841 77.2595C184.232 76.873 184.502 76.3809 184.618 75.8433C185.048 76.1987 185.574 76.4191 186.129 76.4771C186.684 76.5351 187.243 76.4281 187.738 76.1694C188.232 75.9107 188.639 75.5119 188.908 75.0229C189.177 74.5339 189.296 73.9764 189.249 73.4203C189.753 73.5843 190.279 73.6653 190.809 73.6603C191.353 73.6537 191.883 73.4929 192.339 73.1965C192.795 72.9002 193.157 72.4806 193.384 71.9864C193.611 71.4922 193.692 70.9438 193.62 70.405C193.547 69.8662 193.323 69.3591 192.973 68.9428C195.241 69.4281 197.389 70.3629 199.29 71.692C201.192 73.021 202.807 74.7175 204.042 76.6812C208.463 84.7691 213.241 111.374 215.146 124.312C215.583 127.235 214.987 130.219 213.461 132.75C211.936 135.281 209.576 137.201 206.787 138.18C192.39 143.224 177.486 146.686 162.339 148.504L162.341 148.514ZM201.44 296.389L204.93 301.59C203.271 319.414 196.352 349.305 188.66 358.85L186.378 352.978C192.125 343.985 197.703 317.484 201.438 296.378L201.44 296.389ZM308.471 171.344C287.67 189.543 268.835 205.892 249.146 221.598C244.998 224.885 239.77 226.501 234.49 226.129C229.21 225.757 224.26 223.424 220.613 219.587C209.952 208.421 200.353 196.288 191.939 183.344C189.396 179.395 187.102 175.291 185.07 171.056C184.71 170.483 184.262 170.824 184.262 171.144C184.262 171.144 184.262 171.144 184.845 193.947C173.962 211.822 171.324 216.051 170.756 217.133C170.545 217.554 170.625 217.499 170.667 217.583C178.814 234.405 190.693 253.627 206.976 276.339C203.879 281.729 199.686 286.41 194.668 290.08L177.799 263.993C177.739 263.916 177.652 263.864 177.555 263.848C177.459 263.831 177.36 263.851 177.277 263.904C177.194 263.956 177.134 264.037 177.108 264.131C177.081 264.226 177.091 264.326 177.134 264.414L194.021 290.538C185.983 295.852 176.802 299.188 167.227 300.273C153.183 278.627 141.17 255.729 131.341 231.871C129.991 228.517 129.374 224.914 129.529 221.303C129.684 217.691 130.609 214.154 132.242 210.929C132.242 210.929 163.133 150.059 163.518 149.152C178.355 147.319 192.95 143.889 207.05 138.921C208.229 138.507 209.345 137.931 210.366 137.21C215.456 139.544 227.973 148.411 238.875 181.024C238.897 181.087 238.934 181.144 238.983 181.19C239.033 181.235 239.093 181.267 239.158 181.282C239.224 181.298 239.292 181.297 239.356 181.279C239.421 181.261 239.48 181.227 239.528 181.179L281.409 140.302C286.051 142.122 290.374 144.669 294.215 147.849L271.778 168.818C271.72 168.872 271.679 168.943 271.661 169.02C271.644 169.098 271.65 169.179 271.679 169.253C271.708 169.327 271.759 169.391 271.824 169.436C271.89 169.481 271.968 169.505 272.048 169.504C272.29 169.504 270.696 170.913 294.821 148.367C301.647 154.419 306.417 162.447 308.468 171.336L308.471 171.344ZM347.998 135.414C337.858 132.168 310.807 133.576 289.432 135.389L293.558 130.684C311.209 127.709 341.877 126.72 353.082 131.703L347.998 135.414Z" fill="#9EA7B4"/>
<path d="M196.146 149.102C196.103 149.072 196.066 149.035 196.037 148.991C196.009 148.948 195.989 148.899 195.98 148.848C195.97 148.797 195.97 148.744 195.981 148.693C195.992 148.643 196.012 148.594 196.041 148.551C196.071 148.508 196.108 148.471 196.152 148.443C196.195 148.414 196.244 148.395 196.295 148.385C196.346 148.375 196.399 148.376 196.45 148.387C196.501 148.397 196.549 148.418 196.592 148.447C199.614 150.66 203.059 152.227 206.712 153.051C210.365 153.875 214.149 153.939 217.828 153.238C217.931 153.218 218.038 153.239 218.126 153.297C218.213 153.355 218.274 153.446 218.295 153.549C218.315 153.652 218.294 153.759 218.236 153.846C218.178 153.934 218.087 153.994 217.984 154.015C214.202 154.735 210.311 154.671 206.555 153.826C202.798 152.981 199.255 151.373 196.146 149.102Z" fill="#9EA7B4"/>
<path d="M181.787 32.0463C180.678 31.8571 179.548 31.8188 178.429 31.9326C177.744 29.692 176.34 27.7393 174.434 26.3763C172.528 25.0134 170.226 24.3161 167.884 24.3921C165.512 24.2553 163.172 24.9922 161.307 26.4634C159.441 27.9346 158.179 30.0383 157.759 32.3768L157.409 32.3895C156.308 32.4463 155.254 33.4589 154.515 35.1661C152.172 40.5826 154.25 49.1841 158.432 49.5273H158.464C158.518 49.5272 158.572 49.5159 158.621 49.4942C158.671 49.4725 158.716 49.4407 158.752 49.401C159.272 48.8431 157.576 46.3233 158.931 32.9642C158.958 32.9017 158.97 32.8338 158.967 32.7658C158.963 32.6979 158.944 32.6317 158.91 32.5724C158.877 32.5131 158.83 32.4623 158.774 32.424C158.718 32.3857 158.654 32.3609 158.586 32.3516C159.01 30.2355 160.184 28.344 161.893 27.0262C163.602 25.7084 165.73 25.0532 167.884 25.1815C170.018 25.0848 172.123 25.6934 173.876 26.9133C175.629 28.1333 176.931 29.8965 177.581 31.9305H175.404C170.663 31.9305 169.002 42.5909 172.476 47.3653C170.881 48.9079 168.984 50.1047 166.906 50.8809C166.661 50.5248 166.309 50.2556 165.901 50.112C165.494 49.9685 165.051 49.958 164.637 50.082C164.223 50.206 163.859 50.4582 163.598 50.8023C163.336 51.1463 163.19 51.5645 163.182 51.9966C163.188 52.2733 163.252 52.5457 163.369 52.7967C163.486 53.0477 163.653 53.272 163.86 53.4554C164.068 53.6389 164.311 53.7777 164.574 53.8632C164.837 53.9486 165.115 53.9788 165.391 53.952C165.666 53.9252 165.933 53.8419 166.175 53.7072C166.417 53.5726 166.629 53.3896 166.797 53.1695C166.965 52.9495 167.086 52.6972 167.152 52.4284C167.218 52.1596 167.228 51.88 167.181 51.6071C167.204 51.6037 167.225 51.5981 167.247 51.5903C169.366 50.7479 171.312 49.5227 172.987 47.9758C173.291 48.3221 173.663 48.6024 174.079 48.7993C174.495 48.9963 174.948 49.1058 175.408 49.121C181.599 49.121 181.263 49.1631 181.791 49.0094C187.136 47.4432 187.138 33.6104 181.787 32.0463ZM157.999 48.6347C155.068 47.6558 153.043 40.5784 155.247 35.4798C155.854 34.0799 156.679 33.221 157.449 33.181L158.123 33.1557C157.502 38.2943 157.458 43.4863 157.992 48.6347H157.999ZM175.41 48.3673V48.3316C173.248 48.3316 171.421 44.7528 171.421 40.5279C171.421 36.3029 173.248 32.7242 175.41 32.7242H178.989C175.358 35.764 175.284 45.1991 178.976 48.3316C176.648 48.3316 175.764 48.3379 175.404 48.3673H175.41ZM181.574 48.2494C177.785 49.3652 175.276 39.5448 178.555 34.4462C179.261 33.3452 180.317 32.4358 181.572 32.8063C183.283 33.3073 185.018 36.1197 185.018 40.5279C185.018 44.936 183.279 47.7484 181.568 48.2494H181.574Z" fill="#9EA7B4"/>
<path d="M238.383 55.6953C237.13 55.6953 217.723 41.9446 185.391 39.6963C185.288 39.6868 185.192 39.6374 185.126 39.5586C185.059 39.4799 185.025 39.378 185.032 39.2749C185.039 39.1717 185.087 39.0755 185.164 39.0067C185.241 38.938 185.342 38.9021 185.445 38.9069C204.143 40.1647 222.311 45.6502 238.581 54.9501C238.66 54.9919 238.722 55.0593 238.758 55.1413C238.794 55.2232 238.801 55.3149 238.778 55.4013C238.755 55.4877 238.703 55.5638 238.632 55.6172C238.56 55.6706 238.472 55.6981 238.383 55.6953Z" fill="#9EA7B4"/>
</g>
</svg>
