<svg width="566" height="360" viewBox="0 0 566 360" fill="none" xmlns="http://www.w3.org/2000/svg">
<path d="M566 186.039C566 83.2927 453.48 1.37276e-05 314.679 1.37276e-05C175.879 1.37276e-05 -20.3205 104.363 1.70443 311.578C15.2893 439.385 143.484 273.765 282.285 273.765C421.085 273.765 566 288.786 566 186.039Z" fill="#EEF0FD"/>
<path d="M435.732 232.393C439.197 237.807 441.777 243.64 443.8 249.72C446.971 259.251 448.691 269.031 448.526 279.105C448.526 279.941 448.748 280.114 449.533 280.109C454.147 280.072 458.763 280.085 463.377 280.109C463.868 280.109 464.643 279.847 464.473 280.866H133.011C132.891 279.742 133.752 280.114 134.252 280.114C140.532 280.09 146.813 280.098 153.093 280.098H164.995C166.743 280.098 166.743 280.098 166.743 278.282C166.743 243.653 166.75 209.024 166.764 174.396C166.764 173.816 166.369 172.752 167.154 172.734C168.002 172.718 167.58 173.782 167.58 174.338C167.607 209.105 167.607 243.865 167.58 278.618C167.58 279.779 167.821 280.135 169.048 280.13C180.605 280.077 192.159 280.077 203.712 280.13C204.824 280.13 205.044 279.831 205.044 278.767C205.014 228.067 205.005 177.366 205.017 126.666C205.017 124.612 204.842 124.441 202.775 124.441C191.784 124.441 180.793 124.441 169.802 124.441C167.902 124.441 167.599 124.737 167.596 126.627V161.334C167.596 161.686 167.596 162.034 167.596 162.383C167.596 162.645 167.575 162.941 167.23 162.972C166.803 163.009 166.748 162.697 166.743 162.372C166.743 162.11 166.743 161.848 166.743 161.586V126.47C166.743 124.148 167.366 123.519 169.692 123.519H202.927C205.331 123.519 206.004 124.205 206.004 126.648C206.004 177.259 205.994 227.871 205.975 278.484C205.975 279.755 206.198 280.245 207.571 280.122C209.182 280.016 210.797 280.011 212.407 280.106C213.172 280.132 213.428 279.87 213.329 279.142C213.309 278.836 213.309 278.53 213.329 278.225V36.1316C213.329 32.599 214.477 31.459 218.039 31.459C227.634 31.459 237.229 31.459 246.825 31.459C247.506 31.4899 248.186 31.3774 248.821 31.1288C249.342 30.9032 249.904 30.7867 250.471 30.7867C251.039 30.7867 251.6 30.9032 252.121 31.1288C254.83 32.2033 257.502 33.3956 260.268 34.2945C262.95 35.1672 265.596 34.4858 268.118 33.4009C268.885 33.0681 268.861 32.2793 268.827 31.5665C268.759 30.0413 267.93 28.8567 267.022 27.7351C266.569 27.1743 265.951 27.3446 265.35 27.57C262.785 28.5326 260.216 29.4857 257.643 30.4291C255.167 31.3437 253.589 30.8877 252.119 28.7336C251.797 28.2619 251.527 28.1885 251.059 28.3745C250.59 28.5606 250.156 28.6969 249.703 28.8567C246.427 30.0019 243.595 27.722 244.098 24.3152C244.184 23.736 244.027 23.5945 243.559 23.3927C241.484 22.5017 240.419 20.8455 240.549 18.825C240.68 16.8045 241.981 15.2845 244.161 14.6975C247.479 13.796 250.815 12.9705 254.141 12.1319C254.908 11.9484 255.708 11.9565 256.47 12.1555C262.559 13.6283 268.649 15.0958 274.741 16.5582C276.285 16.9277 277.324 17.8685 278.12 19.2181C284.843 30.6256 291.225 42.2271 297.555 53.8575C306.305 69.9306 315.075 85.988 323.866 102.03C324.051 102.368 324.263 102.687 324.58 103.206C324.76 102.756 324.891 102.473 324.991 102.179C325.559 100.512 326.25 98.8011 327.532 97.6611C329.34 96.0573 329.17 94.4142 328.62 92.3701C327.257 87.2809 326.663 82.092 327.336 76.8141C328.348 68.8395 333.407 63.5197 341.383 62.0652C347.185 61.017 352.929 61.4913 358.618 62.8514C359.02 62.9689 359.445 62.9893 359.857 62.9109C360.269 62.8326 360.657 62.6578 360.989 62.4007C366.335 58.7056 372.163 56.5488 378.765 57.073C384.368 57.5316 389.295 59.7539 393.637 63.2157C399.656 68.0088 404.628 73.6641 407.245 81.0595C408.736 85.2682 409.44 89.6682 410.003 94.084C410.843 100.624 411.243 107.213 411.201 113.807C411.201 115.209 411.573 116.04 412.554 117.03C416.741 121.268 418.207 126.582 417.772 132.387C417.249 139.253 414.47 145.079 409.084 149.494C408.299 150.144 408.877 150.543 409.084 151.004C412.347 158.08 412.073 164.951 407.684 171.495C406.059 173.919 403.759 175.562 401.037 176.576C396.96 172.564 393.092 168.331 388.531 164.39C388.612 165.902 388.649 167.113 388.746 168.321C388.824 169.27 388.584 169.951 387.717 170.509C383.939 172.97 379.945 175.001 375.536 176.049C369.889 177.401 364.32 177.304 358.898 174.959C358.076 174.603 357.665 174.152 357.793 173.185C357.908 172.141 357.955 171.09 357.932 170.04C357.932 163.929 357.691 157.825 357.513 151.719C357.477 150.443 357.207 149.998 355.841 150.095C350.607 150.459 346.07 148.821 342.233 145.228C338.682 141.9 336.411 137.772 334.726 133.27C333.417 129.785 332.716 126.15 332.059 122.505C332.208 121.815 331.632 121.739 331.227 121.545C330.038 120.993 328.962 120.226 328.053 119.281C324.389 115.403 323.387 110.735 324.114 105.594C324.233 105.006 324.14 104.395 323.852 103.869C319.325 95.6223 314.863 87.3385 310.315 79.1019C299.385 59.3214 288.894 39.292 277.432 19.8077C277.089 19.1784 276.614 18.631 276.039 18.2035C275.464 17.7759 274.804 17.4783 274.103 17.3312C269.063 16.152 264.023 14.9727 259.011 13.6624C256.656 13.0491 254.382 12.8028 251.983 13.5785C249.381 14.4223 246.675 14.9439 244.04 15.6934C243.588 15.8241 243.165 16.0435 242.798 16.339C242.431 16.6345 242.126 17.0001 241.901 17.4146C241.676 17.8291 241.536 18.2842 241.488 18.7535C241.44 19.2228 241.486 19.6969 241.622 20.1484C242.075 21.7706 243.964 23.1621 245.901 22.5306C248.834 21.5766 251.846 20.8612 254.822 20.0357C255.406 19.8548 256.021 19.7947 256.629 19.8591C257.237 19.9235 257.826 20.1111 258.36 20.4105C261.058 21.9252 263.698 23.5421 266.108 25.4919C267.906 26.9463 269.27 28.7519 269.712 31.0921C269.924 32.2006 269.892 33.4507 268.791 34.0141C266.072 35.4397 263.117 36.1421 260.129 35.217C257.214 34.3155 254.455 32.9632 251.593 31.936C251.163 31.7725 250.705 31.6955 250.245 31.7094C249.785 31.7233 249.332 31.8278 248.913 32.0169C248.493 32.206 248.115 32.476 247.8 32.8115C247.485 33.147 247.239 33.5414 247.076 33.9722C246.356 35.7673 247.034 37.9477 248.874 38.5976C255.356 40.8775 261.346 44.7298 268.5 44.8582C269.102 44.8582 269.408 45.1386 269.576 45.7545C270.026 47.3924 270.539 49.0119 271.062 50.6262C279.251 76.06 289.919 100.625 302.912 123.967C305.838 129.208 308.837 134.423 312.21 139.4C312.161 139.764 311.982 140.099 311.708 140.343C308.779 136.011 306.147 131.499 303.564 126.957C289.218 101.691 277.653 74.94 269.071 47.1749C268.725 46.0663 268.212 45.6182 267.119 45.6261C264.141 45.6497 261.403 44.722 258.711 43.5296C256.732 42.6543 254.688 41.9363 252.561 41.1029V42.518C252.561 47.2351 252.561 51.9523 252.561 56.6694C252.561 57.1594 252.768 57.7543 252.098 58.0295C251.457 57.6731 251.624 57.052 251.624 56.5069C251.614 52.1392 251.614 47.7715 251.624 43.4038C251.624 40.7412 251.624 40.7203 249.164 39.7349C247.4 39.0405 246.286 37.8507 245.932 35.956C245.686 34.6771 246.304 33.6132 246.738 32.4155C236.65 32.4155 226.669 32.4155 216.689 32.4313C215.346 32.4313 214.425 33.4088 214.302 34.7374C214.258 35.2144 214.276 35.6966 214.276 36.1787V278.28C214.292 278.498 214.292 278.717 214.276 278.935C214.145 279.847 214.517 280.111 215.43 280.109C227.119 280.083 238.807 280.083 250.496 280.109C251.415 280.109 251.773 279.847 251.65 278.932C251.628 278.583 251.628 278.233 251.65 277.884V70.9072C251.65 70.5141 251.65 70.121 251.65 69.7279C251.65 69.3348 251.718 68.9418 252.14 68.74C252.925 69.1671 252.584 69.9088 252.584 70.5089C252.6 139.725 252.6 208.941 252.584 278.159C252.605 278.464 252.605 278.771 252.584 279.076C252.474 279.862 252.718 280.156 253.563 280.125C255.042 280.051 256.528 280.104 258.012 280.104C259.951 280.104 259.951 280.104 259.951 278.227V176.421C259.951 174.005 260.736 173.214 263.17 173.214C274.201 173.214 285.232 173.214 296.263 173.214C298.406 173.214 299.207 174 299.209 176.117C299.209 181.839 299.209 187.56 299.209 193.28C299.209 193.542 299.209 193.804 299.188 194.066C299.19 194.121 299.18 194.176 299.16 194.227C299.139 194.278 299.109 194.324 299.07 194.363C299.031 194.402 298.984 194.432 298.933 194.452C298.882 194.472 298.827 194.482 298.772 194.48C298.717 194.479 298.663 194.468 298.613 194.446C298.562 194.424 298.517 194.392 298.479 194.352C298.441 194.312 298.411 194.266 298.391 194.214C298.372 194.163 298.362 194.108 298.364 194.053C298.348 193.704 298.343 193.356 298.343 193.005C298.343 187.456 298.343 181.91 298.343 176.366C298.343 174.516 297.987 174.168 296.114 174.168H263.141C261.17 174.168 260.909 174.43 260.909 176.468C260.909 210.573 260.899 244.68 260.88 278.788C260.88 279.907 261.189 280.119 262.246 280.117C273.8 280.075 285.354 280.075 296.906 280.117C298.165 280.117 298.359 279.718 298.356 278.591C298.325 255.879 298.325 233.167 298.356 210.455C298.356 209.91 298.006 208.883 298.738 208.899C299.612 208.912 299.186 209.947 299.186 210.508C299.212 233.22 299.212 255.932 299.186 278.644C299.186 279.889 299.555 280.132 300.698 280.109C304.317 280.038 307.937 280.088 311.556 280.083C318.398 280.07 325.242 280.054 332.088 280.033C332.391 280.049 332.695 280.077 332.998 280.08H396.871C397.175 280.08 397.478 280.049 397.782 280.033C401.006 280.049 404.23 280.075 407.464 280.08C411.473 280.08 415.485 280.056 419.502 280.104C420.415 280.104 420.585 279.876 420.342 279.024C420.007 277.852 419.819 276.639 419.523 275.46C418.248 270.63 417.824 265.575 415.652 260.986C415.111 259.846 414.65 258.667 414.156 257.506C414.339 257.281 414.519 257.05 414.847 257.034C416.097 259.849 417.599 262.556 418.248 265.622C419.191 270.053 420.258 274.456 421.2 278.888C421.404 279.844 421.779 280.111 422.742 280.106C430.592 280.064 438.443 280.049 446.294 280.106C447.563 280.106 447.772 279.692 447.764 278.57C447.694 267.247 445.52 256.035 441.353 245.509C439.678 241.253 437.763 237.107 435.237 233.27C435.283 232.925 435.46 232.611 435.732 232.393ZM346.085 117.609L345.785 117.518C345.374 117.955 344.979 118.409 344.544 118.828C341.666 121.59 338.29 123.118 334.239 122.455C333.051 122.261 333.038 122.623 333.192 123.527C333.941 128.016 335.084 132.387 337.086 136.493C339.043 140.508 341.608 144.033 345.376 146.562C349.383 149.251 353.842 149.497 358.44 149.065C366.942 148.278 373.971 144.777 379.019 137.715C383.057 132.067 384.831 125.605 385.715 118.828C385.823 117.995 385.286 118.008 384.784 117.945C381.157 117.491 377.517 117.096 373.898 116.574C372.759 116.409 372.241 116.65 371.851 117.795C370.932 120.448 369.293 122.792 367.117 124.564C361.237 129.496 353.381 128.212 349.357 121.682C348.43 120.175 347.883 118.519 347.263 116.839C346.839 119.339 346.533 121.818 346.237 124.318C346.002 126.326 346.007 126.328 347.956 126.629C348.257 126.677 348.558 126.737 348.862 126.763C349.166 126.789 349.508 126.899 349.482 127.274C349.456 127.649 349.103 127.688 348.783 127.649C347.875 127.541 346.97 127.366 346.059 127.334C345.149 127.303 344.989 127.007 345.107 126.132C345.489 123.296 345.766 120.45 346.085 117.609ZM385.66 124.578C385.54 125.034 385.488 125.227 385.438 125.424C384.088 130.864 381.903 135.906 378.236 140.207C373.296 145.999 366.913 149.031 359.424 149.851C358.667 149.932 358.28 150.029 358.33 150.983C358.72 158.266 358.913 165.554 358.756 172.844C358.741 173.609 358.95 173.989 359.68 174.288C363.085 175.666 366.765 176.226 370.425 175.923C376.541 175.488 381.955 173.148 387.04 169.862C387.66 169.458 387.791 169.023 387.762 168.363C387.673 166.4 387.623 164.432 387.579 162.472C387.33 151.465 386.906 140.482 386.181 129.507C386.077 127.953 386.1 126.373 385.66 124.578ZM371.323 111.915C371.323 108.938 371.323 108.927 369.648 107.638C366.563 105.279 363.59 102.771 360.947 99.9332C359.798 98.6989 358.762 98.6229 357.419 99.2597C357.265 99.3357 357.1 99.3934 356.943 99.4668C349.252 102.939 346.342 114.339 351.343 121.383C354.703 126.1 360.395 127.125 365.121 123.755C369.444 120.673 371.116 116.233 371.323 111.915ZM332.663 114.108C332.663 115.722 332.682 117.334 332.663 118.948C332.648 119.918 332.972 120.406 334.027 120.597C336.312 121.038 338.679 120.634 340.689 119.459C347.844 115.395 350.06 104.488 345.018 97.9704C342.814 95.127 339.92 93.7328 336.236 94.1993C335.385 94.3068 335.11 94.7025 334.904 95.4834C333.332 101.564 332.579 107.828 332.663 114.108ZM357.935 97.0925C357.895 96.9871 357.843 96.8868 357.78 96.7937C353.044 91.7428 348.624 86.4041 344.544 80.8079C343.989 80.0427 343.665 80.4725 343.236 80.8368C339.849 83.7063 337.764 87.4302 336.194 91.5079C335.856 92.3832 336.241 92.3072 336.871 92.2941C341.647 92.1605 345.091 94.3906 347.493 98.4002C348.501 100.083 348.985 101.962 349.422 103.903C353.253 99.1863 353.868 98.6937 357.935 97.0925ZM261.283 23.1909C260.04 22.4572 259.006 21.8308 257.957 21.2333C257.544 20.9884 257.085 20.8313 256.608 20.7718C256.132 20.7123 255.649 20.7516 255.188 20.8874C252.095 21.74 249.001 22.5838 245.906 23.4189C245.673 23.4604 245.458 23.5734 245.292 23.7425C245.125 23.9115 245.015 24.1281 244.977 24.3624C244.454 26.6842 246.568 28.8174 248.853 28.1675C250.154 27.8242 251.415 27.3446 252.616 26.7366C255.301 25.2979 258.046 24.0138 261.283 23.2014V23.1909ZM393.244 122.326C393.244 119.719 391.674 117.759 389.196 117.282C388.576 117.161 386.723 118.175 386.608 118.765C386.451 119.577 386.213 120.426 386.315 121.221C386.673 123.988 386.903 126.766 387.081 129.549C387.131 130.335 387.45 130.372 388.081 130.097C390.941 128.833 393.26 125.366 393.244 122.326ZM329.931 97.5983C327.95 99.687 326.598 102.294 326.032 105.119C325.909 105.693 326.108 106.121 326.365 106.587C327.519 108.683 328.649 110.78 329.795 112.876C330.319 113.83 330.86 114.771 331.394 115.717C331.564 112.358 331.776 109.103 332.085 105.853C332.14 105.292 332.37 104.677 332.216 104.184C331.528 102.011 330.727 99.8625 329.931 97.5983ZM265.849 26.4353C265.203 25.9505 264.708 25.6701 264.321 25.2796C263.013 23.9693 261.558 23.9693 259.901 24.5275C257.928 25.1982 256.008 26.0164 254.157 26.9751C253.66 27.2372 252.804 27.2896 252.828 27.9998C252.851 28.71 253.513 29.1738 254.118 29.5433C254.427 29.754 254.779 29.893 255.148 29.9501C255.518 30.0072 255.895 29.981 256.253 29.8735C259.396 28.7886 262.515 27.6355 265.849 26.4353ZM373.17 110.243C373.213 111.423 373.13 112.605 372.924 113.767C372.785 114.428 372.995 114.669 373.693 114.748C377.493 115.185 381.282 115.681 385.077 116.155C385.435 116.199 385.893 116.454 385.951 115.785C385.998 115.243 385.579 115.308 385.25 115.261C382.762 114.846 380.352 114.057 378.1 112.921C376.48 112.106 374.913 111.194 373.17 110.243ZM325.886 107.504C325.127 112.373 328.037 118.152 331.952 119.533C330.468 115.371 327.937 111.731 325.886 107.504ZM346.075 117.318L346.114 117.245H346.054L346.075 117.318Z" fill="#241D2A"/>
<path d="M332.06 122.512C332.717 126.158 333.421 129.793 334.727 133.278C336.412 137.78 338.684 141.908 342.235 145.236C346.071 148.829 350.609 150.477 355.842 150.102C357.208 150.005 357.478 150.451 357.515 151.727C357.693 157.833 357.923 163.937 357.933 170.048C357.956 171.098 357.909 172.149 357.795 173.193C357.666 174.16 358.077 174.61 358.899 174.967C364.321 177.312 369.89 177.409 375.537 176.057C379.947 175.009 383.935 172.98 387.729 170.527C388.595 169.969 388.836 169.288 388.758 168.339C388.661 167.134 388.624 165.923 388.543 164.408C393.104 168.339 396.972 172.582 401.049 176.594C403.946 179.904 406.882 183.177 409.729 186.529C416.635 194.653 422.382 203.605 428.152 212.536C431.318 217.439 434.351 222.426 437.505 227.34C438.096 228.262 438.091 228.928 437.426 229.772C436.762 230.616 436.291 231.522 435.733 232.392C435.585 232.496 435.459 232.629 435.363 232.782C435.267 232.936 435.204 233.107 435.176 233.286C434.962 233.495 434.761 233.717 434.576 233.952C428.736 242.296 422.649 250.428 414.793 257.039C414.466 257.055 414.285 257.286 414.102 257.511C413.525 257.811 412.965 258.141 412.422 258.499C411.595 259.099 411.053 258.95 410.368 258.169C407.67 255.092 404.891 252.084 402.132 249.06C401.886 248.798 401.716 248.386 401.251 248.352C400.824 252.658 400.442 256.945 399.963 261.222C399.262 267.511 398.49 273.767 397.747 280.038C397.443 280.054 397.139 280.085 396.836 280.085H332.963C332.66 280.085 332.356 280.054 332.052 280.038C331.932 278.777 331.838 277.517 331.689 276.259C330.535 266.67 327.897 257.477 324.238 248.567C323.192 246.041 322.38 243.383 320.604 241.229C319.411 239.783 318.302 238.27 317.28 236.698C312.761 229.709 310.929 222.219 313.075 213.996C314.255 209.462 316.317 205.261 318.084 200.953C321.517 192.567 322.854 184.181 320.143 175.2C317.374 166.028 314.812 156.782 311.816 147.684C310.994 145.183 310.204 142.82 311.709 140.346C311.984 140.102 312.162 139.767 312.211 139.402C312.714 138.648 313.19 137.872 313.721 137.138C318.484 130.566 324.95 126.132 332.06 122.512ZM399.508 245.569C399.372 245.362 399.246 245.134 399.081 244.93C396.377 241.458 393.673 237.989 390.969 234.523C390.707 234.203 390.445 233.635 389.961 234.072C389.477 234.51 390.011 234.858 390.265 235.176C392.908 238.582 395.555 241.989 398.207 245.396C398.371 245.652 398.583 245.874 398.83 246.051C399.254 246.282 399.445 246.02 399.508 245.569Z" fill="#556DEE"/>
<path d="M157.007 92.5089C156.745 90.9366 156.517 89.4192 156.198 87.9307C155.936 86.6361 156.345 85.6927 157.444 85.0611C158.49 84.4584 159.692 84.7467 160.584 85.7818C161.476 86.817 162.379 87.915 163.258 88.9973C163.473 89.2992 163.774 89.5279 164.122 89.6526C164.471 89.7772 164.849 89.7918 165.205 89.6944C166.514 89.4166 167.859 89.2174 169.188 88.9921C170.559 88.7562 171.648 89.2541 172.124 90.3443C172.601 91.4345 172.302 92.5692 171.237 93.4733C170.274 94.2883 169.316 95.1138 168.319 95.8869C167.55 96.4818 167.231 97.1501 167.456 98.1459C167.754 99.4562 167.914 100.806 168.16 102.134C168.387 103.364 167.95 104.281 166.883 104.876C165.87 105.442 164.677 105.201 163.831 104.239C162.94 103.227 162.077 102.189 161.243 101.123C160.647 100.36 159.987 100.038 158.988 100.266C157.679 100.567 156.326 100.698 155.005 100.958C153.759 101.202 152.833 100.746 152.278 99.6816C151.723 98.6176 151.867 97.5458 152.801 96.7177C153.882 95.7716 154.997 94.8623 156.114 93.9581C156.63 93.5546 156.967 93.0855 157.007 92.5089ZM165.752 104.244C166.765 104.244 167.427 103.39 167.247 102.247C167.045 100.955 166.802 99.6685 166.543 98.387C166.284 97.1055 166.569 96.0809 167.634 95.2606C168.699 94.4403 169.644 93.5886 170.659 92.7605C171.334 92.2102 171.69 91.5786 171.269 90.7138C170.847 89.849 170.112 89.7416 169.275 89.8962C168.118 90.1058 166.956 90.284 165.81 90.5461C164.334 90.8868 163.193 90.5461 162.274 89.262C161.594 88.3055 160.78 87.4459 160.034 86.5313C159.511 85.8788 158.917 85.4228 158.014 85.8002C157.046 86.2037 156.967 86.9978 157.117 87.8704C157.334 89.1179 157.577 90.36 157.815 91.5996C158.053 92.8391 157.742 93.8952 156.659 94.6998C155.646 95.4519 154.704 96.3036 153.73 97.1081C153.079 97.6323 152.639 98.256 153.034 99.1444C153.453 100.09 154.246 100.172 155.128 100.012C156.284 99.8048 157.446 99.6134 158.595 99.3619C159.953 99.0657 161.063 99.3121 161.934 100.507C162.677 101.524 163.541 102.457 164.347 103.432C164.711 103.885 165.111 104.276 165.752 104.244Z" fill="#241D2A"/>
<path d="M441.468 167.33C448.515 167.351 454.073 172.527 454.505 179.123C454.755 182.382 453.749 185.612 451.693 188.15C449.638 190.689 446.689 192.341 443.453 192.769C440.218 193.196 436.942 192.365 434.3 190.448C431.657 188.53 429.849 185.671 429.247 182.459C429.119 181.765 428.64 180.525 429.443 180.397C430.338 180.255 429.967 181.547 430.092 182.176C431.299 187.829 435.823 191.752 441.465 191.941C444.168 192.024 446.816 191.17 448.962 189.523C451.107 187.876 452.619 185.537 453.241 182.902C454.351 178.332 453.121 174.296 449.577 171.188C445.958 168.012 441.774 167.401 437.262 169.091C437.185 169.131 437.106 169.166 437.024 169.196C436.647 169.285 436.176 169.849 435.912 169.233C435.648 168.617 436.349 168.512 436.744 168.334C438.224 167.651 439.838 167.308 441.468 167.33Z" fill="#241D2A"/>
<path d="M444.414 177.855C443.833 177.488 443.336 176.964 442.617 176.856C442.266 176.804 441.897 176.752 441.698 177.142C441.499 177.533 441.722 177.81 442.01 178.033C442.488 178.408 443.007 178.738 443.462 179.136C445.372 180.803 444.967 183.256 442.635 184.262C442.305 184.404 441.85 184.365 441.764 184.907C441.677 185.449 441.834 186.154 440.842 185.819C440.217 185.609 439.317 185.746 439.764 184.608C439.885 184.302 439.691 184.144 439.468 183.974C437.864 182.732 437.867 182.729 438.945 181.031C439.563 181.458 440.094 182.04 440.853 182.237C441.347 182.362 441.839 182.402 442.135 181.914C442.454 181.39 442.088 181.018 441.695 180.706C441.126 180.307 440.579 179.877 440.057 179.417C438.579 177.949 439.029 175.748 440.963 174.962C441.507 174.739 441.994 174.592 441.986 173.856C441.978 173.119 442.509 173.303 442.918 173.421C443.326 173.539 444.093 173.261 444.004 174.155C443.967 174.519 443.763 174.825 444.213 175.174C445.623 176.259 445.6 176.29 444.414 177.855Z" fill="#241D2A"/>
<path d="M441.733 189.705C441.037 189.684 440.338 189.705 439.671 189.464C439.263 189.317 438.53 189.417 438.729 188.715C438.896 188.114 439.456 188.502 439.849 188.586C443.821 189.414 447.621 187.661 449.513 184.097C450.151 182.855 450.494 181.482 450.515 180.085C450.515 179.734 450.364 179.178 450.981 179.212C451.599 179.246 451.379 179.789 451.392 180.143C451.554 185.282 447.066 189.721 441.733 189.705Z" fill="#241D2A"/>
<path d="M252.091 58.0242C252.091 61.5953 252.091 65.1672 252.091 68.7399C251.67 68.9417 251.601 69.3165 251.601 69.7279C251.601 70.1394 251.601 70.5141 251.601 70.9072V277.886C251.579 278.236 251.579 278.586 251.601 278.935C251.724 279.844 251.366 280.111 250.447 280.111C238.759 280.08 227.074 280.08 215.394 280.111C214.481 280.111 214.109 279.849 214.24 278.937C214.256 278.719 214.256 278.5 214.24 278.282V36.1918C214.24 35.7096 214.222 35.2274 214.266 34.7505C214.389 33.4218 215.313 32.447 216.653 32.4443C226.663 32.4181 236.636 32.4391 246.724 32.4391C246.289 33.6367 245.677 34.7007 245.918 35.9796C246.281 37.8743 247.386 39.064 249.149 39.7585C251.62 40.7307 251.609 40.7517 251.609 43.4274C251.609 47.7951 251.609 52.1628 251.609 56.5305C251.617 57.0467 251.45 57.6678 252.091 58.0242Z" fill="#556DEE"/>
<path d="M332.06 122.512C324.95 126.131 318.483 130.566 313.721 137.135C313.197 137.869 312.713 138.645 312.211 139.4C308.837 134.421 305.839 129.213 302.913 123.967C289.925 100.625 279.261 76.0594 271.076 50.6261C270.553 49.0118 270.029 47.3923 269.59 45.7544C269.422 45.1386 269.116 44.8686 268.514 44.8582C261.352 44.7297 255.362 40.8774 248.887 38.5975C247.056 37.9476 246.37 35.7672 247.09 33.9721C247.419 33.1033 248.079 32.4009 248.925 32.0191C249.771 31.6373 250.733 31.6074 251.601 31.9359C254.464 32.9841 257.222 34.3154 260.124 35.2143C263.113 36.1394 266.067 35.437 268.786 34.0114C269.888 33.4349 269.919 32.1979 269.707 31.0894C269.265 28.7492 267.902 26.9436 266.104 25.4891C263.694 23.5394 261.053 21.9225 258.355 20.4078C257.822 20.1084 257.233 19.9208 256.625 19.8564C256.017 19.792 255.402 19.8521 254.817 20.033C251.842 20.8585 248.83 21.5739 245.896 22.5278C243.96 23.1594 242.07 21.7679 241.618 20.1457C241.481 19.6942 241.435 19.2201 241.483 18.7508C241.531 18.2815 241.672 17.8264 241.897 17.4119C242.122 16.9974 242.426 16.6318 242.794 16.3363C243.161 16.0408 243.583 15.8214 244.036 15.6906C246.671 14.9412 249.377 14.4196 251.978 13.5758C254.378 12.7896 256.641 13.0517 259.007 13.6597C264.018 14.9543 269.058 16.1414 274.098 17.3285C274.8 17.4752 275.462 17.7729 276.038 18.2009C276.613 18.629 277.089 19.1772 277.432 19.8076C288.907 39.292 299.398 59.3214 310.321 79.1097C314.869 87.3463 319.331 95.6196 323.858 103.877C324.146 104.403 324.239 105.014 324.12 105.602C323.393 110.743 324.382 115.411 328.058 119.289C328.968 120.233 330.044 121.001 331.233 121.553C331.633 121.747 332.209 121.823 332.06 122.512Z" fill="#FEFEFE"/>
<path d="M346.082 117.609C345.762 120.45 345.485 123.296 345.103 126.126C344.985 127.002 345.179 127.3 346.055 127.329C346.932 127.358 347.871 127.536 348.78 127.644C349.099 127.683 349.449 127.672 349.478 127.269C349.507 126.865 349.193 126.789 348.858 126.758C348.523 126.726 348.254 126.671 347.953 126.624C346.003 126.323 345.998 126.32 346.233 124.313C346.529 121.823 346.835 119.334 347.259 116.834C347.874 118.513 348.421 120.17 349.353 121.676C353.377 128.207 361.233 129.491 367.113 124.559C369.289 122.787 370.928 120.443 371.847 117.79C372.237 116.645 372.755 116.404 373.894 116.569C377.513 117.093 381.153 117.486 384.78 117.939C385.282 118.002 385.827 117.989 385.712 118.823C384.827 125.6 383.053 132.062 379.015 137.709C373.962 144.772 366.925 148.271 358.431 149.057C353.833 149.489 349.374 149.243 345.367 146.554C341.599 144.025 339.034 140.5 337.077 136.486C335.075 132.379 333.937 128.008 333.183 123.519C333.034 122.615 333.047 122.253 334.23 122.447C338.281 123.11 341.646 121.582 344.535 118.82C344.969 118.406 345.365 117.953 345.775 117.51L346.082 117.609ZM360.474 135.039C363.588 134.814 366.001 133.359 367.802 130.846C368.008 130.553 368.403 130.165 367.951 129.827C367.498 129.489 367.289 130 367.077 130.293C365.441 132.586 363.261 133.933 360.425 134.138C360.066 134.164 359.64 134.174 359.681 134.646C359.723 135.118 360.121 135.068 360.482 135.039H360.474Z" fill="#FEFEFE"/>
<path d="M414.789 257.045C422.64 250.433 428.732 242.301 434.573 233.957C434.758 233.722 434.958 233.5 435.172 233.291C437.697 237.128 439.621 241.274 441.288 245.53C445.455 256.056 447.629 267.268 447.699 278.591C447.699 279.713 447.497 280.14 446.228 280.127C438.378 280.059 430.527 280.075 422.676 280.127C421.713 280.127 421.339 279.865 421.135 278.909C420.193 274.477 419.125 270.074 418.183 265.643C417.542 262.566 416.04 259.859 414.789 257.045Z" fill="#FEFEFE"/>
<path d="M385.66 124.578C386.1 126.373 386.077 127.953 386.184 129.507C386.909 140.482 387.333 151.476 387.581 162.472C387.626 164.437 387.675 166.403 387.764 168.363C387.793 169.023 387.662 169.458 387.042 169.862C381.958 173.148 376.543 175.488 370.428 175.923C366.768 176.226 363.088 175.666 359.683 174.288C358.953 173.989 358.743 173.609 358.759 172.844C358.916 165.554 358.722 158.266 358.332 150.983C358.283 150.029 358.67 149.935 359.426 149.851C366.916 149.031 373.296 145.999 378.239 140.207C381.903 135.907 384.09 130.865 385.441 125.424C385.488 125.228 385.54 125.034 385.66 124.578Z" fill="#FEFEFE"/>
<path d="M371.324 111.915C371.115 116.234 369.445 120.673 365.122 123.755C360.396 127.125 354.704 126.113 351.344 121.383C346.343 114.339 349.251 102.939 356.944 99.4668C357.101 99.3934 357.266 99.3358 357.421 99.2598C358.763 98.6125 359.799 98.6989 360.948 99.9333C363.591 102.771 366.564 105.277 369.649 107.638C371.332 108.927 371.324 108.938 371.324 111.915ZM353.024 108.995C352.999 109.518 353.068 110.041 353.228 110.539C353.435 111.147 353.731 111.676 354.396 111.823C355.154 111.991 355.649 111.501 356.01 110.948C356.889 109.603 357.167 108.128 356.609 106.592C356.086 105.161 354.874 105.004 353.943 106.197C353.344 107.006 353.022 107.988 353.024 108.995Z" fill="#FEFEFE"/>
<path d="M332.661 114.108C332.574 107.83 333.324 101.568 334.893 95.4885C335.1 94.7023 335.374 94.3118 336.225 94.2044C339.909 93.7379 342.804 95.1321 345.007 97.9755C350.05 104.488 347.833 115.395 340.679 119.465C338.669 120.639 336.301 121.043 334.016 120.602C332.97 120.411 332.637 119.923 332.653 118.954C332.679 117.347 332.661 115.722 332.661 114.108ZM341.519 104.815C341.534 104.305 341.439 103.797 341.239 103.327C340.695 102.043 339.619 101.851 338.687 102.863C337.703 103.935 337.35 106.382 337.994 107.69C338.58 108.88 339.622 109.037 340.48 108.02C341.213 107.158 341.503 106.115 341.519 104.815Z" fill="#FEFEFE"/>
<path d="M357.934 97.0924C353.867 98.6936 353.252 99.1889 349.424 103.906C348.987 101.956 348.503 100.077 347.495 98.4028C345.093 94.388 341.649 92.1631 336.873 92.2967C336.243 92.3151 335.858 92.3911 336.196 91.5105C337.766 87.4328 339.859 83.7089 343.238 80.8394C343.664 80.4751 343.989 80.0532 344.546 80.8105C348.626 86.4067 353.046 91.7454 357.782 96.7963C357.844 96.8887 357.895 96.9881 357.934 97.0924Z" fill="#FEFEFE"/>
<path d="M261.283 23.2015C258.046 24.0139 255.301 25.298 252.621 26.7367C251.421 27.3446 250.159 27.8242 248.858 28.1675C246.574 28.8279 244.459 26.6738 244.983 24.3624C245.021 24.1281 245.131 23.9115 245.297 23.7425C245.464 23.5735 245.678 23.4604 245.912 23.419C249.007 22.5874 252.101 21.7435 255.194 20.8875C255.654 20.754 256.137 20.7168 256.613 20.7781C257.088 20.8394 257.546 20.9979 257.957 21.2439C259.007 21.8414 260.04 22.4808 261.283 23.2015Z" fill="#FEFEFE"/>
<path d="M393.243 122.326C393.259 125.379 390.94 128.847 388.08 130.097C387.449 130.359 387.13 130.338 387.08 129.549C386.902 126.766 386.672 123.988 386.314 121.22C386.212 120.434 386.45 119.577 386.607 118.765C386.722 118.175 388.575 117.161 389.195 117.282C391.66 117.746 393.23 119.706 393.243 122.326Z" fill="#FEFEFE"/>
<path d="M329.933 97.5981C330.718 99.8624 331.529 102.011 332.218 104.194C332.372 104.687 332.142 105.303 332.087 105.864C331.778 109.113 331.563 112.368 331.396 115.728C330.873 114.782 330.32 113.841 329.797 112.887C328.651 110.79 327.52 108.681 326.366 106.597C326.105 106.131 325.911 105.704 326.034 105.13C326.598 102.301 327.95 99.6897 329.933 97.5981Z" fill="#FEFEFE"/>
<path d="M265.85 26.4353C262.519 27.6355 259.397 28.7938 256.254 29.8735C255.897 29.9829 255.52 30.0112 255.151 29.9564C254.781 29.9015 254.429 29.7649 254.119 29.5564C253.514 29.1869 252.852 28.7283 252.829 28.0129C252.805 27.2974 253.661 27.2424 254.158 26.9882C256.008 26.0251 257.927 25.2025 259.899 24.5274C261.556 23.9719 263.011 23.9561 264.319 25.2796C264.709 25.67 265.204 25.9504 265.85 26.4353Z" fill="#FEFEFE"/>
<path d="M373.168 110.243C374.911 111.194 376.478 112.109 378.098 112.916C380.349 114.05 382.759 114.837 385.245 115.251C385.575 115.303 385.993 115.251 385.946 115.775C385.889 116.443 385.423 116.189 385.072 116.144C381.28 115.67 377.483 115.175 373.689 114.737C372.99 114.659 372.781 114.417 372.919 113.757C373.126 112.598 373.209 111.42 373.168 110.243Z" fill="#FEFEFE"/>
<path d="M325.886 107.504C327.928 111.731 330.469 115.366 331.952 119.533C328.038 118.152 325.128 112.368 325.886 107.504Z" fill="#FEFEFE"/>
<path d="M346.072 117.319L346.051 117.237L346.111 117.245L346.072 117.319Z" fill="#FEFEFE"/>
<path d="M399.506 245.569C399.443 246.007 399.244 246.29 398.818 246.043C398.571 245.866 398.359 245.644 398.195 245.388C395.545 241.987 392.898 238.58 390.253 235.168C389.991 234.84 389.497 234.473 389.949 234.064C390.402 233.656 390.708 234.195 390.957 234.515C393.67 237.98 396.374 241.448 399.069 244.922C399.239 245.134 399.378 245.362 399.506 245.569Z" fill="#241D2A"/>
<path d="M165.753 104.244C165.115 104.27 164.707 103.88 164.345 103.432C163.539 102.457 162.676 101.524 161.933 100.507C161.061 99.312 159.952 99.0656 158.594 99.3618C157.445 99.6238 156.283 99.8047 155.126 100.012C154.25 100.172 153.457 100.09 153.033 99.1443C152.638 98.2559 153.077 97.6453 153.729 97.108C154.702 96.3035 155.644 95.4518 156.657 94.6997C157.74 93.8951 158.06 92.8652 157.814 91.5995C157.568 90.3337 157.332 89.1178 157.115 87.8703C156.963 86.9977 157.044 86.2036 158.013 85.8001C158.915 85.4227 159.502 85.8787 160.033 86.5312C160.779 87.4458 161.603 88.3054 162.273 89.2619C163.181 90.5381 164.332 90.8867 165.808 90.546C166.954 90.2839 168.116 90.1057 169.273 89.8961C170.11 89.7415 170.843 89.8542 171.267 90.7137C171.691 91.5733 171.333 92.2101 170.657 92.7604C169.642 93.5885 168.666 94.4638 167.632 95.2605C166.599 96.0572 166.282 97.1159 166.541 98.3869C166.8 99.6579 167.043 100.955 167.245 102.247C167.431 103.395 166.769 104.244 165.753 104.244Z" fill="#FEFEFE"/>
<path d="M360.484 135.039C360.133 135.068 359.699 135.105 359.68 134.636C359.662 134.166 360.065 134.153 360.423 134.127C363.26 133.923 365.44 132.576 367.076 130.283C367.288 129.989 367.46 129.452 367.95 129.816C368.439 130.18 368.007 130.542 367.8 130.836C366.011 133.359 363.598 134.814 360.484 135.039Z" fill="#241D2A"/>
<path d="M353.025 108.995C353.022 107.988 353.344 107.006 353.943 106.197C354.875 105.004 356.092 105.161 356.61 106.592C357.167 108.128 356.89 109.603 356.01 110.948C355.649 111.501 355.155 111.996 354.396 111.823C353.731 111.676 353.435 111.147 353.229 110.539C353.069 110.041 352.999 109.518 353.025 108.995Z" fill="#241D2A"/>
<path d="M341.522 104.815C341.506 106.126 341.216 107.158 340.475 108.02C339.617 109.037 338.576 108.88 337.989 107.69C337.346 106.38 337.699 103.935 338.683 102.863C339.614 101.851 340.69 102.043 341.234 103.327C341.437 103.796 341.535 104.304 341.522 104.815Z" fill="#241D2A"/>
</svg>
