<svg width="226" height="255" viewBox="0 0 226 255" fill="none" xmlns="http://www.w3.org/2000/svg">
<path d="M40.5893 110.732C14.0594 116.617 5.54289 155.019 5.37988 176.047C15.4863 177.025 36.4815 179.079 39.6113 179.47C42.741 179.861 40.9153 229.385 39.6113 254.488H142.794L134.97 188.273C142.631 185.175 158.443 178.101 160.399 174.58C162.844 170.179 125.679 121.766 116.876 116.387C113.617 114.395 106.805 112.336 97.8046 110.732V115.409C95.3595 117.854 88.2198 117.756 83.134 117.365C78.0482 116.973 71.2345 112.311 68.4634 110.029L68.9524 107.876C43.5234 109.051 50.3697 108.562 40.5893 110.732Z" fill="#DEE3FF"/>
<path d="M104.65 189.251L40.5884 192.674C36.8392 204.247 31.5904 227.59 40.5884 228.372C49.5863 229.155 87.0452 219.244 104.65 214.191C105.302 214.517 108.073 215.756 113.941 218.103C119.81 220.45 125.515 219.081 127.634 218.103C129.427 218.592 133.502 219.57 135.458 219.57C137.414 219.57 138.229 217.288 138.392 216.147L141.326 189.251C138.881 188.11 132.622 185.534 127.145 184.36C121.668 183.187 109.866 187.132 104.65 189.251Z" fill="white"/>
<path fill-rule="evenodd" clip-rule="evenodd" d="M109.296 0.210164C110.369 0.541406 110.963 0.880099 111.532 1.48446C112.12 2.1087 112.479 2.80476 112.782 3.9046C112.98 4.62153 113.002 4.93806 113.007 7.13356C113.011 9.01381 112.971 9.82771 112.833 10.7103C112.633 11.9869 112.038 14.76 111.844 15.3234L111.717 15.6899L110.962 14.3178C107.85 8.65992 106.124 4.10012 106.248 1.85684C106.293 1.02585 106.482 0.588499 106.946 0.241957C107.361 -0.0682228 108.351 -0.0816354 109.296 0.210164ZM132.682 13.3055C136.64 13.7615 139.864 15.5195 143.585 19.251C147.754 23.4308 150.669 28.7538 151.802 34.2569C152.574 38.0006 152.781 42.4375 152.355 46.0798C151.747 51.2865 149.936 55.8231 147.021 59.4428C146.15 60.5237 144.227 62.3763 143.101 63.2188L142.174 63.9121L142.23 64.36C142.479 66.3604 142.516 67.2268 142.406 68.5231C142.029 72.9627 140.238 76.8247 137.21 79.7262C135.69 81.1832 133.911 82.2737 132.075 82.8748C131.364 83.1075 129.711 83.4365 129.252 83.4365C129.125 83.4365 129.006 83.5116 128.977 83.6104C128.479 85.2686 125.151 98.3478 122.462 109.219C121.042 114.956 119.851 119.722 119.815 119.809C119.761 119.94 119.54 119.851 118.512 119.287C117.083 118.502 116.537 118.281 113.359 117.202C110.772 116.324 107.755 115.393 105.073 114.644C103.504 114.206 98.5865 112.944 98.4489 112.944C98.42 112.944 98.3963 113.565 98.3963 114.323C98.3963 116.279 98.4075 116.246 97.6176 116.6C96.112 117.273 93.6998 117.881 91.6372 118.105C89.5107 118.337 86.3446 118.194 84.0281 117.761C79.1669 116.854 74.1102 114.524 69.3512 110.999C68.7853 110.58 68.2866 110.205 68.2431 110.165C68.1995 110.125 68.2388 109.794 68.3303 109.429C68.4218 109.063 68.4649 108.732 68.426 108.693C68.2988 108.566 57.6459 108.615 55.7377 108.752C50.2961 109.143 44.5888 109.89 41.174 110.659C40.9575 110.707 40.7621 110.729 40.7397 110.707C40.6673 110.634 52.8219 74.4048 59.2383 55.568C65.1764 38.1354 66.606 34.1172 67.58 32.1208C71.1207 24.8647 79.1585 18.503 88.9138 15.2355C91.5314 14.3587 93.3663 14.0147 95.919 13.9222C100.933 13.7406 106.632 15.3016 111.311 18.1382L112.286 18.7289L114.006 17.8454C118.935 15.314 123.895 13.7363 128.307 13.2964C129.498 13.1777 131.611 13.1822 132.682 13.3055ZM13.5744 29.2644C13.8809 29.4261 14.2158 29.7092 14.3949 29.9582C14.8611 30.6061 14.858 31.0758 14.3698 33.8449L13.9516 36.2168L14.1347 36.621C14.2752 36.9313 14.7364 37.3727 16.1213 38.5224C17.1132 39.3459 18.0329 40.1649 18.1651 40.3424C19.0296 41.5031 18.54 43.1844 17.1698 43.7602C16.6794 43.9662 16.1902 43.9269 13.7259 43.4838C11.6212 43.1052 11.4134 43.0841 11.0477 43.2105C10.7156 43.3255 10.3973 43.6533 9.08197 45.2353C7.4444 47.2051 7.0078 47.6007 6.35626 47.7052C5.05818 47.9133 3.66815 46.791 3.66626 45.5334C3.66606 45.4241 3.84364 44.3511 4.06075 43.1489C4.48396 40.8053 4.52271 40.3693 4.34285 39.9736C4.27943 39.8341 3.38425 39.0198 2.35341 38.1641C1.32266 37.3084 0.371323 36.4489 0.239227 36.2541C0.0340118 35.9512 -0.000671387 35.784 0.000717163 35.1032C0.00259399 34.1892 0.200485 33.7265 0.791855 33.2528C1.49956 32.686 1.7955 32.6773 4.43073 33.1454C7.0491 33.6106 7.21925 33.6249 7.6281 33.4129C7.78555 33.3312 8.6311 32.3961 9.50706 31.3348C11.2852 29.1802 11.527 28.9912 12.5045 28.9912C12.915 28.9912 13.1892 29.0612 13.5744 29.2644ZM12.0042 29.895C11.7789 29.9737 11.2373 30.5514 10.0556 31.9732C7.77318 34.7194 7.9778 34.6483 4.29123 33.9752C1.81148 33.5224 1.60756 33.531 1.10219 34.1081C0.726929 34.5365 0.623077 35.0367 0.807083 35.5279C0.914993 35.8157 1.35446 36.2391 2.81793 37.4651C3.84798 38.3279 4.79105 39.1702 4.91351 39.3366C5.39827 39.9955 5.40324 40.3675 4.9604 42.8631C4.50023 45.4568 4.4805 45.7828 4.75705 46.2315C5.1017 46.7906 5.96736 47.0411 6.58311 46.7597C6.72154 46.6965 7.54565 45.7855 8.41467 44.735C9.28371 43.6846 10.1592 42.7233 10.3602 42.5987C10.9657 42.2235 11.4855 42.2382 14.1112 42.7044L16.5148 43.1312L16.9013 42.9414C17.6468 42.5753 17.9772 41.5907 17.5768 40.9288C17.489 40.7837 16.769 40.1286 15.9766 39.4729C13.8967 37.7515 13.5655 37.437 13.3636 36.9912C13.1064 36.4238 13.1283 36.0766 13.5822 33.519C13.8255 32.1482 13.9625 31.1136 13.9265 30.921C13.7693 30.0814 12.8598 29.5959 12.0042 29.895ZM111.029 40.4852C100.966 49.4412 91.0203 54.7272 83.1517 55.3018L82.2257 55.3693L81.9814 55.9654C81.5104 57.115 80.477 60.3522 80.0787 61.9266C79.222 65.3116 78.8753 67.8026 78.8065 71.0671C78.7325 74.5773 79.0435 77.134 79.9064 80.1115C82.0565 87.5297 87.3879 93.5147 95.4236 97.5308C97.1094 98.3733 98.2963 98.804 99.8827 99.1488C100.777 99.3432 101.216 99.3754 103.004 99.3775C105.354 99.3803 106.339 99.2349 108.402 98.5799C114.277 96.7147 120.089 92.1242 125.059 85.4235C126.121 83.9916 126.569 83.3347 126.517 83.2827C126.495 83.2604 126.088 83.1292 125.612 82.9912C121.598 81.8247 118.596 78.3451 117.473 73.5542L117.264 72.6632L115.546 77.4289C114.602 80.0501 113.801 82.2239 113.767 82.2597C113.733 82.2956 112.846 82.0334 111.796 81.677C109.887 81.0297 109.615 80.8749 109.752 80.5166C109.874 80.198 110.209 80.2399 111.688 80.7588C112.546 81.0596 113.207 81.2418 113.256 81.1904C113.355 81.0855 116.938 71.1951 116.894 71.1504C116.877 71.1335 116.644 71.4191 116.376 71.7849C116.108 72.1507 115.487 72.8547 114.996 73.3494C110.943 77.4285 105.695 78.541 101.121 76.29C95.3303 73.4401 92.739 65.7249 95.0958 58.3499C95.8743 55.9135 97.2688 53.5269 98.9491 51.7551C102.972 47.5134 108.323 46.2523 112.933 48.46C115.309 49.598 116.997 51.2862 118.302 53.8294C119.199 55.5793 119.665 57.1596 119.897 59.2441C119.952 59.7359 119.997 60.1756 119.997 60.2214C119.998 60.2671 120.271 59.935 120.605 59.4834C123.257 55.8978 127.475 53.6816 131.319 53.8549C131.878 53.8801 132.285 53.8597 132.285 53.8064C132.285 53.498 131.138 50.7109 130.352 49.1101C128.772 45.8913 127.266 43.7302 125.053 41.5042C122.624 39.0607 120.051 37.3618 116.926 36.1381L115.985 35.7695L114.299 37.4224C113.372 38.3316 111.9 39.7098 111.029 40.4852ZM106.007 49.3427C101.131 50.6448 97.4827 54.8438 96.1957 60.635C95.8982 61.9736 95.8683 65.4352 96.1432 66.7113C97.2759 71.9703 100.758 75.401 105.312 75.7458C107.495 75.911 110.09 75.1062 112.17 73.6184C115.049 71.5593 117.244 67.9708 118.041 64.0187C118.225 63.1056 118.263 62.593 118.263 60.9828C118.264 58.9098 118.169 58.2204 117.654 56.574C116.461 52.7626 113.652 50.0056 110.188 49.2466C109.071 49.0019 107.115 49.0468 106.007 49.3427ZM74.6078 52.894C73.0193 53.3589 71.8029 54.6587 71.129 56.6112C70.8125 57.5282 70.8033 57.6004 70.807 59.1447C70.8105 60.5855 70.8361 60.8165 71.0798 61.6128C71.81 63.9969 73.1481 65.7141 74.9648 66.5981C75.8003 67.0046 76.8255 67.2006 77.6028 67.1022C78.2519 67.02 78.1601 67.2136 78.5272 65.1556C78.9243 62.9299 79.5324 60.5704 80.3159 58.2161L81.0309 56.0674L80.6579 55.5166C80.2059 54.8493 79.1516 53.8427 78.5061 53.4622C77.3276 52.7678 75.7999 52.545 74.6078 52.894ZM133.395 54.8428C133.33 54.9083 133.276 55.0593 133.276 55.1785C133.276 55.4011 133.291 55.4096 134.317 55.7707C137.464 56.879 139.76 59.5813 140.729 63.3176C140.94 64.1311 140.983 64.2144 141.214 64.2416C141.682 64.2966 141.753 64.0589 141.544 63.1415C141.025 60.8631 139.558 58.3157 137.976 56.9472C136.888 56.0054 135.914 55.4388 134.564 54.9625C133.825 54.7016 133.563 54.6748 133.395 54.8428ZM129.347 55.6672C126.414 56.2298 123.889 57.884 121.891 60.5528C119.856 63.2698 118.772 66.586 118.779 70.0735C118.783 72.3069 119.255 74.4075 120.154 76.1996C121.576 79.033 124.095 81.0547 126.852 81.5767L127.611 81.7205L128.355 80.4672C130.522 76.8152 132.46 72.6027 134.166 67.8381L134.682 66.3975L134.616 65.4536C134.519 64.0735 134.212 61.7293 133.919 60.1383C133.624 58.5305 132.993 55.909 132.869 55.7737C132.631 55.5128 130.489 55.448 129.347 55.6672ZM111.492 63.0219C111.637 63.1008 111.86 63.3337 111.987 63.5395C112.197 63.8767 112.219 64.0265 112.215 65.0562C112.211 66.0719 112.181 66.2705 111.94 66.8446C111.38 68.1768 110.614 68.9374 109.76 69.0077C109.337 69.0424 109.197 69.0104 108.962 68.8244C108.509 68.4661 108.31 67.9071 108.308 66.9868C108.301 64.5271 110.113 62.2709 111.492 63.0219ZM139.318 65.5962C138.693 65.9205 137.515 66.4604 136.7 66.7958L135.219 67.4057L134.512 69.2861C133.491 71.9999 132.617 74.0304 131.335 76.6586C130.396 78.5854 130.147 79.1957 129.847 80.314C129.648 81.0523 129.505 81.6753 129.528 81.6983C129.607 81.7782 131.347 81.3705 132.019 81.1145C137.385 79.0715 141.052 72.9639 140.778 66.528C140.721 65.2102 140.672 64.9108 140.522 64.9764C140.485 64.993 139.942 65.2719 139.318 65.5962ZM123.531 68.8301C124.528 69.0921 125.577 69.5481 126.515 70.1266C127.766 70.8986 128.001 71.3547 127.438 71.9192C127.049 72.3091 126.786 72.2861 126.033 71.7969C124.781 70.9827 123.137 70.3219 122.363 70.3219C122.215 70.3219 121.957 70.2062 121.789 70.0647C121.395 69.7323 121.37 69.2359 121.728 68.8768C122.028 68.5753 122.514 68.5628 123.531 68.8301ZM77.6927 73.1535C77.2168 75.4407 73.4805 91.5024 70.7054 103.191C69.8579 106.76 69.1663 109.711 69.1684 109.748C69.1771 109.899 72.2738 112.021 73.7432 112.883C81.2112 117.264 89.4164 118.518 95.9837 116.281C97.6279 115.722 97.5045 115.843 97.5045 114.781C97.5045 112.66 98.1903 101.873 98.4426 100.027L98.4903 99.6774L97.4771 99.3351C96.3638 98.959 93.8239 97.7046 92.3517 96.804C85.5325 92.6322 81.1795 87.2459 79.1373 80.4526C78.4857 78.2853 77.9836 75.1538 77.9836 73.2584C77.9836 72.2773 77.8826 72.2408 77.6927 73.1535ZM91.5095 76.9679C93.0336 77.4139 94.1767 78.3367 94.7705 79.6006C95.1674 80.4454 95.2945 80.9442 95.3814 81.9985C95.4408 82.7173 95.428 82.8077 95.2441 82.9735C94.9928 83.2001 94.6491 83.114 94.5874 82.8089C94.5634 82.6897 94.523 82.2343 94.4978 81.7972C94.3722 79.6255 93.0126 78.0768 90.8811 77.6775C90.2971 77.5681 90.0995 77.3656 90.2511 77.0319C90.3891 76.7285 90.6464 76.7155 91.5095 76.9679ZM185.183 93.29C186.25 93.4241 187.977 93.8846 189.163 94.3515C193.094 95.8978 196.266 98.9637 198.275 103.158C202.345 111.654 201.467 124.151 195.959 136.1C190.36 148.249 180.703 158.208 170.633 162.218C167.572 163.438 165.017 163.997 162.111 164.083C160.229 164.139 158.923 164.043 157.603 163.754C157.222 163.67 156.749 163.577 156.554 163.547L156.199 163.493L149.404 175.153C145.667 181.566 142.405 187.146 142.154 187.553C141.904 187.961 141.733 188.322 141.773 188.356C141.814 188.39 143.408 188.902 145.316 189.492C147.223 190.083 149.049 190.699 149.373 190.861C151.128 191.742 152.224 193.914 151.917 195.901C151.629 197.762 150.306 199.274 148.4 199.918C148.237 199.973 148.269 200.039 148.664 200.462C150.022 201.917 150.302 204.112 149.367 205.962C149.01 206.667 148.055 207.639 147.344 208.019C146.543 208.447 145.51 208.656 144.593 208.576L143.871 208.513L144.11 208.989C144.573 209.909 144.681 210.937 144.422 211.953C144.046 213.429 143.194 214.505 141.923 215.109C141.279 215.414 141.204 215.427 140.002 215.427H138.751L138.7 216.221C138.615 217.544 138.022 218.669 137.02 219.409C136.137 220.06 135.48 220.281 134.416 220.283C133.565 220.285 133.391 220.243 130.611 219.366L127.698 218.446L126.895 218.848C125.177 219.708 123.525 219.998 120.792 219.92C118.81 219.864 117.95 219.74 115.752 219.194C112.912 218.489 110.302 217.471 106.847 215.717L104.645 214.6L103.676 214.894C92.0314 218.431 76.0125 222.565 64.3091 225.052C52.6331 227.534 43.9893 228.838 35.6239 229.382C33.592 229.514 28.3436 229.513 26.8032 229.381C23.3028 229.079 20.6816 228.416 18.7576 227.344C17.7704 226.795 16.5953 225.573 16.071 224.551C12.9302 218.431 10.9458 204.127 10.3049 182.988C10.251 181.212 10.2067 179.378 10.2063 178.912L10.2055 178.065L10.592 178.102L10.9786 178.139L11.0343 179.545C11.0649 180.318 11.1384 182.583 11.1977 184.578C11.7622 203.589 13.7782 218.063 16.6706 223.872C17.4361 225.409 18.1848 226.146 19.7677 226.919C23.312 228.652 29.9091 229.12 38.991 228.285C53.9993 226.904 78.2034 221.59 102.398 214.364L104.765 213.657L105.718 214.177C110.32 216.686 114.814 218.33 118.66 218.911C120.387 219.171 122.786 219.15 124.16 218.861C125.281 218.625 126.381 218.224 127.024 217.817C127.245 217.677 127.501 217.563 127.592 217.563C127.684 217.563 129.056 217.974 130.641 218.476C133.364 219.339 133.574 219.39 134.416 219.395C135.197 219.4 135.377 219.366 135.869 219.124C136.583 218.773 137.159 218.195 137.509 217.48C137.731 217.026 137.791 216.753 137.817 216.072C137.839 215.481 137.809 215.178 137.718 215.061C137.646 214.97 136.65 214.56 135.506 214.151C132.478 213.068 132.31 213 132.245 212.833C132.159 212.607 132.362 212.297 132.596 212.297C132.708 212.297 134.055 212.751 135.59 213.305C137.124 213.859 138.69 214.401 139.07 214.509C141.277 215.136 143.3 213.79 143.666 211.452C143.86 210.214 143.363 208.871 142.452 208.175C142.269 208.035 140.995 207.518 139.607 207.021C138.224 206.526 137.034 206.073 136.963 206.014C136.752 205.838 136.857 205.397 137.118 205.36C137.242 205.342 138.476 205.734 139.86 206.231C143.845 207.66 144.166 207.748 145.217 207.705C146.636 207.646 147.662 207.079 148.425 205.933C149.468 204.366 149.268 202.237 147.951 200.88C147.691 200.614 147.305 200.308 147.091 200.2C146.79 200.048 142.817 198.819 140.536 198.172C140.017 198.025 139.872 197.484 140.315 197.343C140.415 197.311 141.997 197.735 143.832 198.286L147.167 199.287L147.771 199.177C149.082 198.939 150.142 198.132 150.738 196.919C151.046 196.291 151.063 196.198 151.063 195.161C151.063 194.152 151.04 194.019 150.774 193.474C150.43 192.771 149.884 192.151 149.247 191.743C148.928 191.538 147.392 191.01 144.319 190.048C141.863 189.28 139.8 188.651 139.734 188.651C139.669 188.651 136.751 187.77 133.25 186.694L126.885 184.737L124.705 184.744C122.365 184.751 120.581 184.911 118.195 185.328C114.299 186.008 109.52 187.504 105.857 189.188L104.846 189.654L73.2101 191.426C55.8101 192.401 41.5164 193.176 41.446 193.149C41.3758 193.122 41.2968 193.004 41.2705 192.887C41.2311 192.712 40.4282 181.295 40.4282 180.909C40.4282 180.834 40.5024 180.812 40.6263 180.852C40.7809 180.901 40.8245 180.87 40.8245 180.71C40.8245 180.459 41.0806 180.438 41.2043 180.678C41.2536 180.774 41.4655 183.391 41.6754 186.495C41.8853 189.598 42.0807 192.174 42.1096 192.219C42.1385 192.264 56.2307 191.508 73.4254 190.54L104.689 188.78L105.481 188.408C108.732 186.879 113.331 185.392 117.174 184.628C119.689 184.128 121.261 183.969 124.209 183.916L126.984 183.866L129.709 184.709C131.208 185.172 132.465 185.522 132.503 185.487C132.582 185.413 148.239 158.56 148.31 158.377C148.335 158.312 148.158 157.999 147.915 157.682C143.599 152.052 142.197 143.734 143.932 134.057C145.194 127.021 148.214 119.718 152.59 113.119C159.915 102.074 170.24 94.5846 179.879 93.3258C181.162 93.1582 183.984 93.1393 185.183 93.29ZM180.129 101.121C171.583 101.954 162.113 109.729 155.946 120.973C153.161 126.051 151.313 131.626 150.652 136.938C150.443 138.617 150.415 142.244 150.601 143.644C151.488 150.358 154.72 154.665 159.777 155.869C167.133 157.62 176.972 152.172 184.252 142.315C189.333 135.436 192.564 127.537 193.441 119.849C193.6 118.456 193.6 114.854 193.441 113.689C192.855 109.392 191.496 106.303 189.241 104.143C186.823 101.826 183.657 100.776 180.129 101.121ZM181.811 104.817C181.965 104.972 181.963 105.243 181.806 105.37C181.738 105.426 181.415 105.526 181.088 105.593C178.571 106.111 174.623 107.858 171.888 109.666C168.235 112.081 165.43 114.871 163.043 118.464C162.621 119.1 162.21 119.646 162.13 119.676C161.932 119.753 161.672 119.572 161.636 119.333C161.6 119.089 162.864 117.153 163.993 115.726C165.052 114.388 167.611 111.821 168.949 110.756C172.165 108.196 176.324 106.03 179.919 105.042C181.263 104.673 181.624 104.63 181.811 104.817ZM129.106 155.904C129.169 155.98 130.223 161.329 131.448 167.791C133.544 178.845 133.666 179.552 133.51 179.724C133.312 179.944 133.047 179.961 132.885 179.765C132.797 179.659 128.331 156.532 128.323 156.145C128.32 156.011 128.637 155.765 128.812 155.765C128.911 155.765 129.043 155.828 129.106 155.904ZM39.8698 161.354C39.9708 161.515 40.1915 163.816 40.6633 169.624C41.3106 177.591 41.315 177.672 41.1245 177.863C40.9641 178.024 40.8913 178.037 40.688 177.945C40.487 177.853 40.4333 177.74 40.3844 177.306C40.2701 176.293 39.14 162.17 39.14 161.755C39.14 161.443 39.1887 161.31 39.3316 161.233C39.6129 161.082 39.7141 161.105 39.8698 161.354ZM214.154 177.4C214.5 177.603 215.009 178.156 216.138 179.56C217.242 180.932 217.761 181.499 218.037 181.635L218.417 181.823L220.958 181.401C223.129 181.041 223.558 180.995 223.905 181.089C224.463 181.24 224.922 181.571 225.275 182.075C225.52 182.423 225.58 182.621 225.611 183.175C225.676 184.325 225.566 184.461 222.706 186.783C221.742 187.565 221.261 188.025 221.132 188.29L220.946 188.671L221.375 191.278L221.803 193.886L221.623 194.359C221.253 195.331 220.454 195.906 219.479 195.902C218.417 195.897 218.241 195.751 216.166 193.138C215.243 191.977 214.877 191.591 214.535 191.419L214.093 191.196L211.562 191.612C208.932 192.044 208.698 192.05 208.04 191.707C206.859 191.089 206.529 189.242 207.426 188.268C207.546 188.137 208.411 187.408 209.349 186.648C211.111 185.219 211.421 184.913 211.524 184.503C211.557 184.371 211.401 183.137 211.177 181.762C210.753 179.159 210.747 178.925 211.093 178.256C211.632 177.212 213.121 176.796 214.154 177.4ZM212.452 178.095C212.002 178.322 211.657 178.846 211.658 179.302C211.659 179.499 211.815 180.576 212.004 181.696C212.395 184.01 212.421 184.562 212.166 185.124C211.954 185.59 211.721 185.807 209.65 187.459C207.903 188.852 207.621 189.219 207.743 189.94C207.859 190.634 208.431 191.136 209.101 191.134C209.28 191.133 210.342 190.977 211.459 190.787C213.727 190.402 214.272 190.37 214.803 190.592C215.312 190.806 215.373 190.869 216.993 192.874C217.788 193.857 218.507 194.717 218.59 194.785C219.165 195.25 220.049 195.148 220.566 194.558C220.968 194.099 220.965 193.85 220.518 191.201C220.313 189.988 220.181 188.903 220.205 188.638C220.283 187.782 220.506 187.517 222.564 185.842C223.647 184.96 224.565 184.135 224.663 183.956C224.984 183.365 224.817 182.644 224.247 182.164C223.824 181.806 223.495 181.814 220.972 182.243C218.526 182.658 218.242 182.667 217.603 182.342C217.195 182.135 216.858 181.775 215.567 180.165C214.608 178.969 213.9 178.177 213.706 178.081C213.292 177.877 212.876 177.881 212.452 178.095ZM159.177 180.626C160.905 183.726 163.23 189.572 164.331 193.581C165.294 197.086 165.68 199.593 165.75 202.779C165.806 205.338 165.736 206.351 165.381 208.083C164.404 212.863 157.603 228.353 146.626 250.796L144.783 254.205L165.062 254.23C180.882 254.249 186.156 254.284 186.26 254.371C186.337 254.434 186.386 254.602 186.369 254.743L186.339 255H96.9595H7.57956L7.54716 254.771C7.52943 254.645 7.56825 254.477 7.63365 254.398C7.737 254.274 16.5734 254.255 75.7 254.255H143.648C143.567 253.216 144.953 252.345 145.567 251.094C155.347 231.183 162.616 214.887 164.236 209.237C164.812 207.231 164.936 206.201 164.935 203.455C164.933 200.875 164.822 199.726 164.329 197.195C163.429 192.582 161.44 186.996 158.85 181.812L158.156 180.423L158.375 180.282C158.495 180.205 158.647 180.111 158.712 180.073C158.787 180.028 158.954 180.226 159.177 180.626Z" fill="#C0C6CE"/>
</svg>
