<svg width="408" height="343" viewBox="0 0 408 343" fill="none" xmlns="http://www.w3.org/2000/svg">
<path d="M267.868 117.563C284.809 124.281 303.161 174.032 310.22 198.068C308.029 201.719 301.805 206.444 296.893 209.569C292.877 212.125 281.072 215.837 275.352 217.054L271.884 274.923L189.918 277.478L164.726 245.897L174.584 200.989L171.298 205.736C171.541 206.101 170.787 205.663 165.821 200.989C160.856 196.316 151.035 182.369 149.027 164.479C150.67 162.471 156.183 155.826 165.091 145.311C176.227 132.167 188.5 120.474 196.307 117.563C200.5 116 208.964 115.312 214.563 114.825L216.753 127.603C216.571 127.725 217.63 128.188 223.325 129.064C230.445 130.159 238.112 126.326 242.676 123.405C246.327 121.068 248.822 116.711 249.613 114.825C248.639 112.938 250.927 110.845 267.868 117.563Z" fill="#DEE3FF"/>
<path fill-rule="evenodd" clip-rule="evenodd" d="M224.783 0.135255C226.24 0.320673 228.218 0.844171 229.815 1.46735C237.558 4.48882 243.944 11.7465 247.216 21.2428C248.487 24.9349 249.093 27.8793 249.882 34.2191C250.329 37.8126 250.36 38.2871 250.364 41.641C250.368 45.3469 250.214 47.0879 249.559 50.7041L249.331 51.9616L249.986 52.3807C251.404 53.2882 252.609 55.0847 253.082 57.0002C253.349 58.0813 253.383 60.6081 253.145 61.7312C252.527 64.6513 251.067 67.3977 248.971 69.5847C247.348 71.2779 245.576 72.3847 243.727 72.8599C242.768 73.1063 241.247 73.1095 240.336 72.8672C239.953 72.7651 239.632 72.6938 239.624 72.7088C239.598 72.7576 250.505 112.391 250.791 113.288L251.07 114.159L250.704 114.881C250.502 115.279 249.996 116.122 249.578 116.755C245.357 123.155 238.916 127.642 231.949 129.038C228.271 129.775 224.549 129.817 220.688 129.164C219.103 128.896 216.29 128.21 216.203 128.07C216.164 128.007 215.646 124.888 215.052 121.14C213.131 109.024 212.174 102.937 212.176 102.857C212.178 102.813 211.934 102.828 211.635 102.889C210.61 103.099 207.304 103.169 205.938 103.009C197.701 102.049 189.74 96.3605 183.271 86.812C179.49 81.2328 176.383 74.2888 174.683 67.6175C173.949 64.7416 171.931 54.0483 171.482 50.6627C171.402 50.0646 171.328 49.5691 171.316 49.5618C171.304 49.5545 170.718 49.4186 170.015 49.2599C161.186 47.2693 155.079 41.5102 153.069 33.2781C151.808 28.1152 152.414 22.3596 154.72 17.5782C157.561 11.6887 162.521 7.73332 168.809 6.34249C172.913 5.43472 177.721 5.4973 182.939 6.5265C187.558 7.4376 193.795 9.53031 197.597 11.445L198.506 11.9029L199.809 10.6486C204.862 5.7838 210.921 2.18638 216.47 0.75562C219.171 0.0592445 222.331 -0.176592 224.783 0.135255ZM109.943 22.0562C111.392 22.5901 112.635 23.7418 113.156 25.0333L113.455 25.7736V41.0652C113.455 55.4173 113.441 56.3921 113.228 56.9326C112.654 58.3856 111.527 59.5061 110.099 60.0427C109.382 60.3122 109.144 60.3227 102.194 60.3927C98.2529 60.4324 95.0158 60.4762 95.0007 60.4902C94.9855 60.5042 94.7637 60.6995 94.5077 60.9243C94.2518 61.149 92.8292 62.9091 91.3465 64.8356C88.533 68.4913 88.1857 68.8332 87.2875 68.8332C86.58 68.8332 86.0487 68.4995 85.3178 67.5958C84.9289 67.1151 83.6148 65.4277 82.3976 63.8462C80.7842 61.7497 80.0458 60.8922 79.6727 60.6812L79.1608 60.3918L72.6987 60.3888C68.8374 60.387 65.9018 60.3318 65.4048 60.252C63.3189 59.9166 61.8261 58.627 61.2567 56.6685C61.0816 56.066 61.0557 55.2911 61.0844 51.5015C61.1152 47.4164 61.1367 47.0315 61.3419 46.9021C61.5051 46.7992 61.6267 46.7991 61.7898 46.902C61.9943 47.0308 62.0193 47.4421 62.0778 51.6359C62.1383 55.9839 62.1563 56.2603 62.4152 56.8202C62.7902 57.6314 63.5346 58.4213 64.309 58.83L64.9569 59.172L72.1229 59.2359L79.2888 59.2999L80.0271 59.6624C80.8725 60.0775 80.808 60.0046 84.0518 64.214C85.3752 65.9314 86.6098 67.4498 86.7951 67.5881C87.4404 68.0699 87.6425 67.8838 90.5244 64.1534C91.9885 62.2582 93.3637 60.5241 93.5804 60.3001C93.797 60.0761 94.2691 59.7594 94.6293 59.5963C95.2827 59.3006 95.3005 59.2998 102.386 59.2359C108.823 59.178 109.535 59.1507 109.99 58.9453C110.847 58.5583 111.554 57.8793 111.974 57.0395L112.367 56.252L112.366 41.0767L112.365 25.9015L112.053 25.2314C111.633 24.3301 110.742 23.4866 109.86 23.1567C109.152 22.8917 109.135 22.8916 87.054 22.925L64.9569 22.9584L64.4073 23.2518C63.5602 23.7042 62.8881 24.3817 62.4975 25.1771L62.1417 25.9015L62.105 32.0806L62.0684 38.2597L61.7569 38.4016C61.5206 38.5094 61.3983 38.5044 61.2498 38.3811C61.0791 38.2395 61.054 37.4424 61.054 32.1696C61.054 26.4959 61.0698 26.0699 61.3078 25.3071C61.6217 24.3016 62.3165 23.3699 63.2269 22.7339C64.5542 21.8066 62.7712 21.8697 87.3418 21.8797C105.262 21.8869 109.575 21.9207 109.943 22.0562ZM85.8251 31.7918C85.8251 32.9618 85.7956 33.1492 85.6012 33.2135C84.7948 33.4799 83.9283 34.0428 83.3302 34.6889C82.4112 35.6815 82.078 36.5565 82.0674 38.0061C82.0602 38.996 82.1006 39.1896 82.4738 39.9474C83.1695 41.3606 84.4008 42.2903 86.996 43.3615C87.5414 43.5867 88.1789 43.9637 88.4355 44.2131C88.8298 44.5961 88.8962 44.7433 88.8962 45.236C88.8962 45.6718 88.8222 45.8855 88.5911 46.1166C87.6851 47.0226 85.499 46.7663 83.696 45.5426C83.2899 45.267 82.9393 45.0599 82.9168 45.0824C82.8943 45.105 82.5872 45.9215 82.2341 46.897L81.5925 48.6704L81.8853 48.9004C82.468 49.3578 83.9976 50.0383 84.7747 50.1861L85.5692 50.3371V51.6514V52.9657H87.4247H89.2802V51.5647V50.1636L90.1403 49.7531C91.2076 49.2437 92.1778 48.2953 92.6786 47.2714C93.0249 46.5639 93.0543 46.393 93.0547 45.096C93.055 43.7885 93.027 43.6293 92.6605 42.8567C92.0047 41.4736 91.2221 40.8215 88.8172 39.6542C86.1969 38.3825 85.7643 37.8849 86.5182 37.0095C86.8134 36.6664 86.8778 36.6504 87.9578 36.6504C89.0386 36.6504 89.1387 36.6755 90.2399 37.2212C90.8733 37.535 91.4212 37.8089 91.4577 37.8298C91.5181 37.8643 92.6798 34.836 92.7633 34.4268C92.8147 34.174 91.1588 33.2992 90.2399 33.0938L89.4721 32.9224L89.4355 31.6833L89.3989 30.4442H87.612H85.8251V31.7918ZM210.135 38.6296C205.932 41.7217 198.027 45.3246 188.889 48.3126C184.911 49.6134 178.762 50.2873 174.386 49.9023C173.412 49.8167 172.579 49.7832 172.534 49.8278C172.223 50.1386 175.082 65.2789 176.153 68.9995C180.299 83.3873 189.534 95.7063 199.477 100.111C205.793 102.909 211.94 102.702 218.535 99.4704C225.066 96.2702 230.889 90.2334 234.633 82.7812C237.04 77.9893 238.488 73.2544 239.249 67.6815C239.36 66.8721 239.482 64.7991 239.52 63.0748C239.593 59.827 239.453 57.9985 238.971 55.8795L238.774 55.0132H237.564C235.216 55.0132 232.42 54.5754 230.2 53.8602C228.589 53.3409 225.672 51.8686 224.312 50.8877C221.248 48.678 218.762 45.9619 216.69 42.5607C215.767 41.0461 214.333 38.1065 213.828 36.6934L213.431 35.5849L212.325 36.7084C211.717 37.3263 210.731 38.1909 210.135 38.6296ZM206.804 51.3725C207.959 51.6943 208.398 51.958 208.444 52.3587C208.503 52.8717 208.196 52.9245 207.14 52.5831C205.468 52.043 204.01 52.0831 201.845 52.7286C201.367 52.8711 201.274 52.8647 201.086 52.6772C200.699 52.2897 201.027 51.8997 202.025 51.561C203.169 51.1726 205.724 51.0719 206.804 51.3725ZM244.617 52.6059C243.32 52.8814 241.086 54.1228 240.232 55.0423C239.947 55.3485 239.945 55.3738 240.124 56.2398C240.878 59.8887 240.808 65.304 239.945 70.0888C239.81 70.8388 239.741 71.494 239.792 71.5451C239.843 71.5962 240.259 71.7337 240.715 71.8509C242.925 72.4177 245.419 71.5089 247.722 69.2974C249.108 67.9675 249.892 66.9185 250.755 65.2395C251.783 63.2418 252.119 61.9879 252.195 59.8758C252.291 57.1779 251.788 55.609 250.337 54.0881C248.895 52.5764 247.031 52.0933 244.617 52.6059ZM187.289 55.8622C187.749 56.3222 187.453 56.6521 186.382 56.8734C184.904 57.1787 183.57 57.9257 182.511 59.0404C181.593 60.0073 181.256 60.1733 180.952 59.8079C180.39 59.1299 183.084 56.7646 185.151 56.1222C186.543 55.6894 187.054 55.6274 187.289 55.8622ZM205.978 59.2879C206.468 59.5013 207.346 60.4892 207.706 61.2314C208.42 62.7072 208.56 64.7079 208.028 65.8497C207.572 66.8291 206.675 67.1842 205.799 66.7316C205.259 66.452 204.454 65.5096 204.079 64.7187C203.626 63.7606 203.484 63.0801 203.48 61.8523C203.478 61.0084 203.534 60.7068 203.794 60.1863C204.284 59.2018 205.054 58.8852 205.978 59.2879ZM187.034 63.3811C187.891 63.7565 188.955 65.3262 189.265 66.6721C189.337 66.9809 189.396 67.6943 189.397 68.2573C189.4 69.9796 188.731 71.0086 187.61 71.0086C187.05 71.0086 186.568 70.7254 185.967 70.0419C185.031 68.9789 184.542 67.6211 184.541 66.082C184.54 64.8634 184.733 64.258 185.305 63.6856C185.837 63.1542 186.321 63.0688 187.034 63.3811ZM308.786 66.3611C311.088 72.2613 314.239 81.1312 315.961 86.5561C316.542 88.386 317.052 89.9219 317.095 89.9692C317.176 90.0593 319.871 90.3489 320.755 90.3626C321.683 90.3771 321.957 90.1186 323.797 87.4878C324.747 86.1307 325.631 84.9267 325.763 84.8121C326.819 83.8905 328.701 83.9985 329.674 85.0364C330.13 85.5228 330.417 86.2341 330.417 86.8803C330.417 87.1688 330.296 88.6374 330.148 90.144C329.887 92.8168 329.886 92.895 330.116 93.3665C330.306 93.754 330.847 94.1943 332.848 95.5889C335.684 97.5658 336.054 97.9584 336.148 99.0953C336.22 99.965 335.955 100.736 335.381 101.323C334.465 102.259 334.087 102.302 330.033 101.922C327.548 101.689 327.385 101.688 326.95 101.895C326.589 102.067 326.124 102.638 324.798 104.537C323.868 105.87 322.875 107.158 322.592 107.4L322.078 107.84L322.912 111.402C325.988 124.542 327.967 136.532 329.066 148.682C329.425 152.659 329.777 157.891 329.777 159.266C329.777 160.317 329.912 160.524 330.152 159.84C330.243 159.58 330.968 157.726 331.764 155.72C334.766 148.156 338.053 141.147 340.975 136.078C342.109 134.111 343.344 132.184 343.474 132.178C343.513 132.176 343.815 133.37 344.147 134.83C346.446 144.949 347.716 153.981 348.352 164.742C348.557 168.212 348.558 179.076 348.354 182.464C347.542 195.918 345.619 207.619 342.386 218.782C341.718 221.089 339.993 226.301 339.743 226.768C339.628 226.982 339.749 226.996 341.753 226.996H343.885L343.813 227.476C343.773 227.739 341.686 244.407 339.175 264.514L334.609 301.072L336.881 308.149C338.13 312.042 339.197 315.276 339.253 315.337C339.309 315.4 341.608 315.296 344.508 315.099C347.344 314.906 350.136 314.774 350.713 314.804C352.461 314.896 352.717 315.071 358.185 319.908C360.824 322.242 363.098 324.201 363.239 324.261C363.38 324.32 365.194 324.804 367.27 325.335C369.346 325.866 371.265 326.396 371.535 326.514C372.191 326.799 372.957 327.694 373.157 328.409C373.743 330.501 372.238 332.817 369.573 333.925L368.869 334.218L388.134 334.223C402.941 334.228 407.435 334.264 407.553 334.382C407.739 334.569 407.755 335.079 407.578 335.189C407.508 335.232 376.427 335.267 338.51 335.266L269.57 335.263L267.97 335.817C264.599 336.983 261.617 337.52 257.605 337.683C255.139 337.783 253.62 337.714 232.269 336.522L209.555 335.254L168.318 335.253L127.08 335.253L125.194 336.197C117.834 339.882 110.746 342.001 103.024 342.824C100.562 343.086 94.0262 343.048 92.0851 342.759C87.8449 342.129 84.8092 341.054 82.0262 339.199C81.2966 338.713 80.1959 337.78 79.2248 336.826L77.6253 335.254L38.8127 335.253L9.15527e-05 335.253L0.0398865 334.773L0.0796204 334.293L11.577 334.26L23.0743 334.227L22.6618 333.758C21.9268 332.921 21.8973 332.747 21.8978 329.274C21.8983 325.797 22.0202 324.683 22.6652 322.252C24.5079 315.307 29.0348 310.783 35.9027 309.024C37.2782 308.672 38.0999 308.543 42.4994 307.994C49.7846 307.084 53.9835 305.867 60.3502 302.817C63.3096 301.399 64.8061 300.407 66.4389 298.779C67.5555 297.666 69.2826 295.196 69.0837 294.997C69.0562 294.97 66.6193 294.592 63.6683 294.159C60.7172 293.725 58.2556 293.328 58.198 293.278C58.0606 293.158 75.6264 218.786 76.2256 216.951C77.0629 214.386 78.6602 211.369 80.3578 209.145C81.2328 207.998 83.494 205.715 84.7272 204.733C87.9533 202.164 91.8182 200.349 95.7633 199.552C98.8711 198.925 102.088 198.833 104.887 199.291C105.518 199.395 106.103 199.48 106.19 199.481C106.276 199.483 105.937 198.807 105.438 197.98C101.025 190.676 89.5898 170.997 77.7257 150.291C72.5504 141.259 72.3635 140.954 71.9033 140.798C71.0927 140.523 69.3583 139.606 68.22 138.85C66.3883 137.634 63.7569 134.789 63.3158 133.548C63.2241 133.29 63.6661 132.769 63.9091 132.848C63.9928 132.876 64.4128 133.402 64.8425 134.017C65.7515 135.319 66.6357 136.26 67.9295 137.3C69.0091 138.168 70.9725 139.298 72.2561 139.79L73.157 140.136L78.3255 149.175C95.4849 179.188 111.087 205.74 113.714 209.401C115.004 211.198 117.272 213.463 119.441 215.12C122.211 217.235 125.831 218.99 129.034 219.769C138.21 222 148.051 218.999 158.6 210.754C160.728 209.09 168.381 203.45 168.503 203.455C168.56 203.458 168.767 203.59 168.962 203.75L169.317 204.04L169.026 204.299C168.866 204.442 167.18 205.7 165.28 207.096C163.38 208.492 160.76 210.451 159.458 211.451C154.642 215.148 151.025 217.331 146.87 219.051C144.293 220.118 140.788 221.075 138.6 221.309C138.142 221.358 137.691 221.439 137.597 221.489C137.483 221.549 142.107 225.502 151.427 233.311L165.428 245.042L167.035 247.439C173.539 257.147 180.949 266.477 188.351 274.278C189.486 275.475 190.373 276.466 190.324 276.481C190.172 276.528 144.433 283.299 144.271 283.299C144.188 283.299 144.032 283.388 143.925 283.495C143.766 283.654 143.742 283.934 143.794 284.999C143.891 286.943 143.933 287.123 144.301 287.216C144.918 287.37 145.022 287.111 144.924 285.659L144.837 284.351L145.205 284.274C145.408 284.232 158.616 282.269 174.557 279.912C190.498 277.555 203.685 275.581 203.861 275.526C204.049 275.466 204.197 275.311 204.22 275.149C204.267 274.824 203.719 274.925 209.939 274.09C228.023 271.66 241.296 270.153 250.695 269.462C251.857 269.376 254.362 269.302 256.262 269.297C260.023 269.287 261.201 269.42 264.707 270.251C275.461 272.799 284.59 280.819 288.627 291.266C290.985 297.367 291.509 304.38 290.094 310.91C288.765 317.045 285.714 322.678 281.216 327.303C278.737 329.851 276.506 331.587 273.479 333.32L271.885 334.232L298.56 334.193C321.149 334.16 325.317 334.127 325.778 333.973C326.284 333.804 326.508 333.589 326.177 333.589C326.097 333.589 325.522 333.297 324.898 332.94C320.908 330.657 317.56 326.684 315.714 322.043C315.511 321.531 314.756 319.788 314.037 318.169C304.621 296.974 294.536 272.584 287.713 254.508C284.668 246.442 283.082 242.017 280.445 234.226L278.365 228.083L276.751 228.048L275.136 228.012V227.504V226.996H276.594H278.051L277.547 225.364C275.98 220.294 275.636 218.953 275.674 218.068C275.708 217.308 275.744 217.202 275.978 217.169C276.219 217.134 276.314 217.379 277.039 219.92C282.989 240.775 296.652 276.098 313.982 315.427C315.271 318.353 316.448 321.054 316.596 321.431C317.69 324.206 319.426 326.841 321.577 328.992C324.329 331.742 326.969 333.164 330.753 333.934C331.783 334.143 332.712 334.165 340.782 334.165C350.723 334.165 349.931 334.237 351.036 333.238C351.859 332.495 352.221 331.662 352.219 330.518C352.217 329.921 352.139 329.379 352.011 329.086C351.705 328.381 350.782 327.447 350.059 327.109L349.419 326.809L342.524 326.808L335.629 326.807L335.699 326.284C335.738 325.997 335.789 325.745 335.812 325.725C335.836 325.704 338.759 325.197 342.308 324.598L348.761 323.509L351.521 326.103C355.943 330.258 357.087 331.225 358.249 331.789C359.409 332.352 360.827 332.776 363.234 333.277C364.63 333.568 365.095 333.612 366.177 333.554C369.605 333.37 372.152 331.594 372.183 329.366C372.195 328.521 371.841 327.855 371.208 327.533C370.977 327.416 368.976 326.854 366.76 326.285C364.544 325.716 362.664 325.212 362.582 325.165C362.501 325.118 360.289 323.184 357.668 320.867C354.963 318.476 352.606 316.493 352.217 316.283C351.817 316.066 351.252 315.884 350.86 315.846C350.489 315.81 347.573 315.959 344.379 316.179C341.185 316.398 338.544 316.551 338.512 316.518C338.443 316.45 338.043 315.212 330.879 292.939C324.165 272.06 323.442 269.725 320.135 258.219C317.242 248.153 312.679 231.596 308.866 217.334C307.982 214.027 306.804 209.621 306.248 207.545L305.237 203.77L305.634 203.418C305.852 203.225 306.062 203.067 306.101 203.067C306.14 203.067 306.618 204.751 307.162 206.809C307.707 208.868 309.143 214.252 310.354 218.774L312.556 226.996H315.582H318.608L319.091 225.94C321.38 220.936 323.87 212.723 325.479 204.875C327.083 197.047 327.986 190.077 328.637 180.481C328.854 177.29 328.935 164.21 328.763 160.24C328.09 144.733 325.862 128.691 322.215 113.108C321.795 111.314 321.36 109.44 321.249 108.945L321.048 108.044L320.411 107.893C319.089 107.579 318.258 106.702 318.162 105.52C318.132 105.154 318.229 103.605 318.377 102.078C318.736 98.3748 318.904 98.7491 315.98 96.708C314.736 95.8399 313.522 94.9574 313.282 94.7469C312.059 93.674 312.081 91.704 313.328 90.6092C313.951 90.0616 314.324 89.9255 315.205 89.9233L315.925 89.9215L315.48 88.4947C313.694 82.7697 308.659 68.5221 308.293 68.1559C308.177 68.0401 306.836 72.3665 305.782 76.255C300.122 97.1435 296.484 122.566 295.6 147.403L295.452 151.561L295.851 152.959C296.071 153.728 296.249 154.419 296.248 154.495C296.246 154.571 295.725 153.596 295.09 152.329C294.235 150.625 293.789 149.544 293.372 148.17C289.185 134.383 282.934 121.124 275.471 110.2C274.294 108.477 274.036 108.168 273.957 108.382C273.822 108.747 272.545 115.314 272.111 117.875C271.911 119.054 271.716 120.018 271.678 120.018C271.639 120.018 271.421 119.86 271.192 119.667L270.776 119.315L271.23 116.755C271.99 112.472 273.28 106.175 273.468 105.831C273.575 105.637 274.851 107.355 277.021 110.613C283.877 120.909 289.231 132.077 293.369 144.715C293.91 146.369 294.369 147.78 294.389 147.85C294.455 148.088 294.572 146.336 294.777 142.049C295.924 118.054 299.893 92.7903 305.656 72.8C306.623 69.448 307.972 65.2676 308.147 65.0814C308.201 65.0237 308.488 65.5996 308.786 66.3611ZM195.99 69.4712C196.059 69.5833 198.742 82.3307 198.742 82.5488C198.742 82.5969 199.333 82.4367 200.054 82.1928C201.493 81.7061 201.941 81.706 201.941 82.1922C201.941 82.6189 201.786 82.7123 200.11 83.2903C198.506 83.8431 198.206 83.8937 198.004 83.6449C197.932 83.557 197.231 80.3857 196.445 76.5977C195.319 71.172 195.048 69.6716 195.167 69.5278C195.34 69.319 195.873 69.2825 195.99 69.4712ZM74.9251 73.5159C76.9071 73.9955 78.6592 75.3822 79.5351 77.1646C79.9943 78.0989 80.129 78.7465 82.8773 93.224C84.4522 101.521 85.7863 108.446 85.8419 108.613C85.9114 108.822 86.4988 109.253 87.7254 109.994C92.1031 112.642 94.8838 115.188 96.0592 117.626C96.2901 118.104 96.5487 118.886 96.6339 119.363C96.8011 120.298 96.7944 120.356 96.193 123.249C95.79 125.186 95.6228 127.743 95.7515 130C95.8821 132.29 96.1258 133.31 96.8365 134.538C100.648 141.126 110.147 154.269 123.612 171.588C128.64 178.055 133.765 184.512 133.87 184.512C133.923 184.512 137.521 180.851 141.866 176.377C146.211 171.903 149.809 168.29 149.862 168.348C149.914 168.405 149.995 168.663 150.041 168.921L150.124 169.39L143.323 176.407C139.583 180.266 135.904 184.049 135.148 184.813L133.773 186.202L130.389 181.934C113.732 160.922 101.371 144.163 96.41 135.867L95.1383 133.74L94.8913 132.222C94.4097 129.261 94.5909 125.288 95.3589 121.965C95.9905 119.232 95.3601 117.589 92.6918 115.013C90.3387 112.741 87.9574 111.171 82.4057 108.23C81.0938 107.535 79.9188 106.966 79.7946 106.966C79.3868 106.966 78.7392 107.591 78.3749 108.336C77.7237 109.667 77.969 111.306 79.1305 113.383C79.4609 113.973 80.6875 115.395 83.3142 118.232C85.3582 120.44 87.0298 122.335 87.0289 122.444C87.028 122.553 86.8893 123.074 86.7206 123.602C86.0636 125.659 85.9921 127.669 86.5205 129.237C86.8437 130.197 86.8414 130.231 86.4398 130.414C86.1457 130.548 86.0765 130.531 85.8733 130.28C85.6542 130.01 85.3559 129.21 85.1838 128.431L85.1059 128.078L84.4827 128.394C83.6252 128.829 83.1913 128.925 75.13 130.469C66.5114 132.121 66.5422 132.118 64.0162 131.295C61.9787 130.631 61.0085 130.027 60.1391 128.883C59.8118 128.452 59.4183 127.764 59.2646 127.354C59.1067 126.933 57.2033 117.254 54.8901 105.111C51.118 85.3088 50.7997 83.5322 50.8556 82.5892C51.0317 79.615 52.7684 77.6846 56.2554 76.5871C57.6332 76.1536 72.6612 73.3091 73.5032 73.3225C73.8701 73.3284 74.5099 73.4154 74.9251 73.5159ZM65.0716 75.8699C60.9969 76.6433 57.3801 77.3673 57.0343 77.4788C54.748 78.2159 53.1199 80.4712 53.1206 82.9004C53.1207 83.4691 54.4419 90.6842 57.2068 105.214C61.6646 128.641 61.4232 127.577 62.5698 128.865C63.6534 130.083 65.1755 130.768 66.8005 130.767C67.5056 130.767 69.8823 130.364 75.4659 129.3C79.6975 128.493 83.3252 127.761 83.5276 127.672C83.7299 127.584 84.1606 127.352 84.4847 127.156L85.0739 126.801L85.1467 125.933C85.2096 125.182 85.5986 123.379 85.8249 122.79C85.8741 122.661 84.7294 121.339 82.3616 118.789C78.6129 114.753 78.1281 114.109 77.4092 112.205C77.059 111.278 77.0002 110.953 76.9934 109.909C76.9863 108.833 77.0259 108.611 77.3369 107.978C77.9815 106.666 79.2593 105.695 80.0835 105.892C80.2798 105.939 81.3559 106.46 82.4747 107.05C83.5935 107.64 84.5327 108.099 84.5618 108.07C84.5908 108.041 83.3469 101.352 81.7974 93.2045C78.7088 76.9658 78.8738 77.6395 77.6628 76.3144C76.5188 75.0627 75.1983 74.4746 73.5172 74.4678C72.7194 74.4646 70.7706 74.7881 65.0716 75.8699ZM238.311 76.6389C236.947 80.9283 234.777 85.29 232.229 88.8594C228.364 94.2751 223.413 98.4843 218.1 100.872C216.746 101.481 214.486 102.276 213.682 102.426C213.418 102.476 213.203 102.553 213.205 102.598C213.214 102.912 217.148 127.206 217.197 127.255C217.337 127.395 220.795 128.083 222.284 128.267C224.12 128.494 227.866 128.527 229.457 128.33C237.57 127.327 244.731 122.6 249.172 115.317C249.801 114.286 249.891 114.062 249.794 113.77C249.711 113.52 240.364 79.4843 239.175 75.1034C238.992 74.4284 239.041 74.3406 238.311 76.6389ZM219.703 78.3281C219.787 78.4125 219.855 78.7148 219.854 78.9999C219.848 80.527 218.916 82.8834 217.741 84.3468C216.567 85.8084 213.738 87.7504 213.237 87.4379C213.113 87.3598 213.01 87.1642 213.01 87.0032C213.01 86.7721 213.253 86.5615 214.162 86.004C215.796 85.0022 217.204 83.5509 217.91 82.1413C218.432 81.0997 218.826 79.7019 218.83 78.8719C218.833 78.4417 219.03 78.1745 219.344 78.1745C219.457 78.1745 219.618 78.2436 219.703 78.3281ZM326.523 85.5879C326.353 85.7475 325.567 86.808 324.777 87.9446C322.173 91.6911 322.37 91.5962 318.024 91.1991C316.348 91.0459 314.831 90.965 314.626 91.0179C314.118 91.1484 313.552 91.7878 313.446 92.3495C313.392 92.6378 313.427 93.0081 313.538 93.3252C313.699 93.7825 313.972 94.0144 316.149 95.5347C317.486 96.4691 318.768 97.4469 318.997 97.7078C319.707 98.5158 319.736 98.8385 319.409 102.321C319.086 105.768 319.105 105.956 319.846 106.512C320.416 106.94 320.941 107.018 321.567 106.767C322.034 106.581 322.294 106.272 323.811 104.106C325.673 101.447 325.895 101.192 326.607 100.894C327.217 100.639 328.004 100.649 331.024 100.945C332.741 101.114 333.621 101.15 333.927 101.066C334.718 100.848 335.309 99.8054 335.104 98.9901C334.964 98.4326 334.513 98.0303 332.269 96.4639C329.754 94.7077 329.454 94.4464 329.121 93.722C328.822 93.0695 328.823 92.8844 329.151 89.4866C329.41 86.7965 329.413 86.6362 329.204 86.1962C328.872 85.4979 328.321 85.1911 327.504 85.2496C327.027 85.2836 326.742 85.3821 326.523 85.5879ZM341.789 136.814C338.259 143.023 334.572 151.16 331.048 160.519L329.988 163.334L330.018 167.493C330.127 182.732 328.498 197.555 325.294 210.488C323.85 216.318 321.903 222.27 320.136 226.26L319.81 226.996H329.149H338.487L338.749 226.388C339.219 225.295 340.881 220.205 341.61 217.627C344.461 207.54 346.198 197.275 347.127 185.024C347.397 181.468 347.514 169.934 347.321 165.957C346.926 157.838 346.075 150.338 344.69 142.757C344.14 139.747 343.09 134.734 343.009 134.734C342.989 134.734 342.44 135.67 341.789 136.814ZM51.8871 138.37C52.7039 138.672 53.075 139.163 54.2875 141.547C55.1625 143.267 55.5318 143.869 55.7949 144.005C56.0359 144.13 56.8703 144.211 58.5027 144.27C59.8004 144.317 61.0787 144.41 61.3436 144.477C61.9363 144.626 62.6972 145.275 62.9286 145.829C63.1507 146.36 63.1498 147.295 62.9269 147.829C62.6607 148.466 62.1124 148.848 59.7757 150.029C58.3854 150.731 57.553 151.229 57.4144 151.44C57.2439 151.7 57.1761 152.297 57.0815 154.371C57.0159 155.803 56.9005 157.139 56.8247 157.339C56.4151 158.423 55.1066 159.083 53.9668 158.78C52.9826 158.518 52.701 158.178 51.5125 155.815C50.9024 154.602 50.2854 153.48 50.1416 153.323C49.8056 152.955 49.5659 152.918 46.7018 152.792C43.9828 152.672 43.5972 152.555 42.9651 151.66C42.2693 150.675 42.422 149.221 43.2985 148.483C43.5168 148.3 44.6626 147.665 45.8449 147.073C47.3202 146.335 48.0657 145.888 48.2216 145.65C48.4094 145.364 48.4675 144.857 48.5558 142.738C48.6489 140.504 48.6984 140.098 48.94 139.598C49.463 138.514 50.7863 137.962 51.8871 138.37ZM50.056 139.788C49.7443 140.099 49.7324 140.178 49.6323 142.572C49.5149 145.382 49.4054 145.947 48.8749 146.49C48.6664 146.703 47.5354 147.376 46.3614 147.984C43.8212 149.301 43.587 149.495 43.587 150.282C43.587 151.408 44.274 151.724 46.7861 151.753C47.4899 151.761 48.5121 151.814 49.0575 151.871C50.6413 152.037 50.8055 152.196 52.2056 154.906C52.8548 156.163 53.5309 157.321 53.7082 157.48C54.3049 158.013 55.4975 157.76 55.7874 157.038C55.8663 156.841 55.9829 155.524 56.0461 154.112C56.1696 151.356 56.2339 151.086 56.9158 150.46C57.1156 150.276 58.2781 149.615 59.499 148.99C61.8067 147.808 62.0778 147.581 62.0778 146.827C62.0778 146.376 61.7532 145.78 61.4071 145.595C61.2388 145.504 60.0546 145.395 58.5056 145.325C55.7121 145.201 55.3017 145.105 54.7072 144.44C54.5595 144.275 53.9338 143.161 53.3167 141.964C52.2134 139.825 51.9014 139.395 51.3928 139.31C50.9742 139.24 50.3981 139.446 50.056 139.788ZM179.219 185.865C179.33 185.975 179.42 186.143 179.42 186.238C179.42 186.575 176.095 198.367 175.952 198.54C175.742 198.792 175.228 198.757 175.08 198.48C174.897 198.139 178.189 186.208 178.553 185.887C178.867 185.612 178.963 185.609 179.219 185.865ZM269.847 196.054C270.051 196.322 275.136 211.965 275.136 212.326C275.136 212.524 275.034 212.709 274.881 212.792C274.45 213.022 274.149 212.742 273.882 211.862C273.749 211.423 272.553 207.765 271.226 203.732C269.336 197.993 268.841 196.352 268.948 196.182C269.118 195.911 269.677 195.831 269.847 196.054ZM312.944 228.371C312.991 228.565 313.635 230.94 314.374 233.65C319.483 252.368 324 268.009 327.126 277.797C330.919 289.676 333.804 298.539 333.841 298.427C333.941 298.126 342.648 228.137 342.592 228.081C342.558 228.047 335.854 228.019 327.694 228.019H312.858L312.944 228.371ZM111.113 268.225C111.029 268.31 110.96 268.472 110.96 268.586C110.96 268.784 114.784 278.698 115.058 279.211C115.298 279.66 115.95 279.442 115.95 278.912C115.95 278.645 112.024 268.487 111.823 268.232C111.662 268.029 111.313 268.026 111.113 268.225ZM116.34 281.22C116.358 282.64 116.816 290.35 116.886 290.42C116.977 290.511 128.644 290.217 128.746 290.121C128.78 290.089 128.722 290.011 128.618 289.949C128.512 289.887 125.749 287.792 122.476 285.295C119.204 282.797 116.483 280.751 116.43 280.747C116.377 280.743 116.337 280.956 116.34 281.22ZM128.171 291.247C120.781 291.458 111.971 291.681 108.592 291.743C102.191 291.86 101.027 291.945 97.1397 292.587C91.4727 293.522 84.5976 295.49 82.104 296.891C79.2898 298.472 76.8274 300.553 75.1902 302.734C70.7669 308.628 70.3087 317.351 73.9392 326.545C75.5987 330.748 77.3833 333.565 80.0785 336.234C83.1544 339.28 86.9348 340.966 92.4193 341.739C94.6463 342.052 100.647 342.049 103.346 341.732C107.829 341.207 111.583 340.381 115.63 339.031C121.339 337.126 126.304 334.72 134.092 330.085C139.452 326.895 142.834 325.228 146.303 324.064C147.97 323.505 148.004 323.486 147.975 323.135C147.791 320.897 144.967 290.999 144.929 290.881C144.89 290.758 144.492 290.737 143.242 290.791C142.343 290.83 135.561 291.035 128.171 291.247ZM95.7974 294.609C95.9236 294.702 95.9941 294.892 95.9681 295.071C95.9321 295.319 95.7381 295.447 94.9003 295.775C90.0422 297.674 86.5385 301.203 84.646 306.104C82.7725 310.955 82.7076 317.787 84.4688 324.76C85.3239 328.145 86.9384 331.8 88.4825 333.846C90.6609 336.732 93.404 338.603 96.2857 339.169C97.2855 339.366 97.4093 339.421 97.4812 339.708C97.5961 340.166 97.225 340.406 96.5638 340.302C95.3492 340.111 94.4281 339.805 93.1043 339.154C87.3018 336.299 83.5573 329.252 82.3608 318.938C82.1125 316.797 82.1115 312.916 82.3589 311.042C82.7369 308.178 83.4753 305.808 84.746 303.378C86.4734 300.075 89.775 296.929 93.18 295.343C94.6863 294.641 95.5212 294.407 95.7974 294.609ZM69.8062 296.047C68.0985 299.101 65.4931 301.423 61.5696 303.388C54.9055 306.725 50.2462 308.097 42.2435 309.08C38.4515 309.545 37.1009 309.771 35.6264 310.185C29.4761 311.912 25.3286 316.187 23.6874 322.491C23.3073 323.95 22.9224 326.071 22.9215 326.711L22.921 327.063H37.9951C49.5487 327.063 53.105 327.099 53.2227 327.216C53.4313 327.425 53.4156 327.645 53.1752 327.886C52.9946 328.066 51.4367 328.087 37.9393 328.087H22.9045L22.9448 330.294C22.9821 332.337 23.0062 332.531 23.2704 332.901C23.9007 333.785 21.6333 333.717 50.4204 333.717C64.7146 333.717 76.4096 333.69 76.4096 333.657C76.4096 333.624 76.1363 333.178 75.8022 332.665C75.4682 332.153 74.7844 330.912 74.2826 329.907L73.3704 328.08L64.2222 328.085C54.3236 328.09 54.7075 328.117 54.806 327.422L54.8478 327.127L63.9145 327.094C72.4256 327.063 72.9761 327.048 72.8969 326.841C71.9657 324.415 71.1426 321.317 70.7625 318.809C70.4454 316.717 70.3841 313.075 70.6364 311.323C71.4883 305.411 74.603 300.477 79.5278 297.239C80 296.929 80.3278 296.655 80.2564 296.632C80.004 296.547 71.0931 295.226 70.6895 295.213C70.3132 295.201 70.2414 295.269 69.8062 296.047ZM97.489 296.506C97.834 296.93 99.0339 301.462 99.6842 304.797C100.919 311.13 101.299 315.592 101.197 322.568C101.126 327.44 100.996 329.138 100.397 333.013C99.9382 335.979 99.8373 336.332 99.432 336.379C98.821 336.45 98.7624 336.187 99.0466 334.655C99.3775 332.872 99.6352 331.075 99.9154 328.598C100.24 325.73 100.241 316.813 99.9174 313.627C99.3466 308.009 98.4024 303.003 97.0486 298.418C96.7019 297.244 96.6158 296.783 96.7138 296.626C96.8825 296.357 97.3139 296.29 97.489 296.506ZM144.518 301.351C144.641 301.424 144.741 301.581 144.74 301.701C144.735 302.247 144.607 302.278 141.731 302.446C140.204 302.535 138.939 302.626 138.919 302.647C138.899 302.668 138.96 303.06 139.055 303.518C139.552 305.928 139.768 311.107 139.507 314.38C139.427 315.393 139.377 316.235 139.396 316.25C139.416 316.266 140.698 316.005 142.247 315.671C144.192 315.251 145.131 315.099 145.286 315.181C145.544 315.317 145.586 315.868 145.35 316.014C145.262 316.069 137.79 317.707 128.747 319.655C117.067 322.171 112.238 323.163 112.079 323.078C111.956 323.013 111.855 322.816 111.855 322.641C111.855 322.262 112.088 322.142 113.302 321.894C113.781 321.797 114.196 321.694 114.223 321.667C114.25 321.64 114.4 320.784 114.556 319.765C114.934 317.306 114.968 312.802 114.628 310.515C114.357 308.69 113.81 306.485 113.306 305.181L112.935 304.221L111.529 304.214C110.756 304.211 110.023 304.169 109.901 304.123C109.569 303.995 109.615 303.41 109.968 303.271C110.126 303.209 117.684 302.748 126.763 302.247C135.842 301.746 143.501 301.31 143.782 301.277C144.064 301.245 144.395 301.278 144.518 301.351ZM135.465 302.809C134.55 302.849 133.385 302.916 132.877 302.958L131.953 303.035L133.082 304.332C135.283 306.859 136.849 309.157 137.977 311.515L138.589 312.795L138.593 310.684C138.598 308.356 138.436 306.1 138.142 304.378C137.88 302.84 137.779 302.601 137.418 302.676C137.259 302.709 136.38 302.769 135.465 302.809ZM126.267 303.322C124.586 303.424 123.196 303.524 123.178 303.545C123.16 303.565 123.629 304.186 124.221 304.925C127.025 308.425 129.332 312.18 130.226 314.7C130.653 315.906 130.702 315.838 130.906 313.748C131.159 311.146 131.059 308.39 130.593 305.117C130.298 303.053 130.331 303.133 129.788 303.135C129.532 303.136 127.947 303.22 126.267 303.322ZM117.998 303.783C116.484 303.86 115.169 303.948 115.075 303.977C114.973 304.009 115.204 304.272 115.651 304.631C117.632 306.222 119.33 308.011 120.547 309.788C121.443 311.097 121.989 312.152 122.565 313.691L122.996 314.842L122.921 313.115C122.81 310.588 122.089 305.421 121.63 303.87C121.55 303.599 121.575 303.6 117.998 303.783ZM131.754 305.836C132.037 307.903 132.14 311.948 131.957 313.83C131.874 314.681 131.675 315.962 131.514 316.677C131.304 317.613 131.265 317.977 131.376 317.977C131.461 317.977 133.005 317.661 134.808 317.274C136.61 316.887 138.123 316.57 138.168 316.57C138.345 316.57 138.06 314.822 137.701 313.702C136.885 311.153 135.045 308.186 132.355 305.08C131.972 304.637 131.635 304.298 131.606 304.327C131.577 304.355 131.644 305.034 131.754 305.836ZM114.665 305.868C114.995 306.829 115.506 309.166 115.716 310.684C115.977 312.561 115.936 317.523 115.643 319.613C115.511 320.548 115.43 321.339 115.462 321.371C115.494 321.403 116.984 321.113 118.774 320.727C120.564 320.341 122.065 320.025 122.109 320.025C122.281 320.025 122.355 318.116 122.227 317.002C121.837 313.597 120.248 310.528 117.358 307.601C116.149 306.377 114.551 305.002 114.452 305.101C114.431 305.122 114.527 305.467 114.665 305.868ZM123.239 306.594C123.777 309.591 123.939 311.437 123.935 314.522C123.931 316.823 123.88 317.768 123.717 318.544C123.6 319.103 123.531 319.586 123.564 319.619C123.61 319.665 127.817 318.817 129.627 318.396C129.918 318.328 129.928 318.289 129.859 317.543C129.612 314.903 127.431 310.75 123.917 306.229C123.462 305.644 123.069 305.186 123.044 305.211C123.019 305.236 123.106 305.859 123.239 306.594ZM39.2087 309.948C39.5674 310.217 40.9102 315.497 41.4625 318.809C41.8452 321.105 41.9875 322.646 41.9875 324.494C41.9875 326.027 41.9675 326.169 41.7316 326.295C41.5498 326.392 41.4016 326.392 41.2198 326.295C40.9852 326.17 40.9638 326.027 40.9638 324.594C40.9638 321.405 40.256 317.152 38.908 312.241C38.6311 311.232 38.4046 310.358 38.4046 310.298C38.4046 310.165 38.7716 309.788 38.9011 309.788C38.953 309.788 39.0915 309.86 39.2087 309.948ZM68.5247 321.561C69.2322 321.78 69.8835 322.648 69.8835 323.371C69.8835 324.286 68.8721 325.271 67.9336 325.271C67.0009 325.271 66.1086 324.333 66.1086 323.352C66.1086 322.11 67.3436 321.194 68.5247 321.561ZM63.9942 321.715C64.6938 322.073 65.0635 322.669 65.0635 323.437C65.0635 324.076 64.7857 324.535 64.1264 324.983C62.6021 326.021 60.5605 323.979 61.5979 322.455C62.2419 321.509 63.084 321.248 63.9942 321.715ZM67.4922 322.685C67.2445 322.842 67.092 323.392 67.2088 323.705C67.464 324.388 68.4695 324.362 68.7344 323.665C68.8628 323.328 68.722 322.88 68.4247 322.682C68.2415 322.56 67.6862 322.561 67.4922 322.685ZM62.5329 322.869C62.2521 323.269 62.2847 323.57 62.6478 323.934C63.0285 324.314 63.399 324.334 63.7413 323.992C64.0522 323.681 64.0727 323.136 63.7854 322.818C63.4811 322.482 62.784 322.51 62.5329 322.869ZM345.26 325.201L342.765 325.628L345.836 325.643C347.525 325.652 349.051 325.694 349.227 325.738C349.51 325.808 349.482 325.75 348.983 325.232C348.528 324.758 348.357 324.658 348.088 324.71C347.905 324.745 346.633 324.966 345.26 325.201ZM145.642 325.426C142.306 326.668 139.265 328.205 134.441 331.091C132.893 332.017 131.065 333.088 130.379 333.47L129.132 334.165L144.359 334.197C152.734 334.215 166.45 334.215 174.841 334.197L190.096 334.165L169.475 333.015L148.854 331.865L148.79 331.479C148.754 331.267 148.594 329.638 148.432 327.859L148.14 324.624L147.752 324.705C147.539 324.749 146.59 325.074 145.642 325.426ZM353.258 330.486C353.258 331.567 353.213 331.83 352.921 332.453C352.735 332.848 352.369 333.41 352.106 333.7L351.629 334.229L356.986 334.223L362.343 334.216L361.128 333.902C357.792 333.041 357.077 332.644 354.245 330.082C353.733 329.618 353.301 329.238 353.286 329.238C353.27 329.238 353.258 329.8 353.258 330.486Z" fill="#C0C6CE"/>
</svg>
