<svg width="822" height="506" viewBox="0 0 822 506" fill="none" xmlns="http://www.w3.org/2000/svg">
<path d="M572.996 177.937C572.996 79.6654 466.042 7.02605e-05 334.108 7.02605e-05C202.174 7.02605e-05 15.6808 99.8185 36.6162 298.009C49.5291 420.25 171.382 261.843 303.316 261.843C435.25 261.843 572.996 276.209 572.996 177.937Z" fill="#EEF0FD"/>
<path fill-rule="evenodd" clip-rule="evenodd" d="M208.326 503.995H220.066V445.304H208.326V503.995Z" fill="#222831"/>
<path fill-rule="evenodd" clip-rule="evenodd" d="M296.652 503.995H308.389V445.304H296.652V503.995Z" fill="#222831"/>
<path fill-rule="evenodd" clip-rule="evenodd" d="M404.695 503.995H416.435V445.304H404.695V503.995Z" fill="#222831"/>
<path fill-rule="evenodd" clip-rule="evenodd" d="M187.457 432.594L278.707 469.166L429.085 447.228L337.372 414.88L187.457 432.594" fill="#222831"/>
<path fill-rule="evenodd" clip-rule="evenodd" d="M348.986 422.279L187.457 432.594V214.948C187.457 205.734 194.73 198.197 203.622 198.197L332.824 190.924C341.713 190.924 348.986 198.461 348.986 207.675V422.279" fill="#222831"/>
<path fill-rule="evenodd" clip-rule="evenodd" d="M271.057 57.5725C271.057 57.5725 235.91 61.5812 234.178 101.011L307.745 76.0455C307.745 76.0455 299.537 57.9571 271.057 57.5725" fill="#556DEE"/>
<path fill-rule="evenodd" clip-rule="evenodd" d="M271.056 57.5729L270.979 56.8742C270.915 56.8813 262.03 57.8941 252.88 63.9176C248.303 66.9312 243.663 71.2045 240.063 77.2281C236.464 83.2517 233.909 91.022 233.472 100.984L233.426 102.014L308.712 76.4659L308.387 75.7566C308.355 75.686 306.252 71.0704 300.525 66.4089C294.805 61.7439 285.454 57.0577 271.067 56.8672H271.021L270.979 56.8742L271.056 57.5729L271.049 58.2787C285.136 58.4728 294.131 63.0249 299.636 67.5028C302.385 69.7401 304.258 71.9667 305.444 73.6252C306.037 74.4545 306.453 75.1391 306.721 75.6154C306.859 75.8554 306.954 76.0389 307.018 76.1624C307.05 76.2224 307.071 76.2718 307.085 76.3L307.099 76.3318L307.103 76.3388L307.745 76.046L307.519 75.379L233.948 100.345L234.177 101.012L234.883 101.044C235.31 91.2902 237.798 83.7704 241.274 77.955C246.489 69.2319 253.953 64.3129 260.131 61.5675C263.219 60.1948 265.982 59.3691 267.969 58.8892C268.96 58.6492 269.758 58.4939 270.305 58.4022C270.58 58.3528 270.792 58.321 270.933 58.3034C271.003 58.2928 271.056 58.2857 271.088 58.2822L271.127 58.2752H271.138L271.056 57.5729L271.049 58.2787L271.056 57.5729" fill="black"/>
<path fill-rule="evenodd" clip-rule="evenodd" d="M91.1784 277.647H225.119C225.507 277.647 225.825 277.333 225.825 276.941C225.825 276.553 225.507 276.235 225.119 276.235H91.1784C90.7902 276.235 90.4727 276.553 90.4727 276.941C90.4727 277.333 90.7902 277.647 91.1784 277.647" fill="black"/>
<path fill-rule="evenodd" clip-rule="evenodd" d="M251.374 116.408C251.374 116.408 244.32 109.745 234.478 119.386C220.352 133.219 232.128 182.236 259.603 161.367L251.374 116.408" fill="white"/>
<path fill-rule="evenodd" clip-rule="evenodd" d="M251.373 116.408L251.86 115.893C251.825 115.861 251.183 115.261 250.022 114.658C248.864 114.058 247.178 113.458 245.082 113.458C243.568 113.458 241.846 113.775 239.979 114.612C238.109 115.452 236.097 116.81 233.984 118.881C231.835 120.988 230.286 123.825 229.269 127.061C228.253 130.297 227.77 133.935 227.77 137.669C227.77 144.634 229.456 151.932 232.671 157.557C234.28 160.369 236.274 162.765 238.659 164.469C241.038 166.174 243.818 167.176 246.909 167.172C250.841 167.172 255.237 165.57 260.029 161.929L260.375 161.668L252.026 116.051L251.86 115.893L251.373 116.408L250.682 116.535L258.907 161.495L259.602 161.368L259.175 160.807C254.549 164.318 250.449 165.761 246.909 165.761C244.122 165.761 241.659 164.875 239.478 163.319C236.214 160.99 233.624 157.123 231.866 152.549C230.106 147.98 229.178 142.722 229.181 137.669C229.178 134.059 229.654 130.555 230.617 127.485C231.581 124.415 233.034 121.782 234.972 119.887C236.987 117.915 238.86 116.662 240.554 115.9C242.248 115.141 243.762 114.869 245.082 114.869C246.906 114.869 248.367 115.392 249.373 115.914C249.877 116.171 250.265 116.433 250.523 116.623C250.65 116.718 250.749 116.796 250.809 116.849L250.876 116.909L250.89 116.919L251.373 116.408L250.682 116.535L251.373 116.408" fill="black"/>
<path fill-rule="evenodd" clip-rule="evenodd" d="M215.17 282.517C215.17 282.517 228.608 246.432 228.767 247.423L235.069 286.317L215.17 282.517ZM366.658 250.821C366.658 250.821 368.987 242.151 372.209 235.86C372.915 234.483 389.592 254.019 389.592 254.019L366.658 250.821ZM436.338 243.252C436.338 243.252 389.208 166.322 360.053 173.429C330.902 180.532 328.016 178.51 328.016 178.51L319.356 160.041L259.321 183.708C259.321 183.708 245.594 181.975 230.954 181.111C216.313 180.243 205.346 197.851 199.572 219.497C193.799 241.146 158.586 298.872 194.089 303.777C229.592 308.686 414.608 302.334 428.846 288.48C443.085 274.626 436.338 243.252 436.338 243.252V243.252Z" fill="white"/>
<path fill-rule="evenodd" clip-rule="evenodd" d="M215.167 282.516L215.827 282.763C215.83 282.76 216.031 282.213 216.391 281.253C217.644 277.894 220.788 269.495 223.675 261.937C225.114 258.157 226.494 254.59 227.539 251.968C228.057 250.659 228.495 249.586 228.816 248.852C228.971 248.482 229.102 248.199 229.19 248.019C229.233 247.935 229.268 247.871 229.278 247.857V247.853L228.95 247.635L229.233 247.91C229.275 247.868 229.278 247.857 229.278 247.853L228.95 247.635L229.233 247.91L228.781 247.469L229.12 248.002C229.183 247.963 229.211 247.931 229.233 247.91L228.781 247.469L229.12 248.002L228.753 247.423V248.108C228.947 248.104 229.056 248.04 229.12 248.002L228.753 247.423V248.108V247.412L228.403 248.016C228.509 248.079 228.643 248.111 228.753 248.108V247.412L228.403 248.016L228.749 247.412L228.22 247.861C228.262 247.913 228.326 247.97 228.403 248.016L228.749 247.412L228.22 247.861L228.742 247.419L228.1 247.659C228.121 247.709 228.153 247.779 228.22 247.861L228.742 247.419L228.1 247.659L228.714 247.43L228.068 247.539C228.075 247.568 228.082 247.606 228.1 247.659L228.714 247.43L228.068 247.539V247.536L234.208 285.435L215.301 281.821L215.167 282.516L215.827 282.763L215.167 282.516L215.036 283.208L235.923 287.199L229.462 247.31V247.307C229.448 247.243 229.437 247.151 229.342 247.007C229.293 246.936 229.215 246.855 229.106 246.791C229 246.728 228.862 246.696 228.753 246.696C228.622 246.696 228.523 246.731 228.456 246.76C228.319 246.827 228.269 246.883 228.227 246.922C228.149 247.003 228.121 247.049 228.086 247.102C228.026 247.201 227.973 247.299 227.909 247.426C227.673 247.913 227.299 248.792 226.808 249.999C225.1 254.198 222.027 262.261 219.377 269.28C216.73 276.299 214.507 282.269 214.507 282.269L214.214 283.053L215.036 283.208L215.167 282.516ZM366.659 250.821L367.34 251.005C367.34 251.005 367.351 250.973 367.368 250.909C367.499 250.429 368.12 248.199 369.083 245.362C370.047 242.525 371.352 239.077 372.838 236.184V236.18L372.319 235.916L372.598 236.427C372.704 236.371 372.796 236.268 372.838 236.18L372.319 235.916L372.598 236.427L372.337 235.947V236.498C372.393 236.498 372.492 236.484 372.598 236.427L372.337 235.947V236.498V236.145L372.245 236.487C372.256 236.491 372.284 236.498 372.337 236.498V236.145L372.245 236.487L372.263 236.42L372.238 236.484L372.245 236.487L372.263 236.42L372.238 236.484C372.256 236.487 372.422 236.575 372.626 236.727C373.018 237.013 373.593 237.521 374.271 238.174C375.463 239.321 376.991 240.916 378.604 242.663C381.021 245.281 383.636 248.238 385.647 250.535C386.649 251.686 387.503 252.67 388.103 253.369C388.407 253.718 388.643 253.997 388.806 254.184C388.968 254.374 389.056 254.477 389.056 254.477L389.592 254.018L389.691 253.319L366.758 250.122L366.659 250.821L367.34 251.005L366.659 250.821L366.56 251.52L391.336 254.974L390.129 253.559C390.129 253.559 386.237 248.997 382.126 244.434C380.068 242.151 377.962 239.864 376.25 238.142C375.393 237.278 374.638 236.558 374.02 236.036C373.713 235.774 373.441 235.563 373.191 235.404C373.067 235.323 372.947 235.252 372.817 235.196C372.686 235.143 372.545 235.09 372.337 235.086C372.217 235.086 372.069 235.108 371.92 235.189C371.772 235.266 371.645 235.407 371.582 235.542V235.538C369.944 238.739 368.547 242.5 367.555 245.475C366.567 248.45 365.982 250.627 365.978 250.638L365.77 251.41L366.56 251.52L366.659 250.821ZM436.336 243.252L436.936 242.881C436.925 242.867 426.152 225.276 411.691 207.661C404.46 198.85 396.313 190.035 388.101 183.397C383.994 180.077 379.872 177.303 375.828 175.348C371.784 173.397 367.811 172.261 364.01 172.257C362.609 172.257 361.23 172.412 359.885 172.74C341.331 177.264 333.448 178.072 330.265 178.072C329.362 178.072 328.843 178.005 328.578 177.952C328.444 177.924 328.377 177.903 328.356 177.892H328.349L328.176 178.281L328.419 177.935C328.377 177.903 328.349 177.892 328.349 177.892L328.176 178.281L328.419 177.935L328.014 178.51L328.652 178.214L319.714 159.141L259.062 183.051L259.319 183.708L259.408 183.006C259.397 183.006 245.663 181.273 230.994 180.405C230.634 180.384 230.278 180.373 229.921 180.373C226.244 180.373 222.793 181.502 219.635 183.514C214.892 186.534 210.781 191.51 207.313 197.71C203.844 203.91 201.017 211.345 198.89 219.316C197.937 222.898 196.137 227.553 193.978 232.807C190.738 240.697 186.684 249.953 183.437 259.145C180.191 268.341 177.742 277.467 177.738 285.173C177.738 287.665 177.996 290.008 178.575 292.16C179.446 295.386 181.055 298.18 183.589 300.305C186.123 302.429 189.549 303.865 193.992 304.479C198.057 305.04 204.006 305.45 211.41 305.721C218.813 305.997 227.663 306.131 237.501 306.131C271.091 306.131 316.182 304.571 354.271 301.674C373.319 300.227 390.61 298.442 403.85 296.345C410.473 295.297 416.081 294.172 420.403 292.965C422.566 292.362 424.405 291.737 425.901 291.084C427.394 290.428 428.544 289.754 429.335 288.988C433.11 285.311 435.429 280.48 436.812 275.36C438.192 270.236 438.636 264.813 438.636 259.904C438.636 250.599 437.031 243.132 437.024 243.104L436.999 242.984L436.936 242.881L436.336 243.252L435.644 243.4C435.644 243.4 435.651 243.425 435.662 243.481C435.831 244.3 437.228 251.333 437.225 259.904C437.228 264.728 436.784 270.039 435.446 274.993C434.113 279.947 431.886 284.538 428.35 287.975C427.764 288.547 426.741 289.179 425.333 289.789C422.694 290.947 418.731 292.069 413.723 293.124C404.958 294.969 392.988 296.621 379.121 298.057C337.509 302.362 278.781 304.719 237.501 304.719C227.677 304.719 218.841 304.585 211.463 304.313C204.087 304.042 198.159 303.629 194.186 303.078C191.352 302.687 189.006 301.956 187.082 300.943C184.196 299.426 182.241 297.288 180.974 294.627C179.711 291.966 179.15 288.766 179.15 285.173C179.146 280.233 180.208 274.577 181.878 268.652C184.376 259.759 188.229 250.274 191.829 241.643C195.428 233.004 198.77 225.238 200.255 219.68C203.054 209.171 207.09 199.637 212.133 192.78C214.653 189.35 217.419 186.594 220.39 184.706C223.365 182.815 226.534 181.785 229.921 181.785C230.25 181.785 230.578 181.795 230.909 181.813C238.218 182.247 245.3 182.893 250.554 183.436C253.179 183.704 255.353 183.948 256.863 184.124C257.622 184.212 258.211 184.283 258.617 184.332C259.02 184.382 259.231 184.406 259.231 184.406L259.411 184.431L318.998 160.94L327.456 178.983L327.608 179.089C327.724 179.166 327.908 179.255 328.299 179.336C328.691 179.413 329.298 179.484 330.265 179.484C333.67 179.48 341.606 178.648 360.221 174.113C361.449 173.813 362.712 173.668 364.01 173.668C367.525 173.668 371.301 174.727 375.214 176.619C382.06 179.925 389.301 185.765 396.274 192.671C406.737 203.031 416.61 215.777 423.862 225.926C427.486 231 430.453 235.425 432.518 238.583C433.548 240.161 434.353 241.42 434.899 242.285C435.171 242.719 435.383 243.054 435.521 243.28C435.662 243.502 435.732 243.619 435.732 243.619L436.336 243.252L435.644 243.4L436.336 243.252V243.252Z" fill="black"/>
<path fill-rule="evenodd" clip-rule="evenodd" d="M279.02 185.183C279.02 185.183 291.324 190.218 304.024 186.111C316.724 182.007 308.128 200.607 316.851 199.711C325.574 198.811 343.165 185.341 343.165 178.03C343.165 178.03 337.537 179.156 337.636 177.324C338.013 170.101 327.155 155.887 317.751 158.975C305.436 163.022 279.02 185.183 279.02 185.183" fill="#DBDBDB"/>
<path fill-rule="evenodd" clip-rule="evenodd" d="M278.45 181.753C274.749 196.778 262.052 202.456 256.674 202.099C254.705 201.972 253.721 201.037 254.508 199.453C257.461 193.549 253.375 171.438 253.375 171.438C253.375 171.438 274.318 164.338 278.348 173.876C279.16 175.778 279.29 178.34 278.45 181.753" fill="#222831"/>
<path fill-rule="evenodd" clip-rule="evenodd" d="M238.54 113.186C238.54 113.186 237.097 124.15 243.061 142.238C249.028 160.327 239.694 162.444 262.208 178.224C284.721 194.001 302.615 181.111 318.971 165.33C335.327 149.553 314.352 104.717 309.736 103.373C307.171 102.624 290.148 76.6458 273.111 77.715C259.462 78.5689 245.986 105.225 238.54 113.186" fill="white"/>
<path fill-rule="evenodd" clip-rule="evenodd" d="M238.539 113.186L237.837 113.091C237.833 113.119 237.678 114.319 237.678 116.549C237.678 121.161 238.345 130.194 242.389 142.46C243.86 146.924 244.386 150.382 244.7 153.347C244.936 155.57 245.049 157.518 245.356 159.402C245.586 160.817 245.931 162.197 246.524 163.598C247.417 165.704 248.864 167.843 251.263 170.277C253.667 172.716 257.029 175.458 261.8 178.799C269.133 183.944 276.053 186.115 282.602 186.115C289.504 186.115 295.955 183.711 302.046 179.985C308.14 176.259 313.895 171.206 319.46 165.838C321.785 163.598 323.377 160.796 324.383 157.666C325.392 154.529 325.815 151.06 325.819 147.432C325.812 137.746 322.784 126.916 319.337 118.348C317.615 114.064 315.783 110.352 314.16 107.624C313.348 106.259 312.59 105.144 311.905 104.315C311.559 103.898 311.235 103.552 310.92 103.281C310.603 103.012 310.299 102.804 309.932 102.691L309.911 102.758L309.939 102.695L309.932 102.691L309.911 102.758L309.939 102.695C309.929 102.691 309.869 102.663 309.788 102.603C309.629 102.49 309.382 102.275 309.089 101.986C308.539 101.446 307.805 100.638 306.933 99.653C303.874 96.1984 299.071 90.5559 293.361 85.7639C290.503 83.3679 287.415 81.18 284.183 79.5815C280.951 77.9865 277.57 76.9773 274.137 76.9773C273.78 76.9773 273.424 76.9879 273.064 77.0091C271.247 77.1255 269.454 77.6654 267.7 78.5229C264.63 80.0261 261.666 82.4927 258.826 85.4463C254.563 89.8749 250.572 95.4044 247.029 100.479C245.261 103.016 243.603 105.437 242.089 107.54C240.578 109.646 239.206 111.439 238.024 112.702L237.868 112.868L237.837 113.091L238.539 113.186L239.054 113.666C240.97 111.612 243.211 108.443 245.741 104.809C249.527 99.3566 253.945 92.8673 258.656 87.6906C261.013 85.1005 263.441 82.8421 265.88 81.2083C268.321 79.5745 270.763 78.5688 273.152 78.417C273.48 78.3994 273.809 78.3888 274.137 78.3888C278.131 78.3853 282.172 79.8885 286.025 82.1998C291.805 85.6616 297.141 90.9229 301.248 95.3974C303.305 97.6346 305.056 99.6742 306.421 101.199C307.102 101.961 307.688 102.596 308.182 103.072C308.429 103.312 308.651 103.51 308.863 103.672C309.078 103.835 309.265 103.965 309.537 104.046C309.59 104.06 309.774 104.156 309.999 104.353C310.433 104.72 311.026 105.419 311.683 106.368C312.844 108.034 314.227 110.479 315.642 113.44C317.766 117.879 319.961 123.486 321.623 129.429C323.282 135.371 324.407 141.652 324.407 147.432C324.407 150.947 323.991 154.278 323.038 157.232C322.089 160.189 320.61 162.765 318.479 164.822C312.95 170.157 307.258 175.144 301.308 178.782C295.359 182.416 289.169 184.703 282.602 184.703C276.37 184.699 269.765 182.656 262.612 177.646C257.008 173.718 253.409 170.655 251.083 168.019C249.34 166.043 248.31 164.317 247.654 162.62C247.163 161.35 246.877 160.083 246.68 158.728C246.08 154.659 246.277 149.74 243.73 142.016C239.735 129.905 239.089 121.027 239.089 116.549C239.089 115.465 239.128 114.64 239.163 114.089C239.185 113.814 239.202 113.606 239.216 113.472C239.223 113.401 239.227 113.352 239.23 113.32L239.237 113.285V113.278L238.539 113.186L239.054 113.666L238.539 113.186" fill="black"/>
<path fill-rule="evenodd" clip-rule="evenodd" d="M240.995 131.179C240.995 131.179 266.494 115.55 291.456 123.285C291.456 123.285 298.383 125.964 301.079 131.546C303.772 137.125 307.618 140.424 310.413 154.942C313.01 168.439 311.207 171.322 311.207 171.322C311.207 171.322 325.195 159.589 325.865 157.045C326.539 154.501 333.72 106.188 311.097 88.6647C288.475 71.1409 272.888 72.87 272.888 72.87L238.158 118.716L240.995 131.179" fill="#DBDBDB"/>
<path fill-rule="evenodd" clip-rule="evenodd" d="M248.979 183.393C248.979 183.393 249.97 221.631 250.567 226.808C251.163 231.988 273.369 266.732 302.873 258.108C332.377 249.483 307.108 280.836 279.912 273.691C252.716 266.545 249.085 237.839 249.212 231.423C249.342 225.012 246.936 183.178 246.936 183.178L248.979 183.393" fill="#DBDBDB"/>
<path fill-rule="evenodd" clip-rule="evenodd" d="M339.944 179.314C333.532 192.784 314.16 201.634 317.163 195.864C320.173 190.088 317.163 149.817 317.163 149.817C317.163 149.817 322.869 146.97 326.309 139.789C328.038 136.189 329.203 131.496 328.783 125.526C328.61 123.062 321.351 132.368 319.16 129.22C312.833 128.01 309.713 122.833 302.374 119.258L302.37 119.255C297.476 116.866 290.704 115.193 279.857 115.878C279.857 115.878 273.942 106.64 271.441 83.9392C271.441 83.9392 268.459 100.972 274.426 117.141C274.426 117.141 242.145 117.656 238.383 130.886C238.383 130.886 217.564 118.376 247.198 80.2799C249.859 76.8535 252.668 74.1257 255.586 72.012C258.504 69.9018 261.532 68.4056 264.623 67.4529C266.56 66.7789 268.491 66.2531 270.389 65.8473C285.951 62.5303 299.406 67.4529 299.406 67.4529C334.355 73.1024 343.498 116.284 343.762 147.718C343.893 162.673 342.012 174.97 339.944 179.314" fill="#222831"/>
<path fill-rule="evenodd" clip-rule="evenodd" d="M329.147 103.62C329.147 103.62 322.093 96.9572 312.248 106.598C298.126 120.43 309.898 169.452 337.376 148.579L329.147 103.62" fill="white"/>
<path fill-rule="evenodd" clip-rule="evenodd" d="M329.148 103.619L329.632 103.108C329.597 103.076 328.958 102.473 327.797 101.873C326.636 101.273 324.953 100.673 322.857 100.673C321.343 100.669 319.617 100.987 317.751 101.827C315.884 102.667 313.872 104.022 311.755 106.093C309.61 108.2 308.061 111.04 307.044 114.276C306.028 117.512 305.541 121.15 305.541 124.884C305.545 131.849 307.231 139.147 310.446 144.772C312.052 147.581 314.049 149.977 316.434 151.681C318.813 153.385 321.593 154.388 324.685 154.388C328.616 154.388 333.012 152.782 337.804 149.144L338.15 148.879L329.801 103.267L329.632 103.108L329.148 103.619L328.453 103.746L336.682 148.706L337.377 148.579L336.95 148.018C332.321 151.533 328.22 152.976 324.685 152.976C321.897 152.973 319.43 152.09 317.253 150.534C313.989 148.205 311.399 144.334 309.638 139.761C307.881 135.195 306.953 129.933 306.953 124.884C306.953 121.274 307.425 117.77 308.392 114.7C309.356 111.626 310.809 108.997 312.743 107.102C314.762 105.126 316.635 103.873 318.329 103.115C320.023 102.353 321.537 102.084 322.857 102.084C324.677 102.084 326.138 102.603 327.148 103.125C327.652 103.386 328.04 103.648 328.298 103.838C328.425 103.933 328.52 104.011 328.584 104.064L328.651 104.12L328.665 104.135L329.148 103.619L328.453 103.746L329.148 103.619" fill="black"/>
<path fill-rule="evenodd" clip-rule="evenodd" d="M352.527 176.061C352.527 176.061 351.394 216.867 350.561 221.518C349.728 226.169 366.98 234.652 367.51 245.281L365.826 250.38L348.539 223.138C348.539 223.138 351.588 190.684 351.108 176.297L352.527 176.061" fill="#DBDBDB"/>
<path fill-rule="evenodd" clip-rule="evenodd" d="M345.073 123.448C347.709 136.007 343.394 147.542 335.433 149.215C327.469 150.887 318.876 142.062 316.24 129.503C313.601 116.944 317.92 105.409 325.881 103.736C333.845 102.064 342.438 110.889 345.073 123.448" fill="#556DEE"/>
<path fill-rule="evenodd" clip-rule="evenodd" d="M345.071 123.448L344.38 123.592C344.895 126.045 345.138 128.459 345.138 130.756C345.142 135.382 344.147 139.553 342.411 142.686C341.543 144.253 340.495 145.562 339.298 146.55C338.099 147.542 336.761 148.216 335.286 148.527C334.683 148.65 334.076 148.714 333.465 148.714C331.761 148.714 330.032 148.227 328.345 147.309C325.818 145.933 323.401 143.572 321.404 140.488C319.403 137.404 317.819 133.6 316.93 129.358C316.414 126.906 316.167 124.496 316.167 122.195C316.167 117.569 317.162 113.398 318.899 110.264C319.763 108.698 320.815 107.388 322.011 106.4C323.207 105.409 324.548 104.738 326.023 104.428C326.627 104.301 327.234 104.237 327.84 104.237C329.548 104.237 331.277 104.724 332.964 105.642C335.491 107.018 337.904 109.379 339.905 112.463C341.906 115.547 343.49 119.351 344.38 123.592L345.763 123.303C344.528 117.428 342.019 112.346 338.843 108.701C337.255 106.88 335.498 105.416 333.638 104.403C331.782 103.39 329.817 102.826 327.84 102.826C327.138 102.826 326.432 102.9 325.734 103.044C324.022 103.404 322.466 104.191 321.111 105.313C319.079 106.993 317.498 109.414 316.414 112.307C315.335 115.201 314.756 118.575 314.756 122.195C314.756 124.595 315.013 127.1 315.546 129.648C316.781 135.523 319.29 140.605 322.466 144.25C324.054 146.071 325.811 147.535 327.671 148.548C329.527 149.56 331.489 150.125 333.465 150.125C334.171 150.125 334.877 150.055 335.575 149.906C337.287 149.546 338.843 148.759 340.198 147.641C342.231 145.958 343.812 143.537 344.891 140.643C345.971 137.75 346.55 134.376 346.55 130.756C346.55 128.356 346.296 125.851 345.763 123.303L345.071 123.448" fill="black"/>
<path fill-rule="evenodd" clip-rule="evenodd" d="M331.591 104.237C331.591 104.237 312.624 49.3011 271.059 57.5725C271.059 57.5725 308.784 61.6517 322.109 105.433C322.109 105.433 325.43 120.017 332.635 115.275C332.635 115.275 335.585 113.376 331.591 104.237" fill="#FCE4E2"/>
<path fill-rule="evenodd" clip-rule="evenodd" d="M331.591 104.237L332.258 104.007C332.244 103.968 328.126 92.0413 319.495 80.0682C315.179 74.0835 309.727 68.0811 303.075 63.5642C296.424 59.0474 288.551 56.0162 279.461 56.0198C276.723 56.0198 273.875 56.2915 270.921 56.8808L266.408 57.7806L270.985 58.2747L271.006 58.2782C271.514 58.3346 280.897 59.5097 291.748 65.9991C297.172 69.242 302.966 73.8117 308.217 80.2376C313.468 86.667 318.178 94.949 321.432 105.638L322.11 105.433L321.421 105.588C321.428 105.616 322.046 108.348 323.359 111.128C324.019 112.519 324.844 113.927 325.899 115.028C326.425 115.575 327.011 116.047 327.671 116.386C328.327 116.725 329.058 116.93 329.837 116.93C330.857 116.93 331.93 116.587 333.024 115.864L332.636 115.275L333.017 115.867C333.098 115.814 333.454 115.56 333.779 114.964C334.104 114.375 334.39 113.457 334.39 112.116C334.39 110.299 333.874 107.705 332.237 103.954L331.591 104.237L332.258 104.007L331.591 104.237L330.945 104.519C332.53 108.15 332.978 110.571 332.978 112.116C332.978 113.26 332.738 113.923 332.54 114.287C332.442 114.47 332.346 114.583 332.29 114.639L332.233 114.692V114.696L332.424 114.946L332.255 114.682L332.233 114.696L332.424 114.946L332.255 114.682L332.248 114.685C331.327 115.289 330.536 115.515 329.837 115.518C329.301 115.515 328.804 115.384 328.317 115.133C327.466 114.696 326.662 113.881 325.966 112.871C324.915 111.361 324.11 109.449 323.581 107.924C323.316 107.162 323.119 106.495 322.988 106.022C322.925 105.786 322.875 105.595 322.843 105.468C322.826 105.405 322.815 105.355 322.808 105.323L322.798 105.285V105.278L322.791 105.253L322.784 105.228C319.428 94.1973 314.523 85.6436 309.057 79.0343C300.852 69.1185 291.381 63.5784 283.967 60.5189C276.553 57.463 271.183 56.8773 271.137 56.8737L271.059 57.5724L271.197 58.2676C274.066 57.6959 276.818 57.4313 279.461 57.4313C288.234 57.4313 295.81 60.3425 302.281 64.7323C311.986 71.3169 319.17 81.2574 323.902 89.5535C326.27 93.7033 328.031 97.4367 329.192 100.133C329.774 101.481 330.208 102.568 330.497 103.316C330.642 103.69 330.748 103.979 330.818 104.177C330.854 104.272 330.882 104.346 330.9 104.395C330.917 104.445 330.924 104.466 330.924 104.466L330.931 104.494L330.945 104.519L331.591 104.237" fill="black"/>
<path fill-rule="evenodd" clip-rule="evenodd" d="M260.529 141.176C260.529 141.176 260.561 141.356 260.614 141.68C260.808 142.824 261.291 145.77 261.729 149.091C262.163 152.411 262.548 156.11 262.548 158.721C262.548 159.465 262.516 160.122 262.449 160.644C262.424 160.856 262.41 161.057 262.41 161.247C262.41 161.636 262.467 161.981 262.587 162.288C262.763 162.751 263.102 163.104 263.5 163.301C263.899 163.502 264.344 163.573 264.799 163.573C265.427 163.573 266.091 163.439 266.747 163.252C268.712 162.68 270.625 161.583 270.643 161.572C270.897 161.427 270.985 161.103 270.84 160.849C270.696 160.595 270.371 160.506 270.117 160.655L270.085 160.672C269.905 160.771 269.051 161.24 268 161.681C267.474 161.9 266.899 162.112 266.341 162.267C265.784 162.419 265.244 162.514 264.799 162.514C264.57 162.514 264.365 162.49 264.203 162.444C263.952 162.37 263.797 162.264 263.677 162.101C263.56 161.935 263.469 161.674 263.469 161.247C263.469 161.106 263.476 160.951 263.5 160.778C263.575 160.189 263.606 159.497 263.606 158.721C263.606 155.626 263.095 151.212 262.587 147.549C262.078 143.893 261.574 140.999 261.57 140.992C261.521 140.706 261.246 140.512 260.96 140.565C260.67 140.615 260.48 140.89 260.529 141.176" fill="black"/>
<path fill-rule="evenodd" clip-rule="evenodd" d="M270.888 173.295C270.909 173.298 271.107 173.327 271.463 173.327C272.381 173.327 274.364 173.147 277.155 171.947C279.95 170.747 283.553 168.531 287.734 164.459C287.943 164.254 287.946 163.919 287.741 163.711C287.54 163.503 287.205 163.495 286.993 163.7C282.896 167.695 279.399 169.833 276.739 170.976C274.075 172.116 272.247 172.264 271.463 172.268C271.312 172.268 271.199 172.261 271.128 172.254C271.093 172.254 271.065 172.25 271.05 172.25L271.036 172.247L271.029 172.296L271.036 172.247L271.029 172.296L271.036 172.247C270.747 172.204 270.479 172.406 270.436 172.695C270.398 172.984 270.599 173.252 270.888 173.295" fill="black"/>
<path fill-rule="evenodd" clip-rule="evenodd" d="M231.613 291.077C231.613 291.077 220.568 280.414 235.268 247.25C242.707 230.468 246.942 224.342 246.942 224.342C246.942 224.342 258.936 273.472 294.149 261.736C329.363 249.996 347.257 221.709 347.257 221.709C347.257 221.709 368.807 244.819 368.807 260.765C368.807 260.765 334.91 259.04 325.114 273.762C315.315 288.48 230.939 315.708 231.613 291.077" fill="#556DEE"/>
<path fill-rule="evenodd" clip-rule="evenodd" d="M231.615 291.077L232.106 290.572L231.884 290.802L232.106 290.572L231.884 290.802L232.106 290.572C232.102 290.569 231.164 289.644 230.225 287.485C229.283 285.329 228.337 281.938 228.337 276.983C228.337 270.282 230.07 260.719 235.914 247.536C239.629 239.159 242.537 233.449 244.517 229.839C245.505 228.036 246.26 226.755 246.768 225.929C247.022 225.516 247.213 225.216 247.34 225.022C247.403 224.924 247.449 224.853 247.481 224.807L247.516 224.754L247.523 224.74L246.944 224.341L246.26 224.507C246.27 224.546 248.67 234.398 254.514 244.303C257.439 249.254 261.225 254.223 266.035 257.977C270.845 261.728 276.699 264.255 283.658 264.251C286.982 264.251 290.553 263.676 294.374 262.402C312.11 256.492 325.47 246.421 334.401 237.828C343.329 229.236 347.835 222.122 347.856 222.086L347.26 221.709L346.745 222.192C346.745 222.192 346.762 222.213 346.805 222.256C347.422 222.926 352.775 228.791 357.959 236.388C360.549 240.189 363.097 244.42 364.988 248.637C366.88 252.854 368.108 257.056 368.104 260.765H368.81L368.849 260.059C368.838 260.059 367.607 259.996 365.546 259.996C361.149 259.996 352.987 260.278 344.881 262.071C340.827 262.967 336.786 264.237 333.233 266.062C329.679 267.883 326.602 270.254 324.528 273.37C323.73 274.57 322.326 275.942 320.427 277.371C317.107 279.877 312.293 282.58 306.619 285.205C298.104 289.147 287.641 292.923 277.278 295.71C266.917 298.495 256.641 300.287 248.539 300.287C243.578 300.291 239.439 299.606 236.63 298.149C235.225 297.418 234.156 296.511 233.433 295.403C232.709 294.295 232.318 292.983 232.314 291.37C232.314 291.278 232.318 291.19 232.321 291.098L232.328 290.788L232.106 290.572L231.615 291.077L230.91 291.059C230.906 291.162 230.903 291.268 230.903 291.37C230.903 293.215 231.368 294.832 232.251 296.176C232.911 297.185 233.796 298.039 234.858 298.745C236.457 299.8 238.447 300.534 240.751 301.007C243.056 301.483 245.678 301.699 248.539 301.699C254.866 301.699 262.383 300.64 270.227 298.897C281.988 296.282 294.477 292.122 304.703 287.619C309.816 285.368 314.365 283.035 317.982 280.755C319.792 279.616 321.366 278.49 322.668 277.389C323.97 276.288 324.997 275.212 325.703 274.153C327.598 271.302 330.466 269.061 333.875 267.318C338.985 264.696 345.28 263.207 351.11 262.388C356.936 261.566 362.296 261.407 365.546 261.407C366.562 261.407 367.37 261.421 367.928 261.439C368.203 261.446 368.418 261.453 368.559 261.46C368.633 261.46 368.686 261.464 368.722 261.467C368.76 261.467 368.775 261.467 368.775 261.467L369.516 261.506V260.765C369.516 256.619 368.129 252.106 366.086 247.642C363.016 240.948 358.446 234.359 354.638 229.43C350.831 224.504 347.786 221.24 347.775 221.229L347.154 220.562L346.663 221.331L346.653 221.349C346.399 221.744 341.822 228.816 333.004 237.211C324.185 245.609 311.132 255.331 293.93 261.065C290.235 262.297 286.819 262.84 283.658 262.84C277.045 262.836 271.526 260.462 266.903 256.862C259.976 251.467 255.131 243.291 252.047 236.456C250.501 233.04 249.397 229.959 248.677 227.739C248.317 226.631 248.056 225.735 247.883 225.118C247.795 224.811 247.731 224.574 247.689 224.412C247.668 224.331 247.654 224.271 247.643 224.232C247.632 224.19 247.629 224.172 247.629 224.172L247.255 222.648L246.362 223.939C246.334 223.985 242.078 230.146 234.626 246.964C228.722 260.282 226.926 270.039 226.926 276.983C226.926 282.199 227.942 285.826 228.98 288.162C230.013 290.495 231.069 291.532 231.125 291.585L231.615 291.077L230.91 291.059L231.615 291.077" fill="black"/>
<path fill-rule="evenodd" clip-rule="evenodd" d="M373.105 235.115C373.105 235.115 387.397 249.226 392.63 256.859C397.863 264.492 404.727 256.153 404.727 256.153C404.727 256.153 386.007 234.271 383.882 230.369C381.123 225.301 376.507 226.138 373.105 235.115" fill="#DBDBDB"/>
<path fill-rule="evenodd" clip-rule="evenodd" d="M244.479 180.955C244.479 180.955 246.493 204.199 246.942 224.341Z" fill="#FEF9E6"/>
<path fill-rule="evenodd" clip-rule="evenodd" d="M243.774 181.016C243.774 181.016 243.806 181.376 243.862 182.05C244.25 186.768 245.842 206.761 246.233 224.356C246.241 224.748 246.565 225.055 246.953 225.047C247.345 225.037 247.652 224.716 247.645 224.324C247.193 204.154 245.182 180.903 245.182 180.892C245.147 180.504 244.804 180.218 244.416 180.25C244.028 180.285 243.742 180.628 243.774 181.016" fill="black"/>
<path fill-rule="evenodd" clip-rule="evenodd" d="M223.598 348.843C223.598 348.843 215.637 388.061 217.38 413.123C217.673 417.354 224.431 417.156 225.878 413.172L437.79 384.116C437.79 384.116 394.69 363.815 394.979 331.584C395.229 303.488 223.598 348.843 223.598 348.843" fill="#556DEE"/>
<path fill-rule="evenodd" clip-rule="evenodd" d="M223.6 348.843L222.908 348.702C222.905 348.709 221.288 356.687 219.669 367.753C218.049 378.823 216.426 392.973 216.426 405.352C216.426 408.059 216.503 410.684 216.676 413.172C216.719 413.789 216.881 414.35 217.146 414.83C217.541 415.557 218.151 416.094 218.854 416.432C219.552 416.775 220.343 416.934 221.144 416.934C222.234 416.934 223.349 416.641 224.323 416.058C225.29 415.476 226.116 414.587 226.543 413.412L225.879 413.172L225.975 413.871L440.247 384.49L438.095 383.477L438.067 383.463C437.449 383.17 426.799 378.026 416.344 369.062C411.114 364.584 405.937 359.15 402.08 352.911C398.224 346.669 395.683 339.633 395.683 331.905C395.683 331.799 395.683 331.697 395.683 331.591L395.686 331.52C395.686 330.613 395.521 329.756 395.192 328.965C394.621 327.582 393.573 326.435 392.168 325.511C390.058 324.12 387.14 323.185 383.544 322.575C379.948 321.968 375.671 321.696 370.862 321.696C358.994 321.696 343.867 323.355 327.828 325.835C279.717 333.281 223.43 348.158 223.42 348.158L222.996 348.271L222.908 348.702L223.6 348.843L223.78 349.524C223.78 349.524 224.168 349.421 224.912 349.227C230.488 347.777 255.944 341.245 285.533 335.074C300.325 331.989 316.148 328.997 331.033 326.777C345.913 324.554 359.855 323.108 370.862 323.108C378.11 323.104 384.084 323.743 388.156 325.154C390.192 325.856 391.741 326.753 392.754 327.804C393.259 328.33 393.636 328.891 393.887 329.505C394.141 330.119 394.271 330.783 394.275 331.52V331.577C394.271 331.686 394.271 331.795 394.271 331.905C394.271 340.077 397.003 347.477 401.068 353.956C407.172 363.678 416.27 371.356 423.842 376.625C431.415 381.889 437.467 384.741 437.491 384.755L437.791 384.116L437.696 383.414L225.361 412.53L225.216 412.928C224.909 413.768 224.33 414.407 223.593 414.848C222.862 415.293 221.977 415.526 221.144 415.522C220.325 415.526 219.566 415.3 219.034 414.897C218.765 414.696 218.547 414.453 218.384 414.156C218.222 413.86 218.116 413.507 218.084 413.077C217.915 410.624 217.837 408.034 217.837 405.352C217.837 393.093 219.45 378.985 221.063 367.958C221.871 362.443 222.679 357.696 223.282 354.33C223.586 352.647 223.84 351.309 224.016 350.392C224.104 349.933 224.171 349.58 224.217 349.344C224.267 349.104 224.291 348.984 224.291 348.98L223.6 348.843L223.78 349.524L223.6 348.843" fill="black"/>
<path fill-rule="evenodd" clip-rule="evenodd" d="M136.613 338.126H776.803L661.928 276.941H225.118" fill="#EEF1FE"/>
<path fill-rule="evenodd" clip-rule="evenodd" d="M136.616 338.832H779.632L662.107 276.235H225.121C224.729 276.235 224.415 276.553 224.415 276.941C224.415 277.333 224.729 277.647 225.121 277.647H661.754L773.979 337.42H136.616C136.228 337.42 135.91 337.738 135.91 338.126C135.91 338.514 136.228 338.832 136.616 338.832" fill="black"/>
<path fill-rule="evenodd" clip-rule="evenodd" d="M536.4 310.845C536.4 310.845 522.748 324.696 538.913 327.388C555.075 330.081 663.33 338.638 670.394 312.232C677.455 285.823 614.206 294.098 614.206 294.098L536.4 310.845" fill="#556DEE" fill-opacity="0.19"/>
<path fill-rule="evenodd" clip-rule="evenodd" d="M348.539 300.143C348.539 300.143 393.248 310.616 414.894 311.174C436.543 311.731 521.695 312.476 561.231 306.202C600.767 299.931 491.383 291.039 491.383 291.039L348.539 300.143" fill="#556DEE" fill-opacity="0.19"/>
<path fill-rule="evenodd" clip-rule="evenodd" d="M186.969 310.224L159.836 329.276L242.769 326.195V331.584H261.82V326.195L347.255 328.118L344.64 301.663L343.793 291.077L289.338 298.293L234.801 299.641L195.448 303.954L186.969 310.224" fill="black"/>
<path fill-rule="evenodd" clip-rule="evenodd" d="M343.798 324.138L341.49 291.384L334.464 292.315L327.633 311.332L343.798 324.138" fill="#556DEE"/>
<path fill-rule="evenodd" clip-rule="evenodd" d="M343.796 324.138L344.499 324.089L342.138 290.587L333.944 291.674L326.795 311.569L344.612 325.684L344.499 324.089L343.796 324.138L344.234 323.584L328.468 311.092L334.982 292.958L340.836 292.182L343.091 324.187L343.796 324.138L344.234 323.584L343.796 324.138" fill="black"/>
<path fill-rule="evenodd" clip-rule="evenodd" d="M167.254 327.286L201.786 299.931L213.424 300.315L184.527 318.884L167.254 327.286" fill="#556DEE"/>
<path fill-rule="evenodd" clip-rule="evenodd" d="M167.252 327.286L167.69 327.836L202.021 300.643L211.136 300.947L184.18 318.266L166.942 326.65L167.252 327.286L167.69 327.836L167.252 327.286L167.559 327.921L184.871 319.501L215.709 299.684L201.552 299.214L161.74 330.751L167.559 327.921L167.252 327.286" fill="black"/>
<path fill-rule="evenodd" clip-rule="evenodd" d="M264.322 301.663C264.322 301.663 274.326 292.714 292.609 293.29C310.888 293.868 334.46 292.316 334.46 292.316L333.592 313.88L322.942 318.499C322.942 318.499 265.282 317.137 259.894 322.723C254.509 328.312 251.273 330.43 248.178 329.276C245.08 328.118 255.278 300.22 264.322 301.663" fill="white"/>
<path fill-rule="evenodd" clip-rule="evenodd" d="M264.326 301.663L264.795 302.189L264.764 302.15L264.795 302.189L264.764 302.15L264.795 302.189C264.827 302.157 267.156 300.1 271.574 298.053C275.992 296.007 282.499 293.971 290.919 293.971C291.469 293.971 292.023 293.978 292.588 293.995C295.464 294.087 298.467 294.126 301.487 294.126C317.734 294.126 334.499 293.021 334.509 293.018L334.464 292.316L333.758 292.287L332.911 313.411L322.667 317.85L322.946 318.499L322.963 317.793C322.96 317.793 316.763 317.645 308.238 317.645C299.494 317.649 288.304 317.8 278.829 318.425C274.09 318.739 269.782 319.17 266.401 319.762C264.711 320.059 263.253 320.394 262.075 320.789C261.485 320.987 260.967 321.199 260.519 321.431C260.07 321.668 259.693 321.922 259.393 322.236C257.187 324.523 255.353 326.209 253.789 327.3C253.006 327.847 252.293 328.242 251.64 328.5C250.987 328.754 250.395 328.874 249.834 328.874C249.357 328.874 248.898 328.789 248.426 328.612L248.376 328.754L248.464 328.634L248.426 328.612L248.376 328.754L248.464 328.634L248.426 328.683L248.475 328.641L248.464 328.634L248.426 328.683L248.475 328.641C248.471 328.641 248.419 328.563 248.383 328.397C248.344 328.235 248.32 327.995 248.32 327.698C248.32 327.039 248.44 326.114 248.676 325.027C249.085 323.122 249.844 320.719 250.85 318.203C252.36 314.427 254.435 310.383 256.725 307.331C257.869 305.803 259.068 304.525 260.25 303.65C260.84 303.212 261.425 302.877 261.99 302.651C262.558 302.426 263.105 302.313 263.638 302.313C263.832 302.313 264.023 302.327 264.213 302.359L264.545 302.411L264.795 302.189L264.326 301.663L264.436 300.965C264.171 300.922 263.906 300.901 263.638 300.901C262.516 300.901 261.422 301.268 260.377 301.875C258.55 302.944 256.838 304.758 255.257 306.946C252.886 310.235 250.815 314.388 249.322 318.227C248.577 320.15 247.977 321.989 247.561 323.609C247.145 325.232 246.912 326.622 246.908 327.698C246.908 328.182 246.954 328.605 247.085 328.99C247.152 329.184 247.247 329.368 247.385 329.537C247.522 329.706 247.713 329.855 247.935 329.936C248.549 330.165 249.188 330.285 249.834 330.285C250.596 330.285 251.369 330.123 252.155 329.812C253.338 329.346 254.559 328.563 255.907 327.466C257.254 326.368 258.73 324.953 260.406 323.213C260.557 323.058 260.815 322.868 261.175 322.681C261.845 322.328 262.855 321.982 264.114 321.675C266.323 321.131 269.305 320.69 272.742 320.341C283.06 319.293 297.503 319.057 308.238 319.057C312.494 319.057 316.167 319.095 318.775 319.131C320.08 319.148 321.121 319.17 321.834 319.18C322.547 319.194 322.928 319.205 322.932 319.205L323.087 319.208L334.284 314.353L335.198 291.561L334.418 291.61C334.414 291.61 334.157 291.628 333.666 291.659C330.247 291.871 315.648 292.714 301.487 292.714C298.477 292.714 295.489 292.676 292.634 292.587C292.055 292.566 291.483 292.559 290.919 292.559C282.203 292.559 275.449 294.687 270.872 296.822C266.295 298.96 263.896 301.099 263.853 301.138L264.326 301.663L264.436 300.965L264.326 301.663" fill="black"/>
<path fill-rule="evenodd" clip-rule="evenodd" d="M184.525 318.883L215.063 293.289C215.063 293.289 223.352 295.788 241.427 292.316C259.497 288.843 264.325 301.663 264.325 301.663L251.303 326.626C251.303 326.626 247.39 321.191 232.957 321.576C218.528 321.964 184.525 318.883 184.525 318.883" fill="white"/>
<path fill-rule="evenodd" clip-rule="evenodd" d="M184.523 318.884L184.975 319.423L215.513 293.833L215.061 293.289L214.856 293.967C214.924 293.988 217.877 294.867 224.021 294.867C228.29 294.867 234.102 294.44 241.555 293.007C243.672 292.601 245.595 292.425 247.339 292.425C250.56 292.425 253.179 293.028 255.303 293.921C258.489 295.266 260.582 297.273 261.881 298.95C262.53 299.786 262.982 300.538 263.264 301.074C263.409 301.342 263.507 301.557 263.574 301.702C263.606 301.776 263.627 301.829 263.641 301.864L263.659 301.903L263.663 301.91L263.73 301.886L263.663 301.91L263.73 301.886L263.663 301.91L264.322 301.663L263.694 301.335L250.673 326.297L251.301 326.626L251.873 326.213C251.813 326.132 250.807 324.78 248.133 323.46C245.454 322.137 241.114 320.853 234.402 320.853C233.926 320.853 233.439 320.86 232.938 320.87C232.098 320.895 231.188 320.906 230.217 320.906C222.468 320.906 211.049 320.224 201.581 319.543C196.846 319.201 192.597 318.862 189.531 318.605C187.999 318.478 186.761 318.372 185.91 318.298C185.056 318.224 184.587 318.181 184.587 318.181L184.523 318.884L184.975 319.423L184.523 318.884L184.46 319.586C184.463 319.586 191.994 320.27 201.479 320.951C210.964 321.632 222.394 322.317 230.217 322.317C231.195 322.317 232.119 322.306 232.977 322.282C233.464 322.271 233.936 322.264 234.402 322.264C240.937 322.264 245.048 323.513 247.508 324.724C248.736 325.331 249.555 325.93 250.059 326.368C250.313 326.587 250.486 326.763 250.596 326.883C250.649 326.94 250.684 326.986 250.705 327.01L250.726 327.038L250.73 327.042L251.023 326.823L250.726 327.038L250.73 327.042L251.023 326.823L250.726 327.038L251.397 327.967L265.092 301.709L264.982 301.413C264.958 301.349 263.984 298.773 261.284 296.18C259.936 294.884 258.151 293.589 255.853 292.623C253.553 291.652 250.737 291.013 247.339 291.013C245.5 291.013 243.485 291.2 241.29 291.624C233.919 293.039 228.195 293.455 224.021 293.455C221.014 293.455 218.812 293.24 217.365 293.028C216.642 292.922 216.109 292.817 215.76 292.739C215.587 292.7 215.46 292.668 215.375 292.647C215.333 292.633 215.305 292.626 215.287 292.623L215.266 292.615H215.262L215.206 292.817L215.266 292.615H215.262L215.206 292.817L215.266 292.615L214.899 292.506L182.77 319.434L184.46 319.586L184.523 318.884" fill="black"/>
<path fill-rule="evenodd" clip-rule="evenodd" d="M251.242 330.334C251.242 330.334 252.971 320.037 240.08 317.536C227.186 315.034 184.527 318.884 184.527 318.884L167.254 327.285L241.255 324.261C242.78 324.198 244.216 325.571 244.265 327.303L244.025 330.236L251.242 330.334" fill="#556DEE"/>
<path fill-rule="evenodd" clip-rule="evenodd" d="M251.239 330.334L251.934 330.451C251.938 330.419 252.022 329.918 252.022 329.121C252.019 327.635 251.74 325.087 250.092 322.624C249.273 321.396 248.109 320.2 246.496 319.187C244.884 318.174 242.823 317.352 240.212 316.844C238.581 316.526 236.528 316.315 234.163 316.181C231.803 316.043 229.135 315.987 226.287 315.987C208.77 315.987 184.471 318.181 184.461 318.181L184.33 318.192L163.902 328.129L241.281 324.964H241.351C241.877 324.964 242.424 325.207 242.841 325.638C243.26 326.068 243.539 326.661 243.557 327.321L244.263 327.303L243.56 327.243L243.257 330.931L251.832 331.047L251.934 330.451L251.239 330.334L251.246 329.629L244.788 329.541L244.968 327.321V327.282C244.94 326.248 244.506 325.32 243.853 324.653C243.2 323.983 242.311 323.552 241.351 323.552C241.306 323.552 241.263 323.552 241.221 323.556L170.596 326.442L184.831 319.519L184.524 318.884L184.588 319.586C184.588 319.586 184.965 319.554 185.661 319.494C190.541 319.074 211.054 317.398 226.287 317.398C229.114 317.398 231.76 317.455 234.082 317.589C236.408 317.723 238.412 317.931 239.943 318.231C242.41 318.707 244.298 319.477 245.745 320.383C247.915 321.745 249.111 323.422 249.789 325.02C250.466 326.615 250.611 328.136 250.611 329.121C250.611 329.47 250.59 329.752 250.576 329.943C250.565 330.038 250.558 330.109 250.551 330.158L250.544 330.207L250.54 330.218L250.607 330.225L250.54 330.214V330.218L250.607 330.225L250.54 330.214L251.239 330.334L251.246 329.629L251.239 330.334" fill="black"/>
<path fill-rule="evenodd" clip-rule="evenodd" d="M251.239 330.334C251.239 330.334 250.081 319.748 267.4 316.622C284.72 313.495 333.593 313.88 333.593 313.88L343.794 324.138H263.822C261.924 324.138 260.378 325.666 260.283 327.783L260.184 330.334H251.239" fill="#556DEE"/>
<path fill-rule="evenodd" clip-rule="evenodd" d="M251.239 330.334L251.938 330.257L251.528 330.303L251.941 330.26L251.938 330.257L251.528 330.303L251.941 330.26L251.938 330.239C251.934 330.197 251.927 330.087 251.927 329.921C251.927 329.48 251.977 328.641 252.28 327.592C252.735 326.019 253.737 323.983 256.02 322.063C258.304 320.143 261.889 318.337 267.528 317.317C270.954 316.699 275.683 316.212 281.036 315.838C297.092 314.713 318.769 314.571 328.494 314.571C330.089 314.571 331.363 314.575 332.238 314.578C333.113 314.582 333.586 314.586 333.589 314.586L333.593 313.88L333.095 314.377L342.097 323.432H263.823C262.683 323.432 261.635 323.898 260.873 324.671C260.11 325.447 259.63 326.53 259.577 327.751L259.507 329.629H251.239V330.334L251.938 330.257L251.239 330.334V331.04H260.865L260.985 327.811V327.815C261.028 326.922 261.37 326.181 261.882 325.662C262.393 325.144 263.067 324.844 263.823 324.844H345.488L333.889 313.178L333.6 313.174C333.6 313.174 331.691 313.16 328.494 313.16C322.001 313.16 310.197 313.22 298.27 313.597C292.307 313.785 286.315 314.053 280.937 314.43C275.556 314.808 270.795 315.291 267.277 315.926C263.396 316.629 260.4 317.701 258.088 318.968C254.62 320.863 252.703 323.196 251.68 325.26C250.657 327.324 250.516 329.103 250.516 329.921C250.516 330.214 250.533 330.387 250.537 330.408L250.604 331.04H251.239V330.334" fill="black"/>
<path fill-rule="evenodd" clip-rule="evenodd" d="M348.569 175.062C348.569 175.062 350.142 191.608 347.256 221.709Z" fill="#FEF9E6"/>
<path fill-rule="evenodd" clip-rule="evenodd" d="M347.865 175.129C347.865 175.129 347.865 175.144 347.869 175.175C347.914 175.684 348.288 180.126 348.288 188.154C348.288 196.002 347.929 207.273 346.552 221.642C346.514 222.03 346.799 222.376 347.188 222.411C347.576 222.45 347.922 222.164 347.957 221.776C349.34 207.361 349.7 196.044 349.7 188.154C349.7 179.544 349.269 175.017 349.269 174.995C349.231 174.607 348.888 174.321 348.5 174.36C348.112 174.396 347.826 174.741 347.865 175.129" fill="black"/>
<path fill-rule="evenodd" clip-rule="evenodd" d="M438.488 274.485C438.499 280.798 435.418 287.351 424.536 290.879C399.496 298.999 347.496 270.028 346.783 269.629L346.773 269.626C339.659 283.765 333.113 288.289 333.113 288.289C332.538 291.945 329.651 294.927 329.651 294.927C331.765 294.158 339.754 296.949 332.922 300.7C326.087 304.451 320.318 301.66 320.318 301.66C316.468 304.546 313.105 303.481 313.105 303.481C304.364 305.658 305.017 291.987 305.109 290.534C304.999 291.066 304.004 293.431 295.302 300.989C285.104 309.843 274.327 301.949 279.017 300.989C283.714 300.026 305.691 276.553 306.464 273.472C307.233 270.391 321.471 260.197 328.787 253.94C336.095 247.687 339.369 248.263 348.124 249.611C356.875 250.959 433.079 258.27 433.079 258.27C433.079 258.27 438.471 266.168 438.488 274.485" fill="white"/>
<path fill-rule="evenodd" clip-rule="evenodd" d="M438.49 274.485H437.784V274.52C437.781 277.562 437.043 280.6 435.021 283.325C432.992 286.045 429.65 288.48 424.318 290.209C421.337 291.176 417.928 291.61 414.237 291.61C407.652 291.61 400.185 290.23 392.694 288.141C370.219 281.874 347.572 269.262 347.127 269.012L347.092 268.994L346.46 268.677L346.146 269.308C342.61 276.327 339.23 280.943 336.742 283.794C335.5 285.223 334.48 286.208 333.778 286.832C333.425 287.146 333.153 287.368 332.973 287.51C332.881 287.58 332.814 287.633 332.768 287.665L332.723 287.7L332.712 287.707L332.461 287.88L332.416 288.177C332.154 289.856 331.339 291.441 330.577 292.591C330.2 293.166 329.836 293.632 329.568 293.953C329.437 294.112 329.328 294.235 329.254 294.317C329.215 294.359 329.187 294.391 329.169 294.408L329.148 294.429L329.144 294.433L327.013 296.635L329.893 295.59C330.013 295.545 330.256 295.502 330.559 295.502C330.962 295.502 331.47 295.569 331.985 295.693C332.761 295.883 333.566 296.212 334.12 296.61C334.399 296.808 334.61 297.016 334.741 297.214C334.875 297.411 334.925 297.577 334.928 297.754C334.928 297.866 334.903 297.994 334.84 298.145C334.741 298.375 334.536 298.664 334.173 298.996C333.809 299.327 333.287 299.694 332.585 300.079C329.949 301.526 327.5 301.953 325.503 301.953C324.017 301.953 322.786 301.713 321.928 301.48C321.501 301.36 321.166 301.244 320.944 301.159C320.834 301.113 320.75 301.081 320.697 301.056L320.64 301.032L320.626 301.025L320.241 300.838L319.896 301.095C317.81 302.655 315.929 302.966 314.705 302.969C314.257 302.969 313.897 302.923 313.657 302.881C313.537 302.86 313.445 302.842 313.389 302.828L313.329 302.81L313.318 302.807L313.254 303.011L313.322 302.807H313.318L313.254 303.011L313.322 302.807L313.131 302.747L312.937 302.796C312.344 302.944 311.808 303.011 311.328 303.011C310.707 303.008 310.177 302.902 309.708 302.711C308.889 302.383 308.24 301.794 307.704 301.004C306.899 299.821 306.398 298.188 306.119 296.561C305.837 294.934 305.77 293.318 305.77 292.161C305.77 291.381 305.798 290.809 305.816 290.576L304.418 290.393C304.415 290.417 304.366 290.601 304.147 290.971C303.822 291.525 303.12 292.492 301.687 294.017C300.255 295.545 298.091 297.634 294.841 300.457C291.373 303.463 287.893 304.437 285.021 304.441C283.055 304.441 281.372 303.975 280.218 303.382C279.643 303.089 279.199 302.761 278.93 302.479C278.793 302.334 278.701 302.207 278.652 302.108C278.602 302.009 278.595 301.949 278.595 301.932V301.925L278.592 301.921L278.595 301.925L278.592 301.921L278.595 301.925L278.606 301.907C278.637 301.872 278.8 301.752 279.163 301.681C279.566 301.596 279.971 301.42 280.427 301.176C281.277 300.718 282.29 300.005 283.44 299.091C285.451 297.496 287.883 295.287 290.413 292.831C294.213 289.143 298.24 284.895 301.384 281.32C302.954 279.535 304.306 277.915 305.304 276.613C305.802 275.96 306.215 275.388 306.522 274.905C306.677 274.661 306.807 274.443 306.913 274.238C307.016 274.03 307.097 273.846 307.15 273.645V273.642C307.171 273.553 307.241 273.384 307.365 273.179C307.601 272.791 308.018 272.265 308.579 271.669C309.563 270.621 310.978 269.333 312.63 267.925C315.114 265.808 318.138 263.412 321.102 261.065C324.07 258.715 326.978 256.414 329.247 254.477C331.551 252.504 333.421 251.248 335.15 250.486C336.883 249.727 338.482 249.445 340.338 249.445C342.434 249.441 344.854 249.819 348.02 250.306C349.138 250.479 351.284 250.74 354.209 251.072C374.672 253.372 433.01 258.973 433.013 258.973L433.08 258.27L432.498 258.669V258.673C432.565 258.768 433.892 260.744 435.198 263.687C436.503 266.63 437.777 270.543 437.784 274.485H438.49L439.196 274.481C439.182 270.173 437.795 266.037 436.422 262.971C435.046 259.901 433.68 257.896 433.663 257.872L433.476 257.6L433.147 257.568C433.147 257.568 432.851 257.54 432.29 257.487C428.087 257.081 409.117 255.253 390.171 253.365C380.696 252.423 371.228 251.467 363.62 250.666C359.816 250.267 356.475 249.907 353.832 249.607C351.189 249.307 349.237 249.067 348.235 248.912C345.073 248.429 342.603 248.033 340.338 248.033C338.337 248.03 336.495 248.351 334.582 249.194C332.67 250.038 330.694 251.382 328.329 253.404C324.698 256.51 319.306 260.624 314.726 264.35C312.436 266.214 310.343 267.978 308.762 269.492C307.968 270.247 307.305 270.939 306.797 271.56C306.543 271.87 306.331 272.163 306.158 272.449C305.985 272.735 305.855 273.006 305.781 273.303V273.299C305.774 273.328 305.745 273.409 305.696 273.515C305.597 273.726 305.414 274.037 305.16 274.407C304.687 275.113 303.977 276.048 303.095 277.132C299.997 280.932 294.781 286.589 289.894 291.367C287.452 293.756 285.084 295.929 283.115 297.542C282.131 298.346 281.245 299.01 280.511 299.486C280.141 299.723 279.813 299.913 279.534 300.051C279.255 300.188 279.022 300.27 278.877 300.298C278.412 300.393 278.016 300.552 277.699 300.824C277.54 300.961 277.406 301.131 277.318 301.325C277.226 301.515 277.184 301.727 277.184 301.932C277.184 302.228 277.268 302.503 277.399 302.754C277.625 303.191 277.981 303.569 278.44 303.925C279.124 304.458 280.049 304.931 281.164 305.28C282.279 305.63 283.585 305.852 285.021 305.852C288.214 305.856 292.057 304.744 295.766 301.522C300.135 297.729 302.584 295.227 303.97 293.583C304.662 292.757 305.092 292.146 305.364 291.688C305.636 291.225 305.752 290.915 305.802 290.675L305.11 290.534L304.404 290.488C304.39 290.742 304.359 291.345 304.359 292.161C304.359 294.01 304.514 296.953 305.421 299.529C305.876 300.817 306.525 302.02 307.492 302.934C307.975 303.385 308.537 303.763 309.179 304.021C309.821 304.282 310.541 304.423 311.328 304.419C311.938 304.419 312.588 304.338 313.279 304.165L313.106 303.481L312.895 304.155C312.947 304.169 313.621 304.377 314.705 304.381C316.173 304.381 318.396 303.985 320.743 302.225L320.319 301.66L320.012 302.295C320.076 302.323 322.232 303.361 325.503 303.364C327.701 303.364 330.404 302.888 333.263 301.318C334.296 300.749 335.037 300.192 335.549 299.606C335.803 299.317 336.001 299.013 336.135 298.703C336.269 298.392 336.34 298.071 336.34 297.754C336.34 297.425 336.265 297.111 336.138 296.826C335.913 296.328 335.549 295.933 335.122 295.598C334.483 295.1 333.697 294.736 332.896 294.482C332.091 294.232 331.276 294.094 330.559 294.091C330.147 294.094 329.766 294.137 329.409 294.264L329.653 294.927L330.157 295.418C330.178 295.396 330.926 294.62 331.756 293.367C332.581 292.111 333.495 290.378 333.809 288.399L333.114 288.289L333.513 288.868C333.608 288.805 340.239 284.182 347.406 269.94L346.774 269.626L346.46 270.254L346.467 270.261L346.785 269.629L346.439 270.243C346.767 270.427 356.965 276.108 370.445 281.754C377.185 284.577 384.747 287.39 392.316 289.5C399.885 291.61 407.455 293.022 414.237 293.022C418.037 293.022 421.587 292.577 424.756 291.554C430.286 289.761 433.917 287.167 436.15 284.164C438.388 281.165 439.196 277.784 439.196 274.52V274.481L438.49 274.485" fill="black"/>
<path fill-rule="evenodd" clip-rule="evenodd" d="M312.513 288.607C312.51 288.614 312.139 290.185 311.765 292.306C311.391 294.43 311.017 297.098 311.014 299.359C311.017 300.457 311.102 301.459 311.349 302.299C311.476 302.715 311.642 303.096 311.889 303.428C312.136 303.753 312.482 304.028 312.902 304.155C313.272 304.268 313.667 304.06 313.78 303.686C313.897 303.315 313.685 302.92 313.314 302.807C313.216 302.772 313.127 302.719 313.014 302.574C312.849 302.362 312.683 301.943 312.58 301.381C312.475 300.82 312.425 300.125 312.425 299.359C312.425 297.253 312.789 294.627 313.156 292.549C313.339 291.508 313.523 290.601 313.657 289.959C313.727 289.634 313.784 289.377 313.823 289.2C313.844 289.112 313.858 289.045 313.868 288.999C313.879 288.957 313.886 288.932 313.886 288.932C313.974 288.554 313.741 288.173 313.36 288.082C312.983 287.993 312.602 288.226 312.513 288.607" fill="black"/>
<path fill-rule="evenodd" clip-rule="evenodd" d="M319.744 290.851C319.737 290.865 319.426 291.783 319.112 293.106C318.798 294.433 318.48 296.162 318.48 297.835C318.48 298.639 318.555 299.437 318.752 300.174C318.95 300.912 319.278 301.603 319.807 302.15C320.079 302.433 320.524 302.44 320.806 302.171C321.085 301.9 321.095 301.452 320.824 301.173C320.506 300.845 320.27 300.382 320.114 299.807C319.959 299.232 319.888 298.551 319.892 297.835C319.888 296.342 320.185 294.694 320.485 293.434C320.633 292.803 320.785 292.266 320.898 291.892C320.951 291.702 320.996 291.553 321.032 291.455C321.046 291.405 321.06 291.366 321.067 291.342L321.078 291.313V291.306C321.205 290.939 321.007 290.537 320.64 290.41C320.27 290.283 319.871 290.481 319.744 290.851" fill="black"/>
<path fill-rule="evenodd" clip-rule="evenodd" d="M438.489 273.645C438.5 279.958 435.419 286.514 424.537 290.043C399.496 298.159 347.497 269.188 346.784 268.789L346.773 268.786C346.773 268.786 348.7 264.936 351.975 266.475C355.154 267.971 409.246 284.951 438.489 273.645" fill="#DBDBDB"/>
<path fill-rule="evenodd" clip-rule="evenodd" d="M348.539 300.143H435.699V291.039H348.539V300.143Z" fill="white"/>
<path fill-rule="evenodd" clip-rule="evenodd" d="M348.538 291.038V291.744H434.992V299.437H349.244V291.038H348.538V291.744V291.038H347.832V300.848H436.404V290.333H347.832V291.038H348.538" fill="black"/>
<path fill-rule="evenodd" clip-rule="evenodd" d="M404.973 300.143L449.618 183.489H604.037L607.989 186.531L410.223 300.143H404.973" fill="white"/>
<path fill-rule="evenodd" clip-rule="evenodd" d="M404.976 300.143L405.636 300.397L450.105 184.195H603.8L606.725 186.446L410.04 299.437H404.976V300.143L405.636 300.397L404.976 300.143V300.848H410.417L609.263 186.619L604.28 182.783H449.135L403.949 300.848H404.976V300.143" fill="black"/>
<path fill-rule="evenodd" clip-rule="evenodd" d="M607.988 186.531H453.044L410.223 300.142H565.167L607.988 186.531" fill="white"/>
<path fill-rule="evenodd" clip-rule="evenodd" d="M607.99 186.53V185.825H452.559L409.205 300.848H565.659L609.01 185.825H607.99V186.53L607.33 186.283L564.682 299.436H411.248L453.537 187.236H607.99V186.53L607.33 186.283L607.99 186.53" fill="black"/>
<path fill-rule="evenodd" clip-rule="evenodd" d="M187.457 432.594L278.707 469.166V491.182L192.821 452.348C189.557 450.873 187.457 447.619 187.457 444.038V432.594" fill="#222831"/>
<path fill-rule="evenodd" clip-rule="evenodd" d="M278.709 469.166L429.087 447.228V463.971L278.709 491.182V469.166" fill="#222831"/>
<path fill-rule="evenodd" clip-rule="evenodd" d="M707.539 505.149H717.543V349.672H707.539V505.149Z" fill="#222831"/>
<path fill-rule="evenodd" clip-rule="evenodd" d="M635.951 505.149H645.959V349.672H635.951V505.149Z" fill="#222831"/>
<path fill-rule="evenodd" clip-rule="evenodd" d="M0.70575 504.701H162.915C163.307 504.701 163.621 504.383 163.621 503.995C163.621 503.603 163.307 503.289 162.915 503.289H0.70575C0.314059 503.289 0 503.603 0 503.995C0 504.383 0.314059 504.701 0.70575 504.701" fill="black"/>
<path fill-rule="evenodd" clip-rule="evenodd" d="M174.077 504.701H550.263C550.655 504.701 550.969 504.383 550.969 503.995C550.969 503.603 550.655 503.289 550.263 503.289H174.077C173.689 503.289 173.371 503.603 173.371 503.995C173.371 504.383 173.689 504.701 174.077 504.701" fill="black"/>
<path fill-rule="evenodd" clip-rule="evenodd" d="M567.003 505.855H820.653C821.044 505.855 821.359 505.537 821.359 505.149C821.359 504.761 821.044 504.443 820.653 504.443H567.003C566.614 504.443 566.297 504.761 566.297 505.149C566.297 505.537 566.614 505.855 567.003 505.855" fill="black"/>
<path fill-rule="evenodd" clip-rule="evenodd" d="M343.796 377.38C343.796 377.38 374.948 398.041 403.351 386.904C427.643 377.38 426.729 378.633 426.729 378.633C426.729 378.633 531.014 373.339 544.49 409.417C553.855 434.482 489.939 503.995 489.939 503.995H427.307C427.307 503.995 440.014 464.547 447.082 450.404C447.082 450.404 381.723 453.869 358.19 442.612C334.653 431.356 345.045 377.38 345.045 377.38" fill="#5856D6"/>
<path fill-rule="evenodd" clip-rule="evenodd" d="M343.402 377.969C343.427 377.987 348.293 381.212 355.943 384.441C363.594 387.666 374.028 390.905 385.211 390.905C391.238 390.905 397.48 389.963 403.606 387.564C413.219 383.791 418.879 381.713 422.199 380.58C423.858 380.012 424.931 379.684 425.615 379.497C425.954 379.405 426.197 379.349 426.363 379.317C426.444 379.303 426.504 379.292 426.547 379.289C426.589 379.282 426.61 379.282 426.61 379.282V378.805L426.416 379.232C426.561 379.292 426.607 379.278 426.61 379.282V378.805L426.416 379.232L426.691 378.629L426.155 379.017C426.24 379.137 426.346 379.201 426.416 379.232L426.691 378.629L426.155 379.017L426.709 378.615H426.024C426.021 378.738 426.067 378.901 426.155 379.017L426.709 378.615H426.024H426.702L426.074 378.361C426.053 378.417 426.024 378.498 426.024 378.615H426.702L426.074 378.361L426.709 378.618L426.141 378.237C426.12 378.269 426.099 378.304 426.074 378.361L426.709 378.618L426.141 378.237L425.354 379.409L426.762 379.335C426.762 379.335 426.843 379.331 427.005 379.324C428.138 379.271 433.16 379.063 440.542 379.063C454.925 379.063 478.271 379.857 499.274 384.12C509.772 386.247 519.685 389.247 527.575 393.421C531.52 395.507 534.957 397.882 537.72 400.581C540.483 403.277 542.565 406.291 543.828 409.664C544.432 411.28 544.721 413.112 544.721 415.134C544.721 418.585 543.874 422.58 542.374 426.909C539.749 434.486 535.126 443.089 529.667 451.702C521.477 464.625 511.41 477.586 503.396 487.311C499.387 492.174 495.89 496.225 493.399 499.062C492.15 500.48 491.155 501.595 490.47 502.354C490.131 502.735 489.867 503.024 489.687 503.222C489.51 503.416 489.418 503.515 489.418 503.515L489.937 503.995V503.289H427.305V503.995L427.976 504.21C427.976 504.21 428.025 504.058 428.121 503.765C428.83 501.578 432.08 491.609 435.979 480.539C437.927 475.003 440.041 469.191 442.077 463.94C444.109 458.689 446.071 453.996 447.712 450.721L448.252 449.634L447.042 449.698C447.042 449.698 446.897 449.709 446.611 449.723C444.628 449.818 435.947 450.203 424.549 450.203C413.967 450.203 401.037 449.871 388.951 448.671C382.91 448.071 377.081 447.253 371.865 446.155C366.653 445.061 362.055 443.681 358.491 441.974C355.485 440.534 353.05 438.374 351.074 435.678C348.11 431.638 346.197 426.384 345.036 420.678C343.875 414.975 343.462 408.831 343.462 403.016C343.462 396.17 344.034 389.787 344.602 385.122C344.884 382.786 345.17 380.884 345.382 379.561C345.488 378.901 345.58 378.389 345.64 378.04C345.671 377.867 345.696 377.733 345.71 377.644C345.728 377.556 345.735 377.514 345.735 377.514C345.809 377.129 345.558 376.762 345.177 376.688C344.793 376.614 344.422 376.865 344.352 377.246C344.344 377.274 342.054 389.173 342.051 403.016C342.054 410.857 342.785 419.322 345.114 426.634C346.278 430.29 347.845 433.66 349.934 436.511C352.023 439.366 354.641 441.698 357.881 443.247C361.604 445.026 366.293 446.427 371.576 447.538C379.501 449.204 388.761 450.22 398.034 450.824C407.304 451.427 416.589 451.614 424.549 451.614C437.613 451.614 447.109 451.109 447.116 451.109L447.081 450.404L446.449 450.09C444.663 453.664 442.539 458.792 440.348 464.49C433.784 481.58 426.635 503.773 426.631 503.776L426.335 504.701H490.248L490.456 504.471C490.467 504.461 504.352 489.361 518.248 470.676C525.196 461.336 532.148 451.095 537.378 441.381C539.993 436.525 542.173 431.797 543.708 427.372C545.24 422.943 546.129 418.814 546.133 415.134C546.133 412.981 545.826 410.977 545.152 409.17C543.807 405.574 541.588 402.384 538.705 399.569C533.655 394.642 526.573 390.842 518.4 387.878C506.145 383.439 491.423 380.887 477.389 379.441C463.355 377.994 450.016 377.651 440.542 377.651C432.076 377.651 426.698 377.927 426.691 377.927L426.727 378.632L427.312 379.024C427.334 378.996 427.358 378.954 427.383 378.89C427.408 378.83 427.436 378.742 427.436 378.615C427.439 378.488 427.394 378.315 427.298 378.188C427.228 378.096 427.147 378.029 427.073 377.987C426.963 377.923 426.875 377.902 426.804 377.888C426.73 377.874 426.67 377.87 426.61 377.87C426.458 377.87 426.31 377.891 426.095 377.93C425.725 378.004 425.163 378.145 424.26 378.424C421.546 379.25 415.724 381.293 403.091 386.247C397.152 388.576 391.09 389.494 385.211 389.494C374.304 389.497 364.031 386.322 356.494 383.139C352.725 381.551 349.641 379.959 347.503 378.767C346.433 378.17 345.597 377.676 345.036 377.33C344.754 377.157 344.539 377.02 344.394 376.928C344.323 376.882 344.27 376.847 344.235 376.826L344.193 376.801L344.182 376.79C343.858 376.575 343.42 376.667 343.205 376.992C342.989 377.316 343.078 377.754 343.402 377.969" fill="black"/>
<path fill-rule="evenodd" clip-rule="evenodd" d="M379.58 426.257C379.58 426.257 416.526 438.957 440.388 426.257C464.246 413.557 463.476 410.596 469.059 411.595C469.059 411.595 455.011 427.411 446.157 449.539C446.157 449.539 392.28 451.078 378.042 447.228C366.404 444.084 379.58 426.257 379.58 426.257" fill="#302EA7"/>
<path fill-rule="evenodd" clip-rule="evenodd" d="M447.737 450.658C447.737 450.658 447.747 450.637 447.765 450.587C448.065 449.822 450.726 443.142 455.066 435.043C459.406 426.945 465.441 417.424 472.424 410.995C472.71 410.734 472.728 410.286 472.466 410C472.202 409.714 471.754 409.693 471.468 409.957C464.05 416.793 457.815 426.828 453.404 435.163C448.997 443.498 446.428 450.132 446.421 450.15C446.28 450.513 446.463 450.923 446.826 451.064C447.19 451.205 447.596 451.022 447.737 450.658" fill="black"/>
<path fill-rule="evenodd" clip-rule="evenodd" d="M671.012 285.727C671.012 285.727 668.231 291.761 672.61 294.786L651.385 322.691L546.493 320.489C546.493 320.489 543.352 308.954 546.941 305.46L651.162 307.616L671.012 285.727" fill="white"/>
<path fill-rule="evenodd" clip-rule="evenodd" d="M651.163 307.616L546.408 305.538L579.96 278.839L676.093 280.12L651.163 307.616" fill="#222831"/>
<path fill-rule="evenodd" clip-rule="evenodd" d="M672.615 294.786L651.39 322.692L546.498 320.49C546.498 320.49 544.345 308.478 547.341 305.461C547.341 305.461 548.403 304.716 546.498 305.461C543.802 306.519 539.2 314.674 545.167 322.003L653.917 325.028L676.995 294.786H672.615" fill="#222831"/>
<path fill-rule="evenodd" clip-rule="evenodd" d="M650.839 322.102C645.86 314.095 650.43 308.46 650.627 308.202H651.164C651.114 308.259 646.718 314.593 651.386 322.102H650.839" fill="black"/>
<path fill-rule="evenodd" clip-rule="evenodd" d="M656.773 266.775C656.773 266.775 653.993 272.805 658.372 275.833L637.143 303.738L532.254 301.54C532.254 301.54 529.114 290.001 532.703 286.507L636.921 288.663L656.773 266.775" fill="white"/>
<path fill-rule="evenodd" clip-rule="evenodd" d="M636.921 288.664L532.17 286.585L565.721 259.887L661.855 261.168L636.921 288.664" fill="#222831"/>
<path fill-rule="evenodd" clip-rule="evenodd" d="M636.923 288.664L636.937 287.958L534.145 285.918L565.967 260.596L660.283 261.852L636.401 288.187L636.923 288.664L636.937 287.958L636.923 288.664L637.449 289.137L663.431 260.483L565.48 259.177L530.203 287.252L637.23 289.373L637.449 289.137L636.923 288.664" fill="black"/>
<path fill-rule="evenodd" clip-rule="evenodd" d="M658.373 275.833L637.144 303.738L532.255 301.54C532.255 301.54 530.103 289.524 533.099 286.507C533.099 286.507 534.161 285.763 532.255 286.507C529.559 287.562 524.954 295.721 530.925 303.05L639.674 306.074L662.752 275.833H658.373" fill="#222831"/>
<path fill-rule="evenodd" clip-rule="evenodd" d="M658.373 275.833L657.812 275.406L636.801 303.022L532.269 300.834L532.255 301.54L532.95 301.413L532.943 301.371C532.862 300.919 532.213 297.03 532.213 293.314C532.213 291.938 532.301 290.587 532.534 289.461C532.647 288.9 532.799 288.395 532.979 287.979C533.159 287.563 533.374 287.234 533.6 287.005L533.099 286.507L533.504 287.086C533.515 287.079 533.6 287.019 533.702 286.931C533.755 286.885 533.811 286.836 533.878 286.762C533.914 286.723 533.949 286.677 533.991 286.603C534.03 286.529 534.094 286.426 534.101 286.215C534.101 286.102 534.069 285.957 533.995 285.833C533.938 285.742 533.864 285.664 533.79 285.615C533.681 285.537 533.582 285.505 533.508 285.491C533.43 285.474 533.37 285.47 533.321 285.47C533.211 285.47 533.134 285.484 533.046 285.502C532.799 285.555 532.495 285.657 531.998 285.851C531.422 286.077 530.882 286.493 530.35 287.044C529.559 287.877 528.808 289.038 528.239 290.435C527.675 291.829 527.301 293.463 527.301 295.227C527.297 297.845 528.141 300.753 530.378 303.495L530.579 303.745L640.016 306.791L664.177 275.127H658.023L657.812 275.406L658.373 275.833V276.539H661.326L639.332 305.358L530.942 302.344L530.925 303.05L531.472 302.606C529.436 300.1 528.716 297.549 528.712 295.227C528.712 293.145 529.305 291.243 530.099 289.8C530.494 289.076 530.942 288.469 531.373 288.018C531.8 287.566 532.22 287.277 532.513 287.164C532.82 287.044 533.039 286.966 533.183 286.924C533.254 286.903 533.307 286.889 533.335 286.885L533.353 286.881L533.321 286.617V286.881H533.353L533.321 286.617V286.881V286.359L533.226 286.874C533.271 286.881 533.3 286.881 533.321 286.881V286.359L533.226 286.874L533.342 286.236L532.904 286.709C533.042 286.832 533.159 286.86 533.226 286.874L533.342 286.236L532.904 286.709L533.363 286.211L532.739 286.472C532.777 286.564 532.841 286.649 532.904 286.709L533.363 286.211L532.739 286.472L533.363 286.215H532.689C532.689 286.289 532.7 286.38 532.739 286.472L533.363 286.215H532.689H533.317L532.77 285.897C532.746 285.946 532.693 286.024 532.689 286.215H533.317L532.77 285.897L533.144 286.116L532.813 285.833C532.806 285.844 532.792 285.858 532.77 285.897L533.144 286.116L532.813 285.833L532.954 285.953L532.82 285.826L532.813 285.833L532.954 285.953L532.82 285.826L532.742 285.893L532.703 285.922L532.693 285.929V285.932L532.852 286.155L532.693 285.929V285.932L532.852 286.155L532.693 285.929L532.643 285.968L532.597 286.01C532.209 286.402 531.916 286.881 531.683 287.418C531.338 288.219 531.122 289.154 530.988 290.156C530.854 291.162 530.801 292.238 530.801 293.314C530.801 297.443 531.556 301.642 531.56 301.663L531.662 302.232L637.49 304.451L658.934 276.26L658.373 275.833V276.539V275.833" fill="black"/>
<path fill-rule="evenodd" clip-rule="evenodd" d="M636.605 302.316C631.626 295.269 636.195 290.308 636.393 290.086H636.926C636.88 290.135 632.483 295.711 637.148 302.316H636.605" fill="black"/>
<path fill-rule="evenodd" clip-rule="evenodd" d="M671.012 247.511C671.012 247.511 668.231 253.545 672.61 256.57L651.385 284.475L546.493 282.277C546.493 282.277 543.352 270.737 546.941 267.244L651.162 269.4L671.012 247.511" fill="white"/>
<path fill-rule="evenodd" clip-rule="evenodd" d="M651.163 269.4L546.408 267.321L579.96 240.623L676.093 241.904L651.163 269.4" fill="#556DEE"/>
<path fill-rule="evenodd" clip-rule="evenodd" d="M651.163 269.4L651.177 268.694L548.381 266.654L580.203 241.332L674.52 242.588L650.637 268.923L651.163 269.4L651.177 268.694L651.163 269.4L651.685 269.873L677.667 241.219L579.72 239.914L544.439 267.988L651.47 270.113L651.685 269.873L651.163 269.4" fill="black"/>
<path fill-rule="evenodd" clip-rule="evenodd" d="M672.615 256.569L651.39 284.475L546.498 282.276C546.498 282.276 544.345 270.261 547.341 267.244C547.341 267.244 548.403 266.499 546.498 267.244C543.802 268.299 539.2 276.457 545.167 283.787L653.917 286.811L676.995 256.569H672.615" fill="#556DEE"/>
<path fill-rule="evenodd" clip-rule="evenodd" d="M672.611 256.57L672.05 256.139L651.04 283.762L546.508 281.571L546.493 282.277L547.189 282.15L547.182 282.107C547.1 281.656 546.451 277.767 546.451 274.051C546.451 272.675 546.543 271.323 546.772 270.198C546.885 269.637 547.037 269.132 547.217 268.716C547.397 268.296 547.612 267.968 547.838 267.742L547.337 267.244L547.743 267.823C547.753 267.816 547.838 267.756 547.94 267.668C547.993 267.622 548.05 267.572 548.117 267.498C548.152 267.459 548.187 267.414 548.23 267.339C548.268 267.265 548.332 267.163 548.339 266.951C548.339 266.838 548.307 266.694 548.233 266.57C548.177 266.478 548.103 266.401 548.028 266.351C547.919 266.274 547.82 266.242 547.746 266.228C547.669 266.21 547.612 266.207 547.559 266.207C547.45 266.207 547.372 266.221 547.287 266.239C547.037 266.291 546.733 266.394 546.236 266.588C545.661 266.814 545.121 267.23 544.588 267.781C543.797 268.613 543.046 269.774 542.478 271.172C541.913 272.566 541.539 274.199 541.539 275.964C541.536 278.582 542.379 281.49 544.616 284.232L544.821 284.482L654.254 287.527L678.416 255.864H672.262L672.05 256.139L672.611 256.57V257.276H675.565L653.57 286.095L545.181 283.081L545.163 283.787L545.71 283.342C543.674 280.837 542.954 278.286 542.951 275.964C542.951 273.882 543.543 271.98 544.337 270.537C544.736 269.813 545.181 269.206 545.611 268.755C546.038 268.303 546.462 268.013 546.751 267.901C547.058 267.781 547.277 267.703 547.422 267.661C547.492 267.639 547.545 267.625 547.573 267.622L547.594 267.618L547.559 267.354V267.618H547.594L547.559 267.354V267.618V267.096L547.464 267.608C547.51 267.618 547.538 267.618 547.559 267.618V267.096L547.464 267.608L547.58 266.973L547.143 267.445C547.28 267.569 547.4 267.597 547.464 267.608L547.58 266.973L547.143 267.445L547.605 266.948L546.977 267.209C547.016 267.301 547.079 267.385 547.143 267.445L547.605 266.948L546.977 267.209L547.601 266.951H546.927C546.927 267.025 546.942 267.117 546.977 267.209L547.601 266.951H546.927H547.556L547.009 266.634C546.987 266.68 546.931 266.761 546.927 266.951H547.556L547.009 266.634L547.386 266.853L547.051 266.57C547.044 266.581 547.033 266.595 547.009 266.634L547.386 266.853L547.051 266.57L547.192 266.69L547.058 266.563L547.051 266.57L547.192 266.69L547.058 266.563V266.567V266.563V266.567V266.563L546.984 266.627L546.942 266.658L546.935 266.666H546.931L547.086 266.888L546.931 266.666L547.086 266.888L546.931 266.666L546.882 266.701L546.836 266.747C546.448 267.138 546.155 267.618 545.922 268.155C545.576 268.956 545.361 269.891 545.227 270.893C545.093 271.899 545.04 272.975 545.04 274.051C545.04 278.18 545.795 282.379 545.798 282.4L545.901 282.968L651.728 285.188L673.172 256.997L672.611 256.57V257.276V256.57" fill="black"/>
<path fill-rule="evenodd" clip-rule="evenodd" d="M650.839 283.328C645.86 275.963 650.43 270.78 650.627 270.543H651.164C651.118 270.596 646.718 276.422 651.386 283.328H650.839" fill="black"/>
<path fill-rule="evenodd" clip-rule="evenodd" d="M418.262 80.9684C419.988 65.1569 396.178 55.659 386.968 68.332C378.654 79.7747 385.208 102.324 386.563 106.61L396.09 109.19C396.721 108.785 397.887 108.012 399.362 106.924C404.008 103.505 411.741 96.9892 415.763 89.0093C417.051 86.4612 417.956 83.7622 418.262 80.9684" fill="white"/>
<path fill-rule="evenodd" clip-rule="evenodd" d="M418.261 80.9688L418.964 81.0449C419.297 77.9833 418.712 75.1284 417.484 72.625C416.252 70.1195 414.38 67.9629 412.14 66.2447C408.38 63.3653 403.586 61.7071 398.926 61.7526C396.596 61.7754 394.297 62.2269 392.191 63.1816C390.086 64.1336 388.172 65.5915 386.637 67.5984C386.553 67.7026 386.474 67.8112 386.395 67.9197C384.227 70.9086 383.052 74.5744 382.507 78.4391C381.693 84.2418 382.289 90.5157 383.206 95.7555C384.126 100.993 385.372 105.195 385.888 106.823L386.002 107.191L396.21 109.955L396.472 109.787C397.115 109.373 398.29 108.588 399.781 107.491C403.277 104.916 408.509 100.612 412.651 95.211C414.065 93.3687 415.351 91.4021 416.396 89.3264C417.711 86.7193 418.646 83.9409 418.964 81.0449L417.559 80.8928C417.265 83.5843 416.389 86.2039 415.134 88.6924C414.137 90.6712 412.9 92.5684 411.531 94.3519C407.515 99.5878 402.374 103.832 398.944 106.355C397.481 107.434 396.328 108.2 395.707 108.599L396.089 109.191L396.274 108.509L386.747 105.93L386.563 106.611L387.234 106.397C386.565 104.283 384.598 97.6106 383.843 90.0843C383.46 86.3218 383.382 82.3481 383.907 78.6371C384.426 74.9217 385.55 71.4791 387.539 68.748C387.609 68.6506 387.684 68.5526 387.754 68.4553C389.153 66.6375 390.866 65.332 392.773 64.469C395.632 63.1709 398.936 62.8763 402.194 63.4233C405.452 63.9653 408.654 65.3502 411.281 67.3647C413.37 68.9668 415.093 70.9645 416.214 73.2479C417.336 75.5313 417.863 78.1018 417.559 80.8928L418.261 80.9688" fill="black"/>
<path fill-rule="evenodd" clip-rule="evenodd" d="M396.088 109.19L395.515 108.301C395.351 108.406 395.228 108.485 395.142 108.539C395.1 108.565 395.067 108.584 395.049 108.597L395.025 108.61L395.018 108.614L395.568 109.52L395.825 108.495L387.049 106.294L386.791 107.32L387.794 106.981L387.789 106.969C387.773 106.921 387.694 106.687 387.569 106.289L386.562 106.61L386.281 107.631L395.81 110.213L396.088 109.19L395.515 108.301L396.088 109.19L396.364 108.169L384.968 105.081L385.552 106.929C385.699 107.398 385.786 107.656 385.789 107.663L385.977 108.207L395.738 110.655L396.115 110.425C396.122 110.421 396.315 110.302 396.664 110.08L398.666 108.792L396.364 108.169L396.088 109.19" fill="black"/>
<path fill-rule="evenodd" clip-rule="evenodd" d="M396.397 109.275L395.789 111.517L395.73 111.739L385.402 108.94L385.461 108.719L386.069 106.476L386.562 106.61L396.089 109.19L396.397 109.275" fill="#556DEE"/>
<path fill-rule="evenodd" clip-rule="evenodd" d="M390.581 117.361L387.281 116.467C385.603 116.011 384.613 114.286 385.067 112.611L385.312 111.705L394.68 114.243L394.436 115.146C393.98 116.824 392.256 117.814 390.581 117.361" fill="#556DEE"/>
<path fill-rule="evenodd" clip-rule="evenodd" d="M394.975 108.158V108.158C394.985 108.134 395.111 107.72 395.808 105.652C396.501 103.583 397.764 99.855 400.044 93.1719C400.644 91.4216 401.395 90.0542 402.205 88.9986C402.576 88.5142 402.961 88.0935 403.349 87.7328L404.669 86.4993L402.863 86.5108C402.697 86.5125 402.526 86.5099 402.352 86.5102C397.666 86.4686 394.694 85.7328 392.937 84.852L391.948 84.3557L391.916 85.4649C391.872 87.2148 391.61 89.4465 391.245 91.79C390.697 95.3102 389.912 99.0932 389.265 101.995C388.942 103.442 388.652 104.673 388.443 105.536C388.34 105.972 388.256 106.313 388.197 106.548C388.142 106.781 388.11 106.904 388.108 106.907C388.014 107.284 388.241 107.667 388.621 107.763C388.998 107.856 389.381 107.63 389.477 107.25C389.479 107.247 390.391 103.641 391.326 99.1283C391.794 96.872 392.269 94.3857 392.64 92.0062C393.011 89.6268 393.28 87.3563 393.328 85.5027L392.623 85.4824L392.306 86.1156C394.345 87.1328 397.511 87.8757 402.339 87.9188L402.337 87.9216C402.518 87.9229 402.697 87.922 402.871 87.9217L402.865 87.2152L402.385 86.6997C401.939 87.1183 401.503 87.5936 401.085 88.1395C400.174 89.3267 399.351 90.8346 398.708 92.7163C396.353 99.6132 395.084 103.367 394.402 105.397C393.722 107.432 393.628 107.734 393.623 107.752C393.514 108.127 393.724 108.519 394.096 108.631C394.471 108.746 394.864 108.535 394.978 108.16" fill="black"/>
<path fill-rule="evenodd" clip-rule="evenodd" d="M395.681 115.015L383.717 111.775L384.608 108.486L396.57 111.729L395.681 115.015" fill="#556DEE"/>
<path fill-rule="evenodd" clip-rule="evenodd" d="M395.682 115.015L395.821 114.504L384.366 111.401L384.981 109.138L395.922 112.1L395.171 114.877L395.682 115.015L395.821 114.504L395.682 115.015L396.191 115.152L397.221 111.357L384.236 107.837L383.07 112.145L396.052 115.664L396.191 115.152L395.682 115.015" fill="black"/>
<path fill-rule="evenodd" clip-rule="evenodd" d="M396.698 39.0751L397.911 52.0755C397.95 52.4655 398.294 52.7473 398.682 52.7113C399.07 52.6753 399.355 52.3332 399.319 51.9454L398.106 38.945C398.07 38.5571 397.725 38.2704 397.337 38.3064C396.949 38.3424 396.662 38.6873 396.698 39.0751" fill="#081535"/>
<path fill-rule="evenodd" clip-rule="evenodd" d="M366.856 50.7008L379.25 63.1961C379.523 63.4722 379.971 63.4735 380.249 63.1978C380.525 62.9248 380.527 62.4766 380.254 62.2005L367.86 49.7052C367.584 49.4269 367.136 49.4256 366.863 49.7007C366.584 49.9765 366.58 50.4225 366.856 50.7008" fill="#081535"/>
<path fill-rule="evenodd" clip-rule="evenodd" d="M361.668 69.8868L372.524 75.3365C372.872 75.5097 373.296 75.3682 373.472 75.0228C373.647 74.6725 373.506 74.2482 373.158 74.0751L362.302 68.6253C361.952 68.45 361.53 68.5887 361.354 68.939C361.181 69.2865 361.323 69.7108 361.668 69.8868" fill="#081535"/>
<path fill-rule="evenodd" clip-rule="evenodd" d="M440.198 61.9066L426.119 70.0522C425.782 70.2476 425.668 70.6804 425.863 71.0171C426.059 71.3538 426.489 71.4706 426.826 71.2753L440.906 63.1297C441.242 62.9343 441.359 62.5036 441.161 62.1648C440.966 61.8281 440.535 61.7112 440.198 61.9066" fill="#081535"/>
<path fill-rule="evenodd" clip-rule="evenodd" d="M447.153 88.7875L426.35 88.1198C425.958 88.1085 425.634 88.4156 425.622 88.8022C425.607 89.1917 425.912 89.5189 426.304 89.5302L447.108 90.1979C447.497 90.212 447.822 89.905 447.836 89.5155C447.847 89.1239 447.543 88.8016 447.153 88.7875" fill="#081535"/>
<path fill-rule="evenodd" clip-rule="evenodd" d="M371.639 236.981C371.639 236.981 373.17 232.164 376.893 226.649Z" fill="#FEF9E6"/>
<path fill-rule="evenodd" clip-rule="evenodd" d="M372.31 237.197V237.186C372.391 236.939 373.923 232.306 377.473 227.044C377.692 226.72 377.607 226.282 377.282 226.063C376.961 225.845 376.524 225.933 376.305 226.254C372.529 231.854 370.976 236.727 370.962 236.77C370.846 237.14 371.051 237.535 371.421 237.655C371.795 237.772 372.19 237.567 372.31 237.197" fill="black"/>
<path fill-rule="evenodd" clip-rule="evenodd" d="M220.74 233.929C220.74 233.929 226.637 236.607 228.98 248.739Z" fill="#FEF9E6"/>
<path fill-rule="evenodd" clip-rule="evenodd" d="M220.447 234.571L220.577 234.282L220.443 234.571H220.447L220.577 234.282L220.443 234.571C220.45 234.575 221.837 235.224 223.51 237.327C225.182 239.434 227.151 242.998 228.284 248.873C228.358 249.254 228.729 249.505 229.113 249.431C229.495 249.357 229.745 248.986 229.671 248.605C228.482 242.44 226.375 238.622 224.53 236.343C222.684 234.059 221.114 233.322 221.029 233.287C220.676 233.124 220.256 233.283 220.098 233.636C219.935 233.992 220.09 234.409 220.447 234.571" fill="black"/>
<path fill-rule="evenodd" clip-rule="evenodd" d="M214.681 281.843C214.776 281.553 228.178 247.014 228.178 247.014C228.178 247.014 225.648 238.259 220.743 234.409C220.743 234.409 217.952 233.442 218.721 241.333C219.49 249.227 209.102 280.304 209.102 280.304L214.681 281.843" fill="#DBDBDB"/>
<path fill-rule="evenodd" clip-rule="evenodd" d="M197.599 280.745C197.599 280.745 202.038 273.066 205.983 273.73C209.932 274.393 218.341 278.427 222.202 279.372C226.062 280.315 230.868 280.057 230.868 280.057C230.868 280.057 237.216 287.436 236.101 291.296C234.986 295.16 225.893 302.023 225.893 302.023C225.893 302.023 233.776 307.084 233.007 308.372C232.241 309.66 227.092 312.232 227.092 312.232L197.147 311.202C197.147 311.202 189.095 304.338 189.172 302.023C189.254 299.705 191.399 290.354 191.141 287.52C190.884 284.69 190.672 281.172 197.599 280.745" fill="white"/>
<path fill-rule="evenodd" clip-rule="evenodd" d="M197.597 280.745L198.208 281.098L198.218 281.08C198.328 280.897 199.358 279.164 200.787 277.513C201.504 276.687 202.315 275.886 203.141 275.307C203.55 275.021 203.963 274.789 204.358 274.633C204.757 274.474 205.135 274.397 205.491 274.397C205.618 274.397 205.742 274.407 205.865 274.425C206.779 274.58 208.025 274.947 209.408 275.427C211.49 276.147 213.9 277.121 216.155 278.003C218.417 278.889 220.509 279.683 222.034 280.057C224.631 280.689 227.56 280.794 229.324 280.794C230.284 280.794 230.895 280.763 230.905 280.763L230.866 280.057L230.33 280.519L230.344 280.533C230.489 280.703 231.808 282.269 233.079 284.253C233.714 285.241 234.335 286.335 234.79 287.393C235.249 288.452 235.528 289.482 235.524 290.297C235.524 290.594 235.489 290.862 235.422 291.102C235.313 291.49 235.076 291.967 234.744 292.489C234.166 293.399 233.291 294.433 232.306 295.453C230.831 296.984 229.116 298.491 227.772 299.613C227.101 300.171 226.522 300.633 226.113 300.958C225.908 301.12 225.743 301.244 225.633 301.332C225.577 301.374 225.534 301.406 225.506 301.427L225.464 301.459L224.656 302.069L225.51 302.616C225.51 302.616 225.534 302.634 225.584 302.666C225.972 302.916 227.733 304.074 229.381 305.33C230.203 305.958 231 306.614 231.565 307.179C231.847 307.458 232.07 307.715 232.204 307.913C232.271 308.008 232.317 308.089 232.338 308.142L232.352 308.188L232.359 308.185L232.352 308.188L232.359 308.185L232.352 308.188L232.504 308.167H232.352V308.188L232.504 308.167H232.352H232.662L232.398 308.012C232.363 308.068 232.352 308.139 232.352 308.167H232.662L232.398 308.012V308.008C232.366 308.068 232.243 308.216 232.059 308.382C231.734 308.679 231.226 309.042 230.665 309.406C229.822 309.953 228.844 310.507 228.082 310.916C227.701 311.124 227.373 311.297 227.14 311.417C227.024 311.473 226.932 311.523 226.868 311.555C226.808 311.586 226.776 311.6 226.776 311.6L227.091 312.232L227.115 311.526L197.17 310.5L197.146 311.202L197.604 310.665C197.604 310.665 197.573 310.641 197.516 310.591C197.086 310.221 195.127 308.513 193.289 306.639C192.371 305.704 191.482 304.726 190.843 303.873C190.526 303.449 190.268 303.054 190.102 302.729C189.933 302.405 189.873 302.147 189.876 302.059V302.052L189.774 302.048L189.876 302.055V302.052L189.774 302.048L189.876 302.055V302.048C189.883 301.815 189.919 301.459 189.979 301.025C190.183 299.497 190.653 297.002 191.073 294.535C191.281 293.297 191.478 292.065 191.627 290.954C191.771 289.839 191.867 288.847 191.867 288.064C191.867 287.845 191.86 287.647 191.842 287.457C191.796 286.942 191.75 286.416 191.75 285.911C191.75 285.354 191.807 284.821 191.951 284.341C192.061 283.981 192.216 283.653 192.449 283.346C192.795 282.891 193.31 282.474 194.139 282.135C194.965 281.793 196.105 281.543 197.643 281.447L198.021 281.426L198.208 281.098L197.597 280.745L197.555 280.039C196.094 280.131 194.915 280.353 193.952 280.696C193.232 280.95 192.636 281.274 192.149 281.659C191.418 282.231 190.946 282.943 190.681 283.685C190.416 284.426 190.342 285.184 190.339 285.911C190.342 286.497 190.388 287.062 190.437 287.587C190.448 287.718 190.455 287.88 190.455 288.064C190.455 288.829 190.342 289.966 190.162 291.243C189.894 293.163 189.488 295.418 189.139 297.401C188.966 298.392 188.807 299.317 188.687 300.1C188.567 300.887 188.482 301.526 188.465 301.999L189.171 302.023L188.468 301.992L188.465 302.059C188.465 302.306 188.514 302.535 188.588 302.764C188.73 303.195 188.966 303.622 189.262 304.077C189.778 304.864 190.494 305.722 191.284 306.583C193.649 309.152 196.676 311.731 196.687 311.742L196.874 311.9L227.246 312.945L227.405 312.864C227.415 312.86 228.71 312.211 230.115 311.396C230.817 310.986 231.547 310.535 232.168 310.09C232.479 309.868 232.761 309.649 233.005 309.43C233.248 309.208 233.453 308.996 233.612 308.732C233.718 308.555 233.763 308.347 233.763 308.167C233.763 307.934 233.7 307.736 233.622 307.56C233.474 307.225 233.248 306.928 232.977 306.618C232.497 306.074 231.851 305.499 231.138 304.917C229.003 303.181 226.282 301.438 226.272 301.427L225.891 302.023L226.314 302.585C226.325 302.577 228.611 300.852 231.05 298.629C232.271 297.517 233.531 296.282 234.572 295.058C235.09 294.447 235.556 293.84 235.937 293.247C236.315 292.651 236.611 292.072 236.777 291.494C236.89 291.105 236.936 290.707 236.936 290.297C236.932 289.14 236.562 287.926 236.039 286.726C235.249 284.927 234.095 283.162 233.135 281.828C232.175 280.498 231.41 279.609 231.399 279.598L231.173 279.334L230.827 279.351L230.803 279.355C230.686 279.358 230.136 279.383 229.324 279.383C227.623 279.387 224.765 279.274 222.366 278.684C221.455 278.462 220.22 278.042 218.84 277.523C216.765 276.747 214.352 275.759 212.079 274.898C210.943 274.467 209.842 274.069 208.829 273.744C207.817 273.419 206.896 273.169 206.102 273.035C205.897 272.999 205.692 272.985 205.491 272.985C204.905 272.985 204.334 273.119 203.79 273.338C202.841 273.726 201.966 274.365 201.165 275.096C199.962 276.197 198.931 277.509 198.187 278.554C197.446 279.602 196.994 280.378 196.987 280.389L197.597 280.745L197.555 280.039L197.597 280.745" fill="black"/>
<path fill-rule="evenodd" clip-rule="evenodd" d="M204.905 293.55C204.916 293.554 208.116 295.675 211.952 297.806C213.868 298.868 215.947 299.937 217.873 300.746C218.837 301.148 219.765 301.49 220.626 301.73C221.487 301.974 222.277 302.118 222.994 302.122C223.445 302.118 223.869 302.062 224.264 301.906C225.083 301.578 225.714 301.137 226.141 300.573C226.572 300.015 226.766 299.345 226.762 298.678C226.762 298.134 226.642 297.591 226.445 297.047C226.148 296.236 225.679 295.424 225.107 294.623C224.532 293.819 223.855 293.028 223.142 292.269C220.128 289.087 214.122 282.996 214.122 282.992C213.847 282.717 213.402 282.714 213.124 282.985C212.845 283.261 212.845 283.705 213.117 283.984C213.117 283.984 213.212 284.079 213.381 284.252C214.57 285.459 219.497 290.473 222.115 293.24C223.025 294.2 223.855 295.212 224.44 296.165C224.733 296.642 224.963 297.104 225.118 297.531C225.273 297.958 225.351 298.346 225.351 298.678C225.347 299.091 225.248 299.412 225.016 299.722C224.783 300.029 224.387 300.336 223.738 300.594C223.572 300.664 223.318 300.71 222.994 300.71C222.475 300.71 221.79 300.594 221.007 300.371C219.634 299.987 217.976 299.292 216.271 298.469C213.716 297.234 211.066 295.706 209.055 294.489C208.053 293.882 207.209 293.353 206.617 292.975C206.32 292.785 206.087 292.633 205.928 292.531C205.847 292.478 205.787 292.439 205.749 292.414C205.706 292.386 205.685 292.372 205.685 292.372C205.36 292.157 204.923 292.245 204.708 292.573C204.492 292.898 204.581 293.335 204.905 293.55" fill="black"/>
<path fill-rule="evenodd" clip-rule="evenodd" d="M215.639 284.722C215.639 284.722 219.439 285.505 223.271 284.722C227.104 283.938 228.325 285.078 228.162 286.137C228 287.199 223.028 292.333 223.028 292.333L215.639 284.722" fill="#DBDBDB"/>
<path fill-rule="evenodd" clip-rule="evenodd" d="M218.395 288.399L223.597 293.84L210.727 244.963C210.727 244.963 210.569 243.506 209.612 243.104C208.652 242.705 206.895 243.22 206.736 244.776L218.395 288.399" fill="#081535"/>
<path fill-rule="evenodd" clip-rule="evenodd" d="M221.906 301.307L223.081 305.799L226.716 312.864L227.002 304.596L225.802 299.779C225.802 299.779 224.588 302.09 221.906 301.307" fill="#081535"/>
<path fill-rule="evenodd" clip-rule="evenodd" d="M202.035 310.517L208.298 284.471C208.298 284.471 209.414 283.402 204.438 274.566C204.438 274.566 202.55 275.166 198.086 281.514C198.086 281.514 190.365 280.092 191.823 288.399C191.823 288.399 188.964 301.593 190.051 302.708C191.138 303.823 194.529 309.458 197.596 310.517H202.035" fill="#DBDBDB"/>
<path fill-rule="evenodd" clip-rule="evenodd" d="M225.881 413.172C225.881 413.172 225.881 468.012 311.721 457.045C311.721 457.045 320.127 486.58 334.464 503.995H389.495C389.495 503.995 383.147 349.093 325.131 362.947C267.114 376.805 225.881 413.172 225.881 413.172" fill="#5856D6"/>
<path fill-rule="evenodd" clip-rule="evenodd" d="M225.882 413.172H225.176C225.176 413.214 225.176 416.097 226.203 420.417C226.968 423.652 228.313 427.696 230.663 431.949C234.188 438.321 239.993 445.153 249.489 450.372C258.981 455.595 272.143 459.201 290.377 459.198C296.859 459.198 303.983 458.742 311.814 457.744L311.722 457.045L311.044 457.236C311.048 457.253 313.158 464.66 317.064 474.255C320.974 483.853 326.673 495.639 333.918 504.443L334.129 504.701H390.233L390.201 503.967C390.201 503.942 388.748 468.436 380.854 432.88C376.905 415.099 371.354 397.307 363.524 383.89C359.604 377.186 355.115 371.568 349.938 367.609C344.765 363.65 338.89 361.363 332.302 361.366C329.944 361.366 327.503 361.656 324.969 362.263C295.86 369.214 270.986 381.805 253.381 392.656C235.773 403.507 225.437 412.622 225.412 412.643L225.176 412.851V413.172H225.882L226.347 413.701C226.347 413.701 226.383 413.666 226.464 413.599C228.888 411.489 269.282 377.006 325.297 363.635C327.728 363.053 330.061 362.778 332.302 362.778C338.558 362.781 344.102 364.927 349.081 368.731C353.435 372.059 357.345 376.664 360.835 382.183C366.943 391.841 371.764 404.301 375.539 417.544C381.203 437.408 384.52 459.039 386.415 475.695C387.364 484.022 387.961 491.108 388.317 496.112C388.493 498.61 388.613 500.59 388.688 501.945C388.726 502.622 388.751 503.141 388.769 503.494C388.783 503.843 388.793 504.023 388.793 504.023L389.496 503.995V503.289H334.465V503.995L335.008 503.547C327.919 494.937 322.248 483.246 318.37 473.722C316.433 468.958 314.937 464.738 313.931 461.707C313.426 460.193 313.045 458.975 312.788 458.139C312.661 457.723 312.562 457.398 312.498 457.179C312.466 457.07 312.442 456.989 312.428 456.932C312.41 456.876 312.403 456.851 312.403 456.851L312.237 456.265L311.634 456.343C303.856 457.338 296.792 457.786 290.377 457.786C274.335 457.786 262.348 454.97 253.388 450.774C246.669 447.623 241.644 443.699 237.879 439.581C232.233 433.409 229.407 426.793 227.995 421.719C227.29 419.185 226.937 417.036 226.76 415.526C226.672 414.771 226.63 414.178 226.608 413.772C226.598 413.571 226.591 413.419 226.587 413.317C226.587 413.267 226.587 413.229 226.587 413.204V413.172H225.882L226.347 413.701L225.882 413.172" fill="black"/>
<path fill-rule="evenodd" clip-rule="evenodd" d="M312.339 456.702L312.332 456.695C312.11 456.286 303.821 440.887 300.14 410.391C300.094 410.007 299.742 409.728 299.353 409.777C298.969 409.823 298.693 410.176 298.739 410.561C302.505 441.737 311.065 457.316 311.101 457.384C311.288 457.726 311.718 457.849 312.06 457.662C312.403 457.472 312.526 457.045 312.339 456.702" fill="black"/>
<path fill-rule="evenodd" clip-rule="evenodd" d="M136.613 353.903H776.803V338.126H136.613V353.903Z" fill="#222831"/>
<path fill-rule="evenodd" clip-rule="evenodd" d="M298.767 412.656C298.767 412.656 298.51 408.641 292.61 416.227C286.706 423.818 291.583 441.137 280.037 446.525C268.491 451.91 259.641 453.195 259.641 453.195C259.641 453.195 277.344 461.533 310.31 456.272C310.31 456.272 305.179 453.068 298.767 412.656" fill="#302EA7"/>
<path fill-rule="evenodd" clip-rule="evenodd" d="M524.672 241.833C524.672 245.239 519.891 247.998 513.991 247.998C508.094 247.998 503.312 245.239 503.312 241.833C503.312 238.428 508.094 235.665 513.991 235.665C519.891 235.665 524.672 238.428 524.672 241.833" fill="#222831"/>
<path fill-rule="evenodd" clip-rule="evenodd" d="M252.387 149.363C252.775 150.643 252.458 151.875 251.674 152.111C250.891 152.351 249.938 151.508 249.55 150.227C249.158 148.95 249.479 147.718 250.263 147.478C251.046 147.238 251.995 148.085 252.387 149.363" fill="black"/>
<path fill-rule="evenodd" clip-rule="evenodd" d="M280.241 142.305C280.167 143.639 279.433 144.687 278.597 144.641C277.76 144.595 277.143 143.476 277.217 142.139C277.291 140.802 278.025 139.757 278.861 139.803C279.698 139.849 280.315 140.967 280.241 142.305" fill="black"/>
<path fill-rule="evenodd" clip-rule="evenodd" d="M243.936 141.755L243.794 141.726L243.932 141.758L243.936 141.755L243.794 141.726L243.932 141.758C243.936 141.737 244.165 140.721 244.909 139.754C245.284 139.27 245.785 138.794 246.452 138.441C247.122 138.085 247.962 137.845 249.052 137.845C249.391 137.845 249.751 137.866 250.139 137.919C250.432 137.958 250.697 137.753 250.735 137.464C250.774 137.174 250.57 136.91 250.28 136.871C249.85 136.811 249.44 136.786 249.052 136.786C247.785 136.783 246.744 137.076 245.915 137.527C244.673 138.201 243.918 139.207 243.48 140.029C243.039 140.855 242.905 141.511 242.898 141.543C242.838 141.829 243.022 142.111 243.307 142.167C243.597 142.227 243.876 142.044 243.936 141.755" fill="black"/>
<path fill-rule="evenodd" clip-rule="evenodd" d="M274.02 131.415L273.822 131.172L274.017 131.419L274.02 131.415L273.822 131.172L274.017 131.419L274.034 131.405C274.2 131.281 275.636 130.258 278.053 130.261C279.444 130.261 281.166 130.593 283.191 131.648C283.452 131.782 283.77 131.68 283.904 131.422C284.042 131.161 283.939 130.844 283.682 130.709C281.515 129.58 279.613 129.199 278.053 129.203C276.578 129.203 275.414 129.538 274.616 129.88C273.819 130.222 273.385 130.568 273.357 130.593C273.127 130.776 273.092 131.108 273.276 131.338C273.459 131.563 273.791 131.599 274.02 131.415" fill="black"/>
<path fill-rule="evenodd" clip-rule="evenodd" d="M269.94 72.0189C269.933 72.033 268.087 75.1842 266.242 80.1103C264.4 85.0365 262.551 91.7341 262.551 98.848C262.551 102.193 262.96 105.627 263.973 109.007C264.026 109.194 264.223 109.3 264.41 109.244C264.597 109.187 264.703 108.993 264.647 108.806C263.659 105.5 263.257 102.133 263.257 98.848C263.257 91.8576 265.077 85.2306 266.905 80.3574C267.816 77.9225 268.73 75.9217 269.414 74.5349C269.756 73.8398 270.039 73.2999 270.24 72.9329C270.339 72.7494 270.416 72.6082 270.469 72.5165C270.494 72.4671 270.515 72.4318 270.529 72.4106L270.547 72.3753C270.646 72.2059 270.589 71.9907 270.423 71.8919C270.254 71.7931 270.039 71.8495 269.94 72.0189" fill="white"/>
<path fill-rule="evenodd" clip-rule="evenodd" d="M256.847 110.141L256.844 110.134C256.759 109.961 255.214 106.675 255.214 101.961C255.214 100.116 255.45 98.0548 256.099 95.8705C256.156 95.6835 256.05 95.4858 255.863 95.4329C255.676 95.3765 255.478 95.4823 255.422 95.6693C254.751 97.9242 254.508 100.056 254.508 101.961C254.508 106.986 256.202 110.423 256.216 110.455C256.3 110.628 256.512 110.702 256.685 110.614C256.862 110.529 256.932 110.317 256.847 110.141" fill="white"/>
<path fill-rule="evenodd" clip-rule="evenodd" d="M236.409 120.949L236.405 120.942C236.292 120.801 234.122 117.985 234.126 113.443C234.126 111.372 234.57 108.941 235.876 106.217C235.957 106.04 235.883 105.832 235.71 105.747C235.534 105.662 235.322 105.737 235.237 105.913C233.889 108.725 233.416 111.27 233.42 113.443C233.42 118.37 235.834 121.358 235.858 121.39C235.982 121.542 236.204 121.567 236.356 121.443C236.508 121.323 236.532 121.101 236.409 120.949" fill="white"/>
<path fill-rule="evenodd" clip-rule="evenodd" d="M319.678 127.537C319.678 127.555 319.72 129.859 320.454 132.735C321.192 135.607 322.61 139.069 325.426 141.359C325.578 141.483 325.8 141.458 325.924 141.306C326.044 141.158 326.022 140.936 325.871 140.812C323.238 138.678 321.851 135.357 321.139 132.562C320.782 131.165 320.592 129.898 320.493 128.988C320.444 128.532 320.415 128.162 320.401 127.911C320.394 127.784 320.391 127.685 320.387 127.618C320.384 127.555 320.384 127.523 320.384 127.523C320.38 127.329 320.218 127.174 320.024 127.177C319.83 127.181 319.674 127.34 319.678 127.537" fill="white"/>
<path fill-rule="evenodd" clip-rule="evenodd" d="M255.516 177.158C255.516 177.158 255.519 177.179 255.533 177.225C255.706 177.927 257.132 183.852 257.132 190.539C257.132 192.575 257.001 194.682 256.662 196.732C256.631 196.926 256.761 197.106 256.952 197.138C257.146 197.17 257.326 197.043 257.358 196.849C257.703 194.753 257.837 192.607 257.837 190.539C257.837 183.302 256.2 176.996 256.197 176.978C256.147 176.791 255.957 176.678 255.766 176.728C255.579 176.777 255.466 176.968 255.516 177.158" fill="white"/>
<path fill-rule="evenodd" clip-rule="evenodd" d="M319.019 160.15C319.019 160.15 319.03 160.178 319.048 160.238C319.33 161.116 321.61 168.573 321.61 177.62C321.61 181.841 321.112 186.407 319.693 190.814C319.633 190.998 319.736 191.199 319.919 191.259C320.106 191.319 320.304 191.217 320.364 191.03C321.814 186.534 322.315 181.897 322.315 177.62C322.315 167.846 319.697 159.948 319.69 159.927C319.63 159.744 319.429 159.641 319.245 159.705C319.058 159.765 318.959 159.966 319.019 160.15" fill="white"/>
<path fill-rule="evenodd" clip-rule="evenodd" d="M133.252 337.262V353.903C133.252 354.295 133.566 354.609 133.958 354.609C134.346 354.609 134.663 354.295 134.663 353.903V337.262C134.663 336.87 134.346 336.556 133.958 336.556C133.566 336.556 133.252 336.87 133.252 337.262" fill="black"/>
</svg>
