<svg width="13" height="13" viewBox="0 0 13 13" fill="none" xmlns="http://www.w3.org/2000/svg">
<path fill-rule="evenodd" clip-rule="evenodd" d="M7.77625 1.08779C7.65541 1.07047 7.53404 1.1062 7.43747 1.18306C7.33822 1.26101 7.27618 1.3736 7.26269 1.49972C7.2341 1.75467 7.41805 1.98526 7.67267 2.01395C9.42857 2.2099 10.7934 3.57775 10.9908 5.33912C11.0172 5.57513 11.2152 5.75321 11.4515 5.75321C11.4693 5.75321 11.4866 5.75213 11.5044 5.74996C11.6279 5.73643 11.7379 5.67527 11.8156 5.57783C11.8928 5.4804 11.9278 5.35915 11.9138 5.23519C11.6678 3.03754 9.96694 1.33192 7.77625 1.08779ZM7.80973 2.9739C7.55187 2.92627 7.31506 3.09082 7.26597 3.34253C7.21688 3.59423 7.38195 3.83998 7.63279 3.88923C8.38802 4.03647 8.97116 4.62106 9.11897 5.37888V5.37942C9.16104 5.59756 9.35309 5.75616 9.57426 5.75616C9.60393 5.75616 9.6336 5.75345 9.66381 5.74804C9.91465 5.6977 10.0797 5.45249 10.0306 5.20025C9.81 4.0684 8.93879 3.19421 7.80973 2.9739ZM8.66687 8.17421C8.91142 8.0332 9.18762 7.87394 9.53603 7.94805C9.85161 8.01463 10.9273 8.88774 11.2218 9.19033C11.4149 9.38844 11.5223 9.59305 11.539 9.79766C11.5681 10.6004 10.4774 11.5168 10.2788 11.631C10.0151 11.821 9.70811 11.9168 9.36341 11.9168C9.01115 11.9168 8.61843 11.8167 8.19011 11.617C5.86617 10.6469 2.31607 7.16697 1.37744 4.86105C0.987957 4.00256 0.98526 3.29454 1.37096 2.76245C1.52471 2.51291 2.40131 1.46984 3.1862 1.50286C3.39497 1.52072 3.5978 1.6279 3.79686 1.82276C4.09787 2.11777 4.94911 3.19657 5.01493 3.51323C5.08775 3.86507 4.92808 4.14492 4.7862 4.39066C4.75594 4.44349 4.71517 4.50618 4.6705 4.57486C4.50098 4.83553 4.27534 5.18248 4.35518 5.40397C4.92754 6.80917 6.24972 8.0352 7.65552 8.61114C7.87292 8.69015 8.21967 8.46291 8.4795 8.29263C8.54719 8.24826 8.60898 8.20777 8.66105 8.17756L8.66687 8.17421Z" fill="#9A9A9A"/>
</svg>
