<svg width="24" height="24" viewBox="0 0 24 24" fill="none" xmlns="http://www.w3.org/2000/svg">
<path fill-rule="evenodd" clip-rule="evenodd" d="M17.44 6.2364C17.48 6.30633 17.55 6.35627 17.64 6.35627C20.04 6.35627 22 8.3141 22 10.7114V16.6448C22 19.0422 20.04 21 17.64 21H6.36C3.95 21 2 19.0422 2 16.6448V10.7114C2 8.3141 3.95 6.35627 6.36 6.35627C6.44 6.35627 6.52 6.31632 6.55 6.2364L6.61 6.11654C6.64448 6.04397 6.67987 5.96943 6.71579 5.89376C6.97161 5.35492 7.25463 4.75879 7.43 4.40844C7.89 3.50943 8.67 3.00999 9.64 3H14.35C15.32 3.00999 16.11 3.50943 16.57 4.40844C16.7275 4.72308 16.9674 5.2299 17.1987 5.71839C17.2464 5.81921 17.2938 5.91924 17.34 6.01665L17.44 6.2364ZM16.7109 10.0722C16.7109 10.5716 17.1109 10.9712 17.6109 10.9712C18.1109 10.9712 18.5209 10.5716 18.5209 10.0722C18.5209 9.57275 18.1109 9.16321 17.6109 9.16321C17.1109 9.16321 16.7109 9.57275 16.7109 10.0722ZM10.2706 11.6204C10.7406 11.151 11.3506 10.9012 12.0006 10.9012C12.6506 10.9012 13.2606 11.151 13.7206 11.6105C14.1806 12.0699 14.4306 12.6793 14.4306 13.3285C14.4206 14.6671 13.3406 15.7559 12.0006 15.7559C11.3506 15.7559 10.7406 15.5061 10.2806 15.0466C9.8206 14.5871 9.5706 13.9778 9.5706 13.3285V13.3186C9.5606 12.6893 9.8106 12.0799 10.2706 11.6204ZM14.7705 16.1054C14.0605 16.8146 13.0805 17.2541 12.0005 17.2541C10.9505 17.2541 9.97049 16.8446 9.22049 16.1054C8.48049 15.3562 8.07049 14.3773 8.07049 13.3285C8.06049 12.2896 8.47049 11.3107 9.21049 10.5615C9.96049 9.81238 10.9505 9.40283 12.0005 9.40283C13.0505 9.40283 14.0405 9.81238 14.7805 10.5516C15.5205 11.3007 15.9305 12.2896 15.9305 13.3285C15.9205 14.4173 15.4805 15.3962 14.7705 16.1054Z" fill="#9A9A9A"/>
</svg>
