<svg width="18" height="18" viewBox="0 0 18 18" fill="none" xmlns="http://www.w3.org/2000/svg">
<path fill-rule="evenodd" clip-rule="evenodd" d="M3.405 0.75C1.93487 0.75 0.75 1.95423 0.75 3.42075V5.9775C0.75 7.45288 1.93696 8.6475 3.405 8.6475H5.94C7.41746 8.6475 8.595 7.45094 8.595 5.9775V3.42075C8.595 1.95616 7.41955 0.75 5.94 0.75H3.405ZM2.25 3.42075C2.25 2.77077 2.77513 2.25 3.405 2.25H5.94C6.57545 2.25 7.095 2.76884 7.095 3.42075V5.9775C7.095 6.63405 6.57754 7.1475 5.94 7.1475H3.405C2.77304 7.1475 2.25 6.63212 2.25 5.9775V3.42075ZM3.405 9.35227C1.93658 9.35227 0.75 10.548 0.75 12.023V14.5798C0.75 16.0457 1.93506 17.2498 3.405 17.2498H5.94C7.41936 17.2498 8.595 16.0438 8.595 14.5798V12.023C8.595 10.55 7.41784 9.35227 5.94 9.35227H3.405ZM2.25 12.023C2.25 11.368 2.77342 10.8523 3.405 10.8523H5.94C6.57716 10.8523 7.095 11.3661 7.095 12.023V14.5798C7.095 15.2307 6.57564 15.7498 5.94 15.7498H3.405C2.77494 15.7498 2.25 15.2288 2.25 14.5798V12.023ZM9.40508 3.42075C9.40508 1.95616 10.5805 0.75 12.0601 0.75H14.5951C16.0652 0.75 17.2501 1.95423 17.2501 3.42075V5.9775C17.2501 7.45288 16.0631 8.6475 14.5951 8.6475H12.0601C10.5826 8.6475 9.40508 7.45094 9.40508 5.9775V3.42075ZM12.0601 2.25C11.4246 2.25 10.9051 2.76884 10.9051 3.42075V5.9775C10.9051 6.63405 11.4225 7.1475 12.0601 7.1475H14.5951C15.227 7.1475 15.7501 6.63212 15.7501 5.9775V3.42075C15.7501 2.77077 15.2249 2.25 14.5951 2.25H12.0601ZM12.0601 9.35227C10.5822 9.35227 9.40508 10.55 9.40508 12.023V14.5798C9.40508 16.0438 10.5807 17.2498 12.0601 17.2498H14.5951C16.065 17.2498 17.2501 16.0457 17.2501 14.5798V12.023C17.2501 10.548 16.0635 9.35227 14.5951 9.35227H12.0601ZM10.9051 12.023C10.9051 11.3661 11.4229 10.8523 12.0601 10.8523H14.5951C15.2267 10.8523 15.7501 11.368 15.7501 12.023V14.5798C15.7501 15.2288 15.2251 15.7498 14.5951 15.7498H12.0601C11.4244 15.7498 10.9051 15.2307 10.9051 14.5798V12.023Z" fill="white"/>
</svg>
