<svg width="14" height="12" viewBox="0 0 14 12" fill="none" xmlns="http://www.w3.org/2000/svg">
<path fill-rule="evenodd" clip-rule="evenodd" d="M2.2614 0.520879C1.4549 0.623541 0.763176 1.20628 0.554222 1.9591C0.50652 2.13107 0.499861 2.70495 0.500002 6.65295C0.500108 11.0829 0.5012 11.1525 0.570147 11.2586C0.716847 11.4845 1.06179 11.5697 1.29255 11.4371C1.35068 11.4037 2.04032 10.9461 2.82509 10.4203C4.41727 9.3534 4.36774 9.38498 4.58663 9.29696C4.73875 9.2358 4.8901 9.23252 8.32108 9.21606L12.0868 9.20002C12.2554 9.1993 12.4351 9.16615 12.5911 9.10219C13.135 8.87918 13.4674 8.34867 13.4751 7.76091C13.4863 6.9007 13.5 5.56706 13.5 4.19432V1.11883C13.5 0.951529 13.4398 0.78866 13.3213 0.670551C13.2068 0.556408 13.0559 0.504412 12.8942 0.504287L7.79886 0.500347C4.85984 0.498065 2.36797 0.50729 2.2614 0.520879ZM10.4032 3.30726C10.7362 3.51603 10.7071 3.97878 10.3509 4.13739C10.2425 4.18566 10.1945 4.19105 7.34635 4.19105C4.33103 4.19105 4.17453 4.18814 4.0576 4.12975C3.91485 4.05846 3.77769 3.85413 3.77695 3.71163C3.77621 3.56883 3.88099 3.39399 4.01934 3.30726L4.13905 3.23221H7.35224H10.2835L10.4032 3.30726ZM10.4032 5.6217C10.7362 5.83046 10.7071 6.29322 10.3509 6.45182C10.2425 6.5001 10.1945 6.50549 7.34635 6.50549C4.33103 6.50549 4.17453 6.50258 4.0576 6.44419C3.91485 6.3729 3.77769 6.16857 3.77695 6.02607C3.77621 5.88327 3.88099 5.70843 4.01934 5.6217L4.13905 5.54665H7.35224H10.2835L10.4032 5.6217Z" fill="#062439"/>
</svg>
