<svg width="17" height="18" viewBox="0 0 17 18" fill="none" xmlns="http://www.w3.org/2000/svg">
<path fill-rule="evenodd" clip-rule="evenodd" d="M10.2548 3.64648L15.4035 12.5822C15.5168 12.8489 15.5664 13.0658 15.5806 13.2911C15.6089 13.8175 15.4248 14.3292 15.0636 14.7229C14.7024 15.1153 14.2137 15.3469 13.6826 15.375H3.31431C3.09476 15.3617 2.87521 15.3118 2.66983 15.2346C1.64292 14.8205 1.14717 13.6554 1.56502 12.6454L6.74914 3.64016C6.9262 3.32361 7.19532 3.05058 7.52818 2.87511C8.49135 2.34097 9.71656 2.69192 10.2548 3.64648ZM9.11458 9.53531C9.11458 9.87221 8.83838 10.1537 8.49843 10.1537C8.15849 10.1537 7.8752 9.87221 7.8752 9.53531V7.54967C7.8752 7.21206 8.15849 6.93903 8.49843 6.93903C8.83838 6.93903 9.11458 7.21206 9.11458 7.54967V9.53531ZM8.49843 12.5541C8.15849 12.5541 7.8752 12.2727 7.8752 11.9365C7.8752 11.5989 8.15849 11.3181 8.49843 11.3181C8.83838 11.3181 9.11458 11.5925 9.11458 11.9287C9.11458 12.2727 8.83838 12.5541 8.49843 12.5541Z" fill="#200E32"/>
</svg>
