<svg width="24" height="24" viewBox="0 0 24 24" fill="none" xmlns="http://www.w3.org/2000/svg">
<path fill-rule="evenodd" clip-rule="evenodd" d="M20.2871 5.24297C20.6761 5.24297 21 5.56596 21 5.97696V6.35696C21 6.75795 20.6761 7.09095 20.2871 7.09095H3.71385C3.32386 7.09095 3 6.75795 3 6.35696V5.97696C3 5.56596 3.32386 5.24297 3.71385 5.24297H6.62957C7.22185 5.24297 7.7373 4.82197 7.87054 4.22798L8.02323 3.54598C8.26054 2.61699 9.0415 2 9.93527 2H14.0647C14.9488 2 15.7385 2.61699 15.967 3.49699L16.1304 4.22698C16.2627 4.82197 16.7781 5.24297 17.3714 5.24297H20.2871ZM18.8056 19.134C19.11 16.2971 19.643 9.55714 19.643 9.48914C19.6624 9.28314 19.5953 9.08814 19.4621 8.93114C19.3191 8.78414 19.1382 8.69714 18.9388 8.69714H5.06831C4.86796 8.69714 4.67734 8.78414 4.54507 8.93114C4.41086 9.08814 4.34473 9.28314 4.35445 9.48914C4.35624 9.50163 4.37536 9.73904 4.40733 10.1359C4.54937 11.8992 4.94495 16.8102 5.20057 19.134C5.38147 20.846 6.50477 21.922 8.13185 21.961C9.38741 21.99 10.6809 22 12.0036 22C13.2494 22 14.5147 21.99 15.8092 21.961C17.4927 21.932 18.615 20.875 18.8056 19.134Z" fill="white"/>
</svg>
