<svg width="3" height="12" viewBox="0 0 3 12" fill="none" xmlns="http://www.w3.org/2000/svg">
<path d="M0.374781 2.90793C0.125448 2.6586 0.000780917 2.35827 0.000780948 2.00693C0.000780979 1.6556 0.125448 1.35527 0.374781 1.10593C0.624115 0.8566 0.924448 0.731933 1.27578 0.731933C1.62711 0.731934 1.92745 0.850934 2.17678 1.08893C2.42611 1.33827 2.55078 1.64427 2.55078 2.00693C2.55078 2.35827 2.42611 2.6586 2.17678 2.90793C1.92745 3.15727 1.62711 3.28193 1.27578 3.28193C0.924448 3.28193 0.624114 3.15727 0.374781 2.90793Z" fill="#062439"/>
<path d="M0.374781 6.90094C0.125447 6.65161 0.000780568 6.35127 0.000780599 5.99994C0.000780629 5.64861 0.125447 5.34827 0.374781 5.09894C0.624114 4.84961 0.924447 4.72494 1.27578 4.72494C1.62711 4.72494 1.92745 4.84394 2.17678 5.08194C2.42611 5.33127 2.55078 5.63727 2.55078 5.99994C2.55078 6.35127 2.42611 6.65161 2.17678 6.90094C1.92745 7.15027 1.62711 7.27494 1.27578 7.27494C0.924447 7.27494 0.624114 7.15027 0.374781 6.90094Z" fill="#062439"/>
<path d="M0.37478 10.8939C0.125447 10.6446 0.000780219 10.3443 0.00078025 9.99295C0.00078028 9.64162 0.125447 9.34128 0.37478 9.09195C0.624114 8.84262 0.924447 8.71795 1.27578 8.71795C1.62711 8.71795 1.92745 8.83695 2.17678 9.07495C2.42611 9.32428 2.55078 9.63028 2.55078 9.99295C2.55078 10.3443 2.42611 10.6446 2.17678 10.8939C1.92745 11.1433 1.62711 11.2679 1.27578 11.2679C0.924447 11.2679 0.624114 11.1433 0.37478 10.8939Z" fill="#062439"/>
</svg>
