<svg width="12" height="4" viewBox="0 0 12 4" fill="none" xmlns="http://www.w3.org/2000/svg">
<path d="M2.90793 2.90098C2.6586 3.15031 2.35827 3.27498 2.00693 3.27498C1.6556 3.27498 1.35527 3.15031 1.10593 2.90098C0.8566 2.65164 0.731934 2.35131 0.731934 1.99998C0.731934 1.64864 0.850934 1.34831 1.08893 1.09898C1.33827 0.849642 1.64427 0.724976 2.00693 0.724976C2.35827 0.724976 2.6586 0.849642 2.90793 1.09898C3.15727 1.34831 3.28193 1.64864 3.28193 1.99998C3.28193 2.35131 3.15727 2.65164 2.90793 2.90098Z" fill="#062439"/>
<path d="M6.90094 2.90098C6.65161 3.15031 6.35127 3.27498 5.99994 3.27498C5.64861 3.27498 5.34827 3.15031 5.09894 2.90098C4.84961 2.65164 4.72494 2.35131 4.72494 1.99998C4.72494 1.64864 4.84394 1.34831 5.08194 1.09898C5.33127 0.849643 5.63727 0.724976 5.99994 0.724976C6.35127 0.724976 6.65161 0.849643 6.90094 1.09898C7.15027 1.34831 7.27494 1.64864 7.27494 1.99998C7.27494 2.35131 7.15027 2.65164 6.90094 2.90098Z" fill="#062439"/>
<path d="M10.8939 2.90098C10.6446 3.15031 10.3443 3.27498 9.99295 3.27498C9.64162 3.27498 9.34128 3.15031 9.09195 2.90098C8.84262 2.65164 8.71795 2.35131 8.71795 1.99998C8.71795 1.64864 8.83695 1.34831 9.07495 1.09898C9.32428 0.849643 9.63028 0.724976 9.99295 0.724976C10.3443 0.724976 10.6446 0.849643 10.8939 1.09898C11.1433 1.34831 11.2679 1.64864 11.2679 1.99998C11.2679 2.35131 11.1433 2.65164 10.8939 2.90098Z" fill="#062439"/>
</svg>
