<svg width="18" height="18" viewBox="0 0 18 18" fill="none" xmlns="http://www.w3.org/2000/svg">
<path d="M14.3721 6.54107L7.7823 15.0629C7.47987 15.4499 7.03418 15.6676 6.55666 15.6757L3.9303 15.7079C3.78704 15.7079 3.66766 15.6112 3.63582 15.4741L3.03892 12.8861C2.93546 12.4104 3.03892 11.9186 3.34135 11.5397L8.0131 5.49297C8.09269 5.39622 8.23594 5.38091 8.33145 5.45266L10.2972 7.01675C10.4246 7.12156 10.5997 7.17799 10.7827 7.15381C11.1727 7.10543 11.4353 6.75069 11.3955 6.37176C11.3717 6.17827 11.2762 6.01702 11.1488 5.89609C11.109 5.86384 9.23874 4.36425 9.23874 4.36425C9.11936 4.2675 9.09548 4.09013 9.19099 3.97L9.93114 3.00979C10.6156 2.13099 11.8094 2.05037 12.7724 2.81629L13.8786 3.69508C14.3323 4.04982 14.6347 4.51743 14.7382 5.00923C14.8576 5.55021 14.7302 6.08152 14.3721 6.54107Z" fill="#9A9A9A"/>
</svg>
