<svg width="24" height="24" viewBox="0 0 24 24" fill="none" xmlns="http://www.w3.org/2000/svg">
<g id="Iconly/Light/Hide">
<g id="Hide">
<path id="Stroke 1" d="M9.76094 14.3668C9.18594 13.7928 8.83594 13.0128 8.83594 12.1378C8.83594 10.3848 10.2479 8.9718 11.9999 8.9718C12.8669 8.9718 13.6649 9.3228 14.2299 9.8968" stroke="#9A9A9A" stroke-width="1.5" stroke-linecap="round" stroke-linejoin="round"/>
<path id="Stroke 3" d="M15.1054 12.6989C14.8734 13.9889 13.8574 15.0069 12.5684 15.2409" stroke="#9A9A9A" stroke-width="1.5" stroke-linecap="round" stroke-linejoin="round"/>
<path id="Stroke 5" d="M6.655 17.4723C5.068 16.2263 3.724 14.4063 2.75 12.1373C3.734 9.85829 5.087 8.02829 6.684 6.77229C8.271 5.51629 10.102 4.83429 12 4.83429C13.909 4.83429 15.739 5.52629 17.336 6.79129" stroke="#9A9A9A" stroke-width="1.5" stroke-linecap="round" stroke-linejoin="round"/>
<path id="Stroke 7" d="M19.4487 8.99078C20.1367 9.90478 20.7417 10.9598 21.2507 12.1368C19.2837 16.6938 15.8077 19.4388 12.0008 19.4388C11.1378 19.4388 10.2868 19.2988 9.46875 19.0258" stroke="#9A9A9A" stroke-width="1.5" stroke-linecap="round" stroke-linejoin="round"/>
<path id="Stroke 9" d="M19.8873 4.24957L4.11328 20.0236" stroke="#9A9A9A" stroke-width="1.5" stroke-linecap="round" stroke-linejoin="round"/>
</g>
</g>
</svg>
