<svg width="20" height="20" viewBox="0 0 20 20" fill="none" xmlns="http://www.w3.org/2000/svg">
<g id="Iconly/Bold/Show">
<g id="Show">
<path id="Show_2" fill-rule="evenodd" clip-rule="evenodd" d="M6.74732 10C6.74732 11.7778 8.2026 13.2242 9.99935 13.2242C11.788 13.2242 13.2433 11.7778 13.2433 10C13.2433 8.21414 11.788 6.76767 9.99935 6.76767C8.2026 6.76767 6.74732 8.21414 6.74732 10ZM14.7798 5.03838C16.2026 6.13737 17.414 7.74545 18.2839 9.75757C18.3489 9.91111 18.3489 10.0889 18.2839 10.2343C16.5441 14.2586 13.4465 16.6667 9.99935 16.6667H9.99122C6.55219 16.6667 3.45463 14.2586 1.7148 10.2343C1.64976 10.0889 1.64976 9.91111 1.7148 9.75757C3.45463 5.73333 6.55219 3.33333 9.99122 3.33333H9.99935C11.7229 3.33333 13.3571 3.93131 14.7798 5.03838ZM10.0003 12.0103C11.1141 12.0103 12.0247 11.1053 12.0247 9.99822C12.0247 8.88307 11.1141 7.97802 10.0003 7.97802C9.90276 7.97802 9.8052 7.9861 9.71577 8.00226C9.68325 8.89115 8.95154 9.60226 8.0491 9.60226H8.00845C7.98406 9.73155 7.9678 9.86085 7.9678 9.99822C7.9678 11.1053 8.87837 12.0103 10.0003 12.0103Z" fill="#9A9A9A"/>
</g>
</g>
</svg>
