<svg width="11" height="12" viewBox="0 0 11 12" fill="none" xmlns="http://www.w3.org/2000/svg">
<path fill-rule="evenodd" clip-rule="evenodd" d="M1.26941 0.662708C0.689685 0.739467 0.205943 1.1704 0.039544 1.75829C0.00176516 1.89173 0 2.08858 0 6.14326C0 10.1979 0.00176516 10.3948 0.039544 10.5282C0.159597 10.9524 0.443638 11.2985 0.825387 11.4858C1.14245 11.6414 0.99366 11.6322 3.33121 11.6404L5.43542 11.6478V9.68009V7.71239H4.88434H4.33327L4.26008 7.63931L4.18689 7.56623L4.18353 6.90311C4.17972 6.14653 4.17963 6.14911 4.21257 6.0843C4.2719 5.96752 4.30535 5.96109 4.89188 5.95385L5.43542 5.94712V5.29202C5.43542 4.93172 5.44547 4.54298 5.45779 4.4282C5.51666 3.8784 5.70015 3.45334 6.01663 3.13358C6.20258 2.94571 6.36797 2.8317 6.59972 2.73166C6.96851 2.57245 7.2701 2.53208 8.09083 2.53215C8.91956 2.53219 8.87956 2.49264 8.8796 3.31199C8.87967 4.12692 8.91573 4.08473 8.2026 4.10365C7.65479 4.11815 7.54841 4.13797 7.40421 4.25241C7.2013 4.41341 7.17906 4.51768 7.17906 5.30786V5.94783L7.97722 5.95419L8.77537 5.96055L8.84904 6.04084C8.90285 6.09952 8.9227 6.14092 8.9227 6.19461C8.9227 6.31948 8.77643 7.50484 8.75365 7.56449C8.74186 7.59544 8.70593 7.64137 8.67385 7.66659C8.61698 7.71125 8.59767 7.71239 7.89729 7.71239H7.17906V9.68054V11.6487L8.47603 11.6403C9.63439 11.6329 9.78679 11.6279 9.90215 11.5942C10.4243 11.4414 10.8127 11.0502 10.9605 10.5282C10.9982 10.3948 11 10.1979 11 6.14326C11 2.08858 10.9982 1.89173 10.9605 1.75829C10.8128 1.2366 10.4288 0.849457 9.90215 0.691318C9.77975 0.654583 9.55364 0.652369 5.58611 0.649038C3.28332 0.647103 1.34079 0.653251 1.26941 0.662708Z" fill="#556DEE"/>
</svg>
