<svg width="15" height="12" viewBox="0 0 15 12" fill="none" xmlns="http://www.w3.org/2000/svg">
<path fill-rule="evenodd" clip-rule="evenodd" d="M1.08871 0.690669C0.581084 0.818836 0.142027 1.2565 0.0342693 1.74175C-0.0114231 1.94747 -0.0114231 10.3482 0.0342693 10.554C0.116223 10.923 0.441576 11.3302 0.785089 11.4937C1.1313 11.6584 0.705186 11.6486 7.50014 11.6486C12.9966 11.6486 13.7468 11.6436 13.8988 11.6065C14.4313 11.4762 14.8692 11.0374 14.9666 10.5365C15.0111 10.3078 15.0111 1.9879 14.9666 1.75921C14.8692 1.25826 14.4313 0.819469 13.8988 0.689239C13.7467 0.652027 12.9995 0.647351 7.48667 0.648946C2.13035 0.650487 1.22435 0.6564 1.08871 0.690669ZM9.92386 3.83064L7.50014 6.10654L5.07643 3.83064L2.65271 1.55475H7.50014H12.3476L9.92386 3.83064ZM6.74698 9.24173C7.21005 9.49089 7.79023 9.49089 8.25331 9.24173C8.34284 9.19354 9.05764 8.5441 10.2314 7.44443L12.0694 5.72256V8.23174V10.741H7.50014H2.9309V8.23174V5.72256L4.76885 7.44443C5.94265 8.5441 6.65744 9.19354 6.74698 9.24173Z" fill="#EB5757"/>
</svg>
