<svg width="15" height="14" viewBox="0 0 15 14" fill="none" xmlns="http://www.w3.org/2000/svg">
<path d="M0.71875 0.730769C0.71875 0.327177 1.04593 0 1.44952 0H5.33173C5.73532 0 6.0625 0.327177 6.0625 0.730769V4.61298C6.0625 5.01657 5.73532 5.34375 5.33173 5.34375H1.44952C1.04593 5.34375 0.71875 5.01657 0.71875 4.61298V0.730769Z" fill="#062439"/>
<path d="M0.71875 9.04327C0.71875 8.63968 1.04593 8.3125 1.44952 8.3125H5.33173C5.73532 8.3125 6.0625 8.63968 6.0625 9.04327V12.9255C6.0625 13.3291 5.73532 13.6562 5.33173 13.6562H1.44952C1.04593 13.6562 0.71875 13.3291 0.71875 12.9255V9.04327Z" fill="#062439"/>
<path d="M9.03125 0.730769C9.03125 0.327177 9.35843 0 9.76202 0H13.6442C14.0478 0 14.375 0.327177 14.375 0.730769V4.61298C14.375 5.01657 14.0478 5.34375 13.6442 5.34375H9.76202C9.35843 5.34375 9.03125 5.01657 9.03125 4.61298V0.730769Z" fill="#062439"/>
<path d="M9.03125 9.04327C9.03125 8.63968 9.35843 8.3125 9.76202 8.3125H13.6442C14.0478 8.3125 14.375 8.63968 14.375 9.04327V12.9255C14.375 13.3291 14.0478 13.6562 13.6442 13.6562H9.76202C9.35843 13.6562 9.03125 13.3291 9.03125 12.9255V9.04327Z" fill="#062439"/>
</svg>
