<svg width="24" height="24" viewBox="0 0 24 24" fill="none" xmlns="http://www.w3.org/2000/svg">
<path d="M21.0037 12C21.0037 16.9726 16.9726 21.0037 12 21.0037" stroke="white" stroke-width="1.5" stroke-linecap="round" stroke-linejoin="round"/>
<path d="M2.99609 12C2.99609 7.02733 7.02721 2.99622 11.9998 2.99622" stroke="white" stroke-width="1.5" stroke-linecap="round" stroke-linejoin="round"/>
<path d="M2.99609 12C2.99623 13.0546 3.18381 14.1008 3.55008 15.0898C3.71759 15.5492 4.18986 15.8227 4.67165 15.7395L5.65825 15.5656C6.45566 15.425 6.99772 14.6771 6.88321 13.8755L6.58627 11.7969C6.52878 11.3945 6.31051 11.0327 5.98139 10.7941C5.65227 10.5556 5.24046 10.4608 4.84015 10.5313L3.07883 10.8419" stroke="white" stroke-width="1.5" stroke-linecap="round" stroke-linejoin="round"/>
<path d="M21.0037 12C21.0037 7.02733 16.9726 2.99622 12 2.99622" stroke="white" stroke-width="1.5" stroke-linecap="round" stroke-linejoin="round"/>
<path d="M21.0039 12C21.0038 13.0546 20.8162 14.1008 20.4499 15.0898C20.2824 15.5492 19.8102 15.8227 19.3284 15.7395L18.3418 15.5656C17.5444 15.425 17.0023 14.6771 17.1168 13.8755L17.4138 11.7969C17.4713 11.3945 17.6895 11.0327 18.0186 10.7941C18.3478 10.5556 18.7596 10.4608 19.1599 10.5313L20.9212 10.8419" stroke="white" stroke-width="1.5" stroke-linecap="round" stroke-linejoin="round"/>
<path d="M13.4924 12.4912C13.4894 12.4912 13.4866 12.493 13.4855 12.4958C13.4843 12.4986 13.485 12.5018 13.4871 12.5039C13.4892 12.506 13.4925 12.5067 13.4952 12.5055C13.498 12.5044 13.4999 12.5017 13.4999 12.4986C13.5 12.4966 13.4992 12.4946 13.4978 12.4932C13.4964 12.4918 13.4944 12.491 13.4924 12.4912" stroke="white" stroke-width="1.5" stroke-linecap="round" stroke-linejoin="round"/>
<path d="M10.508 12.4942C10.505 12.4942 10.5023 12.496 10.5011 12.4988C10.5 12.5016 10.5006 12.5048 10.5027 12.507C10.5049 12.5091 10.5081 12.5097 10.5109 12.5086C10.5137 12.5074 10.5155 12.5047 10.5155 12.5017C10.5156 12.4997 10.5149 12.4977 10.5134 12.4962C10.512 12.4948 10.51 12.4941 10.508 12.4942" stroke="white" stroke-width="1.5" stroke-linecap="round" stroke-linejoin="round"/>
</svg>
