<svg width="18" height="16" viewBox="0 0 18 16" fill="none" xmlns="http://www.w3.org/2000/svg">
<path d="M15.7307 2.37008C14.9025 1.48659 13.766 1 12.5304 1C11.6068 1 10.761 1.28717 10.0164 1.85348C9.64062 2.13933 9.30017 2.48906 9 2.89725C8.69995 2.48918 8.35938 2.13933 7.98352 1.85348C7.23901 1.28717 6.39319 1 5.4696 1C4.23401 1 3.09741 1.48659 2.26917 2.37008C1.45081 3.24325 1 4.43613 1 5.72914C1 7.05996 1.50427 8.27817 2.58691 9.56301C3.55542 10.7123 4.94739 11.879 6.55933 13.23C7.10974 13.6914 7.73364 14.2144 8.38147 14.7714C8.55261 14.9188 8.77222 15 9 15C9.22766 15 9.44739 14.9188 9.61829 14.7717C10.2661 14.2145 10.8904 13.6913 11.441 13.2297C13.0527 11.8789 14.4447 10.7123 15.4132 9.56289C16.4958 8.27817 17 7.05996 17 5.72902C17 4.43613 16.5492 3.24325 15.7307 2.37008Z" stroke="black" stroke-width="2"/>
</svg>
