<svg width="42" height="42" viewBox="0 0 42 42" fill="none" xmlns="http://www.w3.org/2000/svg">
<path fill-rule="evenodd" clip-rule="evenodd" d="M28.5303 4.81299H13.3945C8.11825 4.81299 4.8125 8.54749 4.8125 13.8325V28.0932C4.8125 33.3782 8.10425 37.1127 13.3945 37.1127H28.5285C33.8205 37.1127 37.1123 33.3782 37.1123 28.0932V13.8325C37.1123 8.54749 33.8205 4.81299 28.5303 4.81299Z" stroke="#556DEE" stroke-width="1.5" stroke-linecap="round" stroke-linejoin="round"/>
<path fill-rule="evenodd" clip-rule="evenodd" d="M18.7288 15.3745C18.7288 17.1578 17.2815 18.605 15.4983 18.605C13.7168 18.605 12.2695 17.1578 12.2695 15.3745C12.2695 13.5913 13.7168 12.144 15.4983 12.144C17.2815 12.144 18.7288 13.5913 18.7288 15.3745Z" stroke="#556DEE" stroke-width="1.5" stroke-linecap="round" stroke-linejoin="round"/>
<path d="M37.1123 26.1636C35.3728 24.6498 33.859 22.8281 31.864 21.6258C29.8655 20.4236 27.7182 21.1656 26.3322 22.9593C24.9935 24.6936 24.157 27.0263 22.1358 28.1201C19.6455 29.4693 18.1825 27.2941 16.1053 26.4226C13.7865 25.4513 12.026 27.1978 10.6715 28.8761C9.31525 30.5561 7.9415 32.2186 6.5625 33.8811" stroke="#556DEE" stroke-width="1.5" stroke-linecap="round" stroke-linejoin="round"/>
</svg>
