<?xml version="1.0" encoding="utf-8"?>
<!-- Generator: Adobe Illustrator 22.0.1, SVG Export Plug-In . SVG Version: 6.00 Build 0)  -->
<svg version="1.1" id="Слой_1" xmlns="http://www.w3.org/2000/svg" xmlns:xlink="http://www.w3.org/1999/xlink" x="0px" y="0px"
	 viewBox="0 0 20 20" style="enable-background:new 0 0 20 20;" xml:space="preserve">
<style type="text/css">
	.st0{fill:#C3C8CB;}
</style>
<path class="st0" d="M4.1,2.4c-1.1,0-1.9,0.8-1.9,1.8C2.2,5.2,2.9,6,4,6h0c1.2,0,1.9-0.8,1.9-1.8C5.9,3.2,5.2,2.4,4.1,2.4z"/>
<path class="st0" d="M2.4,7.4h3.3v10.5H2.4V7.4z"/>
<path class="st0" d="M13.9,7.2c-1.8,0-3,1.8-3,1.8V7.4H7.6v10.5h3.3V12c0-0.3,0-0.6,0.1-0.8c0.2-0.6,0.8-1.3,1.7-1.3
	c1.2,0,1.7,1,1.7,2.4v5.6h3.3v-6C17.7,8.7,16.1,7.2,13.9,7.2z"/>
</svg>
