<svg width="12" height="12" viewBox="0 0 12 12" fill="none" xmlns="http://www.w3.org/2000/svg">
<path fill-rule="evenodd" clip-rule="evenodd" d="M5.46234 0.0236231C4.35976 0.121504 3.28467 0.538283 2.36683 1.22364C2.07742 1.43973 1.43837 2.0787 1.22225 2.36807C0.083785 3.89235 -0.279856 5.78693 0.217773 7.60174C0.41377 8.31661 0.756608 9.01003 1.22225 9.63348C1.43837 9.92285 2.07742 10.5618 2.36683 10.7779C3.89131 11.9162 5.78613 12.2798 7.60117 11.7823C8.31614 11.5863 9.00965 11.2435 9.63317 10.7779C9.92258 10.5618 10.5616 9.92285 10.7778 9.63348C11.2434 9.01003 11.5862 8.31661 11.7822 7.60174C12.2799 5.78693 11.9162 3.89235 10.7778 2.36807C10.5616 2.0787 9.92258 1.43973 9.63317 1.22364C8.41539 0.314311 6.94694 -0.10819 5.46234 0.0236231ZM6.19663 3.02685C6.50896 3.11648 6.7505 3.43165 6.7505 3.74956C6.7505 4.06748 6.50896 4.38265 6.19663 4.47227C5.81662 4.58132 5.38933 4.3368 5.2772 3.94617C5.19195 3.6491 5.32235 3.3049 5.58507 3.13353C5.7847 3.00333 5.98989 2.96753 6.19663 3.02685ZM6.57732 5.31045C6.61292 5.33704 6.66382 5.38793 6.69041 5.42353C6.73779 5.48698 6.73891 5.51618 6.74518 6.86808L6.75158 8.24786L7.00738 8.25578C7.22137 8.26242 7.27376 8.27161 7.32787 8.31206C7.4509 8.40401 7.48927 8.47893 7.48927 8.62719C7.48927 8.77548 7.45086 8.85043 7.3278 8.94231C7.26426 8.98975 7.23908 8.99066 6 8.99066C4.76092 8.99066 4.73574 8.98975 4.6722 8.94231C4.54914 8.85043 4.51073 8.77548 4.51073 8.62719C4.51073 8.47893 4.5491 8.40401 4.67213 8.31206C4.72624 8.27159 4.77863 8.26242 4.99316 8.25578L5.2495 8.24783V7.12431V6.00077H5.02594C4.77084 6.00077 4.67867 5.97177 4.58678 5.86258C4.47323 5.72763 4.47318 5.52356 4.58671 5.38866C4.70187 5.2518 4.70989 5.25082 5.65238 5.25672C6.4802 5.26188 6.51503 5.26392 6.57732 5.31045Z" fill="#C3C8CB"/>
</svg>
