<?xml version="1.0" encoding="utf-8"?>
<!-- Generator: Adobe Illustrator 22.0.1, SVG Export Plug-In . SVG Version: 6.00 Build 0)  -->
<svg version="1.1" id="Слой_1" xmlns="http://www.w3.org/2000/svg" xmlns:xlink="http://www.w3.org/1999/xlink" x="0px" y="0px"
	 viewBox="0 0 20 20" style="enable-background:new 0 0 20 20;" xml:space="preserve">
<style type="text/css">
	.st0{fill:#556DEE;}
</style>
<path class="st0" d="M7.5,10c0,1.4,1.2,2.6,2.6,2.6c1.4,0,2.6-1.2,2.6-2.6S11.5,7.4,10,7.4C8.6,7.4,7.5,8.5,7.5,10z"/>
<path class="st0" d="M17.4,4.9c0.2,0.5,0.3,1.1,0.4,1.9c0,0.8,0,1.1,0,3.2c0,2.1,0,2.4,0,3.2c0,0.8-0.2,1.4-0.4,1.9
	c-0.4,1-1.2,1.9-2.3,2.3c-0.5,0.2-1.1,0.3-1.9,0.4c-0.8,0-1.1,0-3.2,0c-2.1,0-2.4,0-3.2,0c-0.8,0-1.4-0.2-1.9-0.4
	c-0.5-0.2-1-0.5-1.4-0.9C3.2,16,2.9,15.6,2.7,15c-0.2-0.5-0.3-1.1-0.4-1.9c0-0.8,0-1.1,0-3.2c0-2.1,0-2.4,0-3.2
	c0-0.8,0.2-1.4,0.4-1.9c0.2-0.5,0.5-1,0.9-1.4C4,3.1,4.4,2.8,5,2.6C5.5,2.4,6,2.3,6.8,2.2c0.8,0,1.1,0,3.2,0c2.1,0,2.4,0,3.2,0
	c0.8,0,1.4,0.2,1.9,0.4c0.5,0.2,1,0.5,1.4,0.9C16.9,3.9,17.2,4.4,17.4,4.9z M14.2,6.7c0.5,0,0.9-0.4,0.9-0.9c0-0.5-0.4-0.9-0.9-0.9
	s-0.9,0.4-0.9,0.9C13.3,6.3,13.7,6.7,14.2,6.7z M6.1,10c0-2.2,1.8-4,4-4c2.2,0,4,1.8,4,4c0,2.2-1.8,4-4,4C7.8,13.9,6.1,12.2,6.1,10z
	"/>
</svg>
