<svg width="15" height="14" viewBox="0 0 15 14" fill="none" xmlns="http://www.w3.org/2000/svg">
<path d="M0.625 0.730769C0.625 0.327176 0.952177 0 1.35577 0H5.23798C5.64157 0 5.96875 0.327177 5.96875 0.730769V12.9255C5.96875 13.3291 5.64157 13.6562 5.23798 13.6562H1.35577C0.952177 13.6562 0.625 13.3291 0.625 12.9255V0.730769Z" fill="#D2D2D7"/>
<path d="M8.9375 0.730769C8.9375 0.327176 9.26468 0 9.66827 0H13.5505C13.9541 0 14.2812 0.327177 14.2812 0.730769V12.9255C14.2812 13.3291 13.9541 13.6562 13.5505 13.6562H9.66827C9.26468 13.6562 8.9375 13.3291 8.9375 12.9255V0.730769Z" fill="#D2D2D7"/>
</svg>
