<svg width="20" height="20" viewBox="0 0 20 20" fill="none" xmlns="http://www.w3.org/2000/svg">
<path fill-rule="evenodd" clip-rule="evenodd" d="M5.66478 16.5026L3.41384 14.2517C2.8105 13.6261 2.4806 12.7863 2.49679 11.9174V8.08245C2.47196 7.19532 2.83768 6.34198 3.49721 5.74815L5.74815 3.49721C6.34198 2.83768 7.19532 2.47196 8.08245 2.49679H12.0008C12.8879 2.47196 13.7412 2.83768 14.3351 3.49721L16.586 5.74815C17.1893 6.37373 17.5192 7.21349 17.503 8.08245V12.0008C17.5279 12.8879 17.1622 13.7412 16.5026 14.3351L14.2517 16.586C13.6387 17.2182 12.798 17.5786 11.9174 17.5864H8.08245C7.17275 17.5265 6.3148 17.1419 5.66478 16.5026Z" stroke="#EEF1FE" stroke-width="1.5" stroke-linecap="round" stroke-linejoin="round"/>
<path d="M7.49854 9.99985H12.5006" stroke="#EEF1FE" stroke-width="1.5" stroke-linecap="round" stroke-linejoin="round"/>
</svg>
