<svg width="20" height="20" viewBox="0 0 20 20" fill="none" xmlns="http://www.w3.org/2000/svg">
<path d="M9.99948 13.3342H7.90948C7.27948 13.3342 6.67281 13.5725 6.21031 14L6.15698 14.05C5.86365 14.3217 5.63531 14.655 5.48698 15.0267L5.19531 15.7592" stroke="white" stroke-width="1.5" stroke-linecap="round" stroke-linejoin="round"/>
<path d="M10.9873 10.9883C12.1082 10.5841 12.9157 9.52914 12.9157 8.26748C12.9157 6.65664 11.6098 5.34998 9.99818 5.34998C8.73651 5.34998 7.68151 6.15748 7.27734 7.27914" stroke="white" stroke-width="1.5" stroke-linecap="round" stroke-linejoin="round"/>
<path d="M3.30174 6.63416C1.88924 9.44582 2.35091 12.9583 4.69758 15.305C7.04508 17.6525 10.5584 18.1133 13.3701 16.7" stroke="white" stroke-width="1.5" stroke-linecap="round" stroke-linejoin="round"/>
<path d="M4.69531 4.69585V4.69585C7.62531 1.76585 12.3753 1.76585 15.3045 4.69585C18.2336 7.62502 18.2336 12.3742 15.3053 15.3042" stroke="white" stroke-width="1.5" stroke-linecap="round" stroke-linejoin="round"/>
<path d="M16.6654 16.6666L3.33203 3.33331" stroke="white" stroke-width="1.5" stroke-linecap="round" stroke-linejoin="round"/>
</svg>
