<svg width="14" height="14" viewBox="0 0 14 14" fill="none" xmlns="http://www.w3.org/2000/svg">
<path fill-rule="evenodd" clip-rule="evenodd" d="M0.75 7V13C0.75 13.2761 0.973858 13.5 1.25 13.5H1.55825H1.86902C2.14418 13.5 2.36763 13.2777 2.36902 13.0025L2.37471 11.875L2.38041 10.7475C2.3818 10.4723 2.60525 10.25 2.88041 10.25H2.92195H2.9648C3.23944 10.25 3.46268 10.4715 3.46478 10.7462L3.46931 11.3365L3.47381 11.9216C3.47593 12.1983 3.70239 12.4207 3.97908 12.4177L4.27785 12.4146L4.58712 12.4113C4.85969 12.4084 5.07973 12.1877 5.08182 11.9152L5.08639 11.3201L5.09092 10.7303C5.09303 10.4557 5.31626 10.2341 5.5909 10.2341H5.63334H6.17195H7.78902H8.32805H8.86707L10.4826 10.2336C10.4882 10.2336 10.4934 10.2367 10.4959 10.2418C10.4984 10.2468 10.5036 10.25 10.5092 10.25L12.125 10.2418L13.2525 10.2361C13.5277 10.2347 13.75 10.0113 13.75 9.7361V5.36679V1C13.75 0.723857 13.5261 0.5 13.25 0.5H7.25H1.25C0.973858 0.5 0.75 0.723858 0.75 1V7ZM5.62529 4.29695L5.63096 5.41943C5.63236 5.69655 5.40809 5.92195 5.13096 5.92195H4.00029H2.86707C2.59093 5.92195 2.36707 5.69809 2.36707 5.42195V4.31017C2.36707 3.42367 2.37671 2.68872 2.38851 2.67696C2.40027 2.66517 3.13154 2.6592 4.01351 2.66374L5.12214 2.66942C5.3963 2.67082 5.61819 2.89273 5.61957 3.16688L5.62529 4.29695ZM12.1171 3.21098V3.2515C12.1171 3.52706 11.8941 3.75067 11.6186 3.7515L9.41402 3.75812L7.21247 3.7647C6.93575 3.76553 6.71098 3.54143 6.71098 3.2647V3.21098V3.15725C6.71098 2.88052 6.93575 2.65642 7.21247 2.65725L9.41402 2.66383L11.6186 2.67045C11.8941 2.67128 12.1171 2.8949 12.1171 3.17045V3.21098ZM12.1329 5.38293V5.42195C12.1329 5.69809 11.9091 5.92195 11.6329 5.92195H9.42195H7.21098C6.93483 5.92195 6.71098 5.69809 6.71098 5.42195V5.38293V5.3439C6.71098 5.06776 6.93483 4.8439 7.21098 4.8439H9.42195H11.6329C11.9091 4.8439 12.1329 5.06776 12.1329 5.3439V5.38293ZM8.32805 7.53902V7.57805C8.32805 7.85419 8.10419 8.07805 7.82805 8.07805H5.34756H2.86707C2.59093 8.07805 2.36707 7.85419 2.36707 7.57805V7.53902V7.5C2.36707 7.22386 2.59093 7 2.86707 7H5.34756H7.82805C8.10419 7 8.32805 7.22386 8.32805 7.5V7.53902ZM12.1329 7.53902V7.57805C12.1329 7.85419 11.9091 8.07805 11.6329 8.07805H10.7695H9.9061C9.62996 8.07805 9.4061 7.85419 9.4061 7.57805V7.53902V7.5C9.4061 7.22386 9.62996 7 9.9061 7H10.7695H11.6329C11.9091 7 12.1329 7.22386 12.1329 7.5V7.53902Z" fill="#062439"/>
</svg>
