<svg width="12" height="14" viewBox="0 0 12 14" fill="none" xmlns="http://www.w3.org/2000/svg">
<path fill-rule="evenodd" clip-rule="evenodd" d="M3.6748 9.99442H7.3227C7.59763 9.99442 7.82563 9.75825 7.82563 9.47347C7.82563 9.18869 7.59763 8.95947 7.3227 8.95947H3.6748C3.39987 8.95947 3.17188 9.18869 3.17188 9.47347C3.17188 9.75825 3.39987 9.99442 3.6748 9.99442ZM5.94131 5.48682H3.6748C3.39987 5.48682 3.17188 5.72298 3.17188 6.00776C3.17188 6.29254 3.39987 6.52176 3.6748 6.52176H5.94131C6.21624 6.52176 6.44423 6.29254 6.44423 6.00776C6.44423 5.72298 6.21624 5.48682 5.94131 5.48682ZM10.7267 4.88001C10.8843 4.87814 11.0559 4.87611 11.2119 4.87611C11.3795 4.87611 11.5136 5.01503 11.5136 5.18868V10.7733C11.5136 12.4959 10.1658 13.8921 8.50278 13.8921H3.16507C1.4216 13.8921 0 12.4264 0 10.6205V3.13266C0 1.41004 1.35454 0 3.02425 0H6.60508C6.77943 0 6.91354 0.145867 6.91354 0.319517V2.55614C6.91354 3.82726 7.92609 4.86917 9.15323 4.87611C9.43986 4.87611 9.69256 4.87831 9.9137 4.88023C10.0857 4.88173 10.2387 4.88306 10.3737 4.88306C10.4691 4.88306 10.5928 4.88159 10.7267 4.88001ZM10.9115 3.86568C10.3603 3.86777 9.71055 3.86568 9.24316 3.86082C8.50151 3.86082 7.89062 3.22804 7.89062 2.45981V0.628847C7.89062 0.329475 8.24133 0.18083 8.44183 0.396851C8.80501 0.788009 9.30419 1.3258 9.80099 1.86102C10.2958 2.39407 10.7882 2.92458 11.1415 3.30514C11.3373 3.5156 11.1938 3.86499 10.9115 3.86568Z" fill="#9A9A9A"/>
</svg>
