<svg width="11" height="10" viewBox="0 0 11 10" fill="none" xmlns="http://www.w3.org/2000/svg">
<path fill-rule="evenodd" clip-rule="evenodd" d="M2.8572 0.0264706C2.25048 0.128941 1.71857 0.40499 1.2933 0.838097C0.909526 1.22897 0.658677 1.7032 0.536889 2.26814C0.487412 2.49766 0.487783 3.29444 0.537534 3.67341C0.733451 5.16543 1.32886 6.48437 2.30276 7.58373C3.47486 8.90681 5.02872 9.72393 6.82557 9.96209C7.20364 10.0122 8.00021 10.0127 8.23063 9.96305C8.63021 9.87688 9.01295 9.71271 9.3173 9.49694C9.53437 9.34305 9.82852 9.05093 9.97938 8.83944C10.2002 8.52978 10.3723 8.13261 10.4514 7.74992C10.489 7.56823 10.512 7.2295 10.4935 7.1309C10.4655 6.98174 10.4804 6.98886 8.74492 6.29487C7.77409 5.90666 7.10199 5.64812 7.06358 5.64812C6.98769 5.64812 6.9109 5.68496 6.84932 5.75091C6.82475 5.77722 6.67804 6.11459 6.52331 6.50061L6.24199 7.20248L6.1477 7.19812C5.84617 7.1842 5.36779 7.05044 5.04624 6.89016C4.71964 6.72735 4.4923 6.56167 4.21503 6.28435C3.93775 6.00703 3.77209 5.77967 3.60931 5.45302C3.44905 5.13141 3.31532 4.65297 3.3014 4.35138L3.29704 4.25709L3.9988 3.97572C4.38477 3.82097 4.72208 3.67423 4.74839 3.64966C4.81433 3.58807 4.85116 3.51127 4.85116 3.43537C4.85116 3.39695 4.59275 2.72494 4.2047 1.7543C3.54638 0.107512 3.52428 0.0592196 3.40818 0.0149547C3.34421 -0.00942613 3.03098 -0.00287634 2.8572 0.0264706Z" fill="#062439"/>
</svg>
