<svg width="24" height="24" viewBox="0 0 24 24" fill="none" xmlns="http://www.w3.org/2000/svg">
<path d="M2.00212 10.4989C1.1737 10.4989 0.502089 11.1704 0.502045 11.9989C0.502 12.8273 1.17354 13.4989 2.00196 13.4989L2.00212 10.4989ZM22 13.5C22.8284 13.5 23.5 12.8285 23.5001 12.0001C23.5001 11.1717 22.8286 10.5 22.0002 10.5L22 13.5ZM13.4995 2.00144C13.4994 1.17301 12.8278 0.501474 11.9994 0.501518C11.171 0.501563 10.4994 1.17317 10.4995 2.0016L13.4995 2.00144ZM10.5005 21.9996C10.5006 22.8281 11.1722 23.4996 12.0006 23.4995C12.829 23.4995 13.5006 22.8279 13.5005 21.9995L10.5005 21.9996ZM2.00196 13.4989L22 13.5L22.0002 10.5L2.00212 10.4989L2.00196 13.4989ZM10.4995 2.0016L10.5005 21.9996L13.5005 21.9995L13.4995 2.00144L10.4995 2.0016Z" fill="#556DEE"/>
</svg>
