<svg width="24" height="24" viewBox="0 0 24 24" fill="none" xmlns="http://www.w3.org/2000/svg">
<path d="M8.87899 12C8.87884 11.8687 8.90465 11.7386 8.95493 11.6173C9.00521 11.4959 9.07898 11.3857 9.17199 11.293L13.4141 7.05031C13.6017 6.86279 13.856 6.75745 14.1212 6.75745C14.3864 6.75745 14.6407 6.86279 14.8282 7.05031C15.0157 7.23783 15.1211 7.49216 15.1211 7.75734C15.1211 8.02253 15.0157 8.27686 14.8282 8.46438L11.2931 12L14.8282 15.5357C15.0157 15.7232 15.1211 15.9775 15.1211 16.2427C15.1211 16.5079 15.0157 16.7622 14.8282 16.9497C14.6407 17.1372 14.3864 17.2426 14.1212 17.2426C13.856 17.2426 13.6017 17.1372 13.4142 16.9497L9.17196 12.707C9.07895 12.6143 9.00519 12.5041 8.95491 12.3828C8.90464 12.2614 8.87883 12.1314 8.87899 12V12Z" fill="#556DEE"/>
</svg>
