<svg width="20" height="20" viewBox="0 0 20 20" fill="none" xmlns="http://www.w3.org/2000/svg">
<path fill-rule="evenodd" clip-rule="evenodd" d="M10.0002 0.916626C7.13797 0.916626 4.83851 3.21365 4.83851 6.07584C4.83851 8.93783 7.13779 11.2359 10.0002 11.2359C12.8635 11.2359 15.1618 8.93774 15.1618 6.07584C15.1618 3.21375 12.8633 0.916626 10.0002 0.916626ZM6.33851 6.07584C6.33851 4.04297 7.96552 2.41663 10.0002 2.41663C12.0356 2.41663 13.6618 4.04288 13.6618 6.07584C13.6618 8.10898 12.0354 9.73588 10.0002 9.73588C7.9657 9.73588 6.33851 8.10889 6.33851 6.07584ZM10.0002 11.8949C8.18552 11.8949 6.41324 12.0349 5.07123 12.5036C4.39533 12.7397 3.77544 13.0769 3.31897 13.5704C2.84653 14.0811 2.5835 14.7236 2.5835 15.4791C2.5835 16.233 2.84428 16.8756 3.31392 17.3881C3.76808 17.8836 4.3857 18.224 5.06096 18.4632C6.40148 18.9379 8.17459 19.0833 10.0002 19.0833C11.8148 19.0833 13.5871 18.9433 14.9291 18.4746C15.605 18.2385 16.2249 17.9013 16.6814 17.4078C17.1538 16.8971 17.4168 16.2546 17.4168 15.4991C17.4168 14.7453 17.1561 14.1027 16.6866 13.5902C16.2325 13.0946 15.6149 12.7542 14.9397 12.515C13.5993 12.0403 11.8261 11.8949 10.0002 11.8949ZM4.0835 15.4791C4.0835 15.1008 4.20435 14.8222 4.42011 14.5889C4.65185 14.3384 5.02446 14.1088 5.5658 13.9197C6.65824 13.5382 8.21929 13.3949 10.0002 13.3949C11.7897 13.3949 13.3499 13.5433 14.4389 13.929C14.9784 14.12 15.3496 14.3515 15.5806 14.6035C15.7961 14.8387 15.9168 15.1196 15.9168 15.4991C15.9168 15.8773 15.796 16.156 15.5802 16.3893C15.3485 16.6398 14.9759 16.8694 14.4345 17.0585C13.3421 17.44 11.781 17.5833 10.0002 17.5833C8.21105 17.5833 6.65082 17.4349 5.56169 17.0492C5.02211 16.8581 4.65082 16.6267 4.41977 16.3746C4.20421 16.1394 4.0835 15.8586 4.0835 15.4791Z" fill="#6E6E73"/>
</svg>
