<svg width="12" height="11" viewBox="0 0 12 11" fill="none" xmlns="http://www.w3.org/2000/svg">
<path fill-rule="evenodd" clip-rule="evenodd" d="M5.55289 0.0121887C4.88477 0.0744154 4.31251 0.235082 3.71284 0.528755C2.86477 0.944086 2.1558 1.56403 1.64366 2.33806C1.49488 2.5629 1.32846 2.85765 1.34241 2.87164C1.34745 2.87671 1.64026 2.9924 1.9931 3.12872C2.34593 3.26506 2.65763 3.38562 2.68578 3.39664C2.73032 3.41408 2.7453 3.4023 2.80078 3.30624C3.00802 2.94747 3.40526 2.51397 3.79488 2.22145C4.0485 2.03103 4.52387 1.78528 4.83796 1.68218C6.25977 1.21558 7.86315 1.66054 8.82736 2.78934C9.22075 3.24991 9.51533 3.81726 9.64061 4.35575L9.6742 4.50001H9.22162H8.76904L8.6963 4.58308C8.61318 4.67797 8.60704 4.72161 8.66473 4.8079C8.73383 4.91128 10.1079 6.31091 10.1753 6.34651C10.2614 6.39205 10.404 6.38837 10.4766 6.33869C10.5095 6.31617 10.8655 5.96319 11.2677 5.5543C12.0698 4.73884 12.0567 4.75743 11.9453 4.59161L11.8916 4.51176L11.5388 4.5053L11.1859 4.49884L11.1456 4.2703C11.0098 3.50039 10.6559 2.70799 10.1568 2.05606C9.31266 0.95358 8.11119 0.248288 6.73661 0.0483544C6.43231 0.00410476 5.83555 -0.0141308 5.55289 0.0121887ZM1.5329 4.54351C1.44934 4.59497 0.0635836 6.01627 0.0245558 6.09056C-0.0168864 6.16942 -0.00858859 6.20681 0.0703343 6.29691L0.143069 6.37998H0.488858H0.834647L0.875901 6.5714C1.19827 8.06727 2.42187 9.46711 3.95896 10.0986C4.64597 10.3808 5.24345 10.4984 5.99825 10.5C6.87465 10.5018 7.57823 10.3368 8.35225 9.94803C9.17284 9.53582 9.92757 8.85535 10.4114 8.09142L10.4958 7.95818L10.257 7.86468C10.1257 7.81326 9.80589 7.68709 9.54634 7.5843L9.07444 7.39741L8.97449 7.53503C8.62673 8.01378 7.98065 8.50694 7.40466 8.73329C5.99148 9.28865 4.45122 8.97891 3.37668 7.92329C2.95542 7.50943 2.59931 6.93802 2.44822 6.43339L2.43254 6.38108L2.84958 6.37464L3.26661 6.36823L3.32162 6.26821C3.3599 6.19861 3.37223 6.1482 3.3622 6.10238C3.35221 6.05679 3.11169 5.80027 2.58016 5.26828L1.81255 4.50001L1.70789 4.50011C1.64739 4.50015 1.57355 4.51846 1.5329 4.54351Z" fill="#556DEE"/>
</svg>
