<svg width="14" height="15" viewBox="0 0 14 15" fill="none" xmlns="http://www.w3.org/2000/svg">
<path d="M13.8286 13.3856L10.4629 10.0199C11.2971 9.00274 11.8 7.69988 11.8 6.27988C11.8 3.02274 9.15714 0.379883 5.9 0.379883C2.64 0.379883 0 3.02274 0 6.27988C0 9.53703 2.64 12.1799 5.9 12.1799C7.32 12.1799 8.62 11.6799 9.63714 10.8456L13.0029 14.2085C13.2314 14.437 13.6 14.437 13.8286 14.2085C14.0571 13.9827 14.0571 13.6113 13.8286 13.3856ZM5.9 11.0056C3.29143 11.0056 1.17143 8.8856 1.17143 6.27988C1.17143 3.67417 3.29143 1.55131 5.9 1.55131C8.50571 1.55131 10.6286 3.67417 10.6286 6.27988C10.6286 8.8856 8.50571 11.0056 5.9 11.0056Z" fill="#6E6E73"/>
</svg>
