<svg width="24" height="24" viewBox="0 0 24 24" fill="none" xmlns="http://www.w3.org/2000/svg">
<g id="Iconly/Bold/Send">
<g id="Send">
<path id="Send_2" d="M21.472 12.0123C21.4813 11.2956 21.0931 10.6369 20.4626 10.2911L5.77074 2.21901C5.11268 1.84709 4.33696 1.89278 3.71688 2.31621C3.08543 2.74676 2.76222 3.7717 2.93874 4.51197L4.31029 10.2582C4.45109 10.8475 4.97845 11.2624 5.58516 11.2598L13.7611 11.2344C14.1798 11.226 14.5194 11.5656 14.511 11.9842C14.5097 12.3958 14.1752 12.7304 13.7565 12.7388L5.57271 12.7578C4.966 12.7589 4.43606 13.1757 4.2916 13.7658L2.87155 19.5349C2.69914 20.2167 2.89571 20.8973 3.37674 21.3783C3.43333 21.4349 3.497 21.4986 3.56071 21.548C4.18366 22.0286 4.9995 22.0899 5.69605 21.7188L20.4378 13.7256C21.0703 13.3902 21.4627 12.729 21.472 12.0123Z" fill="#556DEE"/>
</g>
</g>
</svg>
