<svg width="20" height="21" viewBox="0 0 20 21" fill="none" xmlns="http://www.w3.org/2000/svg">
<path d="M11.591 9.40462C12.4697 10.2833 12.4697 11.7079 11.591 12.5866C10.7123 13.4653 9.2877 13.4653 8.40901 12.5866C7.53033 11.7079 7.53033 10.2833 8.40901 9.40462C9.2877 8.52593 10.7123 8.52593 11.591 9.40462" stroke="white" stroke-width="1.5" stroke-linecap="round" stroke-linejoin="round"/>
<path fill-rule="evenodd" clip-rule="evenodd" d="M4.37481 10.9956C4.37481 11.2431 4.39731 11.4906 4.42731 11.7306L3.10398 12.7656C2.81064 12.9956 2.73064 13.4064 2.91731 13.7289L4.09398 15.7648C4.27981 16.0873 4.67481 16.2231 5.02064 16.0848L6.20564 15.6089C6.43981 15.5148 6.70064 15.5523 6.91064 15.6914C7.09398 15.8131 7.28398 15.9248 7.48064 16.0248C7.70564 16.1389 7.86898 16.3431 7.90481 16.5931L8.08564 17.8539C8.13814 18.2223 8.45398 18.4956 8.82564 18.4956H11.1731C11.5448 18.4956 11.8606 18.2223 11.9131 17.8539L12.094 16.5939C12.1298 16.3439 12.2948 16.1381 12.5206 16.0248C12.7165 15.9264 12.9056 15.8156 13.0881 15.6948C13.2998 15.5548 13.5615 15.5148 13.7965 15.6098L14.979 16.0848C15.324 16.2231 15.719 16.0873 15.9056 15.7648L17.0823 13.7289C17.269 13.4064 17.189 12.9948 16.8956 12.7656L15.5723 11.7306C15.6023 11.4906 15.6248 11.2431 15.6248 10.9956C15.6248 10.7481 15.6023 10.5006 15.5723 10.2606L16.8956 9.22561C17.189 8.99561 17.269 8.58477 17.0823 8.26227L15.9056 6.22644C15.7198 5.90394 15.3248 5.76811 14.979 5.90644L13.7965 6.38144C13.5615 6.47561 13.2998 6.43644 13.0881 6.29644C12.9056 6.17561 12.7165 6.06477 12.5206 5.96644C12.2948 5.85311 12.1298 5.64727 12.094 5.39727L11.914 4.13727C11.8615 3.76894 11.5456 3.49561 11.174 3.49561H8.82648C8.45481 3.49561 8.13898 3.76894 8.08648 4.13727L7.90481 5.39894C7.86898 5.64811 7.70481 5.85311 7.48064 5.96727C7.28398 6.06727 7.09398 6.17977 6.91064 6.30061C6.69981 6.43894 6.43898 6.47644 6.20481 6.38227L5.02064 5.90644C4.67481 5.76811 4.27981 5.90394 4.09398 6.22644L2.91731 8.26227C2.73064 8.58477 2.81064 8.99644 3.10398 9.22561L4.42731 10.2606C4.39731 10.5006 4.37481 10.7481 4.37481 10.9956V10.9956Z" stroke="white" stroke-width="1.5" stroke-linecap="round" stroke-linejoin="round"/>
</svg>
