<svg width="24" height="24" viewBox="0 0 24 24" fill="none" xmlns="http://www.w3.org/2000/svg">
<g id="Iconly/Bold/Shield Done">
<g id="Shield Done">
<path id="Shield Done_2" fill-rule="evenodd" clip-rule="evenodd" d="M11.7281 21.9137C11.8389 21.9715 11.9627 22.0009 12.0865 22C12.2103 21.999 12.3332 21.9686 12.4449 21.9097L16.0128 20.0025C17.0246 19.4631 17.8169 18.8601 18.435 18.1579C19.779 16.6282 20.5129 14.6758 20.4998 12.6626L20.4575 6.02198C20.4535 5.25711 19.9512 4.57461 19.2082 4.32652L12.5708 2.09956C12.1711 1.96424 11.7332 1.96718 11.3405 2.10643L4.72827 4.41281C3.98932 4.67071 3.49602 5.35811 3.50005 6.12397L3.54233 12.7597C3.55542 14.7758 4.3145 16.7194 5.68064 18.2335C6.30482 18.9258 7.10417 19.52 8.12702 20.0505L11.7281 21.9137ZM10.7832 14.1087C10.9322 14.2519 11.1255 14.3225 11.3188 14.3205C11.512 14.3195 11.7043 14.247 11.8513 14.1018L15.7504 10.2579C16.0434 9.96858 16.0404 9.50377 15.7444 9.21842C15.4474 8.93306 14.9692 8.93502 14.6762 9.2243L11.3077 12.5446L9.92845 11.2188C9.63146 10.9335 9.15427 10.9364 8.8603 11.2257C8.56734 11.515 8.57036 11.9798 8.86735 12.2652L10.7832 14.1087Z" fill="#9A9A9A"/>
</g>
</g>
</svg>
