<svg width="118" height="118" viewBox="0 0 118 118" fill="none" xmlns="http://www.w3.org/2000/svg">
<path d="M0.5 30C0.5 22.9148 0.501062 17.6512 1.04472 13.6076C1.58644 9.57828 2.65864 6.83527 4.74695 4.74695C6.83527 2.65864 9.57828 1.58644 13.6075 1.04472C17.6512 0.501062 22.9148 0.5 30 0.5H88C95.0852 0.5 100.349 0.501062 104.392 1.04472C108.422 1.58644 111.165 2.65864 113.253 4.74695C115.341 6.83527 116.414 9.57828 116.955 13.6075C117.499 17.6512 117.5 22.9148 117.5 30V75.1822C117.5 80.1454 117.499 83.8273 117.177 86.7476C116.856 89.6555 116.221 91.7604 114.98 93.5802C113.739 95.4 112.011 96.7604 109.421 98.1209C106.821 99.4873 103.393 100.832 98.7727 102.645L69.3243 114.197C63.8259 116.353 61.1976 117.376 58.4535 117.367C55.7094 117.358 53.0877 116.319 47.6032 114.127L19.0517 102.716C14.4729 100.886 11.0764 99.5275 8.49941 98.1542C5.93331 96.7867 4.22227 95.4254 2.99417 93.612C1.76606 91.7986 1.13702 89.7045 0.819532 86.8142C0.500698 83.9115 0.5 80.2536 0.5 75.3226V30Z" fill="white" stroke="#556DEE"/>
</svg>
