<?xml version="1.0" encoding="utf-8"?>
<!-- Generator: Adobe Illustrator 21.0.0, SVG Export Plug-In . SVG Version: 6.00 Build 0)  -->
<svg version="1.1" id="Слой_1" xmlns="http://www.w3.org/2000/svg" xmlns:xlink="http://www.w3.org/1999/xlink" x="0px" y="0px"
	 viewBox="0 0 13 13" style="enable-background:new 0 0 13 13;" xml:space="preserve">
<style type="text/css">
	.st0{fill:#9A9A9A;}
</style>
<path class="st0" d="M6.5,8.7c-1.3,0-2.3-1-2.3-2.2c0-1.2,1-2.2,2.3-2.2c1.3,0,2.3,1,2.3,2.2C8.8,7.7,7.8,8.7,6.5,8.7z M12.5,6.3
	C11.8,5,11,3.9,9.9,3.2C8.9,2.4,7.7,2,6.5,2h0C4,2,1.8,3.6,0.5,6.3c0,0.1,0,0.2,0,0.3C1.8,9.4,4,11,6.5,11h0c2.5,0,4.7-1.6,6-4.3
	C12.5,6.6,12.5,6.4,12.5,6.3z"/>
</svg>
