<?xml version="1.0" encoding="utf-8"?>
<!-- Generator: Adobe Illustrator 22.0.1, SVG Export Plug-In . SVG Version: 6.00 Build 0)  -->
<svg version="1.1" id="Слой_1" xmlns="http://www.w3.org/2000/svg" xmlns:xlink="http://www.w3.org/1999/xlink" x="0px" y="0px"
	 viewBox="0 0 20 20" style="enable-background:new 0 0 20 20;" xml:space="preserve">
<style type="text/css">
	.st0{fill:#C3C8CB;}
</style>
<path class="st0" d="M5.7,17l-0.3-0.2l-2.9,0.8l0.8-2.9L3,14.3C2.2,13,1.8,11.5,1.8,9.9c0-4.5,3.7-8.1,8.2-8.1
	c4.5,0,8.3,3.6,8.3,8.1c0,4.6-3.7,8.3-8.2,8.3C8.5,18.2,7,17.7,5.7,17z M6.7,5.3l0.7,0c0.1,0,0.2,0.1,0.3,0.2l1,2.2
	c0,0.1,0,0.2-0.1,0.3L7.7,9c-0.1,0.1-0.1,0.2,0,0.3c1.1,2.1,3,2.9,3.6,3.1c0.1,0,0.2,0,0.3-0.1l0.9-1.1c0.1-0.1,0.3-0.2,0.4-0.1
	l2.2,1c0.1,0.1,0.2,0.2,0.2,0.4L15,13c-0.1,0.5-0.4,1-0.9,1.3c-0.6,0.4-1.4,0.5-2.3,0.3c-3-0.9-4.7-2.8-5.6-4.1C5.3,9.2,4.9,8,5.2,7
	c0.1-0.7,0.7-1.2,1-1.5C6.3,5.4,6.5,5.3,6.7,5.3z"/>
</svg>
