<svg width="20" height="20" viewBox="0 0 20 20" fill="none" xmlns="http://www.w3.org/2000/svg">
<path d="M18.7017 9.93007C18.6025 9.47258 18.3824 9.08893 18.0422 8.77895C17.7017 8.46898 17.3099 8.28676 16.8662 8.23247C15.4592 8.07746 13.3372 8 10.5 8C7.6628 8 5.54457 8.0775 4.1451 8.23247C3.69404 8.28676 3.30023 8.46898 2.96363 8.77895C2.62712 9.08905 2.40534 9.47274 2.29823 9.93007C2.09944 10.8295 2 12.186 2 14C2 15.8449 2.09944 17.2016 2.29823 18.0699C2.39779 18.5271 2.61767 18.911 2.95797 19.2209C3.29826 19.531 3.69018 19.7092 4.13365 19.7558C5.54087 19.9186 7.66304 20 10.5001 20C13.3369 20 15.4594 19.9186 16.8661 19.7558C17.3098 19.7092 17.6997 19.531 18.0363 19.2209C18.3729 18.9111 18.5947 18.5271 18.7016 18.0699C18.9004 17.1705 19 15.814 19 14C19 12.155 18.9004 10.7983 18.7017 9.93007ZM6.85252 11.1047H5.62517V17.7209H4.47817V11.1047H3.27368V10.0117H6.85256V11.1047H6.85252ZM9.94952 17.7209H8.92864V17.0928C8.5157 17.5659 8.12555 17.8023 7.7585 17.8023C7.40679 17.8023 7.18498 17.6587 7.09333 17.372C7.03223 17.186 7.00149 16.9029 7.00149 16.5231V11.9767H8.02238V16.2092C8.02238 16.4572 8.02623 16.5929 8.03395 16.6162C8.05689 16.779 8.13712 16.8604 8.27485 16.8604C8.48127 16.8604 8.69935 16.6976 8.92868 16.372V11.9767H9.94956V17.7209H9.94952ZM13.8496 15.9999C13.8496 16.5657 13.8152 16.9536 13.7467 17.163C13.6164 17.5891 13.3451 17.8023 12.9322 17.8023C12.5651 17.8023 12.2096 17.5891 11.8653 17.163V17.721H10.8446V10.0117H11.8653V12.535C12.1943 12.1166 12.5497 11.9073 12.9322 11.9073C13.3451 11.9073 13.6164 12.1244 13.7467 12.5584C13.8152 12.7599 13.8496 13.1436 13.8496 13.7095V15.9999ZM17.7267 15.0465H15.6735V16.0582C15.6735 16.5931 15.8492 16.8604 16.2011 16.8604C16.4533 16.8604 16.6064 16.721 16.6599 16.4417C16.675 16.3642 16.6828 16.1278 16.6828 15.7325H17.7266V15.8836C17.7266 16.2636 17.7188 16.4883 17.7037 16.5582C17.6809 16.7673 17.6008 16.9766 17.4628 17.1859C17.1875 17.5968 16.7742 17.8023 16.2237 17.8023C15.6963 17.8023 15.2833 17.6045 14.985 17.2094C14.7633 16.9225 14.6525 16.4729 14.6525 15.8605V13.8487C14.6525 13.2363 14.7595 12.7867 14.9734 12.4998C15.2718 12.1046 15.6809 11.9069 16.2011 11.9069C16.7135 11.9069 17.1191 12.1046 17.4169 12.4998C17.6237 12.7867 17.7267 13.2363 17.7267 13.8487V15.0465Z" fill="#9A9A9A"/>
<path d="M12.5356 13C12.353 13 12.1746 13.0853 12 13.2552V16.745C12.1746 16.915 12.353 17 12.5356 17C12.8449 17 13 16.7412 13 16.2231V13.7769C13 13.2589 12.8452 13 12.5356 13Z" fill="#9A9A9A"/>
<path d="M16.5 13C16.1667 13 16 13.199 16 13.5964V14H17V13.5964C17 13.1987 16.8333 13 16.5 13Z" fill="#9A9A9A"/>
<path d="M6.45261 4.1686V7H7.60533V4.1686L9 0H7.82418L7.04046 2.74775L6.22189 0H5C5.21521 0.585126 5.46498 1.2363 5.74936 1.95375C6.11061 2.91487 6.34488 3.65329 6.45261 4.1686Z" fill="#9A9A9A"/>
<path d="M10.4944 8C11.0113 8 11.4082 7.80077 11.6854 7.40235C11.8952 7.11328 12 6.65231 12 6.01961V3.96878C12 3.34388 11.895 2.88672 11.6854 2.59765C11.4082 2.19923 11.0113 2 10.4944 2C9.99239 2 9.59907 2.19923 9.31453 2.59765C9.10488 2.88672 9 3.34388 9 3.96878V6.01956C9 6.64447 9.10476 7.10548 9.31453 7.40231C9.59919 7.80077 9.99235 8 10.4944 8ZM10.0112 3.75781C10.0112 3.21873 10.1722 2.94919 10.4944 2.94919C10.8166 2.94919 10.9775 3.21873 10.9775 3.75781V6.21863C10.9775 6.76567 10.8166 7.0389 10.4944 7.0389C10.1722 7.0389 10.0112 6.76551 10.0112 6.21863V3.75781Z" fill="#9A9A9A"/>
<path d="M13.7701 8C14.1534 8 14.5481 7.75492 14.9541 7.26469V7.91685H16V2H14.9541V6.51766C14.7242 6.85764 14.506 7.02746 14.2988 7.02746C14.1608 7.02746 14.0803 6.94053 14.0574 6.76664C14.0497 6.75082 14.0459 6.61235 14.0459 6.35158V2H13V6.67195C13 7.07501 13.0309 7.37134 13.092 7.56118C13.1917 7.85369 13.4177 8 13.7701 8Z" fill="#9A9A9A"/>
</svg>
