<?xml version="1.0" encoding="utf-8"?>
<!-- Generator: Adobe Illustrator 22.0.1, SVG Export Plug-In . SVG Version: 6.00 Build 0)  -->
<svg version="1.1" id="Слой_1" xmlns="http://www.w3.org/2000/svg" xmlns:xlink="http://www.w3.org/1999/xlink" x="0px" y="0px"
	 viewBox="0 0 20 20" style="enable-background:new 0 0 20 20;" xml:space="preserve">
<style type="text/css">
	.st0{fill:#C3C8CB;}
</style>
<path class="st0" d="M8.1,3.6C5.5,3.7,3.9,3.8,3.3,4C2.6,4.2,2.1,4.6,1.8,5.2C1.7,5.5,1.7,5.6,1.6,6C1.5,6.7,1.4,7.7,1.3,8.5
	c0,0.7,0,2.9,0,3.5c0.1,1.2,0.2,2.2,0.3,2.5c0.2,0.7,0.8,1.3,1.5,1.5c1.3,0.4,8.1,0.5,12,0.2c1.6-0.1,2-0.3,2.6-0.8
	c0.4-0.4,0.5-0.7,0.7-1.4c0.1-0.7,0.2-1.6,0.3-2.4c0-0.7,0-3.1,0-3.8c-0.1-0.6-0.2-1.5-0.2-1.9c-0.2-1-0.8-1.7-1.8-1.9
	c-0.4-0.1-1.1-0.2-1.9-0.2C13.2,3.6,10,3.6,8.1,3.6z M10.5,8.6c1.2,0.7,2.2,1.4,2.2,1.4c0,0-4.3,2.7-4.4,2.7c0,0,0-1,0-2.7
	c0-1.5,0-2.7,0-2.7S9.3,7.9,10.5,8.6z"/>
</svg>
